<svg xmlns="http://www.w3.org/2000/svg" xmlns:xlink="http://www.w3.org/1999/xlink" width="85" height="85" viewBox="0 0 85 85">
  <defs>
    <clipPath id="clip-path">
      <rect id="Rectángulo_376071" data-name="Rectángulo 376071" width="59.906" height="47.619" fill="#fff"/>
    </clipPath>
  </defs>
  <g id="Grupo_1017937" data-name="Grupo 1017937" transform="translate(-285 -2367.025)">
    <g id="Grupo_1017899" data-name="Grupo 1017899" transform="translate(0 -4331.975)">
      <path id="Trazado_605481" data-name="Trazado 605481" d="M42.5,0A42.5,42.5,0,1,1,0,42.5,42.5,42.5,0,0,1,42.5,0Z" transform="translate(285 6699)" fill="#005d95"/>
    </g>
    <g id="Grupo_1017909" data-name="Grupo 1017909" transform="translate(297.547 2385.715)">
      <g id="Grupo_1017908" data-name="Grupo 1017908" clip-path="url(#clip-path)">
        <path id="Trazado_719363" data-name="Trazado 719363" d="M2.084,36.106A6.932,6.932,0,0,1,8.189,34.6c.9.175.68-.545.683-.985.02-2.955.01-5.911.011-8.866,0-.311-.009-.624.018-.933.054-.615.345-1.062,1.014-1.044s.953.479.961,1.095c.019,1.633.015,3.266.016,4.9,0,2.372.011,4.744,0,7.116-.01,1.609-.6,1.939-2.021,1.17a4.591,4.591,0,0,0-6.442,1.991A4.543,4.543,0,0,0,5.014,45.26a6.032,6.032,0,0,0,2.189.229q11.141.009,22.281.007a7.882,7.882,0,0,1,1.278.062.968.968,0,0,1,.92,1.022.919.919,0,0,1-.872.933,8.013,8.013,0,0,1-1.275.1q-11.024.008-22.049.006c-2.632,0-4.915-.725-6.447-3.039A5.845,5.845,0,0,1,0,41.293c0-11.666-.018-23.332.02-35A5.949,5.949,0,0,1,3.584.818a6.4,6.4,0,0,1,6.555.355A1.641,1.641,0,0,1,10.9,2.763c-.014,2.411.029,4.823-.02,7.233-.019.929.326,1.207,1.224,1.205q16.216-.031,32.431,0c1,0,1.269-.376,1.246-1.309-.05-2.021-.029-4.044-.01-6.066A3.372,3.372,0,0,1,49.2.077a11.951,11.951,0,0,1,3.256.07,3.141,3.141,0,0,1,2.774,3.227c.032,2.216.038,4.433,0,6.649-.015.842.248,1.225,1.129,1.174a21.539,21.539,0,0,1,2.332.015A1.137,1.137,0,0,1,59.9,12.477c0,.311.006.622.006.933q0,16.1,0,32.2c0,1.753-.239,2-2.03,2q-11.024.012-22.048-.007c-.819,0-1.987.169-2.015-1.017-.031-1.309,1.181-1.089,2.034-1.091q10.208-.024,20.415-.01c1.636,0,1.641,0,1.641-1.584q0-14.524,0-29.048c0-1.422-.819-1.968-2.168-1.492-.489.173-.49.545-.491.937,0,1.478,0,2.955-.007,4.433-.005.735.1,1.648-1,1.607-1.021-.038-1-.918-1-1.667-.008-2.955-.04-5.911.015-8.866.019-1.021-.3-1.408-1.334-1.33a20.013,20.013,0,0,1-2.914,0c-.983-.069-1.261.322-1.255,1.275.035,5.755.017,11.51.017,17.265,0,2.061.025,4.122-.011,6.183-.014.8.272,1.134,1.082,1.107,1.088-.037,2.179-.043,3.266,0,.873.036,1.15-.34,1.141-1.179-.031-2.877-.012-5.755-.009-8.633a7.718,7.718,0,0,1,.037-1.048c.076-.549.358-.991.956-1a.946.946,0,0,1,.99,1.061c.021,1.672-.137,3.361.047,5.013a19.989,19.989,0,0,1-3.284,13.6c-.17.259-.273.56-.438.823-.613.972-1.452,1.029-1.976.039-1.255-2.37-2.43-4.783-3.629-7.182a3.461,3.461,0,0,1-.175-1.608c0-6.455-.028-12.911.021-19.365.009-1.164-.321-1.547-1.513-1.542q-15.982.06-31.965,0c-1.148,0-1.491.394-1.434,1.491.076,1.474.017,2.954.017,4.432,0,.7-.08,1.427-.967,1.443-.969.018-1.039-.75-1.04-1.491q0-7.583,0-15.166c0-1.371-.285-1.672-1.672-1.816a4.468,4.468,0,0,0-5.2,4.6q-.031,14.116-.007,28.231c0,.264.037.529.079,1.083M50.408,6.479c.66,0,1.321,0,1.981,0,.5.005.828-.166.835-.726.041-3.374.306-3.713-3.025-3.6-.311.011-.622.009-.932.008-.961,0-1.4.528-1.489,1.433-.292,2.889-.294,2.889,2.63,2.883M50.57,36.43c-2.314.007-2.218-.166-1.176,1.828.332.635.526,1.732,1.139,1.734.64,0,.771-1.109,1.11-1.735,1.078-1.99,1.05-1.809-1.074-1.827" transform="translate(0 0)" fill="#fff"/>
        <path id="Trazado_719364" data-name="Trazado 719364" d="M69.152,143.322q-6.645,0-13.291,0c-1.659,0-1.865-.218-1.872-1.9-.005-1.36.032-2.721-.01-4.08-.034-1.1.5-1.572,1.537-1.578,1.477-.009,2.954-.032,4.43,0,.8.016,1.129-.3,1.1-1.1-.034-1.009-.023-2.021,0-3.031.032-1.31.39-1.7,1.659-1.712,1.982-.026,3.964,0,5.946-.011,1.038-.007,1.65.412,1.58,1.519-.048.766.287,1.028,1.032,1.011,1.515-.035,3.031-.02,4.546,0,1.268.013,1.564.318,1.618,1.583.074,1.737.074,1.737,1.848,1.74,1.243,0,2.487,0,3.73.013.978.014,1.5.459,1.481,1.51-.034,1.515.009,3.031-.014,4.546-.019,1.224-.321,1.492-1.684,1.495q-6.82.014-13.64,0m-.923-6.611c0-1.281-.021-2.563.008-3.843.016-.7-.268-.981-.965-.961-1.047.03-2.1.028-3.144,0-.713-.018-.959.323-.955.992q.02,3.727,0,7.454c0,.692.3.979.987.961,1.009-.026,2.02-.042,3.027.006.843.041,1.078-.345,1.051-1.118-.039-1.163-.01-2.329-.012-3.493m2.013,1.108c0,.813.037,1.629-.01,2.44-.048.828.316,1.1,1.1,1.063.966-.042,1.937-.035,2.9,0,.725.024,1.076-.241,1.065-1q-.034-2.44,0-4.881c.01-.759-.344-1.029-1.066-1.009-1.006.028-2.015.025-3.021,0-.679-.016-1,.242-.977.952.03.812.007,1.627,0,2.44m-11.771,3.494v-.007c.581,0,1.163,0,1.744,0a.712.712,0,0,0,.813-.634c.472-2.192.015-2.789-2.187-2.788-.659,0-1.318.007-1.977.008-.561,0-.812.253-.873.838-.259,2.456-.164,2.583,2.247,2.583h.233m21.389,0c.5,0,1.01-.029,1.511.007.776.055,1.1-.221,1.122-1.051.056-2.384.088-2.383-2.256-2.384H79.191c-1.756,0-1.756,0-1.757,1.716s0,1.71,1.729,1.712h.7" transform="translate(-41.383 -99.593)" fill="#fff"/>
        <path id="Trazado_719365" data-name="Trazado 719365" d="M58.03,73.133c0-1.476.029-2.953-.01-4.428-.028-1.063.421-1.628,1.488-1.632q4.545-.015,9.09,0A1.319,1.319,0,0,1,70.074,68.6q-.032,4.545,0,9.09A1.318,1.318,0,0,1,68.587,79.2q-4.545.018-9.09,0a1.312,1.312,0,0,1-1.474-1.525c.029-1.514.007-3.03.007-4.545m2.012-.109c0,1.047.014,2.095-.005,3.142-.011.637.267.92.9.917,2.094-.01,4.189-.006,6.283,0,.58,0,.838-.277.836-.859q-.015-3.083,0-6.167c0-.585-.263-.855-.84-.855-2.094,0-4.189.006-6.283,0-.639,0-.91.287-.9.921.019.969.005,1.939.005,2.909" transform="translate(-44.481 -51.416)" fill="#fff"/>
        <path id="Trazado_719366" data-name="Trazado 719366" d="M214.148,58.594V67.2c0,.679.007,1.447-.89,1.494-.933.049-1.108-.686-1.108-1.443q-.005-8.669,0-17.337c0-.706.156-1.424,1-1.442.98-.021.995.784.995,1.508q0,4.306,0,8.611" transform="translate(-162.645 -37.164)" fill="#fff"/>
        <path id="Trazado_719367" data-name="Trazado 719367" d="M128.451,72.828q-2.733,0-5.466,0c-.718,0-1.415-.146-1.4-1.014s.73-.989,1.437-.99q5.408,0,10.817,0c.7,0,1.43.115,1.451.973.023.955-.753,1.032-1.492,1.032h-5.35" transform="translate(-93.217 -54.297)" fill="#fff"/>
        <path id="Trazado_719368" data-name="Trazado 719368" d="M128.548,88.8q2.675,0,5.35,0c.712,0,1.414.144,1.4,1.014s-.722.988-1.43.988q-5.408,0-10.817,0c-.7,0-1.435-.1-1.459-.959-.026-.944.741-1.045,1.487-1.045h5.466" transform="translate(-93.221 -68.078)" fill="#fff"/>
        <path id="Trazado_719369" data-name="Trazado 719369" d="M125.986,106.783c1.05,0,2.1,0,3.149,0,.65,0,1.216.228,1.237.946.023.793-.58,1.039-1.268,1.043q-3.149.017-6.3,0c-.644,0-1.214-.245-1.236-.96-.025-.8.57-1.028,1.267-1.031,1.05,0,2.1,0,3.149,0" transform="translate(-93.202 -81.865)" fill="#fff"/>
        <path id="Trazado_719370" data-name="Trazado 719370" d="M73.1,87.606a4,4,0,0,1-2.412-2.379.941.941,0,0,1,1.586-.7c.766.7,1.174.347,1.693-.219a12.1,12.1,0,0,1,1.352-1.263.861.861,0,0,1,1.171.055.83.83,0,0,1,.227,1.146,17.232,17.232,0,0,1-3.258,3.264.847.847,0,0,1-.358.1" transform="translate(-54.193 -63.508)" fill="#fff"/>
      </g>
    </g>
  </g>
</svg>
