<svg xmlns="http://www.w3.org/2000/svg" xmlns:xlink="http://www.w3.org/1999/xlink" width="85" height="85" viewBox="0 0 85 85">
  <defs>
    <clipPath id="clip-path">
      <rect id="Rectángulo_376070" data-name="Rectángulo 376070" width="53.335" height="60.962" fill="#fff"/>
    </clipPath>
  </defs>
  <g id="Grupo_1017936" data-name="Grupo 1017936" transform="translate(-285 -2231.257)">
    <g id="Grupo_1017895" data-name="Grupo 1017895" transform="translate(0 -4583.743)">
      <circle id="Elipse_4875" data-name="Elipse 4875" cx="42.5" cy="42.5" r="42.5" transform="translate(285 6815)" fill="#005d95"/>
    </g>
    <g id="Grupo_1017907" data-name="Grupo 1017907" transform="translate(304.118 2243.275)">
      <g id="Grupo_1017906" data-name="Grupo 1017906" clip-path="url(#clip-path)">
        <path id="Trazado_719357" data-name="Trazado 719357" d="M0,27.033Q0,16.412,0,5.792C.007,2.057,2.065.007,5.811,0Q19.755,0,33.7.006c3.132,0,5.037,1.571,5.6,4.661.123.673.43.81,1.022.846,3.633.223,4.908,1.591,4.909,5.232,0,6.171.017,12.342-.017,18.512a1.876,1.876,0,0,0,1.057,1.9A24.991,24.991,0,0,1,52.022,35.7a3.937,3.937,0,0,1,.056,5.819,24.237,24.237,0,0,1-5.74,4.557,1.95,1.95,0,0,0-1.124,1.989c.053,2.728.028,5.459.015,8.188-.015,3.119-1.572,4.686-4.654,4.688-7.4,0-14.794-.027-22.191.018a7.869,7.869,0,0,1-5.855-2.394c-1.32-1.308-2.7-2.554-4.022-3.862a2.073,2.073,0,0,0-1.692-.666,15.818,15.818,0,0,1-1.661-.005A5.207,5.207,0,0,1,.013,48.75C-.011,41.511,0,34.272,0,27.033m2.546-.078q0,10.325,0,20.649A5.6,5.6,0,0,0,2.784,49.6,2.508,2.508,0,0,0,5.1,51.333c.748.066.972-.169.844-.938-.445-2.67-.151-5.366-.182-8.05a1.281,1.281,0,0,1,1.355-1.469c.941.018,1.259.687,1.317,1.522.019.276.013.554.013.83,0,1.464,0,2.927,0,4.391,0,1.544.007,1.546,1.6,1.549,1.424,0,2.848-.017,4.272.007a3.335,3.335,0,0,1,3.631,3.621c.022,1.542.025,3.086,0,4.628-.011.707.262.984.979.982,7.239-.015,14.478,0,21.717-.019,1.32,0,1.853-.58,1.862-1.908.017-2.413-.029-4.827.022-7.239.022-1.019-.325-1.116-1.192-.805a23.945,23.945,0,0,1-11.8,1.1,26.042,26.042,0,0,1-15.068-7.892,3.946,3.946,0,0,1-.169-5.835,25.6,25.6,0,0,1,27.035-6.949c1.033.364,1.2.07,1.194-.893-.03-5.855-.012-11.709-.017-17.564,0-1.845-.348-2.18-2.25-2.18q-14.775,0-29.55,0c-1.986,0-2.268.285-2.269,2.266q0,10.5,0,21.005c0,1.667-.389,2.347-1.333,2.363s-1.378-.678-1.378-2.317q0-10.384,0-20.768c0-3.8,1.447-5.262,5.221-5.263Q23.12,5.5,35.284,5.5c.445,0,1.03.185,1.252-.4a1.467,1.467,0,0,0-.368-1.433A3.529,3.529,0,0,0,33.062,2.55q-13.291,0-26.583,0c-3.048,0-3.928.9-3.929,3.992q0,10.206,0,20.412M33.2,47.1a8.526,8.526,0,0,0,8.578-8.445,8.7,8.7,0,0,0-8.532-8.568,8.573,8.573,0,0,0-8.534,8.525A8.419,8.419,0,0,0,33.2,47.1M23.838,32.2a25.208,25.208,0,0,0-7.3,5.112c-.994.986-.962,1.606.013,2.626a24.947,24.947,0,0,0,6.664,4.878c.178.092.393.3.629.071-2.352-5.166-2.356-5.816,0-12.687m18.554-.083a11.873,11.873,0,0,1-.006,13.081,23.8,23.8,0,0,0,7.829-5.636,1.351,1.351,0,0,0-.106-2.018,24.548,24.548,0,0,0-7.717-5.427M15.221,57.451c0-1.807.013-3.322-.008-4.837a.7.7,0,0,0-.784-.709c-1.378-.013-2.756-.025-4.133-.005-.583.009-.578.318-.221.659,1.637,1.567,3.283,3.123,5.146,4.892" transform="translate(0 0)" fill="#fff"/>
        <path id="Trazado_719358" data-name="Trazado 719358" d="M65.894,54.558H56.65q-.474,0-.948,0c-.866-.009-1.5-.348-1.485-1.3s.692-1.244,1.543-1.241c.158,0,.316,0,.474,0H75.551c.237,0,.475,0,.711.013.776.046,1.295.414,1.306,1.231.012.882-.534,1.26-1.364,1.293-.315.012-.632.01-.948.01H65.894" transform="translate(-41.346 -39.664)" fill="#fff"/>
        <path id="Trazado_719359" data-name="Trazado 719359" d="M62.982,81.872c-2.215,0-4.43.007-6.645-.006a4.7,4.7,0,0,1-1.286-.146,1.172,1.172,0,0,1-.875-1.26,1.156,1.156,0,0,1,.869-1.147,4.777,4.777,0,0,1,1.285-.147q6.645-.015,13.291-.005c.2,0,.4,0,.593.01.888.06,1.6.417,1.569,1.4-.03.91-.726,1.274-1.563,1.285-1.9.025-3.8.013-5.7.016-.514,0-1.029,0-1.543,0" transform="translate(-41.315 -60.368)" fill="#fff"/>
        <path id="Trazado_719360" data-name="Trazado 719360" d="M58.753,109.558c-1.064,0-2.128.015-3.191-.006-.828-.016-1.373-.422-1.359-1.294a1.176,1.176,0,0,1,1.31-1.22q3.132-.032,6.264,0c.83.006,1.382.429,1.361,1.293s-.611,1.224-1.43,1.231c-.985.008-1.97,0-2.955,0" transform="translate(-41.336 -81.616)" fill="#fff"/>
        <path id="Trazado_719361" data-name="Trazado 719361" d="M25.7,154.66a1.19,1.19,0,0,1-1.212-1.3,1.278,1.278,0,0,1,2.554.091,1.232,1.232,0,0,1-1.341,1.21" transform="translate(-18.676 -116.042)" fill="#fff"/>
        <path id="Trazado_719362" data-name="Trazado 719362" d="M126.343,143.231a6.128,6.128,0,0,1-6.163,6.06,6.215,6.215,0,0,1-6.09-6.165,6.126,6.126,0,1,1,12.252.1m-6.143,3.345a3.422,3.422,0,1,0-3.4-3.462,3.341,3.341,0,0,0,3.4,3.462" transform="translate(-87.008 -104.508)" fill="#fff"/>
      </g>
    </g>
  </g>
</svg>
