<svg xmlns="http://www.w3.org/2000/svg" xmlns:xlink="http://www.w3.org/1999/xlink" width="85" height="85" viewBox="0 0 85 85">
  <defs>
    <clipPath id="clip-path">
      <rect id="Rectángulo_375704" data-name="Rectángulo 375704" width="55.619" height="55.614" fill="#fff"/>
    </clipPath>
  </defs>
  <g id="Grupo_1017922" data-name="Grupo 1017922" transform="translate(-285 -2322.025)">
    <g id="Grupo_1013928" data-name="Grupo 1013928" transform="translate(0 -4252.975)">
      <circle id="Elipse_4873" data-name="Elipse 4873" cx="42.5" cy="42.5" r="42.5" transform="translate(285 6575)" fill="#005d95"/>
    </g>
    <g id="Grupo_1017551" data-name="Grupo 1017551" transform="translate(305 2335.181)">
      <g id="Grupo_1017550" data-name="Grupo 1017550" clip-path="url(#clip-path)">
        <path id="Trazado_718801" data-name="Trazado 718801" d="M38,10.823Q40.4,8.409,42.788,6c1.445-1.452,2.886-2.908,4.347-4.343a4.93,4.93,0,0,1,7.09-.281,4.91,4.91,0,0,1-.249,7.089q-7.645,7.683-15.335,15.32a2.889,2.889,0,0,0-.942,2.251c.031,9.348.02,18.7.018,28.046,0,1.53-.006,1.535-1.54,1.535q-17.319,0-34.638,0C.006,55.612,0,55.607,0,54.074Q0,31.392,0,8.709C0,7.173.006,7.168,1.535,7.168q17.319,0,34.638,0c1.537,0,1.538.005,1.543,1.532,0,.662,0,1.324,0,1.986l.286.137m-19.082-1.7c-5.253,0-10.506.017-15.759-.017-.9-.006-1.229.246-1.228,1.193q.039,21.068,0,42.136c0,1.007.332,1.251,1.289,1.249q15.647-.044,31.294,0c.981,0,1.274-.285,1.27-1.268-.035-8.159-.015-16.318-.035-24.476,0-.321.3-.967-.381-.915-.5.039-1.163.155-1.214.915-.02.3-.014.6-.014.894,0,3.129-.039,6.26.02,9.388.02,1.048-.349,1.359-1.352,1.318-1.6-.065-3.2-.021-4.805-.013-.324,0-.686-.076-.917.264a5,5,0,0,0,.532,3.644,2.814,2.814,0,0,1,.4,4.211,2.751,2.751,0,0,1-4.206-.288,1.693,1.693,0,0,0-1.523-.69c-2.384.021-4.768.008-7.153.008-2.4,0-2.443,0-2.437,2.39,0,.941-.337,1.22-1.24,1.2-2.234-.047-4.471-.052-6.705,0-.953.023-1.211-.352-1.193-1.246.046-2.234.041-4.471,0-6.706C3.55,41.469,3.8,41.13,4.7,41.125c2.451-.013,2.451-.051,2.451-2.489,0-2.554,0-2.577-2.6-2.683-.715-.029-.99-.279-.983-.993q.036-3.576,0-7.153c-.007-.727.292-.953,1-.98,2.587-.1,2.586-.121,2.586-2.7,0-2.42,0-2.446-2.464-2.48-.8-.011-1.138-.24-1.124-1.085q.058-3.464,0-6.929c-.013-.807.255-1.134,1.09-1.116,1.862.041,3.725.011,5.588.011,2.4,0,2.4,0,2.437,2.429,0,.112.008.224,0,.335-.03.558.223.773.789.821,2.58.218,2.578.233,2.623-2.345a1.82,1.82,0,0,0,0-.224c-.084-.791.3-1.033,1.054-1.024,2.347.028,4.694.032,7.041,0,.8-.011,1.024.333,1.016,1.073-.027,2.31-.043,4.62.007,6.929.02.921-.374,1.141-1.2,1.123-1.75-.039-3.5-.011-5.253-.011-2.592,0-2.592,0-2.668-2.534,0-.074-.006-.149,0-.223.031-.553-.211-.778-.782-.828-2.58-.224-2.587-.233-2.629,2.339a1.862,1.862,0,0,0,0,.223c.083.784-.293,1.016-1.046,1.035C9.1,21.713,9.1,21.737,9.1,24.29c0,2.49,0,2.533,2.41,2.528.965,0,1.207.379,1.18,1.261-.049,1.638.014,3.279-.024,4.917-.021.918.379,2.023-.224,2.7-.553.624-1.627.208-2.468.228-.706.017-.9.333-.88.969.026,1.08.043,2.162-.005,3.241-.036.8.3,1.011,1.056,1.021,2.448.033,2.476.057,2.516,2.544.013.782.281,1.038,1.049,1.03,2.905-.031,5.812-.012,8.718-.013a1.636,1.636,0,0,0,1.117-.362,3.955,3.955,0,0,0,1.514-3.892c-.089-.724-.315-.967-1.019-.954-1.676.03-3.354-.031-5.029.023-.9.029-1.152-.325-1.145-1.177q.046-6.091,0-12.182c-.008-.906.344-1.15,1.187-1.136,2.309.038,4.62-.02,6.929.029.819.017,1.268-.265,1.419-1.054A12.105,12.105,0,0,1,31.863,16.9c.741-.618,1.316-1.441,2.077-2.027a4.635,4.635,0,0,0,1.87-4.457C35.721,9.4,35.481,9.088,34.456,9.1c-5.178.046-10.357.021-15.535.021M25.95,37.567c1.75,0,3.5-.021,5.251.01.707.012,1.005-.22,1-.962-.029-2.532,0-5.065-.017-7.6,0-.367.136-.959-.578-.744-.351.106-1.173,0-.6.848.251.372-.1.623-.326.851-1.944,1.954-3.9,3.895-5.839,5.854-.432.437-.786.461-1.218.008-.694-.728-1.393-1.454-2.138-2.128-.6-.547-.63-.96-.023-1.552.574-.561.986-.534,1.467.043.19.228.437.408.627.637.481.578.9.48,1.38-.028.9-.945,1.811-1.878,2.767-2.762.754-.7,1.391-1.3-.061-1.9a.841.841,0,0,1-.362-.414,1.274,1.274,0,0,0-1.361-.732c-1.676.032-3.353.036-5.028,0-.747-.016-1.075.2-1.066,1.009.034,2.867.029,5.736,0,8.6-.007.73.267.987.986.973,1.713-.033,3.426-.011,5.14-.01M50.762,2c-.116.024-.263.047-.405.085-1.749.459-2.6,2.005-3.785,3.147-.224.216-.03.494.16.686.967.976,1.943,1.942,2.909,2.92a.637.637,0,0,0,1.048-.019c.751-.771,1.555-1.5,2.255-2.31A2.536,2.536,0,0,0,53.3,3.6,2.84,2.84,0,0,0,50.762,2M5.528,16.995c0,2.69,0,2.69,2.707,2.69,2.495,0,2.495,0,2.495-2.567,0-2.634,0-2.634-2.651-2.634-2.55,0-2.55,0-2.551,2.512m17.719.2c0-2.709,0-2.709-2.687-2.709h-.112c-2.4,0-2.4,0-2.4,2.436,0,2.765,0,2.765,2.743,2.765,2.458,0,2.458,0,2.458-2.492M10.729,31.466c0-2.676,0-2.676-2.609-2.676-2.593,0-2.593,0-2.593,2.581,0,2.62,0,2.62,2.665,2.62,2.537,0,2.537,0,2.537-2.525M8.2,43.1c-2.667,0-2.667,0-2.667,2.618v.112c0,2.472,0,2.472,2.478,2.472,2.723,0,2.723,0,2.723-2.673,0-2.528,0-2.528-2.534-2.528M43.1,10.9a1.4,1.4,0,0,0-.76-.976c-.439-.258-.682.138-.931.386q-4.814,4.8-9.62,9.6c-.454.452-.694.82-.115,1.38.535.517.881.3,1.3-.119q4.835-4.855,9.683-9.7A5.248,5.248,0,0,0,43.1,10.9M34.9,24.32c.346,0,.534-.251.74-.456q4.849-4.841,9.7-9.684c.451-.449.549-.8.051-1.3-.521-.52-.876-.329-1.3.1-1.354,1.377-2.728,2.735-4.093,4.1q-2.8,2.8-5.59,5.6c-.251.252-.621.5-.332.94a1.549,1.549,0,0,0,.827.7M44.8,7.165c-.376.023-.587.348-.83.618a.518.518,0,0,0,.054.787q1.525,1.532,3.061,3.053a.511.511,0,0,0,.786,0c.258-.25.615-.45.567-.89A22.009,22.009,0,0,0,44.8,7.165M29.881,26.629c.846-.329,2.286-.283,2.717-1.123.321-.625-1.073-1.289-1.632-2a4.842,4.842,0,0,0-.393-.391c-.363-.365-.627-.33-.791.184-.269.845-.56,1.683-.815,2.532-.2.672.14.882.915.794" transform="translate(0 0)" fill="#fff"/>
      </g>
    </g>
  </g>
</svg>
