<svg xmlns="http://www.w3.org/2000/svg" xmlns:xlink="http://www.w3.org/1999/xlink" width="294.813" height="230.769" viewBox="0 0 294.813 230.769">
  <defs>
    <clipPath id="clip-path">
      <rect id="Rectángulo_376048" data-name="Rectángulo 376048" width="240.952" height="208.587" fill="none"/>
    </clipPath>
    <clipPath id="clip-path-3">
      <rect id="Rectángulo_376026" data-name="Rectángulo 376026" width="35.899" height="0.756" fill="none"/>
    </clipPath>
    <clipPath id="clip-path-4">
      <rect id="Rectángulo_376034" data-name="Rectángulo 376034" width="68.882" height="45.755" fill="none"/>
    </clipPath>
    <clipPath id="clip-path-5">
      <rect id="Rectángulo_376038" data-name="Rectángulo 376038" width="35.9" height="0.756" fill="none"/>
    </clipPath>
    <clipPath id="clip-path-6">
      <rect id="Rectángulo_376045" data-name="Rectángulo 376045" width="89.315" height="74.978" fill="none"/>
    </clipPath>
  </defs>
  <g id="Grupo_1017926" data-name="Grupo 1017926" transform="translate(-390 -3166.07)">
    <g id="Grupo_1017718" data-name="Grupo 1017718" transform="translate(-420 -10208.93)">
      <rect id="equipo-negocios-feliz-cooperando-mientras-analiza-progreso-su-negocio-pizarra-oficina_1_" data-name="equipo-negocios-feliz-cooperando-mientras-analiza-progreso-su-negocio-pizarra-oficina (1)" width="294.813" height="230.769" rx="10" transform="translate(810 13375)" fill="#01d8d1"/>
      <path id="Sustracción_98" data-name="Sustracción 98" d="M3.812,0C2.534,0,1.253.033,0,.1V24.558c1.264-.1,2.546-.148,3.812-.148A48.8,48.8,0,0,1,52.573,73.146,49.233,49.233,0,0,1,52.093,80H76.679c.211-2.271.318-4.578.318-6.856A73.737,73.737,0,0,0,75.511,58.4a72.745,72.745,0,0,0-4.266-13.73A73.136,73.136,0,0,0,64.5,32.249,73.578,73.578,0,0,0,44.729,12.491,73.135,73.135,0,0,0,32.3,5.749,72.9,72.9,0,0,0,18.56,1.485,73.764,73.764,0,0,0,3.812,0Z" transform="translate(1104.81 13455.002) rotate(180)" fill="#01d8d1" opacity="0.4"/>
      <g id="Grupo_1014907" data-name="Grupo 1014907" transform="translate(1080.813 13384)">
        <circle id="Elipse_4752" data-name="Elipse 4752" cx="2" cy="2" r="2" fill="#01d8d1"/>
        <circle id="Elipse_4757" data-name="Elipse 4757" cx="2" cy="2" r="2" transform="translate(0 7)" fill="#01d8d1"/>
        <circle id="Elipse_4760" data-name="Elipse 4760" cx="2" cy="2" r="2" transform="translate(0 14)" fill="#01d8d1"/>
        <circle id="Elipse_4753" data-name="Elipse 4753" cx="2" cy="2" r="2" transform="translate(7)" fill="#01d8d1"/>
        <circle id="Elipse_4756" data-name="Elipse 4756" cx="2" cy="2" r="2" transform="translate(7 7)" fill="#01d8d1"/>
        <circle id="Elipse_4759" data-name="Elipse 4759" cx="2" cy="2" r="2" transform="translate(7 14)" fill="#01d8d1"/>
        <circle id="Elipse_4754" data-name="Elipse 4754" cx="2" cy="2" r="2" transform="translate(14)" fill="#01d8d1"/>
        <circle id="Elipse_4755" data-name="Elipse 4755" cx="2" cy="2" r="2" transform="translate(14 7)" fill="#01d8d1"/>
        <circle id="Elipse_4758" data-name="Elipse 4758" cx="2" cy="2" r="2" transform="translate(14 14)" fill="#01d8d1"/>
      </g>
    </g>
    <g id="Grupo_1017853" data-name="Grupo 1017853" transform="translate(413.715 3185.238)">
      <g id="Grupo_1017852" data-name="Grupo 1017852" clip-path="url(#clip-path)">
        <g id="Grupo_1017851" data-name="Grupo 1017851">
          <g id="Grupo_1017850" data-name="Grupo 1017850" clip-path="url(#clip-path)">
            <path id="Trazado_719121" data-name="Trazado 719121" d="M28.554,209.779c2.226-6.811,8.635-11.293,14.905-14.761s13.071-6.652,17.307-12.432a21.63,21.63,0,0,0-.964-26.027c-2.436-2.855-5.581-5-8.634-7.178-10.732-7.672-21.141-16.727-26.378-28.835s-3.913-27.9,6.177-36.4A68.334,68.334,0,0,1,42.322,76.85c4.54-2.455,7.29-3.712,8.108-8.959.852-5.458.023-10.809-.348-16.27-.738-10.844-.436-22.56,5.59-32.022C61.686,10.157,72.818,4.732,83.93,4.454,94,4.2,102.717,9.066,110.9,14.4c7.8,5.091,15.94,11.247,25.832,9.444,13.087-2.386,22.414-13.362,35.07-16.975A41.847,41.847,0,0,1,202.7,10.133c9.76,5.241,13.558,16.188,12.067,26.847C212.812,51,197.762,65.252,206.9,79.754c4.219,6.692,13,8.7,19.013,13.845,5.681,4.861,8.607,12.513,8.477,19.989s-3.108,14.731-7.573,20.729c-3.814,5.123-8.682,9.409-12.327,14.653s-6.008,11.995-3.921,18.031c2.8,8.108,12.034,11.632,18.6,17.152a32.847,32.847,0,0,1,11.542,24.978Z" transform="translate(-10.877 -2.219)" fill="#36bfbb"/>
            <path id="Trazado_719126" data-name="Trazado 719126" d="M388.638,146.336a18.242,18.242,0,0,1-2.87-8.556,18.28,18.28,0,0,0,2.87,11.393c4.218,6.692,13,8.7,19.012,13.846a25.568,25.568,0,0,1,8.438,18.111c.016-.319.034-.639.04-.959.13-7.476-2.8-15.128-8.477-19.989-6.011-5.142-14.794-7.154-19.012-13.845" transform="translate(-192.611 -68.801)" fill="#9ae2d4"/>
            <rect id="Rectángulo_376024" data-name="Rectángulo 376024" width="35.899" height="3.849" transform="translate(49.155 183.808)" fill="#ff9994"/>
            <g id="Grupo_1017840" data-name="Grupo 1017840" transform="translate(49.155 183.808)" opacity="0.5">
              <g id="Grupo_1017839" data-name="Grupo 1017839">
                <g id="Grupo_1017838" data-name="Grupo 1017838" clip-path="url(#clip-path-3)">
                  <rect id="Rectángulo_376025" data-name="Rectángulo 376025" width="35.899" height="0.756" transform="translate(0)" fill="#fff"/>
                </g>
              </g>
            </g>
            <rect id="Rectángulo_376027" data-name="Rectángulo 376027" width="24.909" height="2.671" transform="translate(54.65 197.016)" fill="#ff9994"/>
            <rect id="Rectángulo_376028" data-name="Rectángulo 376028" width="24.909" height="0.638" transform="translate(54.65 199.049)" fill="#e58c88"/>
            <rect id="Rectángulo_376029" data-name="Rectángulo 376029" width="3.649" height="17.54" transform="translate(52.459 187.657)" fill="#ff9994"/>
            <rect id="Rectángulo_376030" data-name="Rectángulo 376030" width="3.649" height="0.955" transform="translate(52.459 187.658)" fill="#e58c88"/>
            <rect id="Rectángulo_376031" data-name="Rectángulo 376031" width="3.649" height="17.54" transform="translate(78.1 187.657)" fill="#ff9994"/>
            <rect id="Rectángulo_376032" data-name="Rectángulo 376032" width="3.649" height="0.955" transform="translate(78.1 187.658)" fill="#e58c88"/>
            <path id="Trazado_719127" data-name="Trazado 719127" d="M17.922,110.089A12.733,12.733,0,0,1,13.635,124.1a12.733,12.733,0,0,1,14.013,4.288,12.732,12.732,0,0,1,4.287-14.013,12.733,12.733,0,0,1-14.013-4.287" transform="translate(-6.809 -54.974)" fill="#81c539"/>
            <path id="Trazado_719128" data-name="Trazado 719128" d="M25.883,77.315a8.444,8.444,0,0,1-2.844,9.294,8.445,8.445,0,0,1,9.294,2.844,8.445,8.445,0,0,1,2.843-9.294,8.445,8.445,0,0,1-9.294-2.844" transform="translate(-11.505 -38.608)" fill="#fff8b4"/>
            <path id="Trazado_719129" data-name="Trazado 719129" d="M54.543,97.136a6.48,6.48,0,0,1-2.181,7.131,6.479,6.479,0,0,1,7.131,2.182,6.479,6.479,0,0,1,2.181-7.131,6.479,6.479,0,0,1-7.131-2.182" transform="translate(-26.147 -48.506)" fill="#fff8b4"/>
            <path id="Trazado_719130" data-name="Trazado 719130" d="M430.147,107.047a12.734,12.734,0,0,1-12.934,6.89,12.732,12.732,0,0,1,6.889,12.934,12.734,12.734,0,0,1,12.935-6.89,12.734,12.734,0,0,1-6.89-12.934" transform="translate(-208.339 -53.455)" fill="#81c539"/>
            <path id="Trazado_719131" data-name="Trazado 719131" d="M426.918,85.087a7.1,7.1,0,0,1-7.209,3.84,7.1,7.1,0,0,1,3.84,7.209,7.1,7.1,0,0,1,7.209-3.84,7.1,7.1,0,0,1-3.84-7.209" transform="translate(-209.585 -42.489)" fill="#fff8b4"/>
            <path id="Trazado_719132" data-name="Trazado 719132" d="M464.125,113.447a7.1,7.1,0,0,1-7.209,3.84,7.1,7.1,0,0,1,3.84,7.209,7.1,7.1,0,0,1,7.209-3.84,7.1,7.1,0,0,1-3.84-7.209" transform="translate(-228.164 -56.651)" fill="#fff8b4"/>
            <path id="Trazado_719133" data-name="Trazado 719133" d="M465.457,289.908a8.045,8.045,0,0,0,3.682,8.5,8.044,8.044,0,0,0-8.5,3.682,8.044,8.044,0,0,0-3.682-8.5,8.045,8.045,0,0,0,8.5-3.682" transform="translate(-228.187 -144.768)" fill="#81c539"/>
            <path id="Trazado_719134" data-name="Trazado 719134" d="M450.984,282a4.275,4.275,0,0,0,1.957,4.515,4.276,4.276,0,0,0-4.515,1.957,4.277,4.277,0,0,0-1.957-4.515A4.275,4.275,0,0,0,450.984,282" transform="translate(-222.948 -140.819)" fill="#fff8b4"/>
            <path id="Trazado_719135" data-name="Trazado 719135" d="M452.434,306.475a4.274,4.274,0,0,0,1.957,4.515,4.276,4.276,0,0,0-4.515,1.957,4.275,4.275,0,0,0-1.958-4.515,4.277,4.277,0,0,0,4.516-1.957" transform="translate(-223.671 -153.041)" fill="#fff8b4"/>
            <path id="Trazado_719136" data-name="Trazado 719136" d="M246.378,7.908a8.044,8.044,0,0,0,3.682,8.5,8.045,8.045,0,0,0-8.5,3.682,8.044,8.044,0,0,0-3.682-8.495,8.046,8.046,0,0,0,8.5-3.682" transform="translate(-118.788 -3.949)" fill="#81c539"/>
            <path id="Trazado_719137" data-name="Trazado 719137" d="M231.9,0a4.275,4.275,0,0,0,1.957,4.515,4.277,4.277,0,0,0-4.515,1.957,4.275,4.275,0,0,0-1.957-4.515A4.276,4.276,0,0,0,231.9,0" transform="translate(-113.548)" fill="#fff8b4"/>
            <path id="Trazado_719138" data-name="Trazado 719138" d="M233.355,24.475a4.275,4.275,0,0,0,1.957,4.515,4.277,4.277,0,0,0-4.515,1.957,4.275,4.275,0,0,0-1.957-4.515,4.275,4.275,0,0,0,4.515-1.957" transform="translate(-114.273 -12.222)" fill="#fff8b4"/>
            <path id="Trazado_719139" data-name="Trazado 719139" d="M284.984,279.818v.666a7.618,7.618,0,0,1,2.3,5.395c0,4.45-3.981,8.058-8.89,8.058s-8.89-3.608-8.89-8.058a7.618,7.618,0,0,1,2.3-5.395v-.666a4.066,4.066,0,0,0-4.065-4.066H244.822v22.916a4.066,4.066,0,0,1-4.066,4.066h-.666a7.618,7.618,0,0,0-5.395-2.3c-4.45,0-8.058,3.98-8.058,8.89s3.608,8.89,8.058,8.89a7.619,7.619,0,0,0,5.395-2.3h.666a4.066,4.066,0,0,1,4.066,4.066V342.9H301.69a10.275,10.275,0,0,0,10.275-10.255V275.752H289.05a4.066,4.066,0,0,0-4.066,4.066" transform="translate(-113.173 -137.699)" fill="#ffee58"/>
            <path id="Trazado_719140" data-name="Trazado 719140" d="M191.923,297.776h-.666a7.618,7.618,0,0,1-5.395,2.3c-4.45,0-8.058-3.981-8.058-8.89s3.608-8.89,8.058-8.89a7.618,7.618,0,0,1,5.395,2.3h.666a4.065,4.065,0,0,0,4.066-4.065V257.614H173.072a4.066,4.066,0,0,1-4.066-4.066v-.666a7.619,7.619,0,0,0,2.3-5.395c0-4.45-3.98-8.058-8.89-8.058s-8.89,3.608-8.89,8.058a7.619,7.619,0,0,0,2.3,5.395v.666a4.066,4.066,0,0,1-4.066,4.066H128.845v56.868A10.275,10.275,0,0,0,139.1,324.757h56.889V301.842a4.066,4.066,0,0,0-4.066-4.066" transform="translate(-64.34 -119.561)" fill="#005d95"/>
            <path id="Trazado_719141" data-name="Trazado 719141" d="M312.314,288.143a7.708,7.708,0,0,1,2.246-4.539v-.666a4.047,4.047,0,0,0-.113-.938,7.592,7.592,0,0,0-2.187,5.271,7.386,7.386,0,0,0,.054.872" transform="translate(-155.929 -140.819)" fill="#eae19b"/>
            <path id="Trazado_719142" data-name="Trazado 719142" d="M345.48,287.271A7.592,7.592,0,0,0,343.293,282a4.074,4.074,0,0,0-.113.938v.666a7.7,7.7,0,0,1,2.246,4.539,7.386,7.386,0,0,0,.054-.872" transform="translate(-171.37 -140.819)" fill="#eae19b"/>
            <path id="Trazado_719143" data-name="Trazado 719143" d="M319.827,396.186H262.959v1.728h56.868A10.276,10.276,0,0,0,330.1,387.66v-1.729a10.276,10.276,0,0,1-10.276,10.255" transform="translate(-131.311 -192.718)" fill="#eae19b"/>
            <path id="Trazado_719144" data-name="Trazado 719144" d="M244.821,350.876a4.066,4.066,0,0,0-4.066-4.066h-.667a7.618,7.618,0,0,1-5.395,2.3c-4.186,0-7.624-3.522-8.018-8.026-.025.284-.04.572-.04.864,0,4.909,3.608,8.89,8.058,8.89a7.619,7.619,0,0,0,5.395-2.3h.667a4.066,4.066,0,0,1,4.066,4.066Z" transform="translate(-113.172 -170.323)" fill="#eae19b"/>
            <path id="Trazado_719145" data-name="Trazado 719145" d="M209.065,258.987a4.055,4.055,0,0,0,.113.938,7.594,7.594,0,0,0,2.187-5.271,7.386,7.386,0,0,0-.054-.872,7.7,7.7,0,0,1-2.246,4.539Z" transform="translate(-104.398 -126.728)" fill="#459384"/>
            <path id="Trazado_719146" data-name="Trazado 719146" d="M180.444,258.987v-.666a7.707,7.707,0,0,1-2.246-4.539,7.392,7.392,0,0,0-.054.872,7.592,7.592,0,0,0,2.187,5.271,4.047,4.047,0,0,0,.113-.938" transform="translate(-88.958 -126.728)" fill="#459384"/>
            <path id="Trazado_719147" data-name="Trazado 719147" d="M240.756,322.14h-.666a7.618,7.618,0,0,0-5.395-2.3c-4.45,0-8.058,3.98-8.058,8.89,0,.292.015.58.04.864.394-4.5,3.832-8.026,8.018-8.026a7.618,7.618,0,0,1,5.395,2.3h.666a4.066,4.066,0,0,0,4.066-4.066v-1.728a4.066,4.066,0,0,1-4.066,4.066" transform="translate(-113.173 -158.833)" fill="#459384"/>
            <path id="Trazado_719148" data-name="Trazado 719148" d="M128.844,385.891v1.728A10.276,10.276,0,0,0,139.1,397.895h56.889v-1.728H139.1a10.276,10.276,0,0,1-10.255-10.276" transform="translate(-64.339 -192.698)" fill="#459384"/>
            <path id="Trazado_719149" data-name="Trazado 719149" d="M234.261,413.257H1.695a1.7,1.7,0,0,1,0-3.39H234.261a1.7,1.7,0,0,1,0,3.39" transform="translate(0 -204.67)" fill="#5da99c"/>
            <path id="Trazado_719150" data-name="Trazado 719150" d="M415.977,151.51c.017-.438.041-.875.09-1.306.052-.456.065-1.022-.528-1.1a3.348,3.348,0,0,0-1.437.351,8.852,8.852,0,0,0-2.52,1.083c-.938.722-1.044,2.345-1.175,3.445a14.466,14.466,0,0,0,.081,4c.089.549.209,1.092.282,1.643a19.387,19.387,0,0,1,.059,3.293,1.412,1.412,0,0,1-.3.987,46.156,46.156,0,0,0,6.024.008,27.908,27.908,0,0,1-.618-6.731q-.079-2.327,0-4.657c.013-.338.021-.679.034-1.021" transform="translate(-204.889 -74.454)" fill="#004c71"/>
            <path id="Trazado_719151" data-name="Trazado 719151" d="M403.15,164.471,400.927,164a.694.694,0,0,0-1.02.783,35.5,35.5,0,0,1-.6,6.009,15.685,15.685,0,0,1,4.329-.3q-.049-2.77-.1-5.54a.4.4,0,0,0-.392-.489" transform="translate(-199.399 -81.87)" fill="#004c71"/>
            <rect id="Rectángulo_376033" data-name="Rectángulo 376033" width="4.61" height="7.777" transform="translate(202.139 82.051) rotate(-5.953)" fill="#e8d1b8"/>
            <path id="Trazado_719152" data-name="Trazado 719152" d="M397.754,156.754l5.57-.329a1.116,1.116,0,0,0,1.015-.931l1.65-9.919-9.6-1.179-1.265,10.3c-.215,1.886,1.455,2.08,2.633,2.053" transform="translate(-197.297 -72.105)" fill="#feecd6"/>
            <path id="Trazado_719153" data-name="Trazado 719153" d="M395.623,159.992l.875.108s-.908.165-1,.941Z" transform="translate(-197.493 -79.893)" fill="#e8d1b8"/>
            <path id="Trazado_719154" data-name="Trazado 719154" d="M393.552,156.416l1.187.146.425-3.46Z" transform="translate(-196.523 -76.452)" fill="#feecd6"/>
            <path id="Trazado_719155" data-name="Trazado 719155" d="M414.286,155.371a.586.586,0,0,1,.693-.117.91.91,0,0,1,.444.586,2.122,2.122,0,0,1,.035.752,2.744,2.744,0,0,1-.309,1.13,1.287,1.287,0,0,1-.925.663,1.236,1.236,0,0,1-.938-.332" transform="translate(-206.378 -77.496)" fill="#feecd6"/>
            <path id="Trazado_719156" data-name="Trazado 719156" d="M407.522,141.063q-.141-.158-.3-.3a4.793,4.793,0,0,0-.749-.576,6.763,6.763,0,0,1-.761-.434,1.082,1.082,0,0,0-.193-.124,4.3,4.3,0,0,0-1.046-.378,7.417,7.417,0,0,0-1.093-.135,16.523,16.523,0,0,0-2.794.021c-1.986.206-4.02.948-4.671,3.026-.4,1.264.011,2.584.011,3.866l1.586-.01A.121.121,0,0,0,397.6,146a.128.128,0,0,0,.026-.1,1.5,1.5,0,0,1,.194-.729,1.819,1.819,0,0,1,.116.659q.927-.013,1.854,0a5.19,5.19,0,0,1,.148-1.214,7.76,7.76,0,0,1,.218,1.271,17.277,17.277,0,0,1,2.081,0c0-.621-.006-1.241.023-1.861a6.19,6.19,0,0,0,.411,1.475,1.357,1.357,0,0,1,.13.523c.269-.035.323-.057.413.226q.121.379.218.766a13.986,13.986,0,0,1,.424,3.151q.008.4-.008.8c-.006.149.044.612-.047.726a10.58,10.58,0,0,0,1.017-1.522,18.193,18.193,0,0,1,.805-1.743c.24-.339.679-.361,1.047-.525a3.694,3.694,0,0,0,1.146-.663,3.8,3.8,0,0,0,.616-.735,2.34,2.34,0,0,0,.312-.9,5.181,5.181,0,0,0,.01-1.7,6.426,6.426,0,0,0-.442-1.629,4.7,4.7,0,0,0-.789-1.21" transform="translate(-197.619 -69.444)" fill="#004c71"/>
            <path id="Trazado_719157" data-name="Trazado 719157" d="M370.15,172.856l3.781,7.364a55.043,55.043,0,0,1-29.365-3.234s-2.04-1.05-4.864-2.234-3.81-.836-4-1.918-.86-2.943-.219-3.506,2.587-1.37,3.221.084,1.145,2.64,2.254,3.331,9.5,2.939,13.393,2.579,10.115-.14,15.8-2.466" transform="translate(-167.39 -84.187)" fill="#e8d1b8"/>
            <path id="Trazado_719158" data-name="Trazado 719158" d="M314.35,90.012l-56.674-4.925-1.984,22.83a4.065,4.065,0,0,0,3.7,4.4l.664.058a7.617,7.617,0,0,1,5.574-1.824c4.434.385,7.683,4.663,7.258,9.554s-4.364,8.544-8.8,8.159a7.621,7.621,0,0,1-5.175-2.759l-.664-.058a4.066,4.066,0,0,0-4.4,3.7l-1.984,22.83,22.829,1.984a4.065,4.065,0,0,1,3.7,4.4l-.058.664a7.617,7.617,0,0,0-2.759,5.175c-.385,4.434,3.268,8.373,8.159,8.8s9.169-2.825,9.554-7.258a7.62,7.62,0,0,0-1.824-5.574l.058-.664a4.065,4.065,0,0,1,4.4-3.7l22.83,1.984,4.923-56.655a10.275,10.275,0,0,0-9.326-11.125" transform="translate(-125.769 -42.489)" fill="#005d95"/>
            <path id="Trazado_719159" data-name="Trazado 719159" d="M341.041,199.126l22.663,10.79.79-9.088Z" transform="translate(-170.301 -99.435)" fill="#055672"/>
            <g id="Grupo_1017843" data-name="Grupo 1017843" transform="translate(127.976 42.598)" opacity="0.3">
              <g id="Grupo_1017842" data-name="Grupo 1017842">
                <g id="Grupo_1017841" data-name="Grupo 1017841" clip-path="url(#clip-path-4)">
                  <path id="Trazado_719160" data-name="Trazado 719160" d="M320.952,91.662a10.486,10.486,0,0,1,7.338,3.983,10.268,10.268,0,0,0-8.277-5.632l-56.674-4.925-.135,1.556Z" transform="translate(-259.409 -85.087)" fill="#fff"/>
                  <path id="Trazado_719161" data-name="Trazado 719161" d="M259.749,163.282l.679.059a7.8,7.8,0,0,0,5.3,2.823c4.538.395,8.569-3.344,9-8.351a10.043,10.043,0,0,0-.022-1.934c-.609,4.676-4.437,8.111-8.741,7.737a7.619,7.619,0,0,1-5.176-2.758l-.664-.058a4.065,4.065,0,0,0-4.4,3.7l-.1,1.167a4.159,4.159,0,0,1,4.126-2.384" transform="translate(-255.623 -120.438)" fill="#fff"/>
                </g>
              </g>
            </g>
            <path id="Trazado_719162" data-name="Trazado 719162" d="M263.195,112.319l.664.058a7.619,7.619,0,0,1,5.574-1.824c4.434.385,7.683,4.663,7.258,9.554-.026.291-.065.578-.115.86a9.759,9.759,0,0,0,.45-2.173c.425-4.891-2.825-9.169-7.258-9.554a7.62,7.62,0,0,0-5.574,1.824l-.664-.058a4.065,4.065,0,0,1-3.7-4.4l1.868-21.5-.219-.019-1.984,22.83a4.065,4.065,0,0,0,3.7,4.4" transform="translate(-129.574 -42.489)" fill="#055672"/>
            <path id="Trazado_719163" data-name="Trazado 719163" d="M278.405,200.623c.088-.081.171-.165.263-.242l.058-.664a4.065,4.065,0,0,0-3.7-4.4L252.2,193.33l1.982-22.8a4.055,4.055,0,0,0-.332,1.287l-1.984,22.83,22.829,1.984a4.066,4.066,0,0,1,3.713,4" transform="translate(-125.77 -85.153)" fill="#055672"/>
            <path id="Trazado_719164" data-name="Trazado 719164" d="M307.691,248.786c-4.891-.425-8.544-4.364-8.159-8.8.015-.172.045-.339.071-.508a7.307,7.307,0,0,0-.407,1.821c-.385,4.434,3.268,8.372,8.159,8.8,4.694.408,8.813-2.572,9.479-6.732a8.752,8.752,0,0,1-9.144,5.419" transform="translate(-149.392 -119.587)" fill="#055672"/>
            <path id="Trazado_719165" data-name="Trazado 719165" d="M336.147,223.71a4.065,4.065,0,0,0-4.4,3.7l0,.026a4.065,4.065,0,0,1,4.07-2.412l22.83,1.985.116-1.332Z" transform="translate(-165.658 -111.703)" fill="#055672"/>
            <path id="Trazado_719166" data-name="Trazado 719166" d="M416.916,219.654l-12.007.559s1.2,37.194,2.807,41.278,11.509,17.249,15.148,26.989l2.119-.1s.895-14.995-6.557-24.911a87.015,87.015,0,0,0,.9-16.764c-.539-7.761,3.385-9.006,2.613-14.19s-4.216-8.828-4.538-10.052a22,22,0,0,1-.485-2.809" transform="translate(-202.194 -109.686)" fill="#055672"/>
            <path id="Trazado_719167" data-name="Trazado 719167" d="M400.557,219.874l12.189.447a6.522,6.522,0,0,0,1.242,4.733c3.443,4.753,2.3,9.548.45,14.256s-5.831,14.291-6.85,17.968-1.683,4.891-.811,10.053-3.137,23.853-3.137,23.853l-2.157-.079s-2.124-19.27-2.3-24.141c-.155-4.3-.273-7.7-.465-12.213-3.572-20.01,1.838-34.877,1.838-34.877" transform="translate(-198.494 -109.796)" fill="#095f84"/>
            <path id="Trazado_719168" data-name="Trazado 719168" d="M404.4,175.388a6.924,6.924,0,0,1,5.061,4.9,15.7,15.7,0,0,1-.032,4.969,19.76,19.76,0,0,0,.668,6.407c.476,1.752.711,3.591,1.037,5.385.021.116.453,2.663.5,2.658l-14.2,1.48c.338-.035.388-3.991.384-4.3a8.258,8.258,0,0,0-.268-2.952,15.279,15.279,0,0,0-1.941-2.755,9.491,9.491,0,0,1-2-4.473,2.935,2.935,0,0,1,.6-2.261,36.719,36.719,0,0,0,3.112-5.31c.723-1.487,1.355-3.264,3.094-3.813a7.411,7.411,0,0,1,3.974.065" transform="translate(-196.546 -87.427)" fill="#ffb4ae"/>
            <path id="Trazado_719169" data-name="Trazado 719169" d="M395.467,197.2l9.521-.71-8.8,6.039c-.177-.219-.351-.437-.514-.659a10.122,10.122,0,0,1-1.954-4.112Z" transform="translate(-196.608 -98.121)" fill="#d88e8b"/>
            <path id="Trazado_719170" data-name="Trazado 719170" d="M372.011,183.966l5.134,6.273a53.9,53.9,0,0,1-28.776,2.942s-2.169-.585-5.116-1.138-3.819-.017-4.225-1.014-1.428-2.64-.931-3.311,2.195-1.844,3.1-.582,1.639,2.291,2.843,2.726,9.694.861,13.352-.286,9.654-2.214,14.619-5.61" transform="translate(-168.765 -91.865)" fill="#feecd6"/>
            <path id="Trazado_719171" data-name="Trazado 719171" d="M399.145,362.649l-2.972.357a2.117,2.117,0,0,0-1.089.4.864.864,0,0,0-.384.53.7.7,0,0,0,.284.723l6.547.24a.767.767,0,0,0,.753-.5,2,2,0,0,0-.054-1.738l-1.328.319Z" transform="translate(-197.092 -181.092)" fill="#5da99c"/>
            <path id="Trazado_719172" data-name="Trazado 719172" d="M403.942,362.246l-.017.463a.888.888,0,0,1-.92.855l-1.039-.038a.893.893,0,0,1-.155-.02l-3.5-.115a.266.266,0,0,1,.061-.526l3.765-.685Z" transform="translate(-198.796 -180.857)" fill="#feecd6"/>
            <path id="Trazado_719173" data-name="Trazado 719173" d="M435.866,358.47l-2.6,1.491a2.111,2.111,0,0,0-.847.793.863.863,0,0,0-.146.637.7.7,0,0,0,.544.555l6.12-2.337a.768.768,0,0,0,.5-.757,1.994,1.994,0,0,0-.729-1.579l-1.1.813Z" transform="translate(-215.852 -178.407)" fill="#5da99c"/>
            <path id="Trazado_719174" data-name="Trazado 719174" d="M439.981,356.94l.165.433a.888.888,0,0,1-.513,1.146l-.971.371a.918.918,0,0,1-.15.043l-3.264,1.261a.266.266,0,0,1-.15-.508l2.8-1.837a.439.439,0,0,0,.1-.641l-.139-.173Z" transform="translate(-217.186 -178.241)" fill="#e8d1b8"/>
            <path id="Trazado_719175" data-name="Trazado 719175" d="M355,393.882H341.1l-1.414-16.027h16.732Z" transform="translate(-169.624 -188.685)" fill="#81c539"/>
            <path id="Trazado_719176" data-name="Trazado 719176" d="M342.021,350.363c3.263,4.822.743,12.227.743,12.227s-7.812-.413-11.075-5.235-.743-12.227-.743-12.227,7.812.413,11.075,5.235" transform="translate(-164.797 -172.342)" fill="#5da99c"/>
            <path id="Trazado_719177" data-name="Trazado 719177" d="M337.655,351.7a8.326,8.326,0,0,0-.921-2.087c-.094-.151-.2-.337-.115-.5a.347.347,0,0,1,.391-.145,3.019,3.019,0,0,1,1.614,1.479c.2.331.461.634.659.96a8.343,8.343,0,0,1,.58,1.46,11.268,11.268,0,0,1,.716,2.977c.02.257.089.588.344.623s.416-.275.461-.531a8.6,8.6,0,0,0-.14-2.617c-.04-.3-.213-.931-.072-1.214.178-.355.589-.2.81.019a4.279,4.279,0,0,1,.971,1.95,20.092,20.092,0,0,1,.637,7.339,14.713,14.713,0,0,0-.134,1.88,27.343,27.343,0,0,0-4.016-1.371,8.916,8.916,0,0,1-3.711-1.981c-.266-.264-.5-.715-.236-.979a.714.714,0,0,1,.448-.157,3.9,3.9,0,0,1,1.36.241.646.646,0,0,0,.362.005.223.223,0,0,0,.139-.292.309.309,0,0,0-.1-.094,11.772,11.772,0,0,0-2.141-.823,5.188,5.188,0,0,1-2.359-2.13,3.773,3.773,0,0,1-.535-1.3c-.079-.453-.066-1.261.393-1.532.558-.329.9.556,1.112.916a2.457,2.457,0,0,0,1.049,1.083,1.369,1.369,0,0,0,.816.08,10.312,10.312,0,0,1-.964-1.25A14.21,14.21,0,0,1,334,352.148a6.9,6.9,0,0,1-1-3.263c-.009-.368.121-1.36.7-1.09.391.183.818,1.035,1.085,1.377a11.2,11.2,0,0,1,2.507,4.278,1.087,1.087,0,0,0,.2.5c.239.264.458.107.5-.194a4.555,4.555,0,0,0-.153-1.322q-.073-.372-.178-.739" transform="translate(-166.102 -173.651)" fill="#459384"/>
            <path id="Trazado_719178" data-name="Trazado 719178" d="M344.828,337.2c-.8,5.366,4.3,10.577,4.3,10.577s6.4-3.491,7.2-8.858-4.3-10.577-4.3-10.577-6.4,3.491-7.2,8.858" transform="translate(-172.15 -163.959)" fill="#c5f9ef"/>
            <path id="Trazado_719179" data-name="Trazado 719179" d="M350.85,336.512a7.732,7.732,0,0,1-.066-2.125c.018-.165.029-.361-.1-.463a.323.323,0,0,0-.387.036,2.809,2.809,0,0,0-.761,1.892c-.039.36-.132.718-.168,1.072a7.87,7.87,0,0,0,.1,1.46,10.548,10.548,0,0,0,.6,2.791c.087.224.162.531-.039.663s-.46-.064-.6-.261a7.979,7.979,0,0,1-.935-2.255c-.089-.271-.2-.869-.43-1.049-.291-.227-.575.069-.673.341a4,4,0,0,0-.031,2.03,18.737,18.737,0,0,0,2.418,6.426,13.621,13.621,0,0,1,.87,1.527,25.434,25.434,0,0,1,2.824-2.769,8.326,8.326,0,0,0,2.322-3.159c.117-.329.134-.8-.2-.918a.659.659,0,0,0-.439.049,3.605,3.605,0,0,0-1.046.75.6.6,0,0,1-.3.15c-.114.009-.242-.076-.233-.19a.276.276,0,0,1,.046-.119,10.927,10.927,0,0,1,1.468-1.553,4.84,4.84,0,0,0,1.126-2.74,3.51,3.51,0,0,0-.076-1.311c-.116-.413-.452-1.087-.947-1.13-.6-.052-.531.828-.567,1.218a2.287,2.287,0,0,1-.445,1.333,1.277,1.277,0,0,1-.654.4,9.512,9.512,0,0,0,.308-1.438,13.311,13.311,0,0,0,.277-1.744,6.417,6.417,0,0,0-.473-3.145c-.14-.313-.648-1.1-1.025-.636a4.921,4.921,0,0,0-.358,1.595,10.447,10.447,0,0,0-.385,4.6,1,1,0,0,1,.031.5c-.095.318-.341.274-.495.037a4.233,4.233,0,0,1-.4-1.172q-.09-.343-.148-.693" transform="translate(-173.396 -165.536)" fill="#9ae2d4"/>
            <path id="Trazado_719180" data-name="Trazado 719180" d="M353.159,354.686c-3.467,4.174-1.807,11.272-1.807,11.272s7.282.331,10.75-3.842,1.807-11.272,1.807-11.272-7.282-.331-10.75,3.842" transform="translate(-175.252 -175.193)" fill="#5da99c"/>
            <path id="Trazado_719181" data-name="Trazado 719181" d="M359.434,356.331a7.751,7.751,0,0,1,1.045-1.851c.1-.132.212-.294.152-.449a.323.323,0,0,0-.349-.17,2.812,2.812,0,0,0-1.632,1.224c-.22.288-.485.546-.7.83a7.769,7.769,0,0,0-.671,1.3,10.485,10.485,0,0,0-.936,2.7c-.042.237-.136.538-.376.547s-.36-.293-.379-.535a7.991,7.991,0,0,1,.369-2.414c.065-.277.282-.845.177-1.12-.133-.345-.528-.239-.752-.057a3.994,3.994,0,0,0-1.079,1.719,18.734,18.734,0,0,0-1.262,6.749,13.694,13.694,0,0,1-.048,1.756,25.437,25.437,0,0,1,3.849-.9,8.319,8.319,0,0,0,3.623-1.5c.271-.221.532-.617.308-.886a.661.661,0,0,0-.4-.186,3.631,3.631,0,0,0-1.284.1.6.6,0,0,1-.336-.028.208.208,0,0,1-.1-.284.273.273,0,0,1,.1-.078,10.908,10.908,0,0,1,2.061-.568,4.834,4.834,0,0,0,2.383-1.76,3.518,3.518,0,0,0,.615-1.16c.115-.413.177-1.164-.224-1.457-.487-.356-.883.434-1.115.748a2.292,2.292,0,0,1-1.072.909,1.278,1.278,0,0,1-.764,0,9.57,9.57,0,0,0,1.008-1.071,13.257,13.257,0,0,0,1.142-1.347,6.432,6.432,0,0,0,1.226-2.935c.042-.34.013-1.273-.547-1.075-.38.134-.854.885-1.133,1.178a10.438,10.438,0,0,0-2.716,3.738,1.014,1.014,0,0,1-.234.446c-.245.223-.435.058-.443-.225A4.254,4.254,0,0,1,359.2,357q.1-.339.232-.669" transform="translate(-176.27 -176.297)" fill="#459384"/>
            <rect id="Rectángulo_376035" data-name="Rectángulo 376035" width="18.224" height="2.953" transform="translate(169.315 189.155)" fill="#81c539"/>
            <path id="Trazado_719182" data-name="Trazado 719182" d="M356.2,386.624l-16.083-2.9h16.3Z" transform="translate(-169.841 -191.615)" fill="#81c539"/>
            <rect id="Rectángulo_376036" data-name="Rectángulo 376036" width="35.899" height="3.849" transform="translate(191.743 183.808)" fill="#ff9994"/>
            <g id="Grupo_1017846" data-name="Grupo 1017846" transform="translate(191.743 183.808)" opacity="0.5">
              <g id="Grupo_1017845" data-name="Grupo 1017845">
                <g id="Grupo_1017844" data-name="Grupo 1017844" clip-path="url(#clip-path-5)">
                  <rect id="Rectángulo_376037" data-name="Rectángulo 376037" width="35.899" height="0.756" transform="translate(0.001)" fill="#fff"/>
                </g>
              </g>
            </g>
            <rect id="Rectángulo_376039" data-name="Rectángulo 376039" width="24.909" height="2.671" transform="translate(197.238 197.016)" fill="#ff9994"/>
            <rect id="Rectángulo_376040" data-name="Rectángulo 376040" width="24.909" height="0.638" transform="translate(197.238 199.049)" fill="#e58c88"/>
            <rect id="Rectángulo_376041" data-name="Rectángulo 376041" width="3.649" height="17.54" transform="translate(195.047 187.657)" fill="#ff9994"/>
            <rect id="Rectángulo_376042" data-name="Rectángulo 376042" width="3.649" height="0.955" transform="translate(195.047 187.657)" fill="#e58c88"/>
            <rect id="Rectángulo_376043" data-name="Rectángulo 376043" width="3.649" height="17.54" transform="translate(220.689 187.657)" fill="#ff9994"/>
            <rect id="Rectángulo_376044" data-name="Rectángulo 376044" width="3.649" height="0.955" transform="translate(220.689 187.657)" fill="#e58c88"/>
            <path id="Trazado_719183" data-name="Trazado 719183" d="M54.373,203.986l-4.048,8.555a62.929,62.929,0,0,0,33.433-4.784s2.293-1.276,5.475-2.732,4.323-1.1,4.5-2.341.873-3.394.121-4.014-3.007-1.47-3.677.215-1.211,3.058-2.452,3.89-10.741,3.71-15.208,3.443-11.562.214-18.145-2.232" transform="translate(-25.13 -98.822)" fill="#055672"/>
            <path id="Trazado_719184" data-name="Trazado 719184" d="M72.293,117.663l17.853,54.014,21.758-7.192a4.065,4.065,0,0,0,2.584-5.136l-.209-.633a7.619,7.619,0,0,1-3.876-4.4c-1.4-4.225,1.251-8.9,5.912-10.441s9.573.635,10.97,4.861a7.618,7.618,0,0,1-.491,5.844l.209.633a4.065,4.065,0,0,0,5.136,2.584L153.9,150.6l-7.191-21.757a4.065,4.065,0,0,1,2.584-5.136l.632-.209a7.616,7.616,0,0,0,5.844.491c4.226-1.4,6.4-6.308,4.861-10.97s-6.215-7.309-10.441-5.912a7.622,7.622,0,0,0-4.4,3.877l-.632.209a4.065,4.065,0,0,1-5.136-2.584l-7.192-21.758-54,17.847a10.276,10.276,0,0,0-6.538,12.962" transform="translate(-35.843 -43.371)" fill="#ffee58"/>
            <path id="Trazado_719185" data-name="Trazado 719185" d="M119.133,230.344l-14.752,10.293-2.413-7.151Z" transform="translate(-50.919 -115.024)" fill="#e58c88"/>
            <g id="Grupo_1017849" data-name="Grupo 1017849" transform="translate(35.961 43.483)" opacity="0.4">
              <g id="Grupo_1017848" data-name="Grupo 1017848">
                <g id="Grupo_1017847" data-name="Grupo 1017847" clip-path="url(#clip-path-6)">
                  <path id="Trazado_719186" data-name="Trazado 719186" d="M181.841,220.8a7.828,7.828,0,0,0,.489-2.378,8.2,8.2,0,0,1-.661,1.856Z" transform="translate(-126.679 -152.554)" fill="#fff"/>
                  <path id="Trazado_719187" data-name="Trazado 719187" d="M148.376,218.918a7.348,7.348,0,0,1-.353-2.692,7.437,7.437,0,0,0,.171,4.041,7.617,7.617,0,0,0,3.876,4.4l.209.633a4.045,4.045,0,0,1,.2,1.135,4.043,4.043,0,0,0-.018-2.484l-.209-.632a7.618,7.618,0,0,1-3.876-4.4" transform="translate(-109.777 -151.457)" fill="#fff"/>
                  <path id="Trazado_719188" data-name="Trazado 719188" d="M150.214,107.112a7.62,7.62,0,0,0-4.4,3.876l-.632.209a4.066,4.066,0,0,1-5.136-2.584l-7.192-21.758-54,17.847a10.277,10.277,0,0,0-7.027,9.063,10.269,10.269,0,0,1,6.844-7.714l54-17.847,7.192,21.758A4.066,4.066,0,0,0,145,112.546l.633-.209a7.617,7.617,0,0,1,4.4-3.876c4.225-1.4,8.9,1.25,10.441,5.912a9.636,9.636,0,0,1,.474,3.6,9.505,9.505,0,0,0-.291-4.948c-1.541-4.662-6.215-7.309-10.441-5.912" transform="translate(-71.83 -86.855)" fill="#fff"/>
                  <path id="Trazado_719189" data-name="Trazado 719189" d="M220.873,170.95l6.808,20.6.567-.187L221.056,169.6a4.043,4.043,0,0,1-.2-1.135,4.042,4.042,0,0,0,.018,2.484" transform="translate(-146.153 -127.608)" fill="#fff"/>
                </g>
              </g>
            </g>
            <path id="Trazado_719190" data-name="Trazado 719190" d="M165.147,204.1a7.262,7.262,0,0,0-.216-.821c-1.4-4.225-6.308-6.4-10.97-4.861s-7.309,6.215-5.912,10.441c.01.03.024.057.034.086-.821-3.991,1.774-8.169,6.132-9.61,4.625-1.528,9.491.6,10.932,4.764" transform="translate(-73.744 -98.837)" fill="#e58c88"/>
            <path id="Trazado_719191" data-name="Trazado 719191" d="M111.913,193.391l-21.758,7.192L72.3,146.576c.07.3.152.608.251.91L90.408,201.5l21.758-7.192a4.065,4.065,0,0,0,2.584-5.136l-.115-.347a4.063,4.063,0,0,1-2.723,4.566" transform="translate(-36.106 -73.194)" fill="#e58c88"/>
            <path id="Trazado_719192" data-name="Trazado 719192" d="M186.76,219.566a4.063,4.063,0,0,1-5.056-2.378c-.013.026-.022.053-.035.078l.209.633a4.066,4.066,0,0,0,5.136,2.584l21.758-7.192-.3-.9Z" transform="translate(-90.717 -106.058)" fill="#e58c88"/>
            <path id="Trazado_719193" data-name="Trazado 719193" d="M229.79,149.175a7.616,7.616,0,0,1-5.844-.49l-.633.209a4.066,4.066,0,0,0-2.584,5.136l.115.347a4.062,4.062,0,0,1,2.723-4.566l.633-.209a7.616,7.616,0,0,0,5.844.49c4.226-1.4,6.4-6.308,4.861-10.969v0c.994,4.373-1.163,8.75-5.114,10.055" transform="translate(-110.12 -69.471)" fill="#e58c88"/>
            <path id="Trazado_719194" data-name="Trazado 719194" d="M39.866,277.346a7.523,7.523,0,0,1,5.543,6.245c1.106,7.98,2.855,23.289.611,28.841-3.075,7.606-21.134,25.955-21.134,25.955l-3.215-1.409S27.147,323.8,32.3,315.534a16.966,16.966,0,0,0,1.276-5.827c-.064-2.656-2.335-7.03-2.789-13-.208-2.743-.31-7.575-.359-12a7.523,7.523,0,0,1,9.434-7.361" transform="translate(-10.822 -138.37)" fill="#459384"/>
            <path id="Trazado_719195" data-name="Trazado 719195" d="M50.307,274.556a7.523,7.523,0,0,1,7.6,3.463c4.245,6.847,12.048,20.134,12.247,26.119.271,8.2-8.778,33.818-8.778,33.818l-3.51.015s-.359-15.792,1.006-25.439a16.968,16.968,0,0,0-1.195-5.844c-1.135-2.4-4.984-5.48-7.819-10.755-1.3-2.423-3.352-6.8-5.191-10.824a7.524,7.524,0,0,1,5.642-10.553" transform="translate(-21.962 -137.053)" fill="#5da99c"/>
            <rect id="Rectángulo_376046" data-name="Rectángulo 376046" width="8.215" height="4.87" transform="translate(27.637 107.047) rotate(-85.277)" fill="#e8d1b8"/>
            <path id="Trazado_719196" data-name="Trazado 719196" d="M54.425,196.157a4.6,4.6,0,0,0-.132-1.323.821.821,0,0,0-.436-.589c-.211-.077-.627-.063-.7.2a.679.679,0,0,0-.016.209,7.833,7.833,0,0,0,.132,1.293,5.6,5.6,0,0,0,.634,1.689c.048.084.145.178.224.123a.169.169,0,0,0,.05-.068,3.222,3.222,0,0,0,.244-1.375c0-.053,0-.106,0-.159" transform="translate(-26.534 -96.977)" fill="#004c71"/>
            <path id="Trazado_719197" data-name="Trazado 719197" d="M61.823,193.409l-6.317-2.3a1.179,1.179,0,0,1-.85-1.181l.422-10.612,10.185.842-.944,11.432a2.042,2.042,0,0,1-2.5,1.821" transform="translate(-27.292 -89.542)" fill="#feecd6"/>
            <path id="Trazado_719198" data-name="Trazado 719198" d="M73.55,197.46l-.928-.077s.9.366.836,1.189Z" transform="translate(-36.264 -98.565)" fill="#e8d1b8"/>
            <path id="Trazado_719199" data-name="Trazado 719199" d="M75.552,193.964l-1.259-.1.3-3.67Z" transform="translate(-37.099 -94.973)" fill="#feecd6"/>
            <path id="Trazado_719200" data-name="Trazado 719200" d="M53.726,188.462a.618.618,0,0,0-.691-.269.959.959,0,0,0-.585.51,2.227,2.227,0,0,0-.2.771,2.9,2.9,0,0,0,.077,1.235,1.36,1.36,0,0,0,.815.884,1.3,1.3,0,0,0,1.041-.142" transform="translate(-26.077 -93.965)" fill="#feecd6"/>
            <path id="Trazado_719201" data-name="Trazado 719201" d="M55,180.089a1.819,1.819,0,0,0-.365,1.19,1.647,1.647,0,0,0,.222,1.2,2.01,2.01,0,0,0,.624.472,6.489,6.489,0,0,1,2.567,1.707,10.849,10.849,0,0,1,.642,1.446,5.314,5.314,0,0,0,.635.978.847.847,0,0,0,.823.371c.51-.136.619-.837.807-1.243a1.462,1.462,0,0,1,.393-.58,1.477,1.477,0,0,1,1.083-.144l.6.075a.452.452,0,0,1,.212.064.419.419,0,0,1,.128.2,6.355,6.355,0,0,1,.343,1.742,2.44,2.44,0,0,1-1.151,2.469,5.133,5.133,0,0,1-2.546.11,10.865,10.865,0,0,1-3.082-.839,7.315,7.315,0,0,1-2.244-1.3,4.533,4.533,0,0,1-1.012-3.328c0-.694.014-1.389.062-2.083.025-.358.054-.718.105-1.073a1.958,1.958,0,0,0-.019-.955.775.775,0,0,0-.707-.552c-.517.025-.69.571-.9.946a12.618,12.618,0,0,1,.011-2.095,7.07,7.07,0,0,1,.356-2.708,1.274,1.274,0,0,0,.108-.576.391.391,0,0,0-.395-.357,8.8,8.8,0,0,1,1.151-.206q.248-.618.443-1.255a3.324,3.324,0,0,1-.146.958,3.773,3.773,0,0,1,2.616-1.617,12.243,12.243,0,0,0,1.98-.184,5.454,5.454,0,0,0-.834-1.083,9.658,9.658,0,0,1,3.789,1.036q-.272-.651-.544-1.3a5.673,5.673,0,0,1,2.665,2.277,6.253,6.253,0,0,0-.393-1.531,5.272,5.272,0,0,1,1.7,4.488,7.783,7.783,0,0,1-.918,2.8l-.391-.716c0,.094,0,.188.005.283l-.173-.394c0,.1-.008.207-.012.311a2.823,2.823,0,0,0-1.117-1.1,7.351,7.351,0,0,0-1.468-.595.824.824,0,0,1,.143.268l-1.193-.372a.25.25,0,0,1,.1.188,5.531,5.531,0,0,0-2.685.13.653.653,0,0,0-.277.14.692.692,0,0,0-.155.345,2.473,2.473,0,0,1-.7,1.528c-.236.168-.545.2-.782.371a.753.753,0,0,0-.109.094" transform="translate(-26.045 -85.674)" fill="#004c71"/>
            <path id="Trazado_719202" data-name="Trazado 719202" d="M70.844,203.188a1.6,1.6,0,0,1-.434-.091.4.4,0,0,1-.209-.128.316.316,0,0,1-.05-.156,1.136,1.136,0,0,1,.107-.5,5.818,5.818,0,0,1,.334-.7,1.194,1.194,0,0,1,.243-.326c.217-.186.479-.087.737-.076l.964.04a7.293,7.293,0,0,1,.151.894c.009.076.01.155.024.23.007.036.037.089.025.125-.037.114-.241.085-.323.063a1.335,1.335,0,0,0-.278-.071.673.673,0,0,0-.49.251,1.737,1.737,0,0,1-.419.379.752.752,0,0,1-.381.074" transform="translate(-35.03 -100.454)" fill="#feecd6"/>
            <path id="Trazado_719203" data-name="Trazado 719203" d="M40.264,226.726c.209,3,.229,6.034.331,9.043a35.791,35.791,0,0,1-.266,3.908c-.109,1.429-.235,2.863-.431,4.283-.166,1.208-.585,2.389-.775,3.616-.148.956-.092,1.236.894,1.176,1.036-.063,2.061-.091,3.1-.1l14.233-.058q-.2-8.146-.022-16.294a3.728,3.728,0,0,1,.1-.938,13.281,13.281,0,0,1,.722-1.452,4.952,4.952,0,0,0,.217-2.278,43.235,43.235,0,0,0-2.58-11.947c-.562-1.52-.836-3.248-1.867-4.549-1.766-2.227-6.8-2.4-8.93-.723s-3.092,4.319-3.677,6.871a31.062,31.062,0,0,0-1.079,9.062l.027.376" transform="translate(-19.506 -104.513)" fill="#095f84"/>
            <path id="Trazado_719204" data-name="Trazado 719204" d="M54.511,229.363l3.111-.731,6.792,1.653.769.792a43.011,43.011,0,0,1,.9,6.214,6.285,6.285,0,0,1-.06,1.773Z" transform="translate(-27.22 -114.169)" fill="#055672"/>
            <path id="Trazado_719205" data-name="Trazado 719205" d="M56.016,216.24,53.278,220.1a2.165,2.165,0,0,0,1.02,3.283,54.284,54.284,0,0,0,30.062,2.067s2.505-.779,5.918-1.554,4.456-.189,4.885-1.37,1.549-3.145.94-3.905-2.643-2.054-3.643-.542-1.811,2.747-3.2,3.306-11.272,1.434-15.59.258c-4.193-1.141-10.955-2.1-16.785-5.579a.655.655,0,0,0-.873.178" transform="translate(-26.405 -107.845)" fill="#095f84"/>
            <path id="Trazado_719206" data-name="Trazado 719206" d="M74.151,401.29l6.694,1.563a3.237,3.237,0,0,1,2.178,1.744l.272.563a.558.558,0,0,1-.5.8H70.684a1.114,1.114,0,0,1-1.061-1.451l1.019-3.2Z" transform="translate(-34.74 -200.387)" fill="#095f84"/>
            <path id="Trazado_719207" data-name="Trazado 719207" d="M19.661,396.708l3.215,1.409.911,1.425a1.278,1.278,0,0,0,.905.578l4.219.571a2.6,2.6,0,0,1,2.216,2.174l0,.02a.683.683,0,0,1-.674.787H21.618l-3.541-2.815a1.142,1.142,0,0,1-.227-1.546Z" transform="translate(-8.812 -198.099)" fill="#095f84"/>
            <path id="Trazado_719208" data-name="Trazado 719208" d="M130.855,223.929c.429-1.181,1.549-3.144.94-3.9s-2.643-2.054-3.643-.542-1.811,2.746-3.2,3.306a3.846,3.846,0,0,1-.6.164l.723,2.555c.291-.069.588-.139.9-.208,3.413-.775,4.455-.19,4.885-1.37" transform="translate(-62.096 -109.25)" fill="#feecd6"/>
          </g>
        </g>
      </g>
    </g>
  </g>
</svg>
