<svg xmlns="http://www.w3.org/2000/svg" xmlns:xlink="http://www.w3.org/1999/xlink" width="124" height="124" viewBox="0 0 124 124">
  <defs>
    <clipPath id="clip-path">
      <rect id="Rect치ngulo_375597" data-name="Rect치ngulo 375597" width="94.864" height="83.864" fill="none"/>
    </clipPath>
  </defs>
  <g id="Grupo_1017912" data-name="Grupo 1017912" transform="translate(-266.001 -852.477)">
    <g id="Grupo_1016927" data-name="Grupo 1016927" transform="translate(-471 -1205.523)">
      <g id="Grupo_159183" data-name="Grupo 159183" transform="translate(737.001 2058)">
        <path id="Uni칩n_12" data-name="Uni칩n 12" d="M62,0A62,62,0,1,1,0,62,62,62,0,0,1,62,0Z" fill="#01d8d1"/>
      </g>
    </g>
    <g id="Grupo_1017458" data-name="Grupo 1017458" transform="translate(280.068 864.545)">
      <g id="Grupo_1017457" data-name="Grupo 1017457" clip-path="url(#clip-path)">
        <path id="Trazado_718470" data-name="Trazado 718470" d="M47.4,83.771c-11.544.012-23.093.224-34.631-.026C2.638,83.527-3.288,71.864,1.937,62.79c3.2-5.555,6.562-11.015,9.852-16.519Q23.459,26.746,35.132,7.223C37.9,2.6,41.868-.04,47.4.014q0,2.77,0,5.539a8.108,8.108,0,0,0-7.393,4.359q-4.67,7.965-9.425,15.88Q18.645,45.763,6.692,65.727a7.612,7.612,0,0,0-.106,8.247,8.1,8.1,0,0,0,7.284,4.273c11.179-.049,22.358-.015,33.537-.013q0,2.768-.005,5.537" transform="translate(0 -0.008)" fill="#e40228"/>
        <path id="Trazado_718471" data-name="Trazado 718471" d="M127.769,83.763q0-2.769.005-5.537h0c11.174,0,22.349-.042,33.523.022a7.55,7.55,0,0,0,7.256-4.152,8.267,8.267,0,0,0-.082-8.622q-5.186-8.73-10.394-17.447-11.271-18.858-22.554-37.71c-1.758-2.94-4.137-4.856-7.751-4.773h0q0-2.77,0-5.539c5.407-.144,9.371,2.393,12.078,6.861,6.552,10.815,12.987,21.7,19.473,32.555,4.619,7.731,9.3,15.423,13.849,23.2a13.906,13.906,0,0,1-9.1,20.984,13.521,13.521,0,0,1-2.76.249q-16.313.025-32.627.007a8.423,8.423,0,0,1-.916-.1" transform="translate(-80.368 0)" fill="#c10120"/>
        <path id="Trazado_718472" data-name="Trazado 718472" d="M56.6,87.626c-11.179,0-22.358-.036-33.537.013a8.1,8.1,0,0,1-7.283-4.272,7.612,7.612,0,0,1,.106-8.247Q27.809,55.138,39.781,35.185,44.52,27.26,49.206,19.3A8.107,8.107,0,0,1,56.6,14.946h0q0,5.723.009,11.445c-3.894.605-5.574,2.555-5.576,6.495q-.007,10.273,0,20.546c0,3.935,1.724,5.924,5.583,6.477q0,2.711-.008,5.423a8.857,8.857,0,0,0-6.463,3.155,8.024,8.024,0,0,0-1.289,8.359c1.367,3.455,4.134,5.071,7.762,5.339q-.008,2.721-.015,5.443Z" transform="translate(-9.195 -9.401)" fill="#fc003a"/>
        <path id="Trazado_718473" data-name="Trazado 718473" d="M127.739,26.386q0-5.723-.009-11.445c3.615-.083,5.993,1.833,7.751,4.773q11.273,18.857,22.553,37.71,5.21,8.716,10.394,17.447a8.267,8.267,0,0,1,.082,8.622,7.55,7.55,0,0,1-7.256,4.152c-11.174-.064-22.349-.023-33.523-.022q.008-2.721.015-5.443l-.029-.148a8.147,8.147,0,0,0,8.371-8.006,8.245,8.245,0,0,0-8.389-8.569l.037-.13q0-2.711.009-5.423l-.033-.134a5.3,5.3,0,0,0,5.561-5.36q.065-11.263,0-22.527a5.343,5.343,0,0,0-5.569-5.377Z" transform="translate(-80.325 -9.396)" fill="#e40027"/>
        <path id="Trazado_718474" data-name="Trazado 718474" d="M118.351,79.314c-3.859-.553-5.58-2.542-5.583-6.477q-.007-10.273,0-20.546c0-3.94,1.683-5.89,5.576-6.495l-.034.119q0,16.632.008,33.264Z" transform="translate(-70.93 -28.806)" fill="#e0e2f9"/>
        <path id="Trazado_718475" data-name="Trazado 718475" d="M113.583,167.613c-3.628-.267-6.394-1.883-7.761-5.339a8.023,8.023,0,0,1,1.288-8.359,8.856,8.856,0,0,1,6.463-3.155l-.037.13q.009,8.288.018,16.575Z" transform="translate(-66.161 -94.83)" fill="#e0e1f8"/>
        <path id="Trazado_718476" data-name="Trazado 718476" d="M127.72,79.381l-.008-33.264a5.343,5.343,0,0,1,5.569,5.377q.065,11.263,0,22.527a5.3,5.3,0,0,1-5.561,5.36" transform="translate(-80.332 -29.008)" fill="#c4c7f5"/>
        <path id="Trazado_718477" data-name="Trazado 718477" d="M127.718,167.686q-.009-8.288-.019-16.575a8.245,8.245,0,0,1,8.389,8.569,8.147,8.147,0,0,1-8.371,8.006" transform="translate(-80.324 -95.051)" fill="#c5c6f3"/>
      </g>
    </g>
  </g>
</svg>
