<svg xmlns="http://www.w3.org/2000/svg" xmlns:xlink="http://www.w3.org/1999/xlink" width="124" height="124" viewBox="0 0 124 124">
  <defs>
    <clipPath id="clip-path">
      <rect id="Rect치ngulo_375598" data-name="Rect치ngulo 375598" width="81.837" height="99.864" fill="none"/>
    </clipPath>
  </defs>
  <g id="Grupo_1017913" data-name="Grupo 1017913" transform="translate(-581.001 -852.477)">
    <g id="Grupo_1016928" data-name="Grupo 1016928" transform="translate(-156 -1205.523)">
      <g id="Grupo_159183" data-name="Grupo 159183" transform="translate(737.001 2058)">
        <path id="Uni칩n_12" data-name="Uni칩n 12" d="M62,0A62,62,0,1,1,0,62,62,62,0,0,1,62,0Z" fill="#01d8d1"/>
      </g>
    </g>
    <g id="Grupo_1017460" data-name="Grupo 1017460" transform="translate(602.582 864.545)">
      <g id="Grupo_1017459" data-name="Grupo 1017459" clip-path="url(#clip-path)">
        <path id="Trazado_718478" data-name="Trazado 718478" d="M15.62,66.705a8.847,8.847,0,0,0-3.6-.493,8.147,8.147,0,0,1-7.1-11.962c1.194-2.413,2.243-4.761,1.416-7.566a10.84,10.84,0,0,0-3.347-4.746c-4.8-4.565-3.676-11.28,2.31-13.963,5.533-2.48,6.865-4.8,6.206-10.825a8.133,8.133,0,0,1,7.4-9.366,9.952,9.952,0,0,1,3.981.627c4.789,1.46,7.88.347,10.621-3.834,2.5-3.813,5.294-5.14,9.211-4.367a8.119,8.119,0,0,1,5.258,3.852C51.255,9,53.843,9.93,59.52,8.25c6.2-1.835,11.494,2.526,10.8,8.9-.657,6.019.661,8.317,6.207,10.824,5.922,2.677,7.107,9.319,2.468,13.837-4.443,4.327-4.871,6.749-2.165,12.249,2.863,5.82-.768,11.932-7.229,12.158a8.235,8.235,0,0,0-3.4.487,7.273,7.273,0,0,0-5.628,6.461c-.733,6.1-7.59,10.192-13.59,5.8-4.088-3.565-7.951-3.564-12.146,0-1.969,1.274-4.026,2.206-6.466,1.748-3.826-.718-6.134-3.032-6.989-7.163-.693-3.346-2.291-5.872-5.764-6.849m1.165-26.373A24.126,24.126,0,1,0,41.045,16.17a24.069,24.069,0,0,0-24.26,24.162" transform="translate(0 0)" fill="#44a2fe"/>
        <path id="Trazado_718479" data-name="Trazado 718479" d="M115.226,175.849c6,4.391,12.857.3,13.59-5.8a7.273,7.273,0,0,1,5.628-6.461L144.538,187.3c-.722.513-1.267.087-1.819-.095-3.28-1.08-6.589-2.084-9.819-3.3-1.794-.676-2.751-.483-3.566,1.445-1.58,3.735-3.459,7.344-5.4,11.4-1.247-2.942-2.369-5.531-3.444-8.139-1.753-4.253-3.814-8.379-5.261-12.758" transform="translate(-68.241 -96.882)" fill="#fdd451"/>
        <path id="Trazado_718480" data-name="Trazado 718480" d="M23.29,163.587c3.473.977,5.071,3.5,5.764,6.849.855,4.131,3.163,6.445,6.989,7.163,2.439.458,4.5-.475,6.465-1.748-2.1,5.94-4.85,11.612-7.243,17.432a7.673,7.673,0,0,1-1.616,3.152c-1.73-3.623-3.415-7.167-5.115-10.7-1.245-2.591-1.252-2.582-4.071-1.644-3.642,1.211-7.287,2.414-11.512,3.812L23.29,163.587" transform="translate(-7.671 -96.882)" fill="#fdd451"/>
        <path id="Trazado_718481" data-name="Trazado 718481" d="M41.162,63.817a24.125,24.125,0,1,1,23.89,24.27,24.148,24.148,0,0,1-23.89-24.27m38.324-7.952a3.636,3.636,0,0,0-2.432-3.2,3.491,3.491,0,0,0-4.008,1.175c-3.177,3.7-6.409,7.361-9.513,11.125-.919,1.114-1.465,1.318-2.429.117a49.677,49.677,0,0,0-3.815-4.221,3.546,3.546,0,1,0-5.181,4.843c2.446,2.812,4.928,5.6,7.477,8.314,1.788,1.907,3.933,1.872,5.64-.1,4.439-5.121,8.809-10.3,13.216-15.449a4.509,4.509,0,0,0,1.045-2.611" transform="translate(-24.378 -23.485)" fill="#eeefef"/>
        <path id="Trazado_718482" data-name="Trazado 718482" d="M93.933,74.454a4.51,4.51,0,0,1-1.045,2.611C88.48,82.212,84.11,87.392,79.672,92.513c-1.706,1.969-3.852,2-5.64.1-2.549-2.719-5.031-5.5-7.477-8.314a3.546,3.546,0,1,1,5.181-4.843,49.676,49.676,0,0,1,3.815,4.221c.964,1.2,1.51,1,2.429-.117,3.1-3.763,6.336-7.421,9.513-11.125A3.491,3.491,0,0,1,91.5,71.256a3.636,3.636,0,0,1,2.432,3.2" transform="translate(-38.825 -42.074)" fill="#46a3fe"/>
      </g>
    </g>
  </g>
</svg>
