<svg xmlns="http://www.w3.org/2000/svg" xmlns:xlink="http://www.w3.org/1999/xlink" width="124" height="124" viewBox="0 0 124 124">
  <defs>
    <clipPath id="clip-path">
      <rect id="Rect치ngulo_375600" data-name="Rect치ngulo 375600" width="76.673" height="85.942" fill="none"/>
    </clipPath>
  </defs>
  <g id="Grupo_1017915" data-name="Grupo 1017915" transform="translate(-1211.001 -852.477)">
    <g id="Grupo_1016930" data-name="Grupo 1016930" transform="translate(474 -1205.523)">
      <g id="Grupo_159183" data-name="Grupo 159183" transform="translate(737.001 2058)">
        <path id="Uni칩n_12" data-name="Uni칩n 12" d="M62,0A62,62,0,1,1,0,62,62,62,0,0,1,62,0Z" fill="#01d8d1"/>
      </g>
    </g>
    <g id="Grupo_1017464" data-name="Grupo 1017464" transform="translate(1234.164 866.686)">
      <g id="Grupo_1017463" data-name="Grupo 1017463" clip-path="url(#clip-path)">
        <path id="Trazado_718487" data-name="Trazado 718487" d="M167.909,142.259c2.23.022,4.46.051,6.691.064,3,.017,3.955.986,3.956,4.045q0,15.649,0,31.3l-16.118-.01c0-6.427.008-12.855-.011-19.282,0-.637.258-1.357-.356-1.892q.028-5.2.057-10.39c.018-2.458.8-3.378,3.243-3.857a6.285,6.285,0,0,0,2.533.024" transform="translate(-107.593 -94.422)" fill="#618aa9"/>
        <path id="Trazado_718488" data-name="Trazado 718488" d="M65.125,211.583c0-1.832-.03-3.663-.009-5.495.026-2.23,1.132-3.372,3.359-3.468,1.55-.067,3.1-.079,4.654-.116a3.9,3.9,0,0,0,3.373.023c1.743.3,3.536.449,5.011,1.595-.317,4.518-.218,9.043-.229,13.565l-16.134-.02q-.013-3.042-.025-6.083" transform="translate(-43.221 -134.431)" fill="#89b4c8"/>
        <path id="Trazado_718489" data-name="Trazado 718489" d="M21.928,247.609l16.135.02,16.786-.02,16.118.01c1.116.028,2.233.044,3.349.086,1.029.038,2.388-.239,2.356,1.364-.03,1.479-1.316,1.232-2.294,1.233q-31.218.009-62.436,0-4.867,0-9.735,0c-1.007,0-2.249.156-2.206-1.326.042-1.447,1.294-1.253,2.29-1.278q1.591-.04,3.181-.084l16.456-.008" transform="translate(0 -164.374)" fill="#33546a"/>
        <path id="Trazado_718490" data-name="Trazado 718490" d="M92.342,150.1a3.9,3.9,0,0,1-3.373-.023c1.507-3.23,2.911-6.514,4.557-9.672A14.653,14.653,0,0,0,95.08,134c.094-2.451.284-4.9.433-7.346,2.827-.844,5.369-2.445,8.26-3.12a8.079,8.079,0,0,1-.152,2.29,24.59,24.59,0,0,0-.785,5.7,3.622,3.622,0,0,0-.6,2.191,11.728,11.728,0,0,1-3.135,7.307,11.407,11.407,0,0,0-.951,1.338c-.312.4-.883.666-.69,1.329-2.134,1.794-3.444,4.247-5.117,6.409" transform="translate(-59.062 -82.008)" fill="#517794"/>
        <path id="Trazado_718491" data-name="Trazado 718491" d="M176.611,9.1c4.636.308,9.278.038,13.916.147.573.013,1.4-.335,1.664.353s-.587.981-1,1.378c-.929.888-1.9,1.733-2.888,2.558-.705.59-.622,1.061.049,1.612.993.817,1.952,1.675,2.908,2.536.43.387,1.242.648.953,1.387-.249.637-.992.34-1.514.344-4.7.043-9.4.058-14.095.082-.935.01-1.385-.315-1.349-1.387.083-2.459.078-4.925,0-7.384-.033-1.057.334-1.559,1.357-1.626" transform="translate(-116.339 -6.043)" fill="#fbb65a"/>
        <path id="Trazado_718492" data-name="Trazado 718492" d="M32.713,232.938l-16.456.008c0-1.394-.026-2.789.005-4.182a2.994,2.994,0,0,1,3.105-3.2c3.4-.044,6.805.063,10.2-.05,1.344-.045,1.968,1.176,3.118,1.345l.024,6.083" transform="translate(-10.785 -149.703)" fill="#a6c6d2"/>
        <path id="Trazado_718493" data-name="Trazado 718493" d="M116.7,77.794c-2.891.676-5.433,2.276-8.26,3.12a14.419,14.419,0,0,1,1.012-3.37,8.008,8.008,0,0,0,4.539-2.929,18.306,18.306,0,0,0,3.7-7.433,4.16,4.16,0,0,1,1.977-2.577c2.443-1.457,4.878-2.932,7.273-4.466,1.52-.973,2.883-2.121,2.9-4.17a2.009,2.009,0,0,1,.052-.275l2.355-1.062c.652,1.363.235,2.715-.044,4.068l-2.356,3.074c-3.106,1.543-5.957,3.519-8.938,5.275a2.159,2.159,0,0,0-.833,1.4q-1.489,4.534-2.991,9.064l-.355.3Z" transform="translate(-71.985 -36.268)" fill="#60c9ec"/>
        <path id="Trazado_718494" data-name="Trazado 718494" d="M131.83,58.609c-.016,2.049-1.378,3.2-2.9,4.171-2.4,1.533-4.83,3.009-7.273,4.465a4.159,4.159,0,0,0-1.977,2.577,18.3,18.3,0,0,1-3.7,7.433,8.007,8.007,0,0,1-4.539,2.929c.8-3.683,1.957-7.265,3.025-10.872a4.982,4.982,0,0,1,2.59-2.887,10.712,10.712,0,0,0,2.652-1.435l.386-.3-.015.005c3.107-1.316,5.939-3.156,8.931-4.69.931-.477,1.875-.93,2.814-1.394" transform="translate(-73.984 -38.907)" fill="#84d8fe"/>
        <path id="Trazado_718495" data-name="Trazado 718495" d="M171.965,69.808l2.356-3.075q.017,11.618.036,23.235c0,.723.045,1.446.07,2.169a6.3,6.3,0,0,1-2.533-.024q.036-11.153.071-22.306" transform="translate(-114.111 -44.3)" fill="#a7c7d3"/>
        <path id="Trazado_718496" data-name="Trazado 718496" d="M121.032,63.1a10.718,10.718,0,0,1-2.651,1.436,3.088,3.088,0,0,1-3.618-2.24,11.7,11.7,0,0,0-.667-1.348c-1.154-2.316-.842-3.439,1.257-4.519,2.329-1.2,3.476-.826,4.771,1.48.858,1.527,1.6,3.067,1.281,4.9l.014-.005-.386.3" transform="translate(-75.302 -37.016)" fill="#fdcbab"/>
        <path id="Trazado_718497" data-name="Trazado 718497" d="M174.467,18.364l-2.355,1.062q-.029-8.852-.065-17.7c0-.842.069-1.685,1.1-1.722,1.1-.039,1.327.8,1.312,1.725-.007.445.017.89.027,1.335-1.023.065-1.39.568-1.357,1.624.076,2.46.081,4.925,0,7.384-.036,1.072.414,1.4,1.349,1.387q0,2.455-.008,4.909" transform="translate(-114.212 0.001)" fill="#a7c6d1"/>
        <path id="Trazado_718498" data-name="Trazado 718498" d="M113.552,180.292c-.193-.663.379-.928.69-1.329,2.716-.378,5.453-.175,8.178-.293l3.2,0a4.22,4.22,0,0,1,4.014,2c.615.535.354,1.255.356,1.892.019,6.428.011,12.855.011,19.282l-16.787.021c.011-4.523-.088-9.048.229-13.565a37.484,37.484,0,0,1,.106-8" transform="translate(-75.154 -118.607)" fill="#6c96b3"/>
        <path id="Trazado_718499" data-name="Trazado 718499" d="M131.62,123.537q2.76,3.233,5.519,6.468a3.607,3.607,0,0,1,.83,2.95c-.388,3.034-.728,6.075-1.088,9.112l-3.2,0c-.172-1.927-.454-3.853-.487-5.783-.039-2.258-.761-3.957-3-4.762a24.591,24.591,0,0,1,.785-5.7,8.093,8.093,0,0,0,.152-2.29l.027.014.469-.011" transform="translate(-86.414 -82.008)" fill="#3b647d"/>
        <path id="Trazado_718500" data-name="Trazado 718500" d="M133.555,122.974l-.469.011.355-.3a.637.637,0,0,1,.115.288" transform="translate(-88.349 -81.445)" fill="#517794"/>
        <path id="Trazado_718501" data-name="Trazado 718501" d="M136.039,76.993l.386-.3-.386.3" transform="translate(-90.309 -50.911)" fill="#f7f9fa"/>
      </g>
    </g>
  </g>
</svg>
