<svg xmlns="http://www.w3.org/2000/svg" xmlns:xlink="http://www.w3.org/1999/xlink" width="68.411" height="95.459" viewBox="0 0 68.411 95.459">
  <defs>
    <clipPath id="clip-path">
      <rect id="Rectángulo_349809" data-name="Rectángulo 349809" width="68.411" height="95.459" transform="translate(0 0)" fill="none"/>
    </clipPath>
  </defs>
  <g id="Grupo_982822" data-name="Grupo 982822" transform="translate(0 0)">
    <path id="Trazado_716727" data-name="Trazado 716727" d="M67.911,45.1h-64V.5h64ZM5.145,43.867h61.53V1.736H5.145Z" fill="#dfffcc"/>
    <g id="Grupo_982821" data-name="Grupo 982821">
      <g id="Grupo_982820" data-name="Grupo 982820" clip-path="url(#clip-path)">
        <path id="Trazado_716728" data-name="Trazado 716728" d="M67.911,45.1h-64V.5h64ZM5.145,43.867h61.53V1.736H5.145Z" fill="none" stroke="#dfffcc" stroke-miterlimit="10" stroke-width="1"/>
        <path id="Trazado_716729" data-name="Trazado 716729" d="M27.039,16.887a4.159,4.159,0,0,0-.8-.653,9.139,9.139,0,0,0-1.223-.67,10.106,10.106,0,0,0-1.527-.55,8.865,8.865,0,0,0-1.709-.293l-.021,6.266.575.123A26.835,26.835,0,0,1,25.282,22,8.41,8.41,0,0,1,27.5,23.185a4.815,4.815,0,0,1,1.4,1.715,5.542,5.542,0,0,1,.492,2.469,6,6,0,0,1-.585,2.737,5.331,5.331,0,0,1-1.6,1.887,7.129,7.129,0,0,1-2.365,1.127,11.468,11.468,0,0,1-2.892.4L21.95,36.7l-1.574-.005.01-3.239a15.276,15.276,0,0,1-4.144-.876,13.08,13.08,0,0,1-3.6-1.995l1.553-2.9a5.311,5.311,0,0,0,.966.79,10.992,10.992,0,0,0,1.48.823,13.773,13.773,0,0,0,1.86.7,11.85,11.85,0,0,0,2.1.43l.021-6.265q-.182-.062-.378-.108a3.79,3.79,0,0,1-.378-.107,25.473,25.473,0,0,1-2.8-.9A7,7,0,0,1,15.1,21.9a4.448,4.448,0,0,1-1.191-1.563,5.182,5.182,0,0,1-.4-2.166,6.4,6.4,0,0,1,.524-2.632,5.784,5.784,0,0,1,1.459-1.978,6.922,6.922,0,0,1,2.2-1.294,10.193,10.193,0,0,1,2.772-.581l.01-3.057,1.573,0-.009,3.057a11.628,11.628,0,0,1,3.629.8,13.133,13.133,0,0,1,2.931,1.614Zm-9.991.755a2.185,2.185,0,0,0,.887,1.91,8.631,8.631,0,0,0,2.7,1.129l.019-5.964a4.4,4.4,0,0,0-2.727.854,2.624,2.624,0,0,0-.884,2.071M25.763,27.72A2.238,2.238,0,0,0,24.71,25.7a11.331,11.331,0,0,0-2.962-1.236l-.02,5.993a5.515,5.515,0,0,0,2.984-.716,2.286,2.286,0,0,0,1.051-2.025" fill="#dfffcc"/>
        <path id="Trazado_716730" data-name="Trazado 716730" d="M27.039,16.887a4.159,4.159,0,0,0-.8-.653,9.139,9.139,0,0,0-1.223-.67,10.106,10.106,0,0,0-1.527-.55,8.865,8.865,0,0,0-1.709-.293l-.021,6.266.575.123A26.835,26.835,0,0,1,25.282,22,8.41,8.41,0,0,1,27.5,23.185a4.815,4.815,0,0,1,1.4,1.715,5.542,5.542,0,0,1,.492,2.469,6,6,0,0,1-.585,2.737,5.331,5.331,0,0,1-1.6,1.887,7.129,7.129,0,0,1-2.365,1.127,11.468,11.468,0,0,1-2.892.4L21.95,36.7l-1.574-.005.01-3.239a15.276,15.276,0,0,1-4.144-.876,13.08,13.08,0,0,1-3.6-1.995l1.553-2.9a5.311,5.311,0,0,0,.966.79,10.992,10.992,0,0,0,1.48.823,13.773,13.773,0,0,0,1.86.7,11.85,11.85,0,0,0,2.1.43l.021-6.265q-.182-.062-.378-.108a3.79,3.79,0,0,1-.378-.107,25.473,25.473,0,0,1-2.8-.9A7,7,0,0,1,15.1,21.9a4.448,4.448,0,0,1-1.191-1.563,5.182,5.182,0,0,1-.4-2.166,6.4,6.4,0,0,1,.524-2.632,5.784,5.784,0,0,1,1.459-1.978,6.922,6.922,0,0,1,2.2-1.294,10.193,10.193,0,0,1,2.772-.581l.01-3.057,1.573,0-.009,3.057a11.628,11.628,0,0,1,3.629.8,13.133,13.133,0,0,1,2.931,1.614Zm-9.991.755a2.185,2.185,0,0,0,.887,1.91,8.631,8.631,0,0,0,2.7,1.129l.019-5.964a4.4,4.4,0,0,0-2.727.854A2.624,2.624,0,0,0,17.048,17.642ZM25.763,27.72A2.238,2.238,0,0,0,24.71,25.7a11.331,11.331,0,0,0-2.962-1.236l-.02,5.993a5.515,5.515,0,0,0,2.984-.716A2.286,2.286,0,0,0,25.763,27.72Z" fill="none" stroke="#dfffcc" stroke-miterlimit="10" stroke-width="1"/>
        <rect id="Rectángulo_349806" data-name="Rectángulo 349806" width="25.126" height="3.575" transform="translate(36.639 13.203)" fill="#ffee58"/>
        <rect id="Rectángulo_349807" data-name="Rectángulo 349807" width="19.749" height="3.575" transform="translate(36.638 21.014)" fill="#ffee58"/>
        <rect id="Rectángulo_349808" data-name="Rectángulo 349808" width="22.159" height="3.575" transform="translate(36.639 28.825)" fill="#ffee58"/>
        <path id="Trazado_716731" data-name="Trazado 716731" d="M61.765,94.959h-22.1V47.3H40.9V93.724H61.765Z" fill="#dfffcc"/>
        <path id="Trazado_716732" data-name="Trazado 716732" d="M61.765,94.959h-22.1V47.3H40.9V93.724H61.765Z" fill="none" stroke="#dfffcc" stroke-miterlimit="10" stroke-width="1"/>
        <path id="Trazado_716733" data-name="Trazado 716733" d="M25.4,48.736H.5V25.276H1.736V47.5H25.4Z" fill="#dfffcc"/>
        <path id="Trazado_716734" data-name="Trazado 716734" d="M25.4,48.736H.5V25.276H1.736V47.5H25.4Z" fill="none" stroke="#dfffcc" stroke-miterlimit="10" stroke-width="1"/>
      </g>
    </g>
  </g>
</svg>
