<svg xmlns="http://www.w3.org/2000/svg" xmlns:xlink="http://www.w3.org/1999/xlink" width="85" height="85" viewBox="0 0 85 85">
  <defs>
    <clipPath id="clip-path">
      <rect id="Rectángulo_375703" data-name="Rectángulo 375703" width="53.822" height="53.801" fill="#fff"/>
    </clipPath>
  </defs>
  <g id="Grupo_1017921" data-name="Grupo 1017921" transform="translate(-285 -2198.025)">
    <g id="Grupo_1013927" data-name="Grupo 1013927" transform="translate(0 -4252.975)">
      <circle id="Elipse_4872" data-name="Elipse 4872" cx="42.5" cy="42.5" r="42.5" transform="translate(285 6451)" fill="#005d95"/>
    </g>
    <g id="Grupo_1017549" data-name="Grupo 1017549" transform="translate(300.589 2217.625)">
      <g id="Grupo_1017548" data-name="Grupo 1017548" clip-path="url(#clip-path)">
        <path id="Trazado_718796" data-name="Trazado 718796" d="M26.915,0Q38.579,0,50.244,0c2.467,0,3.569,1.112,3.572,3.592,0,.911.015,1.822,0,2.732a2.854,2.854,0,0,1-2.524,3c-.815.107-.885.441-.884,1.121.019,10.438.006,20.877.02,31.316a5,5,0,0,1-2.042,4.37,5.345,5.345,0,0,1-3.29.854q-7.724-.012-15.448,0c-1.459,0-1.459,0-1.459,1.511,0,1.261-.011,2.522,0,3.783.01.859-.328,1.439-1.228,1.52-.8.072-1.308-.533-1.318-1.526-.015-1.4-.057-2.8.016-4.2.044-.848-.154-1.119-1.065-1.11-5.184.05-10.368.025-15.552.024-3.881,0-5.635-1.76-5.635-5.648q0-15.448.014-30.9c0-.689-.085-1.009-.891-1.116a2.853,2.853,0,0,1-2.518-3C-.008,5.305,0,4.289.009,3.273A3,3,0,0,1,3.27,0Q15.092-.007,26.915,0M26.884,44.4q9.195,0,18.39,0c1.8,0,2.566-.748,2.568-2.547.008-10.509-.005-21.018.022-31.526,0-.779-.267-.9-.958-.9q-19.967.028-39.933-.008c-.87,0-1.013.275-1.011,1.059Q6,26.081,5.98,41.687c0,2.017.7,2.707,2.725,2.708q9.09,0,18.18,0M26.8,6.839H49.81c1.461,0,1.461,0,1.461-1.508a10.968,10.968,0,0,1,.011-1.469c.15-1.094-.318-1.336-1.359-1.334Q27.7,2.575,5.484,2.549c-2.936,0-2.884,0-2.959,2.981C2.5,6.632,2.867,6.866,3.9,6.861c7.634-.04,15.268-.022,22.9-.022" transform="translate(0 0)" fill="#fff"/>
        <path id="Trazado_718797" data-name="Trazado 718797" d="M90.669,69.275c-.489.461-.846.822-1.228,1.153A1.218,1.218,0,0,1,87.58,70.4a1.191,1.191,0,0,1,.077-1.782c1.137-1.139,2.284-2.269,3.458-3.37a1.255,1.255,0,0,1,1.943.1c1.025,1.053,2.037,2.118,3.057,3.176A1.293,1.293,0,1,1,94.271,70.3c-.265-.262-.46-.614-.9-.769a13.419,13.419,0,0,1-.839,4.1A11.134,11.134,0,0,1,83.071,80.6c-2.775.346-5.549.7-8.319,1.089A8.533,8.533,0,0,0,67.578,89.7c-.08,1.124-.526,1.671-1.331,1.634C65.423,91.3,65,90.7,65.026,89.593A11.115,11.115,0,0,1,74.4,79.153c3.118-.42,6.241-.8,9.351-1.27a8.4,8.4,0,0,0,6.976-8.036c0-.125-.024-.251-.058-.572" transform="translate(-51.348 -51.195)" fill="#fff"/>
        <path id="Trazado_718798" data-name="Trazado 718798" d="M160.55,158.2c-.705-.672-1.257-1.158-1.762-1.689a1.275,1.275,0,1,1,1.772-1.832c.573.488,1.007,1.471,1.656,1.428.562-.037,1.058-.923,1.606-1.409a1.28,1.28,0,1,1,1.817,1.8c-.48.58-1.477,1-1.4,1.679.061.578.925,1.065,1.418,1.606a1.27,1.27,0,0,1-1.769,1.822c-.588-.489-1.044-1.5-1.679-1.451-.595.045-1.113.949-1.689,1.448a1.267,1.267,0,0,1-1.759-1.825c.533-.55,1.15-1.019,1.794-1.579" transform="translate(-125.039 -121.824)" fill="#fff"/>
        <path id="Trazado_718799" data-name="Trazado 718799" d="M52.828,95.631c-.045-.413.267-.739.588-1.074,1.368-1.432,1.365-1.435.039-2.821a3.371,3.371,0,0,1-.353-.386,1.207,1.207,0,0,1,.125-1.7,1.185,1.185,0,0,1,1.626-.1c.682.483,1.13,1.6,1.854,1.56.608-.035,1.136-1.033,1.751-1.543a1.147,1.147,0,0,1,1.62.07,1.211,1.211,0,0,1,.138,1.706c-.469.676-1.593,1.11-1.528,1.829.057.628,1.037,1.146,1.536,1.771a1.256,1.256,0,0,1-1.794,1.73,12.647,12.647,0,0,1-1.348-1.319c-.306-.337-.529-.351-.841-.007A14.331,14.331,0,0,1,54.9,96.669a1.148,1.148,0,0,1-1.368.148,1.264,1.264,0,0,1-.7-1.186" transform="translate(-41.702 -70.488)" fill="#fff"/>
        <path id="Trazado_718800" data-name="Trazado 718800" d="M110.956,64.908c.881.071,1.316.776,1.817,1.324.532.583.924.713,1.445.017a5.645,5.645,0,0,1,1.041-1.029,1.175,1.175,0,0,1,1.7.084,1.188,1.188,0,0,1,.074,1.7,9.436,9.436,0,0,1-1.249,1.268c-.438.372-.38.633.024.976a12.1,12.1,0,0,1,1.112,1.11,1.278,1.278,0,1,1-1.767,1.845c-.581-.488-1.008-1.478-1.678-1.433-.56.038-1.053.924-1.6,1.412a1.212,1.212,0,0,1-1.857-.015,1.24,1.24,0,0,1,.05-1.793c.484-.576,1.474-1,1.415-1.667-.051-.57-.914-1.069-1.422-1.6a1.289,1.289,0,0,1,.89-2.207" transform="translate(-86.597 -51.247)" fill="#fff"/>
      </g>
    </g>
  </g>
</svg>
