<svg id="Grupo_1017484" data-name="Grupo 1017484" xmlns="http://www.w3.org/2000/svg" xmlns:xlink="http://www.w3.org/1999/xlink" width="396" height="724.096" viewBox="0 0 396 724.096">
  <defs>
    <clipPath id="clip-path">
      <rect id="Rectángulo_375620" data-name="Rectángulo 375620" width="396" height="724.096" fill="none"/>
    </clipPath>
    <clipPath id="clip-path-3">
      <rect id="Rectángulo_375616" data-name="Rectángulo 375616" width="96.252" height="60.947" fill="none"/>
    </clipPath>
    <clipPath id="clip-path-4">
      <rect id="Rectángulo_375617" data-name="Rectángulo 375617" width="74.061" height="78.63" fill="none"/>
    </clipPath>
    <clipPath id="clip-path-5">
      <rect id="Rectángulo_375618" data-name="Rectángulo 375618" width="63.705" height="68.033" fill="none"/>
    </clipPath>
  </defs>
  <g id="Grupo_1017483" data-name="Grupo 1017483" clip-path="url(#clip-path)">
    <g id="Grupo_1017482" data-name="Grupo 1017482">
      <g id="Grupo_1017481" data-name="Grupo 1017481" clip-path="url(#clip-path)">
        <path id="Trazado_718502" data-name="Trazado 718502" d="M318.363,124.184c-40.529-27.26-88.717-36.972-120.3-36.972-29.577,0-73.1,4.664-112.5,26.888a156.046,156.046,0,0,0-58.025,56.044C10.912,197.845,1.914,232.121.793,272.021a22.083,22.083,0,0,0,22.1,22.658h77.554a22.191,22.191,0,0,0,21.881-18.992c3.44-24.32,17.874-65.269,75.911-66.27,44.212-.759,62.456,31.248,68.247,45.047,9.427,22.456,7.036,49.082-6.4,71.229-20.638,34.025-58.6,39.235-79.394,39.31a43.481,43.481,0,0,0-43.366,43.272v83.454a22.128,22.128,0,0,0,22.1,22.1h75.561a22.127,22.127,0,0,0,22.1-22.1V474.2a.978.978,0,0,1,.668-.927,219.117,219.117,0,0,0,80.18-50.231c38.151-37.932,57.495-86.887,57.495-145.51,0-83.893-41.914-129.694-77.075-153.344" transform="translate(0.562 62.489)" fill="#005d95"/>
        <path id="Trazado_718503" data-name="Trazado 718503" d="M136.826,358.429h6.1a54.422,54.422,0,1,1,0,108.845h-6.1a54.422,54.422,0,0,1,0-108.845" transform="translate(59.044 256.822)" fill="#81c539"/>
        <path id="Trazado_718504" data-name="Trazado 718504" d="M102.26,376.119h75.53c12.182,0,22.093-9.6,22.093-21.4V320.6a.948.948,0,0,1,.668-.9A182.829,182.829,0,0,0,236.1,302.415c-48.258-.338-136.221-.831-155.937-.113v52.416c0,11.8,9.911,21.4,22.093,21.4" transform="translate(57.441 216.342)" fill="#81c539"/>
        <path id="Trazado_718505" data-name="Trazado 718505" d="M199.344,204.649,150.875,63.893C140.639,28.649,111.6,5.23,76.651,16.438l-3.169,1.224A65.607,65.607,0,0,0,34.212,97.5c9.041,30.5,19.422,64.078,25.748,79.87,13.1,32.689,47.385,23.515,47.385,23.515.074-.026,7.63,21.79,10.936,31.582l17.751,17.539L143.363,242Z" transform="translate(22.566 9.753)" fill="#ffc09d"/>
        <path id="Trazado_718506" data-name="Trazado 718506" d="M75.681,134.889s21.173-6.784,37.884-29.169c0,0-.748,28.671-34.667,38.376Z" transform="translate(54.227 75.751)" fill="#ff9b6c"/>
        <path id="Trazado_718507" data-name="Trazado 718507" d="M47,78.089a5.028,5.028,0,0,0,6.351,2.985,4.809,4.809,0,0,0,3.2-6.1,5.029,5.029,0,0,0-6.348-2.99,4.812,4.812,0,0,0-3.2,6.1" transform="translate(33.492 51.394)" fill="#263238"/>
        <path id="Trazado_718508" data-name="Trazado 718508" d="M40.183,72.367c.817.386,3.354-3.617,8.409-5.551,5.019-2.01,9.728-.841,10.035-1.672.163-.376-.855-1.255-2.922-1.8a13.789,13.789,0,0,0-8.327.58,13.253,13.253,0,0,0-6.4,5.186c-1.09,1.79-1.19,3.1-.8,3.261" transform="translate(28.641 45.103)" fill="#263238"/>
        <path id="Trazado_718509" data-name="Trazado 718509" d="M71.566,69.616c.819.386,3.363-3.617,8.411-5.553C85,62.056,89.7,63.222,90.013,62.391c.161-.376-.85-1.253-2.923-1.8a13.8,13.8,0,0,0-8.327.58,13.269,13.269,0,0,0-6.4,5.184c-1.087,1.79-1.188,3.1-.8,3.263" transform="translate(51.13 43.132)" fill="#263238"/>
        <path id="Trazado_718510" data-name="Trazado 718510" d="M73.6,102.581c-.088-.3-3.435.374-8.77,1.687-1.341.366-2.661.582-3.217-.215-.663-.814-.661-2.412-.616-4.154q.01-5.381.021-11.288c-.106-16.02-.712-28.99-1.358-28.982s-1.085,13-.978,29.023c.058,3.939.108,7.693.163,11.286.079,1.653-.118,3.639,1.286,5.316a3.466,3.466,0,0,0,2.848,1.066,9.4,9.4,0,0,0,2.307-.541c5.223-1.7,8.406-2.9,8.315-3.2" transform="translate(42.035 42.726)" fill="#263238"/>
        <path id="Trazado_718511" data-name="Trazado 718511" d="M64.77,53.928c1.184,1.023,5.558-2.225,11.472-4.655,5.867-2.552,11.242-3.43,11.332-4.992.019-.735-1.435-1.507-3.938-1.739a21.524,21.524,0,0,0-17.373,7.348c-1.576,1.959-2.036,3.539-1.493,4.037" transform="translate(46.253 30.437)" fill="#263238"/>
        <path id="Trazado_718512" data-name="Trazado 718512" d="M36.785,64.134c1.481.762,5.172-1.96,10.122-3.852,4.892-2.038,9.465-2.614,9.987-4.18.209-.742-.879-1.651-3.121-2.065A17.065,17.065,0,0,0,44.817,55.2a16.777,16.777,0,0,0-7.247,5.309c-1.32,1.833-1.457,3.234-.784,3.625" transform="translate(26.074 38.584)" fill="#263238"/>
        <path id="Trazado_718513" data-name="Trazado 718513" d="M104.639,58.937c.465-.458,19.991-15.4,27.95,7.338s-16.508,26.036-16.776,25.4-11.175-32.736-11.175-32.736" transform="translate(74.976 38.476)" fill="#ffc09d"/>
        <path id="Trazado_718514" data-name="Trazado 718514" d="M115.132,77.615c.074-.108.493.137,1.27.211a4.19,4.19,0,0,0,2.982-.977c2.092-1.722,2.779-6.243,1.456-10.378a13.858,13.858,0,0,0-3.093-5.282c-1.277-1.421-2.758-2.206-4.044-2a2.137,2.137,0,0,0-1.957,1.9c-.082.743.221,1.147.115,1.227-.045.079-.621-.211-.767-1.214a2.67,2.67,0,0,1,.4-1.737,3.165,3.165,0,0,1,1.986-1.346c1.8-.493,3.938.568,5.373,2.077a14.218,14.218,0,0,1,3.589,5.855c1.459,4.633.615,9.741-2.34,11.841a4.5,4.5,0,0,1-3.833.666c-.9-.314-1.2-.781-1.133-.85" transform="translate(79.587 41.489)" fill="#ff9b6c"/>
        <path id="Trazado_718515" data-name="Trazado 718515" d="M82,83.324c-.8.218.944,5.465-2.3,10.69s-9.02,6.518-8.816,7.264c.036.354,1.586.6,3.969-.124a13.782,13.782,0,0,0,7.458-5.766,12,12,0,0,0,1.591-8.852c-.534-2.261-1.553-3.364-1.9-3.213" transform="translate(50.789 59.693)" fill="#263238"/>
        <path id="Trazado_718516" data-name="Trazado 718516" d="M.014,91.291a5.708,5.708,0,0,1,1.421-4.034C3.5,84.8,6.565,83.951,9.446,82.884A50.715,50.715,0,0,0,28.393,70.338,25.1,25.1,0,0,1,20.77,68.2c-4.962-2.371-9.05-7.235-9.1-12.735a3.348,3.348,0,0,1,1.016-2.8c1.317-.973,3.119.021,4.552.808,4.715,2.589,8.413,3.11,13.281.822a21.373,21.373,0,0,0,7.736-5.6c.062-.137.11-.282.173-.417.752-1.636,1.493-3.206,2.233-4.734l.005-.012,0,.007C46.227,32.056,51.507,23.593,58,17.881,67.519,9.507,85.431,1.162,98.066.121S124.393,4.8,130.174,16.085C134.728,8.316,144.481,4.933,153.5,5.324l.167-.156c9.9.036,18.175,7.57,23.932,15.626.314.441.613.894.92,1.341a36.976,36.976,0,0,0,15.914,7.391c1.025.2,2.213.458,2.661,1.4s-.091,2.025-.685,2.873a18.592,18.592,0,0,1-6.076,5.467,41.746,41.746,0,0,0,5.095,5.153c1.586,1.332,3.474,2.93,3.224,4.986a3.932,3.932,0,0,1-3.287,3.059,11.516,11.516,0,0,1-4.748-.41q2.714,3,5.426,6.011a22.037,22.037,0,0,1-9.793,2.733c1.087,9.048,5.156,25.08,5,31.527-5.992,2.23-7.688,2.091-10.375,4.171-3.474,2.692.481,9.127-5.337,8.953-2.961-.091-10.442-8.559-12.249-10.905a137.541,137.541,0,0,1-24.965-52.931,44.225,44.225,0,0,0-16.151-4.756l.52.216c-10.426.046-22.052.575-29.329,8.042-5.644,5.792-7.165,14.3-10.28,21.764C77.173,81.021,68.226,90.611,54,96.321c2.231,10.49,7.625,27.027,10.433,36.558L49.844,116.962l.021.077c-1.033-.869-1.957-1.789-2.861-2.716l-.3-.273-.015-.043a61.488,61.488,0,0,0-4.508-4.4l-.062.112c-3.495,6.26-13.377,2.053-11.3-4.81a13.9,13.9,0,0,1,1.825-3.836,9.806,9.806,0,0,1-8.008,5.388,7.692,7.692,0,0,1-7.661-5.369,6.542,6.542,0,0,1,1.935-6.246A22.078,22.078,0,0,1,6.14,96.413C3.328,95.9.257,94.515.014,91.291" transform="translate(0 0)" fill="#263238"/>
        <path id="Trazado_718517" data-name="Trazado 718517" d="M70.524,13.742a30.457,30.457,0,0,1,4.41,1.874,25.288,25.288,0,0,1,8.993,9.242,44.463,44.463,0,0,1,3.828,8.15c1.092,3.057,2,6.423,2.983,9.961A93.052,93.052,0,0,0,94.331,53.96a40.56,40.56,0,0,0,2.777,5.488A12.694,12.694,0,0,0,101.42,64.2a5.323,5.323,0,0,0,5.247-.076,7.912,7.912,0,0,0,3.382-3.874c1.26-3.249.678-6.6.225-9.582l-.668.33a29.549,29.549,0,0,0,6.5,5.541,10.507,10.507,0,0,0,7.711,1.243,6.761,6.761,0,0,0,3.215-1.809,5.852,5.852,0,0,0,1.521-3.114,6.063,6.063,0,0,0-.331-3.2,4.382,4.382,0,0,0-1.979-2.209l-.242.438a22.731,22.731,0,0,0,9.031,2.843,20.32,20.32,0,0,0,2.516.081,3.786,3.786,0,0,0,.862-.084,4.413,4.413,0,0,0-.862-.055c-.566-.029-1.406-.067-2.487-.209a23.458,23.458,0,0,1-8.809-3.009l-.242.439a4.521,4.521,0,0,1,1.962,4.863,5.285,5.285,0,0,1-1.39,2.772,6.147,6.147,0,0,1-2.928,1.6,9.84,9.84,0,0,1-7.184-1.232,29.184,29.184,0,0,1-6.3-5.443l-.853-.9.185,1.229c.451,2.975.954,6.214-.2,9.152a7.134,7.134,0,0,1-3.026,3.464,4.485,4.485,0,0,1-4.46.069A12.016,12.016,0,0,1,97.8,59.019a40.322,40.322,0,0,1-2.731-5.371,94.7,94.7,0,0,1-3.6-10.884c-1-3.529-1.94-6.9-3.073-9.988a44.414,44.414,0,0,0-3.974-8.224,24.946,24.946,0,0,0-9.334-9.216,14.3,14.3,0,0,0-4.564-1.593" transform="translate(50.532 9.846)" fill="#455a64"/>
        <path id="Trazado_718518" data-name="Trazado 718518" d="M17.243,87.751a1.28,1.28,0,0,0,.347.132c.282.086.625.187,1.044.314a11.647,11.647,0,0,0,1.727.407,18.817,18.817,0,0,0,2.4.352A31.252,31.252,0,0,0,37.891,86.5,39.934,39.934,0,0,0,55.346,72.021c4.961-7.117,8.311-16.207,10.239-25.944,1-4.878,1.516-9.7,2.346-14.276a46.673,46.673,0,0,1,3.862-12.74,24.076,24.076,0,0,1,7.532-9.192,17.272,17.272,0,0,1,4.846-2.362,19.027,19.027,0,0,1,4.94-.742,20.416,20.416,0,0,1,13.87,5.277,24.44,24.44,0,0,1,3.473,4.381,1.2,1.2,0,0,0-.149-.34l-.517-.961a17.572,17.572,0,0,0-2.585-3.311,20.042,20.042,0,0,0-5.5-3.733,20.617,20.617,0,0,0-8.6-1.893,19.4,19.4,0,0,0-5.114.714A17.781,17.781,0,0,0,78.935,9.31a24.629,24.629,0,0,0-7.819,9.412,46.989,46.989,0,0,0-3.979,12.936c-.846,4.612-1.368,9.425-2.36,14.257-1.914,9.664-5.206,18.647-10.055,25.676A39.72,39.72,0,0,1,37.665,85.966a31.723,31.723,0,0,1-14.879,2.669,50.091,50.091,0,0,1-5.543-.884" transform="translate(12.355 4.431)" fill="#455a64"/>
        <path id="Trazado_718519" data-name="Trazado 718519" d="M12.481,50.525a5.49,5.49,0,0,0,1.485.41,27.147,27.147,0,0,0,4.163.549,36.438,36.438,0,0,0,6.238-.134,41.561,41.561,0,0,0,7.482-1.571,41.763,41.763,0,0,0,7.026-3.025,36.478,36.478,0,0,0,5.177-3.481,27.474,27.474,0,0,0,3.086-2.846,5.526,5.526,0,0,0,.978-1.19c-.112-.11-1.615,1.483-4.422,3.574a41.529,41.529,0,0,1-5.182,3.275A45.332,45.332,0,0,1,31.6,48.994a45.419,45.419,0,0,1-7.321,1.6,41.834,41.834,0,0,1-6.125.306c-3.5-.094-5.646-.53-5.673-.378" transform="translate(8.943 28.112)" fill="#455a64"/>
        <path id="Trazado_718520" data-name="Trazado 718520" d="M48.757,184.43c-.3.086,3.594,19.572,7.405,39.784h1.2c-3.809-20.212-8.311-39.87-8.608-39.784" transform="translate(34.924 132.148)" fill="#263238"/>
        <path id="Trazado_718521" data-name="Trazado 718521" d="M77.629,277.56c11.017,0,21.158-7.937,22.7-18.748,3.462-24.285,17.32-65.389,75.74-66.39,44.5-.757,63.235,30.743,68.482,44.755,8.33,22.241,7.3,49.237-6.224,71.351-20.773,33.975-58.988,39.178-79.918,39.253-24.069.088-43.651,19.471-43.651,43.208V481.73l120.557-2.268V456.813a.977.977,0,0,1,.673-.925c14.685-5.112,37.969-14.8,64.165-35.927l-7.848-104.5s22.943-44.1,21.807-54.017c-10.388-90.638-41.215-141.924-53.743-146.708-14.067-5.369-68.378-2.755-68.378-2.755s-23.456,43.462-56.364,48.275c-18.31,2.679-25-20.186-25-20.186L68.1,165c-30.271,15.27-36.145,74.674-36.7,112.556Z" transform="translate(22.496 79.779)" fill="#81c539"/>
        <g id="Grupo_1017474" data-name="Grupo 1017474" transform="translate(222.348 410.729)" opacity="0.3">
          <g id="Grupo_1017473" data-name="Grupo 1017473">
            <g id="Grupo_1017472" data-name="Grupo 1017472" clip-path="url(#clip-path-3)">
              <path id="Trazado_718522" data-name="Trazado 718522" d="M147.024,239.28c24.3,6.186,48.258,14.012,72.557,20.2,1.8.46,3.723.989,4.94,2.4,1.789,2.074,1.385,5.217.585,7.834-2.556,8.354-8.068,15.574-14.632,21.34-5.289,4.645-11.623,8.564-18.64,9.111-7.814.611-15.323-3.014-21.932-7.23a115.585,115.585,0,0,1-40.371-44.41s5.7-2.345,10.059-4.676a77.851,77.851,0,0,0,7.433-4.564" transform="translate(-129.535 -239.28)"/>
            </g>
          </g>
        </g>
        <path id="Trazado_718523" data-name="Trazado 718523" d="M169.782,191.657c9.717,22.421,7.252,49.01-6.593,71.124A76.732,76.732,0,0,1,135.048,289.7c11.494,12.5,23.159,23.518,34.694,31.7,12.412,8.809,41.02,6.3,51.866-12.979,13.382-23.791,14.5-84.57,14.5-84.57l2.542-36.641-74.835-11.463-.6,2.051c3.212,4.813,5.1,10.481,6.567,13.859" transform="translate(96.765 125.927)" fill="#ffc09d"/>
        <path id="Trazado_718524" data-name="Trazado 718524" d="M103.851,206.8l-4.26,6.717c-3.239,2.235-6.322,1.008-8.323-3.145L45.2,140.256l11.223-7.137L107.3,200.362s.716,3.565-3.454,6.442" transform="translate(32.386 95.383)" fill="#455a64"/>
        <path id="Trazado_718525" data-name="Trazado 718525" d="M28.239,176.606a51.277,51.277,0,1,1,71.778-66.2,51.27,51.27,0,0,1-71.778,66.2M77.062,90.368A47.81,47.81,0,1,0,96.9,111.854a47.823,47.823,0,0,0-19.84-21.486" transform="translate(1.565 57.831)" fill="#263238"/>
        <path id="Trazado_718526" data-name="Trazado 718526" d="M29.512,175.353a51.277,51.277,0,1,1,71.778-66.2,51.27,51.27,0,0,1-71.778,66.2M78.335,89.115A47.81,47.81,0,1,0,98.174,110.6a47.823,47.823,0,0,0-19.84-21.486" transform="translate(2.477 56.934)" fill="#455a64"/>
        <path id="Trazado_718527" data-name="Trazado 718527" d="M82.319,128.068a4.979,4.979,0,0,1-.053-.843c-.039-.551.026-1.365-.1-2.4a36.666,36.666,0,0,0-1.7-8.656,46.192,46.192,0,0,0-2.247-5.668,49.3,49.3,0,0,0-3.507-6.052A47.273,47.273,0,0,0,69.9,98.4a45.364,45.364,0,0,0-6.155-5.551,42.2,42.2,0,0,0-7.1-4.262,45.73,45.73,0,0,0-7.269-2.6,43.472,43.472,0,0,0-12.984-1.317,41.631,41.631,0,0,0-8.725,1.354c-1.021.228-1.778.534-2.312.671a4.868,4.868,0,0,1-.817.216,4.72,4.72,0,0,1,.781-.319c.524-.173,1.274-.512,2.292-.774a38.919,38.919,0,0,1,8.759-1.536A42.909,42.909,0,0,1,49.5,85.5a45.338,45.338,0,0,1,7.371,2.6,42.29,42.29,0,0,1,7.2,4.31,45.133,45.133,0,0,1,6.219,5.625,46.9,46.9,0,0,1,4.844,6.125,48.717,48.717,0,0,1,3.5,6.14,45.091,45.091,0,0,1,2.206,5.749,34.625,34.625,0,0,1,1.541,8.758,22.4,22.4,0,0,1-.005,2.42,4.936,4.936,0,0,1-.058.841" transform="translate(17.581 60.324)" fill="#fff"/>
        <path id="Trazado_718528" data-name="Trazado 718528" d="M27.023,138.619c.036-.127,2.377.745,6.327,1.284.5.06,1.014.124,1.552.187s1.107.062,1.691.1c1.167.094,2.417.033,3.732.007a43.552,43.552,0,0,0,8.433-1.323,43.663,43.663,0,0,0,7.96-3.093c1.15-.639,2.262-1.214,3.224-1.881.486-.324.977-.611,1.413-.934l1.246-.941c3.145-2.451,4.731-4.381,4.825-4.291a10.3,10.3,0,0,1-1.117,1.339,14.982,14.982,0,0,1-1.43,1.462,24.751,24.751,0,0,1-2.036,1.794l-1.239.98c-.434.336-.925.633-1.411.972a37.222,37.222,0,0,1-3.239,1.948A41.9,41.9,0,0,1,48.9,139.4a41.956,41.956,0,0,1-8.553,1.3,36.819,36.819,0,0,1-3.78-.058c-.59-.046-1.162-.058-1.708-.13s-1.063-.153-1.564-.223a25.225,25.225,0,0,1-2.661-.529,14.963,14.963,0,0,1-1.972-.548,10.428,10.428,0,0,1-1.639-.594" transform="translate(19.363 91.52)" fill="#fff"/>
        <path id="Trazado_718529" data-name="Trazado 718529" d="M59.879,127.575c-.108.106-6.794-6.585-14.929-14.944S30.305,97.409,30.414,97.3s6.792,6.585,14.93,14.946,14.644,15.22,14.536,15.327" transform="translate(21.791 69.719)" fill="#fff"/>
        <path id="Trazado_718530" data-name="Trazado 718530" d="M61.862,143.244a3.184,3.184,0,0,1-.487-.475c-.34-.369-.776-.845-1.315-1.433l-4.781-5.318c-4.03-4.5-9.616-10.691-15.859-17.464S27.453,105.71,23.3,101.328l-4.913-5.2L17.065,94.7a3.04,3.04,0,0,1-.434-.524,3.2,3.2,0,0,1,.513.446l1.4,1.356c1.205,1.184,2.927,2.916,5.04,5.074,4.226,4.315,10,10.347,16.245,17.124S51.613,131.2,55.571,135.76c1.979,2.281,3.567,4.139,4.65,5.435l1.238,1.5a3.236,3.236,0,0,1,.4.548" transform="translate(11.915 67.482)" fill="#fff"/>
        <g id="Grupo_1017477" data-name="Grupo 1017477" transform="translate(20.87 147.916)" opacity="0.3">
          <g id="Grupo_1017476" data-name="Grupo 1017476">
            <g id="Grupo_1017475" data-name="Grupo 1017475" clip-path="url(#clip-path-4)">
              <path id="Trazado_718531" data-name="Trazado 718531" d="M23.252,86.172l62.967,68.4s-5.1,7.129-9.765,10.229l-64.3-70a36.756,36.756,0,0,1,11.094-8.631" transform="translate(-12.159 -86.172)" fill="#fff"/>
            </g>
          </g>
        </g>
        <g id="Grupo_1017480" data-name="Grupo 1017480" transform="translate(13.707 164.436)" opacity="0.3">
          <g id="Grupo_1017479" data-name="Grupo 1017479">
            <g id="Grupo_1017478" data-name="Grupo 1017478" clip-path="url(#clip-path-5)">
              <path id="Trazado_718532" data-name="Trazado 718532" d="M9.735,95.8l61.929,66.642s.573.314-3.692,1.39L7.986,99.179A8.5,8.5,0,0,1,9.735,95.8" transform="translate(-7.985 -95.796)" fill="#fff"/>
            </g>
          </g>
        </g>
        <path id="Trazado_718533" data-name="Trazado 718533" d="M147.014,178.922c-13.228-10.622-45.644-36.6-47.125-37.293-1.864-.872-30.394-11.008-35.86-7.752s-20.118,21.649-20.118,21.649,1.39,11.439,14.172,3.253l11.435-7.324-.021.012,13.588,3.176S66.514,161.563,63.009,165.2s-9.048,17.574-5.591,20.782a13.407,13.407,0,0,0,7.47,3.481s-6.84,9.715,5.294,15.581c0,0,1.773,8.167,7.759,11.369s17.138,2.068,17.138,2.068,5.172-3.059,1.33-8.129-10.929-5.773-10.929-5.773l8.783-5.124s4.569,1.4,11.339,6.629c0,0,8.02-10.267,16.027-16.07,8.988-6.512,25.384-11.092,25.384-11.092" transform="translate(31.463 95.466)" fill="#ffc09d"/>
        <path id="Trazado_718534" data-name="Trazado 718534" d="M79.82,162.374a4.484,4.484,0,0,0-1.3.077,19.778,19.778,0,0,0-3.469.805,22.912,22.912,0,0,0-15.3,16.642,19.952,19.952,0,0,0-.512,3.526,4.5,4.5,0,0,0,.033,1.306c.122.01.149-1.857.923-4.719A23.829,23.829,0,0,1,75.2,163.689c2.786-1.011,4.645-1.193,4.624-1.315" transform="translate(42.427 116.329)" fill="#ff9b6c"/>
        <path id="Trazado_718535" data-name="Trazado 718535" d="M82.741,153.76a5.79,5.79,0,0,0-1.394.1,13.053,13.053,0,0,0-1.617.266,21.372,21.372,0,0,0-2.115.5,31.813,31.813,0,0,0-5.3,1.995,33.535,33.535,0,0,0-10.933,8.42,31.833,31.833,0,0,0-3.282,4.612c-.433.68-.733,1.347-1.025,1.916a13.085,13.085,0,0,0-.669,1.5,5.718,5.718,0,0,0-.451,1.322c.118.051.846-1.8,2.539-4.5a35.268,35.268,0,0,1,3.34-4.458,38.828,38.828,0,0,1,4.973-4.657,45.67,45.67,0,0,1,6.01-4.075,27.761,27.761,0,0,1,4.925-1.636c3.037-.949,5.014-1.179,5-1.306" transform="translate(40.092 110.159)" fill="#ff9b6c"/>
        <path id="Trazado_718536" data-name="Trazado 718536" d="M77.614,144.041a3.762,3.762,0,0,0-1.845-.415,10.16,10.16,0,0,0-4.5.805,8.521,8.521,0,0,0-3.7,2.683,3.764,3.764,0,0,0-.984,1.615c.151.136,1.729-2.376,4.942-3.7,3.184-1.392,6.085-.784,6.094-.987" transform="translate(47.699 102.898)" fill="#ff9b6c"/>
        <path id="Trazado_718537" data-name="Trazado 718537" d="M169.953,112.521s41.866,4.017,55.157,40.39c10.548,28.87,16.279,115.361,13.636,117.123l-73.915-2.364c-.973-21.091-6.653-37.352-14.614-47.874Z" transform="translate(107.633 80.624)" fill="#81c539"/>
        <path id="Trazado_718538" data-name="Trazado 718538" d="M159.39,202.909a5.905,5.905,0,0,1,1.45.809c.9.563,2.177,1.438,3.711,2.57a99.366,99.366,0,0,1,11.248,9.76,115.28,115.28,0,0,1,9.793,11.216c1.152,1.517,2.056,2.765,2.645,3.653a5.953,5.953,0,0,1,.85,1.426,54.849,54.849,0,0,1-3.989-4.684c-2.427-2.915-5.85-6.887-9.932-10.981a135.074,135.074,0,0,0-11-9.889c-2.954-2.377-4.854-3.764-4.775-3.879" transform="translate(114.205 145.385)" fill="#ff9b6c"/>
        <path id="Trazado_718539" data-name="Trazado 718539" d="M157.169,151.077c.244.041-1.112,9.274-3.03,20.621s-3.668,20.514-3.912,20.473,1.114-9.273,3.03-20.622,3.668-20.512,3.912-20.471" transform="translate(107.621 108.25)" fill="#263238"/>
        <path id="Trazado_718540" data-name="Trazado 718540" d="M100.065,308.566a6.394,6.394,0,0,1,1.227-.185l3.534-.357,13-1.229c10.974-1.054,26.122-2.637,42.81-4.745s31.759-4.353,42.65-6.066l12.9-2.046,3.51-.534a6.739,6.739,0,0,1,1.236-.127,6.313,6.313,0,0,1-1.2.3l-3.483.7c-3.026.594-7.419,1.392-12.855,2.326-10.871,1.874-25.935,4.214-42.64,6.331s-31.871,3.593-42.867,4.485c-5.5.448-9.949.769-13.028.948l-3.548.191a6.505,6.505,0,0,1-1.241.005" transform="translate(71.699 210.133)" fill="#263238"/>
        <path id="Trazado_718541" data-name="Trazado 718541" d="M96.258,297.527a20.1,20.1,0,0,1,3.047-.276l8.315-.441,27.432-1.408,27.427-1.588c3.4-.192,6.205-.348,8.315-.469a20.49,20.49,0,0,1,3.057-.058,19.772,19.772,0,0,1-3.031.407c-1.955.2-4.791.46-8.294.75-7.01.58-16.7,1.265-27.423,1.85s-20.427.958-27.458,1.147c-3.515.094-6.36.148-8.329.158a19.973,19.973,0,0,1-3.057-.072" transform="translate(68.971 210.123)" fill="#263238"/>
        <path id="Trazado_718542" data-name="Trazado 718542" d="M27.767,207.894a9.083,9.083,0,0,1,1.337-2.935,8.679,8.679,0,0,1,14.6.309,5.339,5.339,0,0,1,3.982-5.143c2.261-.618,4.017.254,5.821,1.751s2.266,2.69,3,4.916c1.8-4.044,11.06-3.55,12.186-.513,0,0,7.966-8.72,12.04-4.432,1.694,1.78.968,4.514-.153,7.251-1.5,3.654-2.482,5.179-4.439,9.2l-7.542.412c-.635,2.36-1.972,11.957-2.256,14.384a16.718,16.718,0,0,1-2.06,6.976,7.275,7.275,0,0,1-5.977,3.665c-2.444-.034-4.851-2.129-4.708-4.569a11.494,11.494,0,0,1-2.858,5.462,6.178,6.178,0,0,1-5.7,1.77,4.278,4.278,0,0,1-3.2-4.671c-2.688,1.862-6.662.208-8.368-2.582s-1.747-6.258-1.644-9.527c.093-2.9.355-6.149-.786-8.892a8.111,8.111,0,0,1-.594-1.269,14.948,14.948,0,0,1-.1-2.153,16.392,16.392,0,0,0-.908-4.465q-.173-.474-.378-.932c-.367-.81-.906-1.5-1.32-2.274a1.477,1.477,0,0,1-.191-.532,3.579,3.579,0,0,1,.218-1.21" transform="translate(19.734 143.25)" fill="#ffc09d"/>
        <path id="Trazado_718543" data-name="Trazado 718543" d="M25.811,202.131c-2.015-.072-4.211.345-5.556,1.847-1.595,1.782-1.962,6.046-1.78,8.43,2.794.529,4.284-.094,7.079.433.589.112,1.081-.038,1.569.311,1.289.915,1.08,4,1.6,5.491.9,2.59,4.217,3.855,6.789,2.9a7.213,7.213,0,0,0,4.357-6.425,11.157,11.157,0,0,0-2.839-7.517,15.577,15.577,0,0,0-11.217-5.472" transform="translate(13.207 144.826)" fill="#ffc09d"/>
        <path id="Trazado_718544" data-name="Trazado 718544" d="M50.475,226.563c-.285-.06.865-5.175,1.593-11.538a50.793,50.793,0,0,0,.306-8.164,26.485,26.485,0,0,1-.216-3.4A8.782,8.782,0,0,1,53,206.8a35.734,35.734,0,0,1-.045,8.318,64.439,64.439,0,0,1-1.45,8.162,12.316,12.316,0,0,1-1.032,3.28" transform="translate(36.134 145.781)" fill="#ff9b6c"/>
        <path id="Trazado_718545" data-name="Trazado 718545" d="M42.538,237.215a29.291,29.291,0,0,1,.747-4.875c.546-2.992,1.311-7.117,1.892-11.7a84.644,84.644,0,0,0,.724-11.8c-.045-3.025-.263-4.894-.118-4.916a17.951,17.951,0,0,1,.75,4.892,62.9,62.9,0,0,1-.469,11.93A112.71,112.71,0,0,1,43.9,232.469a25.028,25.028,0,0,1-1.366,4.746" transform="translate(30.46 146.117)" fill="#ff9b6c"/>
        <path id="Trazado_718546" data-name="Trazado 718546" d="M35.829,240.029a50.253,50.253,0,0,1,.942-5.426,108.831,108.831,0,0,0,1.555-13.14,108.992,108.992,0,0,0-.117-13.233,49.835,49.835,0,0,1-.347-5.5,4.781,4.781,0,0,1,.378,1.44c.192.936.4,2.3.6,4a80.463,80.463,0,0,1,.379,13.339,80.263,80.263,0,0,1-1.828,13.216c-.381,1.665-.738,3-1.03,3.91a4.8,4.8,0,0,1-.532,1.39" transform="translate(25.656 145.263)" fill="#ff9b6c"/>
        <path id="Trazado_718547" data-name="Trazado 718547" d="M26.978,204.886a4.785,4.785,0,0,1,2.352,1.188,11.931,11.931,0,0,1,3.816,5.1,10.2,10.2,0,0,1,.508,6.363c-.5,1.66-1.541,2.235-1.576,2.13a8.77,8.77,0,0,0,.963-2.285,11.152,11.152,0,0,0-.726-5.881,13.6,13.6,0,0,0-3.392-4.938c-1.143-1.061-2.013-1.543-1.945-1.674" transform="translate(19.327 146.794)" fill="#ff9b6c"/>
      </g>
    </g>
  </g>
</svg>
