<svg xmlns="http://www.w3.org/2000/svg" xmlns:xlink="http://www.w3.org/1999/xlink" width="85" height="85" viewBox="0 0 85 85">
  <defs>
    <clipPath id="clip-path">
      <rect id="Rectángulo_376068" data-name="Rectángulo 376068" width="53.906" height="53.899" fill="#fff"/>
    </clipPath>
  </defs>
  <g id="Grupo_1017934" data-name="Grupo 1017934" transform="translate(-285 -1969.025)">
    <g id="Grupo_1017893" data-name="Grupo 1017893" transform="translate(0 -4605.975)">
      <circle id="Elipse_4873" data-name="Elipse 4873" cx="42.5" cy="42.5" r="42.5" transform="translate(285 6575)" fill="#005d95"/>
    </g>
    <g id="Grupo_1017903" data-name="Grupo 1017903" transform="translate(305.547 1984.576)">
      <g id="Grupo_1017902" data-name="Grupo 1017902" clip-path="url(#clip-path)">
        <path id="Trazado_719337" data-name="Trazado 719337" d="M0,26.927Q0,15.119,0,3.312C0,.966.967,0,3.312,0q17.37,0,34.741,0c2.284,0,3.37,1.02,3.384,3.308.032,5.177.013,10.356,0,15.533a3.662,3.662,0,0,1-.149,1.03.885.885,0,0,1-.953.666.929.929,0,0,1-.869-.647,3.753,3.753,0,0,1-.154-1.451q0-7.4,0-14.8c0-1.5-.128-1.625-1.613-1.625q-17.055,0-34.111,0c-1.441,0-1.573.128-1.573,1.553q0,23.353,0,46.706c0,1.493.115,1.6,1.627,1.605q17,0,34.006,0c1.553,0,1.661-.111,1.664-1.68,0-2.309,0-4.618,0-6.927a7.146,7.146,0,0,1,.048-1.046c.086-.573.384-1,1.014-1.006a.985.985,0,0,1,.979.922,4.8,4.8,0,0,1,.086.937c.007,2.449.02,4.9,0,7.347C41.422,52.906,40.4,53.9,37.9,53.9q-17.265,0-34.531,0C.949,53.9,0,52.954,0,50.542Q0,38.735,0,26.927" transform="translate(0 0.001)" fill="#fff"/>
        <path id="Trazado_719338" data-name="Trazado 719338" d="M108.552,82.539c1.816-1.34,2.715-1.134,3.726.845.269.528.458.514.792.092.65-.821,1.537-1.507.959-2.8a2.081,2.081,0,0,1,.306-1.812,24.542,24.542,0,0,0,1.819-4.233c1.361-3.941,3.868-7.268,5.814-10.9.693-1.293,1.447-2.555,2.2-3.817.282-.472.439-.841-.149-1.224a.933.933,0,0,1-.373-1.358.967.967,0,0,1,1.376-.339c.564.277.839-.009,1.091-.444.4-.7.817-1.385,1.224-2.079.388-.66.7-1.387,1.65-1.42.357-.012.433-.42.61-.669a2.8,2.8,0,0,1,4.874,2.737,1.626,1.626,0,0,0-.173,1.386c.193.462-.076.883-.3,1.28-.5.879-1,1.762-1.523,2.633-.263.441-.2.713.241,1.038a2.854,2.854,0,0,1,.889,4.2c-1,1.763-2.025,3.514-3.04,5.269a4.908,4.908,0,0,1-.276.445c-.366.5-.827.807-1.432.45a.96.96,0,0,1-.283-1.458c.984-1.733,1.984-3.457,2.972-5.187a5.8,5.8,0,0,0,.474-.932.847.847,0,0,0-.435-1.148c-.583-.3-.73.184-.932.533-2.031,3.51-4.1,7-6.066,10.546a31.005,31.005,0,0,1-3.317,4.573,17.832,17.832,0,0,0-1.963,2.715,2.885,2.885,0,0,1-2.534,1.608,1.585,1.585,0,0,0-1.315.709c-.439.588-.88,1.179-1.373,1.721a1.888,1.888,0,0,1-3.32-.475c-.348-.764-.542-.826-1.208-.279a1.8,1.8,0,0,1-2.943-1.078c-.26-.879-.026-1.822-.446-2.884-.515,1.538-.98,2.929-1.449,4.319a13.131,13.131,0,0,1-.463,1.28.932.932,0,0,1-1.264.611.957.957,0,0,1-.607-1.278c.329-1.069.688-2.128,1.039-3.19.34-1.029.664-2.064,1.034-3.082a1.969,1.969,0,0,1,2.205-1.523c.962.147,1.5.824,1.622,2.018.083.833.173,1.664.271,2.6m13.63-8.733c.356-.049.445-.431.612-.719q2.682-4.623,5.347-9.255c1.264-2.195,1.25-2.178-.983-3.312-.571-.29-.869-.193-1.174.34q-3.1,5.412-6.223,10.806c-.121.209-.281.41-.164.676a11.343,11.343,0,0,0,2.586,1.463m9.631-16.465a2.012,2.012,0,0,0-.068-.243,7.755,7.755,0,0,0-2.515-1.41.937.937,0,0,0-.4.3c-1.564,1.859-1.435,2.49.718,3.577q.187.094.375.186c.167.081.377.125.488-.017a11.01,11.01,0,0,0,1.4-2.392M118.94,74.378c-.336-.007-.484.079-.552.258-.286.75-.579,1.5-.837,2.258-.14.413.128.666.468.822.359.164.738.622,1.128.231a24.374,24.374,0,0,0,1.613-1.922c.115-.142.167-.366.008-.475-.632-.43-1.285-.827-1.828-1.172" transform="translate(-80.838 -40.347)" fill="#fff"/>
        <path id="Trazado_719339" data-name="Trazado 719339" d="M50.791,25.207H61.176c.314,0,.631-.011.943.016.633.055,1.226.242,1.246,1s-.55,1-1.186,1.07a10.892,10.892,0,0,1-1.256.043q-9.545,0-19.09,0c-.315,0-.629.007-.944.006-.5,0-.78.2-.769.752.009.5.274.678.727.679.315,0,.629.007.944.007q9.808,0,19.615.007c.82,0,1.912-.143,1.925,1.047s-1.093,1.07-1.9,1.072q-10.647.023-21.293.007c-1.722,0-2.027-.317-2.033-2.005,0-.629-.005-1.259,0-1.888.014-1.466.333-1.8,1.782-1.81,3.077-.012,6.154,0,9.231,0h1.678" transform="translate(-30.098 -19.913)" fill="#fff"/>
        <path id="Trazado_719340" data-name="Trazado 719340" d="M24.648,181.712a7.6,7.6,0,0,1-7.285-5.157,7.706,7.706,0,0,1,11.327-9.1c.382.248.79.481.923.958a.9.9,0,0,1-.38,1.012,1.035,1.035,0,0,1-1.27-.05,5.807,5.807,0,0,0-4.49-.909,5.669,5.669,0,0,0-4.486,6.093,5.76,5.76,0,0,0,5.141,5.126,5.634,5.634,0,0,0,6.071-4.505q.114-.564.194-1.136c.082-.6.386-1.029,1.007-.987.722.048,1.013.589.981,1.255a7.683,7.683,0,0,1-1.506,4.29,7.471,7.471,0,0,1-6.226,3.113" transform="translate(-13.381 -131.388)" fill="#fff"/>
        <path id="Trazado_719341" data-name="Trazado 719341" d="M79.156,89.2c2.97,0,5.939,0,8.909,0a5.086,5.086,0,0,1,1.14.106.926.926,0,0,1,.773.984.908.908,0,0,1-.754.893,5.737,5.737,0,0,1-1.243.137q-8.8.013-17.609,0a6.387,6.387,0,0,1-.836-.04c-.637-.085-1.21-.323-1.174-1.075.035-.736.613-.985,1.256-.995,1.746-.026,3.494-.016,5.24-.018q2.149,0,4.3,0" transform="translate(-54.008 -70.476)" fill="#fff"/>
        <path id="Trazado_719342" data-name="Trazado 719342" d="M61.1,61.425c-2.618,0-5.236,0-7.854,0a5.732,5.732,0,0,1-1.142-.1.937.937,0,0,1-.814-.952.9.9,0,0,1,.8-.956,6.562,6.562,0,0,1,1.244-.12q7.906-.011,15.812,0c.808,0,1.9-.162,1.909,1.05s-1.078,1.062-1.891,1.068c-2.688.02-5.375.008-8.063.008" transform="translate(-40.524 -46.842)" fill="#fff"/>
        <path id="Trazado_719343" data-name="Trazado 719343" d="M39.929,117.062q-4.092,0-8.185,0a4.163,4.163,0,0,1-1.039-.088.953.953,0,0,1,.016-1.843,4.32,4.32,0,0,1,1.04-.082q8.133-.007,16.265,0c.175,0,.35,0,.525,0,.661.009,1.238.221,1.261.962.025.81-.575,1.046-1.279,1.048q-4.3.007-8.6,0Z" transform="translate(-23.704 -90.89)" fill="#fff"/>
        <path id="Trazado_719344" data-name="Trazado 719344" d="M35.539,136.172c1.325,0,2.65-.007,3.975,0,.715.005,1.376.164,1.4,1.047.022.851-.645,1.028-1.3,1.034q-4.13.036-8.26-.007c-.668-.007-1.3-.237-1.244-1.081.05-.814.67-.985,1.347-.991,1.36-.011,2.719,0,4.079,0" transform="translate(-23.788 -107.581)" fill="#fff"/>
        <path id="Trazado_719345" data-name="Trazado 719345" d="M39.308,195.44a1.656,1.656,0,0,1-1.052-.416c-.686-.644-1.366-1.3-2-1.99a.951.951,0,0,1-.022-1.412.984.984,0,0,1,1.416.016,4.464,4.464,0,0,1,.384.354c1.41,1.347,1.406,1.343,2.836-.075.544-.54,1.085-1.088,1.674-1.576a.978.978,0,0,1,1.371,1.386,32.413,32.413,0,0,1-3.421,3.377,1.607,1.607,0,0,1-1.183.334" transform="translate(-28.384 -150.177)" fill="#fff"/>
        <path id="Trazado_719346" data-name="Trazado 719346" d="M93.79,136.191c.945,0,1.89-.027,2.833.01.641.025,1.206.268,1.2,1.035-.006.7-.524.947-1.134.988a47.782,47.782,0,0,1-5.87.012c-.662-.036-1.2-.339-1.15-1.082.054-.728.641-.952,1.287-.965.944-.019,1.889,0,2.834,0Z" transform="translate(-70.841 -107.589)" fill="#fff"/>
        <path id="Trazado_719347" data-name="Trazado 719347" d="M136.338,117.067c-.942,0-1.883.013-2.825,0-.671-.012-1.2-.3-1.175-1.038.019-.679.521-.954,1.149-.958q2.929-.018,5.858,0c.672,0,1.2.3,1.177,1.036-.019.675-.524.949-1.152.959-1.011.016-2.022,0-3.034,0" transform="translate(-104.554 -90.902)" fill="#fff"/>
      </g>
    </g>
  </g>
</svg>
