<svg xmlns="http://www.w3.org/2000/svg" xmlns:xlink="http://www.w3.org/1999/xlink" width="400" height="290.284" viewBox="0 0 400 290.284">
  <defs>
    <clipPath id="clip-path">
      <rect id="Rectángulo_375670" data-name="Rectángulo 375670" width="250.422" height="236.288" fill="none"/>
    </clipPath>
    <clipPath id="clip-path-2">
      <rect id="Rectángulo_375669" data-name="Rectángulo 375669" width="250.423" height="236.289" fill="none"/>
    </clipPath>
    <clipPath id="clip-path-3">
      <rect id="Rectángulo_375662" data-name="Rectángulo 375662" width="19.255" height="19.041" fill="none"/>
    </clipPath>
    <clipPath id="clip-path-4">
      <path id="Trazado_718755" data-name="Trazado 718755" d="M62.035,11.1V11.1l-.058.008-.055-.008V11.1l-7.358.4c0,.6-.418,14.847-3.333,14.262,1.848,2.751-1.956,4.369,1.6,4.369,2.967,0,15.77-7.067,17.653-9.071C70.1,18.071,70,12.3,70,11.6Z" transform="translate(-51.23 -11.095)" fill="none"/>
    </clipPath>
    <linearGradient id="linear-gradient" x1="-5.343" y1="8.567" x2="-5.235" y2="8.567" gradientUnits="objectBoundingBox">
      <stop offset="0" stop-color="#fff"/>
      <stop offset="0.643" stop-color="#c6c0b9"/>
      <stop offset="1" stop-color="#c6c0b9"/>
    </linearGradient>
  </defs>
  <g id="Grupo_1017918" data-name="Grupo 1017918" transform="translate(-1020 -2704)">
    <g id="Grupo_1017010" data-name="Grupo 1017010" transform="translate(0 973.98)">
      <g id="Image_Place_Holder" data-name="Image Place Holder" transform="translate(1020 1749.534)">
        <rect id="Image_Place_Holder-2" data-name="Image Place Holder" width="400" height="270.77" rx="10" fill="#005d95"/>
      </g>
    </g>
    <g id="Grupo_1017540" data-name="Grupo 1017540" transform="translate(1084.578 2704)">
      <g id="Grupo_1017539" data-name="Grupo 1017539" clip-path="url(#clip-path)">
        <path id="Trazado_718748" data-name="Trazado 718748" d="M80.455,129.865H76.135L68.362,56.4H75.6Z" transform="translate(121.033 99.855)" fill="#1e1e1e"/>
        <path id="Trazado_718749" data-name="Trazado 718749" d="M49.306,129.865H44.984L51.461,56.4H58.7Z" transform="translate(79.643 99.855)" fill="#1e1e1e"/>
        <g id="Grupo_1017538" data-name="Grupo 1017538" transform="translate(0 -0.001)">
          <g id="Grupo_1017537" data-name="Grupo 1017537" clip-path="url(#clip-path-2)">
            <path id="Trazado_718750" data-name="Trazado 718750" d="M50.433,41.841C45.875,55.1,35.209,71.823,59.21,86.083c4.422,2.624,38.069,1.172,44.028-2.649,5.846-3.757,10.963-15.476,5.159-29.021-2.388-5.571-5.455-12.37-5.455-12.37Z" transform="translate(78.079 74.079)"/>
            <path id="Trazado_718751" data-name="Trazado 718751" d="M53.691,2.775C46.341,12.691,48.447,42,48.676,51.04c.247,9.046,18.277,1.1,18.277,1.1L68.136,2.645Z" transform="translate(85.379 4.684)" fill="#300901"/>
            <path id="Trazado_718752" data-name="Trazado 718752" d="M70.651,3.141C76.059,11.7,75.9,41.058,75.68,50.1c-.244,9.043-19.357,2.036-19.357,2.036L55.134,2.645Z" transform="translate(97.614 4.684)" fill="#5e2014"/>
            <path id="Trazado_718753" data-name="Trazado 718753" d="M65.5,55.089l7.818-27.732s-1.8-13.947-1.8-15.775l-7.375-.4v0l-.047,0-.036,0v0l-7.383.4c0,1.33-.7,8.22-1.274,12.631-.219,1.66-5.341,3.4-5.341,3.4l7.187,12.234Z" transform="translate(88.646 19.798)" fill="#ddac9e"/>
            <path id="Trazado_718754" data-name="Trazado 718754" d="M62.493,11.326l-7.239,1.466L56.52,53.67,68.173,27.165s-4.283-2.23-4.469-3.69c-.5-3.981-1.211-10.81-1.211-12.149" transform="translate(97.826 20.053)" fill="#e8c8ba"/>
            <g id="Grupo_1017536" data-name="Grupo 1017536" transform="translate(141.933 30.74)" style="mix-blend-mode: multiply;isolation: isolate">
              <g id="Grupo_1017535" data-name="Grupo 1017535">
                <g id="Grupo_1017534" data-name="Grupo 1017534" clip-path="url(#clip-path-3)">
                  <g id="Grupo_1017533" data-name="Grupo 1017533" transform="translate(-0.001 0)">
                    <g id="Grupo_1017532" data-name="Grupo 1017532" clip-path="url(#clip-path-4)">
                      <rect id="Rectángulo_375661" data-name="Rectángulo 375661" width="25.772" height="24.311" transform="translate(-7.172 1.555) rotate(-16.611)" fill="url(#linear-gradient)"/>
                    </g>
                  </g>
                </g>
              </g>
            </g>
            <path id="Trazado_718756" data-name="Trazado 718756" d="M79.085,19.763c-1.294,10.035-9.436,18.6-14.279,18.6-5.4-.006-12.348-5.5-14.431-18.327C48.685,9.487,51.336.5,64.538.5c12.387,0,15.9,8.749,14.548,19.266" transform="translate(88.382 0.881)" fill="#ddac9e"/>
            <path id="Trazado_718757" data-name="Trazado 718757" d="M69.7,19.757C70.624,9.218,67.562.541,55.22.5V38.331c.064,0,.144.025.2.025,4.843,0,13.121-5.383,14.279-18.6" transform="translate(97.766 0.881)" fill="#e8c8ba"/>
            <path id="Trazado_718758" data-name="Trazado 718758" d="M55.661,7.361C59.62,11.246,65.912,12,67.455,18.787c.679,3.014,1.939,6.455-2.1,14.539-1.729,3.458,2.114,3.959,2.114,3.959l6.15-20.673s-.992-9.9-7.9-14.415C61.277-.717,55.4-.08,55.163.54s.5,6.821.5,6.821" transform="translate(97.585 0.026)" fill="#5e2014"/>
            <path id="Trazado_718759" data-name="Trazado 718759" d="M66.545,7.328c-3.092,3.41-10.14,4.7-11.619,11.486-.54,2.419-1.607,4.951,1.488,13.434,2.48,6.793-1.532,6.012-1.532,6.012L48.916,19.379s.147-11.362,7.4-16.512C60.835-.346,66.459-.385,66.5.479c.03.67.047,6.849.047,6.849" transform="translate(86.605 0.001)" fill="#300901"/>
            <path id="Trazado_718760" data-name="Trazado 718760" d="M49.659,60.308c-.984-7.965,14.359-19.867,23.012-4.771,3.884,6.8,4.183,61.834,4.859,65.616,1.13,6.286,5.959,22.757,3.449,26.472-3.624,5.328-10.328,4.314-11.711-16.994-1.7-26.247-17.673-54.62-19.609-70.323" transform="translate(87.84 85.483)" fill="#ddac9e"/>
            <path id="Trazado_718761" data-name="Trazado 718761" d="M57,80.242c.294,4.034,1.205,9.292,7.777,8.142,2.793-.485,3.884-2.8,2.915-9.722a32.167,32.167,0,0,1,2.674,9.112c.4,5.311-.851,9.115-3.643,9.24-1.308.058-8.345-.623-9.722-7.048-.729-3.4,0-9.724,0-9.724" transform="translate(100.349 139.272)"/>
            <path id="Trazado_718762" data-name="Trazado 718762" d="M79.42,56.754c-3.114-7.436-16.781-17.266-20.848-.341C56.761,64.007,70.76,118,70.5,121.86c-.249,3.84,1.768,24.366,5.236,27.214,4.976,4.1,15.936,1.5,7.66-18.185-10.769-25.652,2.136-59.54-3.978-74.135" transform="translate(103.415 83.352)" fill="#e8c8ba"/>
            <path id="Trazado_718763" data-name="Trazado 718763" d="M75.428,77.742c2.432,9.724-.108,9.173-4.07,10.057-3.773.834-5.286,1.366-8.2-6.777a26.636,26.636,0,0,0,.881,7.829c1.1,5.217,7,10.3,10.821,8.985,2.4-.839,4.059-7.181,3.363-11.348a30.894,30.894,0,0,0-2.793-8.746" transform="translate(111.812 137.641)" fill="#232121"/>
            <path id="Trazado_718764" data-name="Trazado 718764" d="M215.945,84.424c0,1.114-1.219,2.009-2.737,2.009H9.525c-1.507,0-2.737-.895-2.737-2.009V45.546c0-1.108,1.23-2.02,2.737-2.02H213.208c1.518,0,2.737.911,2.737,2.02Z" transform="translate(12.018 77.063)" fill="#7aa7d6"/>
            <path id="Trazado_718765" data-name="Trazado 718765" d="M68.231,15.881c11.3,6.879,12.672,3.338,17.493,6.56s10.99,17.352,10.99,17.352S83.167,44.724,82.361,47.14,79.41,65.074,79.41,70.7c0,4.244,1.751,10.8,1.751,10.8l-27.735-.3,5.411-33.847a174.871,174.871,0,0,0,9.877-29.434Z" transform="translate(94.59 28.118)" fill="#1e1e1e"/>
            <path id="Trazado_718766" data-name="Trazado 718766" d="M67.485,15.656c-8.619,6.638-12.628,3.388-17.005,7.187-1.582,1.374-8.647,22.7-8.647,22.7s12.027.784,12.83,3.205c.809,2.4,5.63,21.291,5.63,24.513,0,3.4-2.011,7.738-2.011,7.738l23.206.449-.748-36.62S72.012,35.5,67.992,18.715Z" transform="translate(74.064 27.719)"/>
            <path id="Trazado_718767" data-name="Trazado 718767" d="M63.272,15.1c0-.31,5.832,3.463,5.832,3.463l1.092,8-5.53-.712,3.624,4.327L55.711,46.44s4.74-18.368,6.649-22.59a15.468,15.468,0,0,0,.911-8.746" transform="translate(98.635 26.709)" fill="#fff"/>
            <path id="Trazado_718768" data-name="Trazado 718768" d="M57.57,15.3c0-.308-5.832,3.643-5.832,3.643l-3.1,5.522,8.27,1.042-2.679,3.688L68.973,46.543s-8.037-19.177-9.946-23.4A15.982,15.982,0,0,1,57.57,15.3" transform="translate(86.113 27.059)" fill="#fff"/>
            <path id="Trazado_718769" data-name="Trazado 718769" d="M54,18.754c-7.838,18.573-13.243,32.5-14.337,42.71C38.316,74,46.051,70.806,48.954,70.759c10.938-.183,7.054-10.306,11.484-24.787a38.689,38.689,0,0,0,.839-6.752Z" transform="translate(69.941 33.204)"/>
            <path id="Trazado_718770" data-name="Trazado 718770" d="M45.048,17.287l0-.186h0Zm.211-.127-.1-.055h-.006Z" transform="translate(79.756 30.278)" fill="#ce0000"/>
            <path id="Trazado_718771" data-name="Trazado 718771" d="M77.438,21.173c3.477,7.638,7.126,29.132,8.586,33.517,2.039,6.106-8.86,8.86-8.86,8.86s-13.855-4.028-14.542-4.089,2.153-7.292-.227-9.328a83.643,83.643,0,0,1,11.7.465L65.882,33.551Z" transform="translate(110.467 37.487)" fill="#1e1e1e"/>
            <rect id="Rectángulo_375663" data-name="Rectángulo 375663" width="7.996" height="114.227" transform="translate(222.417 120.25)" fill="#7aa7d6"/>
            <path id="Trazado_718772" data-name="Trazado 718772" d="M249.653,43.861c0,.274-.529.485-1.186.485H1.41c-.651,0-1.18-.211-1.18-.485L12.5,37.993a6.48,6.48,0,0,1,2.327-.5l215.435.022a14.069,14.069,0,0,1,3.205.515Z" transform="translate(0.407 66.388)" fill="#aac9e2"/>
            <rect id="Rectángulo_375664" data-name="Rectángulo 375664" width="79.463" height="92.589" transform="translate(18.108 141.887)" fill="#7aa7d6"/>
            <rect id="Rectángulo_375665" data-name="Rectángulo 375665" width="52.071" height="13.223" transform="translate(28.494 81.987)" fill="#001c49"/>
            <path id="Trazado_718773" data-name="Trazado 718773" d="M57.6,36.08h4.757V29.592H10.285V36.08H57.6Z" transform="translate(18.209 52.393)" fill="#0d3b7f"/>
            <path id="Trazado_718774" data-name="Trazado 718774" d="M28.486,37.843c0,.1-.114.191-.258.191H25.649c-.147,0-.26-.091-.26-.191V30.736a.236.236,0,0,1,.26-.2h2.579a.235.235,0,0,1,.258.2Z" transform="translate(44.951 54.061)" fill="#aac9e2"/>
            <path id="Trazado_718775" data-name="Trazado 718775" d="M27.5,37.843V30.736a.235.235,0,0,0-.258-.2h-1.3v7.5h1.3c.144,0,.258-.091.258-.191" transform="translate(45.935 54.061)" fill="#fff"/>
            <path id="Trazado_718776" data-name="Trazado 718776" d="M16.835,37.843c0,.1-.194.191-.429.191h-4.3c-.233,0-.427-.091-.427-.191V30.736c0-.111.194-.2.427-.2h4.3c.235,0,.429.091.429.2Z" transform="translate(20.683 54.061)" fill="#aac9e2"/>
            <path id="Trazado_718777" data-name="Trazado 718777" d="M15.2,37.843V30.736c0-.111-.194-.2-.429-.2H12.605v7.5h2.167c.235,0,.429-.091.429-.191" transform="translate(22.317 54.061)" fill="#fff"/>
            <rect id="Rectángulo_375666" data-name="Rectángulo 375666" width="52.071" height="13.223" transform="translate(28.494 68.788)" fill="#076b21"/>
            <path id="Trazado_718778" data-name="Trazado 718778" d="M57.6,31.319h4.757V24.828H10.285v6.491H57.6Z" transform="translate(18.209 43.959)" fill="#3f9b3a"/>
            <path id="Trazado_718779" data-name="Trazado 718779" d="M28.486,33.278a.239.239,0,0,1-.258.2H25.649a.24.24,0,0,1-.26-.2v-7.1a.239.239,0,0,1,.26-.211h2.579a.238.238,0,0,1,.258.211Z" transform="translate(44.951 45.984)" fill="#aac9e2"/>
            <path id="Trazado_718780" data-name="Trazado 718780" d="M27.5,33.278v-7.1a.238.238,0,0,0-.258-.211h-1.3V33.48h1.3a.239.239,0,0,0,.258-.2" transform="translate(45.935 45.984)" fill="#fff"/>
            <path id="Trazado_718781" data-name="Trazado 718781" d="M16.835,33.278c0,.105-.194.2-.429.2h-4.3c-.233,0-.427-.1-.427-.2v-7.1c0-.114.194-.211.427-.211h4.3c.235,0,.429.1.429.211Z" transform="translate(20.683 45.984)" fill="#aac9e2"/>
            <path id="Trazado_718782" data-name="Trazado 718782" d="M15.2,33.278v-7.1c0-.114-.194-.211-.429-.211H12.605V33.48h2.167c.235,0,.429-.1.429-.2" transform="translate(22.317 45.984)" fill="#fff"/>
            <rect id="Rectángulo_375667" data-name="Rectángulo 375667" width="52.071" height="13.223" transform="translate(28.494 94.465)" fill="#700000"/>
            <path id="Trazado_718783" data-name="Trazado 718783" d="M57.6,40.562h4.757v-6.48H10.285v6.48H57.6Z" transform="translate(18.209 60.343)" fill="#a80000"/>
            <path id="Trazado_718784" data-name="Trazado 718784" d="M28.486,42.377a.239.239,0,0,1-.258.2H25.649a.24.24,0,0,1-.26-.2v-7.1a.236.236,0,0,1,.26-.2h2.579a.235.235,0,0,1,.258.2Z" transform="translate(44.951 62.109)" fill="#aac9e2"/>
            <path id="Trazado_718785" data-name="Trazado 718785" d="M27.5,42.377v-7.1a.235.235,0,0,0-.258-.2h-1.3v7.5h1.3a.239.239,0,0,0,.258-.2" transform="translate(45.935 62.109)" fill="#fff"/>
            <path id="Trazado_718786" data-name="Trazado 718786" d="M16.835,42.377c0,.105-.194.2-.429.2h-4.3c-.233,0-.427-.1-.427-.2v-7.1c0-.111.194-.2.427-.2h4.3c.235,0,.429.091.429.2Z" transform="translate(20.683 62.109)" fill="#aac9e2"/>
            <path id="Trazado_718787" data-name="Trazado 718787" d="M15.2,42.377v-7.1c0-.111-.194-.2-.429-.2H12.605v7.5h2.167c.235,0,.429-.1.429-.2" transform="translate(22.317 62.109)" fill="#fff"/>
            <path id="Trazado_718788" data-name="Trazado 718788" d="M44.823,39.4l4.009-2.734H98.589l7.655,1.823Z" transform="translate(79.358 64.924)" fill="#fff"/>
            <path id="Trazado_718789" data-name="Trazado 718789" d="M78.23,30.492c2.258,1.216,9.727,16.39,7.555,18.019-2.726,2.045-17.418-.784-20.224-3.366C61.3,41.228,55.9,32.384,61.02,34.069Z" transform="translate(104.342 53.986)"/>
            <path id="Trazado_718790" data-name="Trazado 718790" d="M71.343,36.586c.2.911.562,1.175-.41,2.809s-4.976,4.167-6.344,4.3-1.014-.585-.3-1.369,4.585-4.031,3.868-3.9-1.884,1.51-2.529,2.161a39.059,39.059,0,0,1-2.662,3.084c-.781.59-2.216.529-1.637-.651s1.881-3.136,2.333-4.056,1.748-2.543,1.942-2.937-1.5.4-2.017,1.117a11.145,11.145,0,0,0-1.114,1.892c-.385.781-2.563,4.258-3.41,4.654s-1.637.33-.931-1.438,1.612-3.917,2.07-4.834A30.031,30.031,0,0,1,61.816,34.8a13,13,0,0,0-2.948,3.826c-.731,1.6-1.322,4.474-2.233,4.347s-.407-3.128.111-4.5a32.76,32.76,0,0,1,2.294-4.8A3.726,3.726,0,0,1,62.652,31.8a13.077,13.077,0,0,1,5.159,1.737,19.284,19.284,0,0,1,3.532,3.048" transform="translate(99.376 56.212)" fill="#ddac9e"/>
            <path id="Trazado_718791" data-name="Trazado 718791" d="M250.424,50.224a1.292,1.292,0,0,1-1.15,1.4H1.155A1.3,1.3,0,0,1,0,50.224V41.109a1.3,1.3,0,0,1,1.155-1.4H249.274a1.291,1.291,0,0,1,1.15,1.4Z" transform="translate(0 70.307)" fill="#7aa7d6"/>
            <rect id="Rectángulo_375668" data-name="Rectángulo 375668" width="63.244" height="4.862" transform="translate(119.682 103.095)" fill="#7aa7d6"/>
            <path id="Trazado_718792" data-name="Trazado 718792" d="M50.485,31.6C48.224,32.82,37.86,44.894,40.248,46.188c7.07,3.829,15.235.263,23.64-.188,5.779-.31,9.37-15.534,4.244-13.85Z" transform="translate(70.63 55.955)"/>
            <path id="Trazado_718793" data-name="Trazado 718793" d="M48.868,36.607c-.2.906-.887,1.515.083,3.15s5.023,3.784,6.392,3.92.418-.668-.3-1.457-3.8-3.9-3.086-3.773,1.887,1.51,2.532,2.164a39.725,39.725,0,0,0,2.723,2.981c.784.585,2.219.529,1.64-.648s-2.74-2.917-3.189-3.837-1.748-2.543-1.945-2.939,1.1.654,1.621,1.377A14.859,14.859,0,0,1,56.878,39.5c.382.784,2.474,3.776,3.319,4.175s1.707.485,1-1.286a33.888,33.888,0,0,0-2.444-4.084,32.712,32.712,0,0,0-2.23-3.214,12.294,12.294,0,0,1,3.338,3.9c.729,1.6,1.92,4.253,2.834,4.128s-.1-2.419-.618-3.787-.6-2.338-1.366-3.239c-1.446-1.7-3.391-4.322-5.026-4a9.253,9.253,0,0,0-4.167,1.593,8.494,8.494,0,0,0-2.649,2.926" transform="translate(85.772 56.765)" fill="#ddac9e"/>
            <path id="Trazado_718794" data-name="Trazado 718794" d="M120.946,64.241a2.5,2.5,0,0,1-2.546,2.438H58.965a2.494,2.494,0,0,1-2.543-2.438V20.052a2.492,2.492,0,0,1,2.543-2.438H118.4a2.493,2.493,0,0,1,2.546,2.438Z" transform="translate(99.894 31.186)" fill="#aac9e2"/>
            <path id="Trazado_718795" data-name="Trazado 718795" d="M70.009,28.319,65.091,58.2h18.26l-6.322-29.88Z" transform="translate(115.243 50.138)" fill="#7aa7d6"/>
          </g>
        </g>
      </g>
    </g>
  </g>
</svg>
