<svg xmlns="http://www.w3.org/2000/svg" xmlns:xlink="http://www.w3.org/1999/xlink" width="85" height="85" viewBox="0 0 85 85">
  <defs>
    <clipPath id="clip-path">
      <rect id="Rectángulo_376067" data-name="Rectángulo 376067" width="48.473" height="58.581" fill="#fff"/>
    </clipPath>
  </defs>
  <g id="Grupo_1017933" data-name="Grupo 1017933" transform="translate(-285 -1845.025)">
    <g id="Grupo_1017892" data-name="Grupo 1017892" transform="translate(0 -4605.975)">
      <circle id="Elipse_4872" data-name="Elipse 4872" cx="42.5" cy="42.5" r="42.5" transform="translate(285 6451)" fill="#005d95"/>
    </g>
    <g id="Grupo_1017901" data-name="Grupo 1017901" transform="translate(303.263 1858.234)">
      <g id="Grupo_1017900" data-name="Grupo 1017900" clip-path="url(#clip-path)">
        <path id="Trazado_719331" data-name="Trazado 719331" d="M48.473,23.813q0,10.779,0,21.559c0,1.843-.187,2.024-2.027,2.029-.875,0-1.75.026-2.623-.005-.728-.026-1.039.265-1.019,1,.029,1.1,0,2.205,0,3.308a1.193,1.193,0,0,1-1.327,1.349c-1.026.018-2.055.05-3.079,0-.856-.04-1.153.313-1.112,1.141.046.948,0,1.9.01,2.851.014,1.027-.424,1.533-1.5,1.531q-17.167-.02-34.334,0A1.269,1.269,0,0,1,0,57.118c0-1.9,0-3.8,0-5.7q0-19.049,0-38.1c0-2,.147-2.138,2.142-2.141.836,0,1.674-.026,2.509.005.729.028,1.037-.267,1.018-1-.029-1.1,0-2.205,0-3.308A1.191,1.191,0,0,1,6.994,5.52c1.064-.018,2.13-.037,3.193-.006.746.022,1.02-.3.994-1.022-.032-.911-.014-1.825,0-2.737C11.2.288,11.465,0,12.906,0Q29.787,0,46.669,0c1.527,0,1.8.265,1.8,1.8q.01,11.007,0,22.015m-2.152,0c0-6.8-.021-13.609.021-20.413.007-1.081-.292-1.434-1.407-1.429q-15.11.059-30.221,0c-1.115,0-1.411.349-1.408,1.43q.047,20.3,0,40.6c0,1.081.295,1.434,1.409,1.43q15.11-.059,30.221,0c1.116,0,1.414-.351,1.407-1.431-.042-6.728-.021-13.457-.021-20.185M7.662,29.284c0,6.728.027,13.457-.026,20.185-.009,1.168.344,1.477,1.486,1.471,8.667-.043,17.334-.023,26-.024,1.559,0,3.118-.02,4.676.007.715.012,1.078-.234,1.015-.991-.029-.339,0-.684,0-1.026,0-1.5,0-1.506-1.5-1.506q-13.058,0-26.115,0c-1.831,0-2.016-.186-2.017-2.034q0-12.373,0-24.747c0-3.877-.034-7.755.022-11.632.016-1.076-.363-1.461-1.385-1.332a2.572,2.572,0,0,1-.683,0C8,7.49,7.627,7.922,7.636,9.1c.054,6.728.026,13.457.026,20.185M2.152,34.768c0,6.8.021,13.608-.021,20.412-.007,1.085.3,1.436,1.411,1.427,5.929-.05,11.859-.023,17.789-.023,4.181,0,8.363-.029,12.543.021,1.018.012,1.4-.333,1.277-1.315a5.646,5.646,0,0,1,0-.684c-.005-1.529-.006-1.535-1.5-1.535q-12.943,0-25.885,0c-1.915,0-2.1-.181-2.1-2.074q0-17.9,0-35.807c0-2.244.221-2.006-2.016-2.014-1.489-.006-1.493,0-1.493,1.525q0,10.035,0,20.07" transform="translate(0 0)" fill="#fff"/>
        <path id="Trazado_719332" data-name="Trazado 719332" d="M86.145,117.428q-5.586,0-11.172,0a7.61,7.61,0,0,1-1.023-.04.88.88,0,0,1-.843-.911.927.927,0,0,1,.782-.981,4.939,4.939,0,0,1,1.02-.063c1.594-.018,1.595-.016,1.6-1.652,0-1.786,0-3.572.005-5.358,0-.732.147-1.477,1.03-1.5.967-.024,1.107.76,1.111,1.531.01,1.976.029,3.952,0,5.928-.013.791.284,1.074,1.072,1.057,3.218-.069,2.673.394,2.7-2.595.031-3.04.005-6.08.009-9.12a5.4,5.4,0,0,1,.056-1.021,1,1,0,0,1,1.015-.9.95.95,0,0,1,.966.814,5.745,5.745,0,0,1,.107,1.242c.008,3.382.039,6.765-.015,10.146-.017,1.057.247,1.493,1.391,1.449,2.776-.108,2.376.342,2.4-2.454.019-2.128,0-4.256,0-6.384,0-.266,0-.532.008-.8.02-.67.23-1.25.995-1.286.85-.041,1.069.6,1.119,1.29.041.567.023,1.139.024,1.709,0,2.28.02,4.56-.007,6.84-.009.776.267,1.086,1.065,1.07,3.252-.068,2.69.391,2.716-2.577.033-3.876.007-7.752.01-11.628a6.207,6.207,0,0,1,.044-1.023.991.991,0,0,1,1-.917.924.924,0,0,1,.972.8,6.624,6.624,0,0,1,.119,1.355q.012,6.156.005,12.312c0,1.6,0,1.6,1.588,1.674.114.005.228,0,.342.015.606.059,1.03.358,1.029.994a.935.935,0,0,1-1.039.969c-.8.024-1.6.018-2.394.018q-4.9,0-9.8,0" transform="translate(-56.426 -76.639)" fill="#fff"/>
        <path id="Trazado_719333" data-name="Trazado 719333" d="M72,29.01a6.814,6.814,0,0,1-6.848-6.655A6.934,6.934,0,0,1,71.972,15.5,6.784,6.784,0,0,1,78.7,22.265,6.673,6.673,0,0,1,72,29.01m.013-2.046a4.738,4.738,0,0,0,4.2-2.825c.127-.336.394-.824-.285-.809-1.725.036-3.6-.531-4.946,1.172-.453.574-1.632.953-1.394,1.586.333.885,1.538.739,2.423.877m-1.164-6.955c0-.456,0-.911,0-1.367.006-.606-.207-.826-.839-.594a4.716,4.716,0,0,0-2.433,5.829c.111.23.149.5.56.32a5.073,5.073,0,0,0,2.71-4.188m3.817,1.167c.4,0,.7-.006,1.005,0,.567.014.794-.235.551-.769A4.543,4.543,0,0,0,73.67,17.96c-.285-.111-.583-.1-.616.252a5.615,5.615,0,0,0,.07,2.582c.275.695,1.083.267,1.547.381" transform="translate(-50.291 -11.964)" fill="#fff"/>
        <path id="Trazado_719334" data-name="Trazado 719334" d="M99.157,72.559c-.377-.126-.625-.192-.86-.291A.986.986,0,0,1,97.61,71.2a.95.95,0,0,1,1.009-.9c1.133.047,2.268.151,3.391.309a1.01,1.01,0,0,1,.881,1.153c-.064,1.059-.149,2.118-.275,3.171a.965.965,0,0,1-.89.9.926.926,0,0,1-1.113-.75c-.179-.932-.561-.546-.958-.206-1.326,1.136-2.668,2.254-3.961,3.426a1.743,1.743,0,0,1-2.165.316c-1.748-.828-3.552-1.539-5.3-2.37a1.376,1.376,0,0,0-1.722.278c-1.863,1.616-3.77,3.183-5.661,4.767-.564.473-1.191.819-1.8.151a.982.982,0,0,1,.2-1.505Q82.763,76.959,86.3,74a1.586,1.586,0,0,1,1.818-.068c1.736.765,3.487,1.5,5.2,2.319a1.426,1.426,0,0,0,1.832-.221c1.277-1.172,2.621-2.273,4.013-3.469" transform="translate(-60.805 -54.265)" fill="#fff"/>
        <path id="Trazado_719335" data-name="Trazado 719335" d="M135.97,51.156q2.56,0,5.119,0c.759,0,1.563.082,1.59,1.043s-.754,1.1-1.527,1.1q-5.233,0-10.466,0c-.735,0-1.464-.155-1.479-1.04-.016-.966.756-1.1,1.529-1.1,1.744,0,3.489,0,5.233,0" transform="translate(-99.729 -39.484)" fill="#fff"/>
        <path id="Trazado_719336" data-name="Trazado 719336" d="M135.892,30.068q2.614,0,5.228,0c.767,0,1.55.086,1.558,1.059.007.9-.748,1.062-1.462,1.066q-5.284.024-10.569,0c-.717,0-1.457-.181-1.446-1.082s.723-1.041,1.463-1.041q2.614,0,5.228,0" transform="translate(-99.723 -23.207)" fill="#fff"/>
      </g>
    </g>
  </g>
</svg>
