<svg xmlns="http://www.w3.org/2000/svg" xmlns:xlink="http://www.w3.org/1999/xlink" width="124" height="124" viewBox="0 0 124 124">
  <defs>
    <clipPath id="clip-path">
      <rect id="Rect치ngulo_375599" data-name="Rect치ngulo 375599" width="95.78" height="95.583" fill="none"/>
    </clipPath>
  </defs>
  <g id="Grupo_1017914" data-name="Grupo 1017914" transform="translate(-896.001 -852.477)">
    <g id="Grupo_1016929" data-name="Grupo 1016929" transform="translate(159 -1205.523)">
      <g id="Grupo_159183" data-name="Grupo 159183" transform="translate(737.001 2058)">
        <path id="Uni칩n_12" data-name="Uni칩n 12" d="M62,0A62,62,0,1,1,0,62,62,62,0,0,1,62,0Z" fill="#01d8d1"/>
      </g>
    </g>
    <g id="Grupo_1017462" data-name="Grupo 1017462" transform="translate(909.61 866.686)">
      <g id="Grupo_1017461" data-name="Grupo 1017461" clip-path="url(#clip-path)">
        <path id="Trazado_718483" data-name="Trazado 718483" d="M47.813,95.516c-17.2-.259-30.734-7.551-40.082-21.87C-11.3,44.5,6.681,5.321,41.13.473a27.975,27.975,0,0,1,6.684-.4q.008,22.753.016,45.506l-.407.707c-1.2,1.163-2.411,2.317-3.6,3.489-1.97,1.941-2.709,1.96-4.627.049q-4.616-4.6-9.214-9.221c-1.238-1.25-2.44-1.308-3.717-.081-1.7,1.635-3.442,3.228-5.119,4.886-1.346,1.329-1.346,2.283.026,3.661q9.262,9.3,18.567,18.568c1.466,1.46,2.328,1.448,3.806.045,1.436-1.364,2.851-2.75,4.274-4.127q0,15.979,0,31.959" transform="translate(0 0)" fill="#01de76"/>
        <path id="Trazado_718484" data-name="Trazado 718484" d="M128.026,45.71Q128.018,22.957,128.01.2c13.814-.038,25.581,5,34.841,15.107,12.473,13.617,16.207,29.7,10.554,47.247-5.627,17.467-18.044,28.12-35.955,32.226a31.971,31.971,0,0,1-9.44.86q0-15.979.005-31.959.049-.147.086-.3c.461-.411.943-.8,1.379-1.236q12.193-12.18,24.377-24.37c2.6-2.6,2.6-3.048-.062-5.708q-1.712-1.713-3.425-3.426c-2.306-2.3-2.832-2.294-5.161.018q-8.588,8.527-17.184,17.044" transform="translate(-80.197 -0.128)" fill="#01ab5e"/>
        <path id="Trazado_718485" data-name="Trazado 718485" d="M127.369,90.531q8.592-8.522,17.184-17.044c2.329-2.312,2.855-2.32,5.161-.018q1.714,1.711,3.425,3.426c2.658,2.66,2.665,3.1.062,5.708q-12.186,12.187-24.377,24.37c-.436.436-.918.825-1.379,1.236-.03-5.017-.05-10.034-.1-15.051-.006-.651.24-1.381-.385-1.919l.407-.707" transform="translate(-79.54 -44.949)" fill="#dbe9ee"/>
        <path id="Trazado_718486" data-name="Trazado 718486" d="M81.2,112.771c.625.538.379,1.268.385,1.92.047,5.017.068,10.034.1,15.051-.025.1-.053.2-.086.3-1.424,1.376-2.839,2.763-4.274,4.127-1.478,1.4-2.34,1.415-3.807-.045q-9.3-9.265-18.567-18.568c-1.372-1.378-1.372-2.331-.026-3.661,1.678-1.657,3.419-3.25,5.119-4.885,1.277-1.228,2.479-1.169,3.718.081q4.586,4.631,9.214,9.221c1.918,1.911,2.656,1.892,4.626-.049,1.191-1.173,2.4-2.327,3.6-3.489" transform="translate(-33.776 -66.481)" fill="#fdf4f3"/>
      </g>
    </g>
  </g>
</svg>
