<svg xmlns="http://www.w3.org/2000/svg" xmlns:xlink="http://www.w3.org/1999/xlink" width="400" height="290.64" viewBox="0 0 400 290.64">
  <defs>
    <clipPath id="clip-path">
      <rect id="Rectángulo_375656" data-name="Rectángulo 375656" width="397.639" height="239.199" fill="none"/>
    </clipPath>
    <clipPath id="clip-path-3">
      <rect id="Rectángulo_375639" data-name="Rectángulo 375639" width="14.491" height="13.525" fill="none"/>
    </clipPath>
    <clipPath id="clip-path-4">
      <path id="Trazado_718559" data-name="Trazado 718559" d="M47.671,13.973v-.007l.043.007.033-.007v.007l5.057.278c0,.41,1.281,3.122,1.485,4.789-1.269,1.886-9.481,7.543-11.929,7.543-2.038,0-1.264,1.76-2.562.384.266-2.059,2.237-12.218,2.237-12.7Z" transform="translate(-39.798 -13.966)" fill="none"/>
    </clipPath>
    <linearGradient id="linear-gradient" x1="-5.154" y1="11.518" x2="-5.022" y2="11.518" gradientUnits="objectBoundingBox">
      <stop offset="0" stop-color="#fff"/>
      <stop offset="0.253" stop-color="#c6c0b9"/>
      <stop offset="1" stop-color="#c6c0b9"/>
    </linearGradient>
    <clipPath id="clip-path-5">
      <path id="Trazado_718567" data-name="Trazado 718567" d="M39.091,19.072,48.164,52.14,58.546,19.952l-2.631-3.264c-.754.954-4.718,4.025-7,3.776s-6.077-2.282-6.829-3.911c-.629.683-2.993,2.519-2.993,2.519" transform="translate(-39.091 -16.553)" fill="none"/>
    </clipPath>
    <clipPath id="clip-path-7">
      <rect id="Rectángulo_375644" data-name="Rectángulo 375644" width="22.121" height="22.026" fill="none"/>
    </clipPath>
    <clipPath id="clip-path-8">
      <path id="Trazado_718588" data-name="Trazado 718588" d="M140.707,14.85h.09l5.439.3c0,.439.427,4.063.643,5.849A43.61,43.61,0,0,1,129.45,36.627c-3.24,1.634-3.3-5.294-4.692-6.779,3.288-.586,9.331-3.34,10.664-5.989,1.561-3.081.871-7.944.871-8.3Z" transform="translate(-124.758 -14.85)" fill="none"/>
    </clipPath>
    <linearGradient id="linear-gradient-2" x1="-10.175" y1="7.395" x2="-10.092" y2="7.395" gradientUnits="objectBoundingBox">
      <stop offset="0" stop-color="#fff"/>
      <stop offset="0.25" stop-color="#fff"/>
      <stop offset="0.643" stop-color="#c6c0b9"/>
      <stop offset="1" stop-color="#c6c0b9"/>
    </linearGradient>
    <clipPath id="clip-path-9">
      <rect id="Rectángulo_375646" data-name="Rectángulo 375646" width="15.321" height="14.299" fill="none"/>
    </clipPath>
    <clipPath id="clip-path-10">
      <path id="Trazado_718609" data-name="Trazado 718609" d="M83.877,12.536v0l.038,0,.045,0v0l5.342.3c0,.434,1.357,3.3,1.573,5.064-1.35,1.992-10.026,7.972-12.617,7.972-2.151,0-1.335,1.862-2.7.406.285-2.177,2.36-12.918,2.36-13.425Z" transform="translate(-75.554 -12.531)" fill="none"/>
    </clipPath>
    <linearGradient id="linear-gradient-3" x1="-9.331" y1="11.078" x2="-9.207" y2="11.078" xlink:href="#linear-gradient"/>
    <clipPath id="clip-path-11">
      <path id="Trazado_718617" data-name="Trazado 718617" d="M74.8,17.927l9.6,34.956L95.368,18.857,92.59,15.411c-.8,1.01-4.981,4.251-7.4,3.992s-6.426-2.415-7.22-4.137c-.669.721-3.169,2.661-3.169,2.661" transform="translate(-74.805 -15.266)" fill="none"/>
    </clipPath>
    <clipPath id="clip-path-13">
      <rect id="Rectángulo_375652" data-name="Rectángulo 375652" width="63.733" height="14.107" fill="none"/>
    </clipPath>
    <clipPath id="clip-path-14">
      <path id="Trazado_718642" data-name="Trazado 718642" d="M176.737,44.436,166,51.065H113.1l16.7-14.106h47.032Z" transform="translate(-113.103 -36.959)" fill="none"/>
    </clipPath>
    <linearGradient id="linear-gradient-4" x1="-12.497" y1="2.72" x2="-12.394" y2="2.72" xlink:href="#linear-gradient-2"/>
    <clipPath id="clip-path-15">
      <rect id="Rectángulo_375654" data-name="Rectángulo 375654" width="23.03" height="8.948" fill="none"/>
    </clipPath>
    <clipPath id="clip-path-16">
      <path id="Trazado_718655" data-name="Trazado 718655" d="M165.435,41.266l-8.117,5.83H142.405l10.937-8.947h4.177l1.39,1.791Z" transform="translate(-142.405 -38.149)" fill="none"/>
    </clipPath>
    <linearGradient id="linear-gradient-5" x1="-14.033" y1="7.558" x2="-13.934" y2="7.558" xlink:href="#linear-gradient-2"/>
  </defs>
  <g id="Grupo_1017917" data-name="Grupo 1017917" transform="translate(-599.999 -2703.644)">
    <g id="Grupo_1017009" data-name="Grupo 1017009" transform="translate(0 973.98)">
      <g id="Image_Place_Holder" data-name="Image Place Holder" transform="translate(599.999 1749.534)">
        <rect id="Image_Place_Holder-2" data-name="Image Place Holder" width="400" height="270.769" rx="10" fill="#ffee58"/>
      </g>
      <g id="Grupo_1017528" data-name="Grupo 1017528" transform="translate(601.18 1729.663)">
        <g id="Grupo_1017527" data-name="Grupo 1017527" clip-path="url(#clip-path)">
          <rect id="Rectángulo_375634" data-name="Rectángulo 375634" width="5.204" height="71.822" transform="translate(281.293 125.282)" fill="#aac9e2"/>
          <rect id="Rectángulo_375635" data-name="Rectángulo 375635" width="4.659" height="71.822" transform="translate(339.75 125.282)" fill="#aac9e2"/>
          <g id="Grupo_1017498" data-name="Grupo 1017498">
            <g id="Grupo_1017497" data-name="Grupo 1017497" clip-path="url(#clip-path)">
              <path id="Trazado_718548" data-name="Trazado 718548" d="M134.6,52.567c-2.664,1.743-5,17.614-5.392,30.6-.242,7.991-.278,20.354-.733,24.382-.723,6.345-2.446,12.346-2.434,20.7,0,5.626,1.53,3.992,6.17-1.442a16.185,16.185,0,0,0,2.979-5.636,13.918,13.918,0,0,0,1.2-6.264c-.263-2.27-1.056-3.783.135-7.628,2.851-9.215,5.142-11.068,8.058-23.646,3.053-13.174.84-38.165-9.981-31.066" transform="translate(172.924 70.414)" fill="#ddac9e"/>
              <path id="Trazado_718549" data-name="Trazado 718549" d="M127.2,90.192c-1.734,4.725-2.633,7.026-1.843,8.435.567,1.013,7.925.951,10.19-3.757s-1.219-5.074,2.424-11.6c.825-1.461-1.577-8.33-.842-5.781,1.48,5.126-1.257,11.144-3.178,13.252-4.111,4.509-6.751-.553-6.751-.553" transform="translate(171.586 105.548)"/>
              <path id="Trazado_718550" data-name="Trazado 718550" d="M134.619,50.635c11.677.168,8.02,5.209,10.828,9.709,9.979,15.968,6.082,42.482,11.514,53.356,4.943,9.882,3.914,11.445,1.592,11.53-3.022.114-6.421-3.366-8.615-8.352a19.659,19.659,0,0,1-2.1-7.137c-1-10.61-14.455-29.441-14.4-38.984s-1.271-6.25-2.3-12.621,3.477-7.5,3.477-7.5" transform="translate(179.72 69.471)" fill="#e8c8ba"/>
              <path id="Trazado_718551" data-name="Trazado 718551" d="M138.412,75.936c.932,6.229,3.463,10.553,5.531,11.027s4.979,1.3,5.807-2.31c3.558,7.609,2.476,9.346.346,9.225-2.187-.121-7.766-.965-8.207-3.786s-1.029-7.09-2.74-9.113-.738-5.043-.738-5.043" transform="translate(189.521 104.184)"/>
              <path id="Trazado_718552" data-name="Trazado 718552" d="M58.269,20.6c5.769-.254,6.2,15.036,9.747,28.779.565,2.182,3.8,13.293-1.283,15.361-7,2.854-6.708-.187-6.708-.187l-9.5-6.02,6.495-5.579-8.186-19.5Z" transform="translate(66.992 28.263)"/>
              <rect id="Rectángulo_375636" data-name="Rectángulo 375636" width="5.202" height="71.822" transform="translate(71.928 125.282)" fill="#aac9e2"/>
              <rect id="Rectángulo_375637" data-name="Rectángulo 375637" width="4.656" height="71.822" transform="translate(130.384 125.282)" fill="#aac9e2"/>
              <path id="Trazado_718553" data-name="Trazado 718553" d="M46.456,79.771c-.384,3.233-1.914,10.323.939,12.8.975.84-.081-1.283,1.426,1.886,2.071,4.36,8.3,4.509,10.373,3.926,1.167-.327,2.218-1.075.261-4.507-2.078-3.636-3.5-4.946-4.279-11.2a27.294,27.294,0,0,0-1.43-5.233Z" transform="translate(62.703 106.256)"/>
              <path id="Trazado_718554" data-name="Trazado 718554" d="M63.343,61.7l-2.626,67.4-11.231-1.333L43.893,48.176Z" transform="translate(60.221 66.097)" fill="#1e1e1e"/>
              <path id="Trazado_718555" data-name="Trazado 718555" d="M44.027,38.673,53.382,53.7l.344,87.856-7.657.192Z" transform="translate(60.405 53.059)"/>
              <path id="Trazado_718556" data-name="Trazado 718556" d="M51.507,79.309c.384,3.235,1.917,10.323-.937,12.8-.975.837.078-1.281-1.426,1.886-2.071,4.36-8.3,4.509-10.373,3.926-1.167-.327-2.22-1.072-.263-4.5,2.075-3.636,3.5-4.941,4.279-11.193a27.548,27.548,0,0,1,1.43-5.235Z" transform="translate(51.34 105.626)"/>
              <path id="Trazado_718557" data-name="Trazado 718557" d="M36.185,64.15l4.478,66.772H55.3L55.636,46.7Z" transform="translate(49.646 64.078)"/>
              <path id="Trazado_718558" data-name="Trazado 718558" d="M48.482,31.569,39.7,28.177s2.41-12.472,2.41-13.727L48,13.973v0l.028,0,.031,0v0l5.776.285c0,1.252,2.078,12.209,2.078,12.209Z" transform="translate(54.463 19.168)" fill="#e8c8ba"/>
              <g id="Grupo_1017496" data-name="Grupo 1017496" transform="translate(94.4 33.128)" style="mix-blend-mode: multiply;isolation: isolate">
                <g id="Grupo_1017495" data-name="Grupo 1017495">
                  <g id="Grupo_1017494" data-name="Grupo 1017494" clip-path="url(#clip-path-3)">
                    <g id="Grupo_1017493" data-name="Grupo 1017493" transform="translate(0.001 -0.001)">
                      <g id="Grupo_1017492" data-name="Grupo 1017492" clip-path="url(#clip-path-4)">
                        <rect id="Rectángulo_375638" data-name="Rectángulo 375638" width="17.978" height="18.054" transform="matrix(0.292, -0.957, 0.957, 0.292, -4.011, 13.153)" fill="url(#linear-gradient)"/>
                      </g>
                    </g>
                  </g>
                </g>
              </g>
              <path id="Trazado_718560" data-name="Trazado 718560" d="M55.86,16.89c-.757.956-4.749,6.736-7.033,6.5s-6.049-5-6.8-6.634c-.629.681-2.991,2.514-2.991,2.514L49.1,42.74l9.384-22.581Z" transform="translate(53.553 22.984)" fill="#d8d8d8"/>
              <path id="Trazado_718561" data-name="Trazado 718561" d="M42.038,16.762c.759,1.641,4.538,5.759,6.817,6,.064,0-1.191,28.184-1.191,28.184L39.052,19.286s2.365-1.838,2.986-2.524" transform="translate(53.579 22.997)" fill="#fff"/>
            </g>
          </g>
          <g id="Grupo_1017500" data-name="Grupo 1017500" transform="translate(92.724 39.264)">
            <g id="Grupo_1017499" data-name="Grupo 1017499" clip-path="url(#clip-path-5)">
              <path id="Trazado_718562" data-name="Trazado 718562" d="M43.544,23.317h1.665V18.95h-3.3l-.028,1.879Z" transform="translate(-35.266 -13.265)" fill="#700000"/>
              <path id="Trazado_718563" data-name="Trazado 718563" d="M44.177,20.51l-2.91,27.544,4.6,3.6.1-.095.168-31.028Z" transform="translate(-36.106 -11.125)" fill="#700000"/>
              <path id="Trazado_718564" data-name="Trazado 718564" d="M44.624,23.317h-1.39V18.95h3.385l-.026,1.879Z" transform="translate(-33.407 -13.265)" fill="#a80000"/>
              <path id="Trazado_718565" data-name="Trazado 718565" d="M44.9,20.51l2.91,27.544-4.6,3.6.064-31.147Z" transform="translate(-33.444 -11.125)" fill="#a80000"/>
              <path id="Trazado_718566" data-name="Trazado 718566" d="M42.465,20.953h3.489v-.315H42.5Z" transform="translate(-34.462 -10.949)" fill="#a80000"/>
            </g>
          </g>
          <g id="Grupo_1017512" data-name="Grupo 1017512">
            <g id="Grupo_1017511" data-name="Grupo 1017511" clip-path="url(#clip-path)">
              <path id="Trazado_718568" data-name="Trazado 718568" d="M60.925,96.269s-22.793.365-22.793-.553c0-14.37,3.235-28.215,3.337-31.659C41.6,59.48,39.5,46.664,38.84,44.7s-6.983-6.559-6.983-6.559-2.068-13.421,3.98-14.607a36.811,36.811,0,0,0,14.737-5.9s1.8,10.356,3.382,13.535c1.613,3.221,3.881,19,5.463,20.779,1.539,2.455,1.506,44.323,1.506,44.323" transform="translate(43.239 24.192)"/>
              <path id="Trazado_718569" data-name="Trazado 718569" d="M42.791,96.509l.083-44.895s5.733-17,9-30.646l-.216-3.406c9.26,6.293,9.758,4.149,14.953,6.452,2.607,1.155.249,6.523.249,6.523S64.8,44.3,64.144,46.266a100.553,100.553,0,0,0-2.13,18c.081,2.695,2.676,22.506,2.676,31.8Z" transform="translate(58.709 24.095)" fill="#1e1e1e"/>
              <path id="Trazado_718570" data-name="Trazado 718570" d="M47.26,21.928l-4.253,4.649L40.357,20.9l-.742-2.51,1.473-1.627Z" transform="translate(54.351 23)" fill="#aac9e2"/>
              <path id="Trazado_718571" data-name="Trazado 718571" d="M43.839,22.17l3.809,4.424,3.5-7.709-2.059-2.213Z" transform="translate(60.147 22.873)" fill="#fff"/>
              <path id="Trazado_718572" data-name="Trazado 718572" d="M43.051,16.694c0-.242-4.17,3.679-4.17,3.679l-.735,7.688,4.493-.572-4.633,4.357L49.653,51.961s-4.716-24.752-5.977-28.293c-1.547-4.353-.624-6.974-.624-6.974" transform="translate(52.144 22.89)" fill="#1e1e1e"/>
              <path id="Trazado_718573" data-name="Trazado 718573" d="M51.422,16.694c0-.242,4.175,3.679,4.175,3.679l.731,7.688-4.5-.572,2.182,2.993L42.826,52.82s6.226-26.4,7.775-29.83a10.279,10.279,0,0,0,.821-6.3" transform="translate(58.757 22.89)"/>
              <path id="Trazado_718574" data-name="Trazado 718574" d="M53.291,40.407l11.231,3.741.23,5.928L53.53,47.5Z" transform="translate(73.115 55.439)"/>
              <path id="Trazado_718575" data-name="Trazado 718575" d="M52.124,40.407,40.9,44.148l-.232,5.928L51.892,47.5Z" transform="translate(55.799 55.439)" fill="#1e1e1e"/>
              <path id="Trazado_718576" data-name="Trazado 718576" d="M39.119,20.151c.963,7.462,5.823,14.083,9.426,14.042,8.115-.09,9.623-4.549,10.029-14.2.342-8,.259-15.484-9.547-15.484-9.213,0-10.916,7.83-9.908,15.643" transform="translate(53.32 6.185)" fill="#e8c8ba"/>
              <path id="Trazado_718577" data-name="Trazado 718577" d="M38.784,18.48c.1-7.631,1.124-13.938,10.3-13.973,0,0,.161,29.686.121,29.686-6.267.133-10.536-5.847-10.42-15.712" transform="translate(53.209 6.184)" fill="#ddac9e"/>
              <path id="Trazado_718578" data-name="Trazado 718578" d="M41.2,20.533c0-1.8.816-3.47.152-4.782a5.019,5.019,0,0,1-.32-4.047c.984-3.454,4.931-4.924,6.082-5.256s.166-2.137.166-2.137a5.289,5.289,0,0,0-3.783.659,10.167,10.167,0,0,0-4.6,5.1c-1.473,3.126-.973,4.8.024,7.287a6.142,6.142,0,0,1,.18,3.7l1.112-.795Z" transform="translate(52.086 5.772)"/>
              <path id="Trazado_718579" data-name="Trazado 718579" d="M48.491,10.452c3.012.5,3.126,1.985,3.126,4.12s.652,6.717.652,6.717l1.262-.363s-1.283-1.105.031-4.509c1.2-3.081.686-8.25-2.419-9.943-2.038-1.11-2.531-2.488-7.424-1.988-1.964.2,3.539,5.762,4.772,5.966" transform="translate(59.406 6.01)" fill="#1e1e1e"/>
              <path id="Trazado_718580" data-name="Trazado 718580" d="M47.578,11.937c.467-.657,1.739-2.417,2.068-.562a6.611,6.611,0,0,1-1.5,4.891c-.761.761-1.224-.282-1.411.375-.09.311.847-4.7.847-4.7" transform="translate(64.107 14.475)" fill="#e8c8ba"/>
              <path id="Trazado_718581" data-name="Trazado 718581" d="M40.853,12.655c-.441-2.13-2.246-2.946-2.576-1.091A7.8,7.8,0,0,0,39.7,16.9c.764.766,1.85.989,1.85.655s-.695-4.9-.695-4.9" transform="translate(52.429 14.45)" fill="#ddac9e"/>
              <path id="Trazado_718582" data-name="Trazado 718582" d="M41.517,13.5c5.456,2.73,12.752-1.822,14.464-2.142s.372-1.338-.942-4.319c-.961-2.177-4.139-1.784-6.86-2.652-2.918-.927-5.814-.621-5.038-.365,1.29.432.242,1.385-.13,1.594-1.252.695-3.591.652-4.277,3.378-.821,3.247-.05,10.271.7,10.619,1.3.6,1.177.116,1.084-.942-.6-6.71.994-5.171.994-5.171" transform="translate(52.661 5.153)"/>
              <path id="Trazado_718583" data-name="Trazado 718583" d="M95.079,19.546c6.1-.268,7.116,13.575,10.866,28.1.6,2.308,3.449,16.376-1.919,18.561-7.41,3.02-7.095-.2-7.095-.2L86.891,59.647l6.86-5.9L85.1,33.138Z" transform="translate(116.757 26.812)"/>
              <path id="Trazado_718584" data-name="Trazado 718584" d="M123.38,47.289c-.92,8.3-1.445,16,1.85,21.685,2.536,4.383,33.445.235,35.751-1.618,9.452-7.607,7.436-19.752,3.833-21.483s-41.434,1.416-41.434,1.416" transform="translate(168.321 62.223)"/>
              <rect id="Rectángulo_375641" data-name="Rectángulo 375641" width="5.204" height="71.822" transform="translate(156.772 125.282)" fill="#aac9e2"/>
              <rect id="Rectángulo_375642" data-name="Rectángulo 375642" width="4.659" height="71.822" transform="translate(215.228 125.282)" fill="#aac9e2"/>
              <path id="Trazado_718585" data-name="Trazado 718585" d="M140.067,47.575l.346,2.664s3.442.344,5.154-.429l-.173-2.491Z" transform="translate(192.171 64.921)" fill="#aac9e2"/>
              <path id="Trazado_718586" data-name="Trazado 718586" d="M134.048,48.884l-4.464-22.427s1.162-10.3,1.162-11.651l4.481-.3v0l.043,0,.024,0v0l4.312.3c0,1.347,1.962,12.391,1.962,12.391l-3.461,9.182-2.358-2.946Z" transform="translate(177.789 19.904)" fill="#e8c8ba"/>
              <path id="Trazado_718587" data-name="Trazado 718587" d="M125.037,27.082c2.173-.92,10.646-1.81,11.317-10.034,0,0,4.853,1.1,4.623,2.59-.225,1.473-.2,31.313-1.8,31.659s-16.455-23.805-14.137-24.216" transform="translate(171.214 23.39)" fill="#ddac9e"/>
              <g id="Grupo_1017505" data-name="Grupo 1017505" transform="translate(295.925 35.224)" style="mix-blend-mode: multiply;isolation: isolate">
                <g id="Grupo_1017504" data-name="Grupo 1017504">
                  <g id="Grupo_1017503" data-name="Grupo 1017503" clip-path="url(#clip-path-7)">
                    <g id="Grupo_1017502" data-name="Grupo 1017502" transform="translate(0 0)">
                      <g id="Grupo_1017501" data-name="Grupo 1017501" clip-path="url(#clip-path-8)">
                        <rect id="Rectángulo_375643" data-name="Rectángulo 375643" width="28.758" height="27.891" transform="translate(-6.413 21.498) rotate(-73.389)" fill="url(#linear-gradient-2)"/>
                      </g>
                    </g>
                  </g>
                </g>
              </g>
              <path id="Trazado_718589" data-name="Trazado 718589" d="M127.525,21.6c.991,7.6,7.161,14.1,10.823,14.1,4.1-.014,9.358-4.172,10.944-13.9,1.286-7.987-.735-15.923-10.745-15.923-9.376,0-12.05,7.754-11.023,15.724" transform="translate(174.681 8.06)" fill="#e8c8ba"/>
              <path id="Trazado_718590" data-name="Trazado 718590" d="M127.032,21.279c-.7-7.991,1.627-15.686,10.97-15.722l.176,30.478c-.029,0-.1.019-.142.019-3.672,0-10.131-4.761-11-14.775" transform="translate(174.129 7.624)" fill="#ddac9e"/>
              <path id="Trazado_718591" data-name="Trazado 718591" d="M133.074,11.98c1.919,3.6,4.364,1.324,5.475,6.473.4,1.834,1.383,5.773.123,8.62-1.639,3.719,3.321-7.1,3.321-7.1s2.825-8.992-3.712-13.186c-3.492-2.239-4.749-.026-4.775.633-.024.5-.432,4.561-.432,4.561" transform="translate(182.577 7.966)" fill="#232121"/>
              <path id="Trazado_718592" data-name="Trazado 718592" d="M135.741,19.9c1.172,2.336,5.249,1.167,6.77,2.723.709,5.522.709,6.893,2.491,7.007.842,5.51,1.845,48.412,1.845,48.412l-22.776,2.27s3.662-17.662,5.413-21.165-.515-16.094-2.654-18.772c0,0,2.163-12.244-4.194-15.43,4.979-1.188,13.105-5.045,13.105-5.045" transform="translate(168.256 27.301)" fill="#aac9e2"/>
              <path id="Trazado_718593" data-name="Trazado 718593" d="M142.326,20.1c-1.592,3.209-6.6.652-8.067,2.009-1.2,1.117,0,6.058-1.779,6.651-.854,5.517-1.665,47.763-1.665,47.763l20.693,3.034s-2.151-14.647-4.614-19.723c-2.785-5.747-1.15-16.848,1.174-19.733,0,0-2.45-6.357,3.755-15.591-.949-2.55-9.5-4.41-9.5-4.41" transform="translate(179.478 27.577)" fill="#fff"/>
              <path id="Trazado_718594" data-name="Trazado 718594" d="M136.254,15.13c-2.856,7.709-.631,11.132,1.12,12.41-.56.235-2.78.9-2.842-1.006a4.271,4.271,0,0,0,3.162,3.715c-1.279,1.269-3.186,1.751-3.579,1.191a9.343,9.343,0,0,0,2.381,1.35s-2.23,2.225-6.625-.9c-4.127-2.908-7.977-8.034-7.13-15.088,1.426,2.386,2.695,2.234,3.178,1.435-1.112-.083-1.112-2.785-1.112-2.785a2.392,2.392,0,0,0,3.575-.712c1.549-2.5,3.024-6.684,8.115-9.073,2.154-1.008-.242,9.464-.242,9.464" transform="translate(168.237 7.679)"/>
              <path id="Trazado_718595" data-name="Trazado 718595" d="M136.084,15.084c2.861,7.714,1.11,11.979-.648,13.259.56.235,2.488.844,2.552-1.065-.111,1.006-1.459,2.329-3.928,3.081a3.154,3.154,0,0,0,3.928.211,9.555,9.555,0,0,1-2.225,1.373s2.595,1.751,6.993-1.373c3.926-2.334,5.939-5.363,5.088-12.42a2.936,2.936,0,0,1-2.754.968c1.112-.076,2.23-1.485,2.23-1.485A5.84,5.84,0,0,1,143.442,15c-1.549-2.5-3.027-6.68-8.112-9.066-2.149-1,.754,9.149.754,9.149" transform="translate(183.931 8.048)" fill="#1e1e1e"/>
              <path id="Trazado_718596" data-name="Trazado 718596" d="M145.5,13.519c-4.217,6.423-11.618.541-14.249,4.675-1.257,1.981-3.812,6.5-2.066,10.93,1.072,2.728-2.4-7.235-2.4-7.235s-3.276-9.905,4.471-15.022c3.418-2.263,10.866-3.155,14.621.339.377.351-.38,6.312-.38,6.312" transform="translate(173.006 6.686)"/>
              <path id="Trazado_718597" data-name="Trazado 718597" d="M132.167,20.349c-4.284,1.418-8.247,2.438-9.422,3.39,0,0,3.1,19.778,3.579,21.675s2.076,15.594,1.12,19.159-2.491,15.352-2.256,16.775,9.936,2.486,13.494,1.3,5.225-5.221,5.225-7.593.292-28.772.292-28.772-6.936-16.853-8.357-19.227c-1.44-2.37-3.677-6.7-3.677-6.7" transform="translate(168.406 27.919)"/>
              <path id="Trazado_718598" data-name="Trazado 718598" d="M131.406,19.271l-5.7,3.216v6.755l3.916-1.065L128.2,33.164s-.534-.536,4.1,3.914c1.781,1.717,8.005,13.167,8.005,13.167s-1.584-7.458-3.2-12.46a114.874,114.874,0,0,1-3.38-12.1,34.8,34.8,0,0,0-2.32-6.412" transform="translate(172.475 26.44)" fill="#1e1e1e"/>
              <path id="Trazado_718599" data-name="Trazado 718599" d="M130.064,18.6l5.577,5.574-5.866,6.35-1.959-9.965Z" transform="translate(175.362 25.515)" fill="#fff"/>
              <path id="Trazado_718600" data-name="Trazado 718600" d="M143.157,20.4c4.279,1.433,8.311,2.7,9.5,3.648,0,0-3.534,19.4-4.006,21.3s-1.539,13.352-.6,16.905,3.283,16.35,3.043,17.778-10.9,3.852-14.464,2.671-5.216-5.226-5.216-7.6-.3-28.775-.3-28.775,6.94-16.853,8.366-19.227,3.679-6.7,3.679-6.7" transform="translate(179.885 27.987)" fill="#1e1e1e"/>
              <path id="Trazado_718601" data-name="Trazado 718601" d="M139.938,19.325l5.688,3.2v6.755L141.71,28.22l1.43,4.981s.541-.529-4.092,3.914c-1.788,1.727-8.01,13.179-8.01,13.179s1.587-7.455,3.2-12.458a118.054,118.054,0,0,0,3.382-12.1,34.724,34.724,0,0,1,2.317-6.407" transform="translate(179.784 26.514)"/>
              <path id="Trazado_718602" data-name="Trazado 718602" d="M131.964,23.606l6.022-4.765,3.715,2.51-3.56,8.067Z" transform="translate(181.054 25.85)" fill="#aac9e2"/>
              <path id="Trazado_718603" data-name="Trazado 718603" d="M81.749,79.1c-.448,3.371-2.234,10.757,1.1,13.34,1.136.873-.095-1.34,1.663,1.964,2.429,4.547,9.7,4.7,12.128,4.092,1.366-.342,2.588-1.12.306-4.7-2.427-3.788-4.094-5.154-5.007-11.665a26.017,26.017,0,0,0-1.667-5.456Z" transform="translate(110.952 105.196)"/>
              <path id="Trazado_718604" data-name="Trazado 718604" d="M101.483,60.263l-3,67.054-14.713-.4L78.755,46.169Z" transform="translate(108.051 63.343)" fill="#1e1e1e"/>
              <path id="Trazado_718605" data-name="Trazado 718605" d="M78.912,36.265,89.842,51.93l1.264,88.376-9.341.949Z" transform="translate(108.267 49.756)"/>
              <path id="Trazado_718606" data-name="Trazado 718606" d="M87.658,78.618c.446,3.371,2.232,10.759-1.1,13.338-1.136.875.095-1.333-1.665,1.966-2.422,4.545-9.7,4.7-12.123,4.089-1.369-.339-2.593-1.117-.306-4.692,2.427-3.793,4.092-5.154,5-11.67a26.481,26.481,0,0,1,1.67-5.456Z" transform="translate(97.671 104.538)"/>
              <path id="Trazado_718607" data-name="Trazado 718607" d="M69.746,62.82l5.316,66.115,17.482-.111-.069-84.187Z" transform="translate(95.691 61.24)"/>
              <path id="Trazado_718608" data-name="Trazado 718608" d="M84.738,31.142l-9.293-3.584s2.548-13.188,2.548-14.514l6.231-.505v0l.031,0,.036,0v0l6.106.3c0,1.326,2.192,12.906,2.192,12.906Z" transform="translate(103.51 17.199)" fill="#e8c8ba"/>
              <g id="Grupo_1017510" data-name="Grupo 1017510" transform="translate(179.213 29.724)" style="mix-blend-mode: multiply;isolation: isolate">
                <g id="Grupo_1017509" data-name="Grupo 1017509">
                  <g id="Grupo_1017508" data-name="Grupo 1017508" clip-path="url(#clip-path-9)">
                    <g id="Grupo_1017507" data-name="Grupo 1017507" transform="translate(0.001 -0.001)">
                      <g id="Grupo_1017506" data-name="Grupo 1017506" clip-path="url(#clip-path-10)">
                        <rect id="Rectángulo_375645" data-name="Rectángulo 375645" width="19.008" height="19.088" transform="translate(-4.241 13.906) rotate(-73.039)" fill="url(#linear-gradient-3)"/>
                      </g>
                    </g>
                  </g>
                </g>
              </g>
              <path id="Trazado_718610" data-name="Trazado 718610" d="M92.531,15.623c-.8,1.008-5.022,7.118-7.436,6.867S78.7,17.2,77.9,15.476c-.659.721-3.157,2.659-3.157,2.659L85.392,42.944l9.924-23.869Z" transform="translate(102.551 21.233)" fill="#d8d8d8"/>
              <path id="Trazado_718611" data-name="Trazado 718611" d="M77.926,15.488c.8,1.734,4.8,6.084,7.2,6.34.071,0-1.255,29.79-1.255,29.79L74.764,18.152s2.507-1.943,3.162-2.664" transform="translate(102.576 21.249)" fill="#fff"/>
            </g>
          </g>
          <g id="Grupo_1017514" data-name="Grupo 1017514" transform="translate(177.437 36.211)">
            <g id="Grupo_1017513" data-name="Grupo 1017513" clip-path="url(#clip-path-11)">
              <path id="Trazado_718612" data-name="Trazado 718612" d="M79.517,22.417h1.762V17.8H77.788l-.036,1.988Z" transform="translate(-70.762 -11.791)" fill="#001c49"/>
              <path id="Trazado_718613" data-name="Trazado 718613" d="M80.179,19.448,77.107,48.565l4.86,3.809.109-.1.178-32.8Z" transform="translate(-71.646 -9.528)" fill="#001c49"/>
              <path id="Trazado_718614" data-name="Trazado 718614" d="M80.659,22.417H79.186V17.8h3.579l-.026,1.988Z" transform="translate(-68.795 -11.791)" fill="#0d3b7f"/>
              <path id="Trazado_718615" data-name="Trazado 718615" d="M80.947,19.448l3.074,29.116-4.865,3.809.069-32.926Z" transform="translate(-68.835 -9.528)" fill="#0d3b7f"/>
              <path id="Trazado_718616" data-name="Trazado 718616" d="M78.373,19.916h3.686v-.332H78.413Z" transform="translate(-69.91 -9.341)" fill="#0d3b7f"/>
            </g>
          </g>
          <g id="Grupo_1017526" data-name="Grupo 1017526">
            <g id="Grupo_1017525" data-name="Grupo 1017525" clip-path="url(#clip-path)">
              <path id="Trazado_718618" data-name="Trazado 718618" d="M97.887,99.536S73.8,99.92,73.8,98.95c0-15.188,3.418-29.825,3.527-33.466.135-4.841-2.087-18.39-2.78-20.461s-7.389-6.936-7.389-6.936S64.976,23.9,71.363,22.648c5.581-1.084,5.743-2.087,15.582-6.241,0,0,1.9,10.947,3.577,14.308,1.7,3.4,4.1,20.079,5.773,21.967,1.625,2.593,1.592,46.854,1.592,46.854" transform="translate(91.645 22.51)"/>
              <path id="Trazado_718619" data-name="Trazado 718619" d="M78.716,99.786l.092-47.457s6.06-17.968,9.519-32.4l-.232-3.6c8.632,4.163,10.316,4.386,15.812,6.822,2.754,1.219.259,6.9.259,6.9s-2.177,14.55-2.87,16.623a105.825,105.825,0,0,0-2.251,19.033c.081,2.846,2.83,23.793,2.83,33.614Z" transform="translate(107.998 22.407)" fill="#1e1e1e"/>
              <path id="Trazado_718620" data-name="Trazado 718620" d="M83.436,20.95l-4.49,4.912-2.806-6-.778-2.654,1.554-1.717Z" transform="translate(103.396 21.252)" fill="#aac9e2"/>
              <path id="Trazado_718621" data-name="Trazado 718621" d="M79.825,21.2l4.028,4.678,3.7-8.15-2.173-2.341Z" transform="translate(109.52 21.116)" fill="#fff"/>
              <path id="Trazado_718622" data-name="Trazado 718622" d="M78.984,15.415c0-.256-4.4,3.892-4.4,3.892l-.78,8.122,4.751-.6-4.9,4.609L85.972,52.7s-4.984-26.163-6.324-29.913c-1.634-4.6-.664-7.367-.664-7.367" transform="translate(101.06 21.133)" fill="#1e1e1e"/>
              <path id="Trazado_718623" data-name="Trazado 718623" d="M87.844,15.415c0-.256,4.41,3.892,4.41,3.892l.773,8.122-4.753-.6,2.3,3.167L78.755,53.6s6.58-27.907,8.219-31.536a10.847,10.847,0,0,0,.871-6.653" transform="translate(108.052 21.133)"/>
              <path id="Trazado_718624" data-name="Trazado 718624" d="M88.389,40.407l11.234,3.741.23,5.928L88.631,47.5Z" transform="translate(121.269 55.439)"/>
              <path id="Trazado_718625" data-name="Trazado 718625" d="M87.224,40.407,76,44.148l-.232,5.928L86.994,47.5Z" transform="translate(103.953 55.439)" fill="#1e1e1e"/>
              <rect id="Rectángulo_375648" data-name="Rectángulo 375648" width="321.37" height="36.975" transform="translate(41.24 111.823)" fill="#7aa7d6"/>
              <rect id="Rectángulo_375649" data-name="Rectángulo 375649" width="12.142" height="103.151" transform="translate(358.546 108.393)" fill="#aac9e2"/>
              <rect id="Rectángulo_375650" data-name="Rectángulo 375650" width="12.142" height="103.151" transform="translate(32.712 108.393)" fill="#aac9e2"/>
              <path id="Trazado_718626" data-name="Trazado 718626" d="M397.618,52.846H.014c-.968,0,46.351-14.275,46.351-14.275a14.007,14.007,0,0,1,3.461-.5l311.391.021a30.635,30.635,0,0,1,4.753.519s32.61,14.234,31.647,14.234" transform="translate(0 52.233)" fill="#7aa7d6"/>
              <path id="Trazado_718627" data-name="Trazado 718627" d="M397.484,54.289a1.582,1.582,0,0,1-1.71,1.411H1.716a1.582,1.582,0,0,1-1.71-1.411V45.116a1.582,1.582,0,0,1,1.71-1.411H395.774a1.582,1.582,0,0,1,1.71,1.411Z" transform="translate(0.008 59.963)" fill="#aac9e2"/>
              <path id="Trazado_718628" data-name="Trazado 718628" d="M74.838,19.071c1.018,7.887,6.151,14.889,9.958,14.846,8.58-.1,10.176-4.813,10.61-15.015.351-8.454.27-16.369-10.1-16.369-9.742,0-11.54,8.276-10.472,16.538" transform="translate(102.305 3.475)" fill="#e8c8ba"/>
              <path id="Trazado_718629" data-name="Trazado 718629" d="M74.484,17.3c.1-8.067,1.181-14.735,10.885-14.77,0,0,.168,31.382.126,31.382-6.625.135-11.141-6.181-11.011-16.611" transform="translate(102.187 3.475)" fill="#ddac9e"/>
              <path id="Trazado_718630" data-name="Trazado 718630" d="M76.312,9.491,74.495,8.417l.083.916L76.3,11.178Z" transform="translate(102.206 11.548)" fill="#210500"/>
              <path id="Trazado_718631" data-name="Trazado 718631" d="M78,21.445c0-1.9,0-5.638-.7-7.026a5.308,5.308,0,0,1-.342-4.279c1.044-3.648,5.214-5.207,6.43-5.555s.173-2.261.173-2.261a5.608,5.608,0,0,0-4,.7A10.775,10.775,0,0,0,74.7,8.406a11.642,11.642,0,0,0-.875,7.733,19.784,19.784,0,0,0,1.093,3.878l1.177-.84Z" transform="translate(100.889 3.039)" fill="#210500"/>
              <path id="Trazado_718632" data-name="Trazado 718632" d="M77.178,5.7c1.392,1.739,4.44,2.151,5.373.792.6-.887,3.335,2.17,4.64,2.391,3.181.527,3.707,2.576,3.707,4.837s-.263,8.153-.263,8.153l2.752-1.592a63.052,63.052,0,0,0,1.357-7.422c.4-3.449-.828-7.092-4.108-8.883-2.156-1.174-3.046-2.386-8.219-1.855-2.075.211-4.374.081-4.713,1.124A15.33,15.33,0,0,0,77.178,5.7" transform="translate(105.888 2.738)" fill="#441800"/>
              <path id="Trazado_718633" data-name="Trazado 718633" d="M83.776,10.387c.5-.695,1.841-2.555,2.185-.6a6.956,6.956,0,0,1-1.587,5.169c-.806.809-1.3-.3-1.49.4-.095.327.892-4.972.892-4.972" transform="translate(113.707 12.239)" fill="#e8c8ba"/>
              <path id="Trazado_718634" data-name="Trazado 718634" d="M76.666,11.146c-.46-2.253-2.372-3.114-2.721-1.158a8.291,8.291,0,0,0,1.5,5.645c.811.806,1.959,1.044,1.959.69s-.738-5.178-.738-5.178" transform="translate(101.361 12.211)" fill="#ddac9e"/>
              <path id="Trazado_718635" data-name="Trazado 718635" d="M80.807,10.842c5.769,2.882,10.921-.062,12.728-.4s1.286-3.354-.4-6.364C91.279.763,83.164-.064,78.489,3.913a13.876,13.876,0,0,0-3.382,3.477c-2.816,4.111-1.43,11.2-.631,11.566,1.376.633,3.838,1.99,3.484-.427-1.1-7.46,2.846-7.688,2.846-7.688" transform="translate(100.734 1.713)" fill="#210500"/>
              <path id="Trazado_718636" data-name="Trazado 718636" d="M72.419,20.778c-.472,1.1-12.183,29.154-8.207,42.94,1.105,3.831,16.571,5.769,16.571,5.769s-.074.116,4.376-11.6L78.4,53.976l5.75-12.292Z" transform="translate(86.97 28.507)"/>
              <path id="Trazado_718637" data-name="Trazado 718637" d="M73.852,37.153s7-.975,11.68.349c1.108.311,1.7.871,3.734,2.2,1.525.991,1.312,2.035-.4,1.525A13.648,13.648,0,0,1,86.02,39.9L83.5,39.492s1.966.569,2.486.742S88.9,42,89.578,42.317c.965.439,1.1,1.743-.512,1.4a20.1,20.1,0,0,1-3.233-1.2c-1.143-.356-3.178-.795-3.178-.795,2.287.847,5.633,1.722,6.319,2.521s-.052,1.812-1.66.973a13.145,13.145,0,0,0-5.252-1.554l4.274,1.34s1.241,1.345-.9.946c-5.42-1.008-9.872-.984-11.488-1.838-3.181-1.689-2.782-3.779-.1-6.962" transform="translate(98.374 50.499)" fill="#ddac9e"/>
              <path id="Trazado_718638" data-name="Trazado 718638" d="M71.072,45.151c-.209-1.691-1.089-5.79,3.178-8.617,2.251.195,1.862.4,1.862.4s-3.582,2.652-1.99,8.617Z" transform="translate(97.212 50.125)" fill="#fff"/>
              <path id="Trazado_718639" data-name="Trazado 718639" d="M99.064,42.127c.24-1.245-2.4-3.124-3.961-4.974,0,0-6.99-.975-11.68.349-1.105.313-1.691.871-3.726,2.206-1.528.992-1.316,2.033.4,1.525A13.677,13.677,0,0,0,82.94,39.9l2.524-.413s-1.971.569-2.488.745S80.06,42,79.382,42.317c-.963.441-1.1,1.743.512,1.4a20.145,20.145,0,0,0,3.233-1.193c1.141-.356,3.176-.8,3.176-.8-2.282.847-5.633,1.724-6.314,2.521s.047,1.815,1.658.975A13.157,13.157,0,0,1,86.9,43.667l-4.281,1.343s-1.236,1.343.9.946c5.418-1.01,9.87-.984,11.48-1.841,1.335-.709,3.888-1.091,4.061-1.988" transform="translate(107.933 50.499)" fill="#e8c8ba"/>
              <path id="Trazado_718640" data-name="Trazado 718640" d="M91.336,44.091c.2-1.694.13-5.7-5.038-7.557-2.251.195-1.326.531-1.326.531s5.7,5.437,1.988,8.485Z" transform="translate(116.323 50.125)" fill="#fff"/>
              <path id="Trazado_718641" data-name="Trazado 718641" d="M92.861,34.355c-2.09,1.988-7.329,4.64-7.329,4.64s5.045,6.229,4.115,11.8c0,0,16.236-2.846,16.438-8.613.128-3.719-13.224-7.823-13.224-7.823" transform="translate(117.35 47.135)"/>
              <g id="Grupo_1017519" data-name="Grupo 1017519" transform="translate(268.28 87.666)" style="mix-blend-mode: multiply;isolation: isolate">
                <g id="Grupo_1017518" data-name="Grupo 1017518">
                  <g id="Grupo_1017517" data-name="Grupo 1017517" clip-path="url(#clip-path-13)">
                    <g id="Grupo_1017516" data-name="Grupo 1017516" transform="translate(0 0.001)">
                      <g id="Grupo_1017515" data-name="Grupo 1017515" clip-path="url(#clip-path-14)">
                        <rect id="Rectángulo_375651" data-name="Rectángulo 375651" width="23.093" height="65.097" transform="translate(-2 13.817) rotate(-81.762)" fill="url(#linear-gradient-4)"/>
                      </g>
                    </g>
                  </g>
                </g>
              </g>
              <path id="Trazado_718643" data-name="Trazado 718643" d="M149.407,56.317H129.385L126.337,27.96h25.248Z" transform="translate(173.334 38.361)" fill="#fff"/>
              <path id="Trazado_718644" data-name="Trazado 718644" d="M120.863,44.22c.232.069,12.268-2.028,12.531-2.011a8.964,8.964,0,0,0,4.806-.861,15.47,15.47,0,0,1,6.087-1.924c2.206-.126,2.578-.323,2.65-.7.064-.446-1.338-.356-2.623-.5s-3.793.446-3.4.154,5.266-.508,5.982-.633,2.308-.766,1.449-.984-5.629-.32-6.3-.344c-.667-.04,5.809-.278,6.246-.391.555-.145.308-.664-.752-.773-.719-.083-5.1-.145-5.572-.14a12.792,12.792,0,0,1,1.962-.4c1.034-.088,1.423-.1,2.009-.147,1.075-.078,1.822-.695.4-.8a21.955,21.955,0,0,0-2.626-.275,18.457,18.457,0,0,0-3.261.856,38.045,38.045,0,0,1-4.905,2.061c-4.965,1.105-15.439.723-16,1Z" transform="translate(163.997 45.923)" fill="#ddac9e"/>
              <path id="Trazado_718645" data-name="Trazado 718645" d="M125.229,34.449l2.22.27.681,7.709-3.413.6.47-7.7Z" transform="translate(171.111 47.264)" fill="#fff"/>
              <path id="Trazado_718646" data-name="Trazado 718646" d="M131.81,21.664c-3.181-.994-5.565,1-6.959,8.95C123.6,37.746,118.29,49.7,117.3,60.64c-.363,3.961,15.366,4.981,18.027,5.171.754-3.036.662-13.919.662-13.919s-4.571.2-5.762.2c-1.456,0,5.368-6.113,5.368-9.348,0-1.9-3.783-21.08-3.783-21.08" transform="translate(160.925 29.398)"/>
              <path id="Trazado_718647" data-name="Trazado 718647" d="M161.313,40.849c-.159.183-11.516,2.227-11.732,2.386a9.316,9.316,0,0,1-4.834,1.542,15.453,15.453,0,0,0-6.162,1.67c-1.924,1.084-2.344,1.122-2.612.837-.294-.342.935-1.02,1.945-1.838.982-.821,3.425-1.67,2.941-1.7s-4.708,2.41-5.38,2.692c-.688.282-2.36.6-1.75-.047.591-.652,4.561-3.3,5.119-3.693.541-.391-5.043,2.908-5.467,3.043-.548.178-.619-.391.218-1.053.555-.458,4.215-2.88,4.611-3.129a12.859,12.859,0,0,0-1.862.726c-.918.486-1.26.688-1.779.961-.946.517-1.9.4-.761-.458a20.855,20.855,0,0,1,2.071-1.653,19.488,19.488,0,0,1,3.2-1.039c.522-.114,6.355-.325,7.718-.835,4.777-1.755,11.706-4.993,12.332-5.071Z" transform="translate(182.432 46.903)" fill="#ddac9e"/>
              <path id="Trazado_718648" data-name="Trazado 718648" d="M140.283,35.869l-2,1.018,2.035,7.477,3.4-.626-3.1-7.057Z" transform="translate(189.724 49.213)" fill="#fff"/>
              <path id="Trazado_718649" data-name="Trazado 718649" d="M141.3,21.726c1.71-.512,4.58.619,6.29,7.652s11.179,30.241,9.275,32.525-12.32,3.387-14.979,3.579c-.75-3.036-2.882-9.877-2.882-9.877l5.667-2.45c0-1.454-6.167-8.233-6.167-11.471,0-1.9,2.8-19.958,2.8-19.958" transform="translate(190.026 29.661)"/>
              <path id="Trazado_718650" data-name="Trazado 718650" d="M49.353,12.781c-1.326.263.761-3.975-2.832-6.613A24.185,24.185,0,0,0,41,3.634,23.684,23.684,0,0,1,46.868,5.52c1.9.814,4.474,5.29,4.474,6.615s-1.988.645-1.988.645" transform="translate(56.257 4.976)" fill="#1e1e1e"/>
              <path id="Trazado_718651" data-name="Trazado 718651" d="M48.868,12.576c-1.2.13-1.649-4.054-3.086-5.667-2.979-3.347-4.277-3.28-4.277-3.28S45.139,6.015,45.533,8s-.579,6.132,1.644,6.015c1.219-.064,1.691-1.442,1.691-1.442" transform="translate(56.945 4.979)" fill="#1e1e1e"/>
              <path id="Trazado_718652" data-name="Trazado 718652" d="M47.12,13.638c-1.193.135-3.477-.643-3.745-3.693s.531-4.974-.728-5.769c-1.606-1.015-2.189-.13-2.189-.13,2.223-.963,2.092.991,1.694,5.221-.337,3.565,1.542,5.022,3.544,5.119,1.509.074,1.426-.747,1.426-.747" transform="translate(55.507 5.06)" fill="#1e1e1e"/>
              <path id="Trazado_718653" data-name="Trazado 718653" d="M45.853,13.71c-1.2.133-5.721,1.632-4.606-2.733.8-3.114.662-7.524-.432-7.095-.273.111.8-.2.235,2.851-.3,1.611-2.019,6.71-.017,7.474a5.3,5.3,0,0,0,4.82-.5" transform="translate(54.987 5.287)" fill="#1e1e1e"/>
              <path id="Trazado_718654" data-name="Trazado 718654" d="M50.475,11.439c-1.326-2.185-.263-5.432-4.64-6.691-3.6-1.037-4.229-.085-3.828-.349s5.486-1.509,8.4,1.343,2.915,3.84,2.187,4.706a3.582,3.582,0,0,1-2.121.991" transform="translate(57.489 5.352)" fill="#1e1e1e"/>
              <g id="Grupo_1017524" data-name="Grupo 1017524" transform="translate(337.784 90.488)" style="mix-blend-mode: multiply;isolation: isolate">
                <g id="Grupo_1017523" data-name="Grupo 1017523">
                  <g id="Grupo_1017522" data-name="Grupo 1017522" clip-path="url(#clip-path-15)">
                    <g id="Grupo_1017521" data-name="Grupo 1017521" transform="translate(0 0.001)">
                      <g id="Grupo_1017520" data-name="Grupo 1017520" clip-path="url(#clip-path-16)">
                        <rect id="Rectángulo_375653" data-name="Rectángulo 375653" width="24.036" height="20.446" transform="matrix(0.823, -0.568, 0.568, 0.823, -4.183, 2.887)" fill="url(#linear-gradient-5)"/>
                      </g>
                    </g>
                  </g>
                </g>
              </g>
              <path id="Trazado_718656" data-name="Trazado 718656" d="M159.94,31.987H147.814l2.078,17.671c0,.009-.026.021-.026.031,0,.294,1.826.536,4.089.536,2.177,0,3.942-.223,4.058-.505h.038Z" transform="translate(202.8 43.886)" fill="#aac9e2"/>
              <path id="Trazado_718657" data-name="Trazado 718657" d="M153.956,50.225c-2.263,0-4.092-.242-4.092-.536,0-.009-2.052-17.7-2.052-17.7h6.065Z" transform="translate(202.799 43.886)" fill="#7aa7d6"/>
              <path id="Trazado_718658" data-name="Trazado 718658" d="M159.96,32.472c0,.439-2.723.8-6.079.8s-6.082-.358-6.082-.8,2.723-.792,6.082-.792,6.079.351,6.079.792" transform="translate(202.78 43.465)" fill="#aac9e2"/>
              <path id="Trazado_718659" data-name="Trazado 718659" d="M40.363,38.78l-5.717,8.47H71.718l-4.592-8.67Z" transform="translate(47.535 52.933)" fill="#fff"/>
              <path id="Trazado_718660" data-name="Trazado 718660" d="M62.037,41.964c.223-1.179-2.268-2.956-3.741-4.7,0,0-6.615-.927-11.053.327-1.044.3-1.6.825-3.53,2.085-1.437.939-1.238,1.924.38,1.445a12.913,12.913,0,0,0,2.692-1.257l2.386-.389s-1.862.538-2.351.7-2.759,1.672-3.4,1.966c-.913.415-1.039,1.651.482,1.324a18.98,18.98,0,0,0,3.06-1.127c1.079-.339,3.008-.754,3.008-.754-2.161.8-5.332,1.627-5.98,2.386s.05,1.713,1.573.918a12.41,12.41,0,0,1,4.972-1.468l-4.047,1.269s-1.174,1.271.849.894c5.128-.956,9.339-.93,10.864-1.741,1.26-.669,3.677-1.029,3.836-1.879" transform="translate(58.646 50.668)" fill="#e8c8ba"/>
              <path id="Trazado_718661" data-name="Trazado 718661" d="M54.729,43.821c.192-1.6.123-5.389-4.768-7.149-2.125.185-1.255.5-1.255.5S54.1,42.32,50.587,45.2Z" transform="translate(66.582 50.314)" fill="#fff"/>
              <path id="Trazado_718662" data-name="Trazado 718662" d="M56.17,34.61C54.2,36.493,49.239,39,49.239,39s4.768,5.89,3.888,11.16c0,0,15.361-2.7,15.551-8.153.123-3.518-12.508-7.4-12.508-7.4" transform="translate(67.556 47.485)"/>
              <path id="Trazado_718663" data-name="Trazado 718663" d="M35.9,37.414s10.814,3.361,11.765,3.679,1.06.655,2.386,2.32c1,1.243.55,1.822-.728.93-1.075-.757-1.857-1.392-1.857-1.392l-2.052-.8s2.4,1.9,2.78,2.192,1.421,2.154,1.893,2.595c.681.633.5,1.879-.738,1.148S47.763,46.3,47,45.735a17.949,17.949,0,0,0-2.851-1.4c2.109,1.615,4.64,3.646,4.986,4.5s-1.065.5-2.334-.458a23.785,23.785,0,0,0-3.316-1.921l2.948,2.91s.852,1.312-1.222.138c-3.98-2.253-6.893-3.34-7.569-3.743-9.071-5.4-5.837-6.07-1.746-8.354" transform="translate(43.66 51.332)" fill="#ddac9e"/>
              <path id="Trazado_718664" data-name="Trazado 718664" d="M32.419,45.212c.65-3.231.375-6.447,5.052-7.714,1.81.783,3.079,1.492,3.079,1.492s-2.737.339-5.057,8.648Z" transform="translate(44.479 51.447)" fill="#fff"/>
              <path id="Trazado_718665" data-name="Trazado 718665" d="M39.832,21.767c-.441,1.041-14.695,29.629-13.679,39.2.4,3.75,16.172,7.958,16.172,7.958a13.294,13.294,0,0,1,5.2-10.045l-5.486-4.075,8.893-13.259Z" transform="translate(35.811 29.864)"/>
              <path id="Trazado_718666" data-name="Trazado 718666" d="M119.466,55.354c2.2,2.706.809-3.541,2.583,13.836.937,9.194-2.986,37.072-2.74,42.826.282,6.521,1.613,14.166,4.95,20.226,1.568,2.835-24.972,14.384-24.972,14.384s16.967-17.643,12.095-29.342c-2.116-5.062-14.825-46.6-14.467-49.722s22.551-12.209,22.551-12.209" transform="translate(132.957 75.945)" fill="#ddac9e"/>
              <path id="Trazado_718667" data-name="Trazado 718667" d="M120.577,85.594c-1.371-1.518-5.254,2.673-6.846,4.865s-7.844,10.119-9.6,10.337-6.276,6.153-6.053,7.9,7.868,1.777,10.465,1.056c5.947-1.663,6.082-8.131,8.53-10.781,1.824-1.976,4.8-1.257,6.134-3.52,2.683-4.535-2.633-9.856-2.633-9.856" transform="translate(134.555 116.991)"/>
              <path id="Trazado_718668" data-name="Trazado 718668" d="M113.071,135.9c.586-3.454,7.481-19.415,11.2-24.178,23.516-30.162,21.576-37.262,23.815-42.255S129.6,55.319,129.6,55.319s-14.412,46.738-15.769,52.331c-3.228,13.357-18.065,33.851-19.424,38.343-1.95,6.468,18.66-10.093,18.66-10.093" transform="translate(129.352 75.897)" fill="#e8c8ba"/>
              <path id="Trazado_718669" data-name="Trazado 718669" d="M109.453,86.935c-3.119,1.618-5.268,5.629-8.456,9.1s-5.249,4.905-7.069,9.327c-1.494,3.636-2.03,7.1.235,8.117s12.925-1.9,13.4-8.207c.643-8.4,5.278-6.025,7.835-10.968,2.464-4.78-2.073-9.377-5.947-7.372" transform="translate(127.092 118.613)"/>
              <path id="Trazado_718670" data-name="Trazado 718670" d="M94.327,146.378H88.9L101.11,67.654h13.575Z" transform="translate(121.97 92.821)" fill="#1e1e1e"/>
              <path id="Trazado_718671" data-name="Trazado 718671" d="M135.006,146.378h5.427L128.22,67.654H114.647Z" transform="translate(157.296 92.821)" fill="#1e1e1e"/>
              <path id="Trazado_718672" data-name="Trazado 718672" d="M106.139,22.271c-11.2,2.282-10.6,3.463-10.693,12.292-.085,9.27-8.395,36.14-3.3,48.526,1.936,4.708,20.432,2.472,23.836,2.714.963-3.89-5-32.411-5-36.552,0-2.434-4.834-26.979-4.834-26.979" transform="translate(124.156 30.556)" fill="#001c49"/>
              <path id="Trazado_718673" data-name="Trazado 718673" d="M121.556,22.877c9.317.844,8.1,2.405,9.656,11.537,2.714,15.947,6.5,44.242,4.075,47.167s-17.807,2.128-21.208,2.374c-.968-3.888,3.9-31.393,3.9-35.535,0-2.434,3.577-25.544,3.577-25.544" transform="translate(156.342 31.387)" fill="#001c49"/>
              <path id="Trazado_718674" data-name="Trazado 718674" d="M109.119,41.007s-4.26-25.089-4.26-26.815l5.738-.375v0l.047,0,.04,0v0l6.831-.168c0,1.724,1.912,16.8,1.912,16.8l-2.929,7Z" transform="translate(143.866 18.725)" fill="#e8c8ba"/>
              <path id="Trazado_718675" data-name="Trazado 718675" d="M98.668,33.333c2.787-1.181,13.435-4.571,14.294-15.1,0,0,8.19-5.342,7.894-3.432-.289,1.881-2.642,49.1-4.682,49.542S95.7,33.857,98.668,33.333" transform="translate(134.931 19.74)" fill="#ddac9e"/>
              <path id="Trazado_718676" data-name="Trazado 718676" d="M118.775.68A44.18,44.18,0,0,0,109.868,1.7c-10.055,3.181-10.259,9.189-9.417,18.834,1.12,12.816,10.323,20.416,15.019,20.416a.706.706,0,0,0,.121-.017,4.909,4.909,0,0,0,.991.119c5.247-.012,13.4-5.9,15.423-18.736C133.655,11.769,133.28,2.462,118.775.68" transform="translate(137.393 0.899)" fill="#ddac9e"/>
              <path id="Trazado_718677" data-name="Trazado 718677" d="M113.1,20.158c-6.274,2.884-15.712,4.979-17.223,6.193,0,0,3.046,25.912,3.653,28.343s2.654,19.953,1.437,24.515-3.188,19.647-2.889,21.471,11.072,1.824,15.871,1.938c4.542.107,9.331,1,9.331-2.038s-1.188-78.556-1.188-78.556Z" transform="translate(131.536 27.657)" fill="#001c49"/>
              <path id="Trazado_718678" data-name="Trazado 718678" d="M116.238,20.158c5.475,1.831,15.492,6.063,17,7.273,0,0-4.519,24.832-5.126,27.264s-1.964,17.085-.764,21.63c1.222,4.566,4.2,20.926,3.895,22.757s-12.462,3.876-18.511,3.416c-4.791-.37-6,.783-6-2.253s-.171-77.37-.171-77.37Z" transform="translate(146.207 27.657)" fill="#0d3b7f"/>
              <path id="Trazado_718679" data-name="Trazado 718679" d="M101.2,23.582l4.07-4.5s7.173.678,9.59.638a25.022,25.022,0,0,1-1.1,7.166Z" transform="translate(138.847 26.185)" fill="#001c49"/>
              <path id="Trazado_718680" data-name="Trazado 718680" d="M106.838,19.778c4.2.128,9.419-.764,10.434-.764a58.848,58.848,0,0,1,3.563,4.751s-13.342,3.012-14.208,3.307c-.251.088.211-7.294.211-7.294" transform="translate(146.189 26.087)" fill="#001c49"/>
              <path id="Trazado_718681" data-name="Trazado 718681" d="M114.592,1.512c1.274-.761,6.869-1.7,9.163,4.836,3.655,10.427-1.316,26.775-6.62,30.542-5.852,4.156-11.158,4.535-10.771,1.95s8.228-37.328,8.228-37.328" transform="translate(145.903 1.339)" fill="#d1956d"/>
              <path id="Trazado_718682" data-name="Trazado 718682" d="M125.764,2.851C124.189.538,120.673-.371,115.588.137S97.855,3.448,100.144,18.971s7.638,19.514,10.605,21.291c4.578,2.747,10.266.6,10.266.6S139,22.32,125.764,2.851" transform="translate(137.02 0.001)" fill="#b57a52"/>
              <path id="Trazado_718683" data-name="Trazado 718683" d="M156.972,104.451c-1.777,3.648-8.537,6.6-12.5,6.6H111.01c-3.961,0-12.5-2.956-12.5-6.6L91.887,38.42a6.9,6.9,0,0,1,7.171-6.6h54.98c3.956,0,7.171,2.953,8.945,6.6Z" transform="translate(126.069 43.651)" fill="#1e1e1e"/>
              <path id="Trazado_718684" data-name="Trazado 718684" d="M164.374,68.683a4.954,4.954,0,0,1-5.133,4.751H96.9a4.764,4.764,0,1,1,0-9.5h62.346a4.952,4.952,0,0,1,5.133,4.749" transform="translate(125.894 87.717)"/>
              <path id="Trazado_718685" data-name="Trazado 718685" d="M110.437,13.379c4.073-.676,7.994,11.16,5.425,17.816-5.427,14.083,2.377,20.871,2.716,30.369.33,9.256-3.228,15.783-9.163,19.175,3.224-2.548,6.445-10.859,4.749-14.593s-9.5-26.128-7.125-35.971,3.4-16.8,3.4-16.8" transform="translate(146.243 18.318)" fill="#d1956d"/>
              <path id="Trazado_718686" data-name="Trazado 718686" d="M112.851,13.363c-2.377,2.377-13.067,17.477-9.339,30.032s8.824,14.59,10.861,24.773S112,81.4,110.982,82.756c-.614.816,10.857-6.276,10.178-22.565s-9.5-8.99-4.07-33.085a23.876,23.876,0,0,0-1.354-13.743Z" transform="translate(140.946 18.334)" fill="#b57a52"/>
              <path id="Trazado_718687" data-name="Trazado 718687" d="M113.624,15.11c-3.015-1.7-7.462-.339-7.975,1.188-.339-2.374,3.081-4.711,6.955-3.734,4.374,1.1,2.884,4.922,2.884,4.922Z" transform="translate(144.919 16.926)" fill="#d1956d"/>
              <path id="Trazado_718688" data-name="Trazado 718688" d="M112.8,88.862c-.249,1.528-5.852,14-5.6,14.763s-1.777.249-1.777.249L107.968,90.9Z" transform="translate(144.64 121.918)"/>
              <path id="Trazado_718689" data-name="Trazado 718689" d="M108.136,90.1a135.48,135.48,0,0,0-9.414,17.01l-1.4-.126,4.2-16.248Z" transform="translate(133.525 123.61)"/>
            </g>
          </g>
        </g>
      </g>
    </g>
  </g>
</svg>
