<svg xmlns="http://www.w3.org/2000/svg" xmlns:xlink="http://www.w3.org/1999/xlink" width="294.812" height="230.769" viewBox="0 0 294.812 230.769">
  <defs>
    <clipPath id="clip-path">
      <rect id="Rectángulo_376061" data-name="Rectángulo 376061" width="239.317" height="222.719" transform="translate(-32)" fill="none"/>
    </clipPath>
    <clipPath id="clip-path-2">
      <rect id="Rectángulo_375936" data-name="Rectángulo 375936" width="224.993" height="214.223" fill="#003a38"/>
    </clipPath>
    <clipPath id="clip-path-3">
      <rect id="Rectángulo_376050" data-name="Rectángulo 376050" width="207.317" height="222.719" fill="none"/>
    </clipPath>
    <clipPath id="clip-path-5">
      <rect id="Rectángulo_376052" data-name="Rectángulo 376052" width="3.447" height="8.912" fill="none"/>
    </clipPath>
    <clipPath id="clip-path-7">
      <rect id="Rectángulo_376054" data-name="Rectángulo 376054" width="2.913" height="2.242" fill="none"/>
    </clipPath>
    <clipPath id="clip-path-8">
      <rect id="Rectángulo_376055" data-name="Rectángulo 376055" width="13.419" height="1.441" fill="none"/>
    </clipPath>
    <clipPath id="clip-path-9">
      <rect id="Rectángulo_376056" data-name="Rectángulo 376056" width="2.547" height="3.591" fill="none"/>
    </clipPath>
    <clipPath id="clip-path-10">
      <rect id="Rectángulo_376057" data-name="Rectángulo 376057" width="10.414" height="8.68" fill="none"/>
    </clipPath>
    <clipPath id="clip-path-11">
      <rect id="Rectángulo_376058" data-name="Rectángulo 376058" width="8.612" height="17.406" fill="none"/>
    </clipPath>
    <clipPath id="clip-path-12">
      <rect id="Rectángulo_376059" data-name="Rectángulo 376059" width="38.178" height="43.658" fill="none"/>
    </clipPath>
  </defs>
  <g id="Grupo_1017927" data-name="Grupo 1017927" transform="translate(-918.187 -3457.473)">
    <g id="Grupo_1017719" data-name="Grupo 1017719" transform="translate(108.187 -9917.527)">
      <rect id="equipo-negocios-feliz-cooperando-mientras-analiza-progreso-su-negocio-pizarra-oficina_1_" data-name="equipo-negocios-feliz-cooperando-mientras-analiza-progreso-su-negocio-pizarra-oficina (1)" width="294.813" height="230.769" rx="10" transform="translate(810 13375)" fill="#01d8d1"/>
      <path id="Sustracción_98" data-name="Sustracción 98" d="M3.812,0C2.534,0,1.253.033,0,.1V24.558c1.264-.1,2.546-.148,3.812-.148A48.8,48.8,0,0,1,52.573,73.146,49.233,49.233,0,0,1,52.093,80H76.679c.211-2.271.318-4.578.318-6.856A73.737,73.737,0,0,0,75.511,58.4a72.745,72.745,0,0,0-4.266-13.73A73.136,73.136,0,0,0,64.5,32.249,73.578,73.578,0,0,0,44.729,12.491,73.135,73.135,0,0,0,32.3,5.749,72.9,72.9,0,0,0,18.56,1.485,73.764,73.764,0,0,0,3.812,0Z" transform="translate(1104.81 13455.002) rotate(180)" fill="#01d8d1" opacity="0.4"/>
      <g id="Grupo_1014907" data-name="Grupo 1014907" transform="translate(1080.813 13384)">
        <circle id="Elipse_4752" data-name="Elipse 4752" cx="2" cy="2" r="2" fill="#01d8d1"/>
        <circle id="Elipse_4757" data-name="Elipse 4757" cx="2" cy="2" r="2" transform="translate(0 7)" fill="#01d8d1"/>
        <circle id="Elipse_4760" data-name="Elipse 4760" cx="2" cy="2" r="2" transform="translate(0 14)" fill="#01d8d1"/>
        <circle id="Elipse_4753" data-name="Elipse 4753" cx="2" cy="2" r="2" transform="translate(7)" fill="#01d8d1"/>
        <circle id="Elipse_4756" data-name="Elipse 4756" cx="2" cy="2" r="2" transform="translate(7 7)" fill="#01d8d1"/>
        <circle id="Elipse_4759" data-name="Elipse 4759" cx="2" cy="2" r="2" transform="translate(7 14)" fill="#01d8d1"/>
        <circle id="Elipse_4754" data-name="Elipse 4754" cx="2" cy="2" r="2" transform="translate(14)" fill="#01d8d1"/>
        <circle id="Elipse_4755" data-name="Elipse 4755" cx="2" cy="2" r="2" transform="translate(14 7)" fill="#01d8d1"/>
        <circle id="Elipse_4758" data-name="Elipse 4758" cx="2" cy="2" r="2" transform="translate(14 14)" fill="#01d8d1"/>
      </g>
    </g>
    <g id="Grupo_1017885" data-name="Grupo 1017885" transform="translate(972 3465.521)">
      <g id="Grupo_1017884" data-name="Grupo 1017884" clip-path="url(#clip-path)">
        <g id="Grupo_1017886" data-name="Grupo 1017886" transform="translate(-22.998 0)" opacity="0.2">
          <g id="Grupo_1017722" data-name="Grupo 1017722">
            <g id="Grupo_1017721" data-name="Grupo 1017721" clip-path="url(#clip-path-2)">
              <path id="Trazado_719058" data-name="Trazado 719058" d="M24.872,177.194C-7.9,146.76-3.783,95.391,11.52,78.156s41.462-28.813,53.9-48.306S93.1-4.352,124.81,1.176,158.9,30.568,169.833,44.208s52.875,17,55.034,55.086-23.846,41.108-34.6,51.831-24.224,56.93-61.6,61.835c-45.8,6.011-76.071-10.01-103.8-35.767" transform="translate(0 0)" fill="#003a38"/>
            </g>
          </g>
        </g>
        <g id="Grupo_1017858" data-name="Grupo 1017858">
          <g id="Grupo_1017857" data-name="Grupo 1017857" clip-path="url(#clip-path-3)">
            <path id="Trazado_719209" data-name="Trazado 719209" d="M311.661,126.856a2.132,2.132,0,0,0-.392-.12,2.724,2.724,0,0,0-1.2.017,4.338,4.338,0,0,0-1.745.9,9.276,9.276,0,0,0-1.771,2.064,37.1,37.1,0,0,0-3.067,6.941,101.755,101.755,0,0,0-3.122,9.758l0,.013,0,.008a2.832,2.832,0,0,1-.645.8,1.272,1.272,0,0,1-1.006.322,1.867,1.867,0,0,1-.927-.535c-.258-.24-.5-.495-.745-.752a17.063,17.063,0,0,0-1.534-1.5,2.824,2.824,0,0,0-1.94-.793,2.622,2.622,0,0,0-1.778,1.185,4.463,4.463,0,0,0-.613,2.2,22.179,22.179,0,0,0,.641,4.839l.948,5.085q.242,1.3.49,2.631.124.664.248,1.336a1.734,1.734,0,0,1-.158,1.418.7.7,0,0,1-.739.251,1.86,1.86,0,0,1-.654-.34l-1.124-.841a25.165,25.165,0,0,0-2.345-1.579,8.933,8.933,0,0,0-2.623-1.092,3.089,3.089,0,0,0-1.4.009,2.064,2.064,0,0,0-1.138.763,4.7,4.7,0,0,0-.746,2.766,15.518,15.518,0,0,0,.29,3,38.33,38.33,0,0,0,1.687,5.966,7.872,7.872,0,0,1,.484,1.539,1.119,1.119,0,0,1-.2.854,1,1,0,0,1-.16.161.538.538,0,0,1-.215.127.667.667,0,0,1-.482-.106,8.284,8.284,0,0,1-1.28-1.019l-1.186-1.1A17.52,17.52,0,0,0,278.985,170a5.25,5.25,0,0,0-1.452-.661,1.8,1.8,0,0,0-1.48.183,2.145,2.145,0,0,0-.837,1.283,6.516,6.516,0,0,0-.2,1.619,13.7,13.7,0,0,0,.417,3.307,28.784,28.784,0,0,0,2.4,6.362,48.31,48.31,0,0,0,3.582,5.952,34.132,34.132,0,0,0,2.158,2.784l2.247,2.754.026.032-.132-.051,3.519-.512a32.311,32.311,0,0,0,3.472-.6,48.12,48.12,0,0,0,6.657-2,28.762,28.762,0,0,0,6.06-3.093,13.668,13.668,0,0,0,2.533-2.167,6.513,6.513,0,0,0,.944-1.332,2.153,2.153,0,0,0,.245-1.512,1.8,1.8,0,0,0-.971-1.132,5.243,5.243,0,0,0-1.519-.488,17.524,17.524,0,0,0-3.228-.193l-1.617.017a8.262,8.262,0,0,1-1.633-.107.66.66,0,0,1-.428-.246.538.538,0,0,1-.074-.239,1.03,1.03,0,0,1-.01-.227,1.122,1.122,0,0,1,.423-.769,7.959,7.959,0,0,1,1.393-.814,38.3,38.3,0,0,0,5.262-3.282,15.525,15.525,0,0,0,2.232-2.026,4.687,4.687,0,0,0,1.306-2.55,2.073,2.073,0,0,0-.331-1.33,3.087,3.087,0,0,0-1.029-.944,8.937,8.937,0,0,0-2.677-.954,25.157,25.157,0,0,0-2.8-.408l-1.4-.133a1.843,1.843,0,0,1-.714-.19.7.7,0,0,1-.372-.686,1.745,1.745,0,0,1,.839-1.153l1.083-.822,2.132-1.618,4.12-3.127a22.1,22.1,0,0,0,3.727-3.151,4.458,4.458,0,0,0,1.023-2.04,2.623,2.623,0,0,0-.522-2.072,1.91,1.91,0,0,0-.906-.541,4.389,4.389,0,0,0-1.063-.175,17.191,17.191,0,0,0-2.141.076c-.353.027-.7.052-1.057.056a1.867,1.867,0,0,1-1.045-.228,1.276,1.276,0,0,1-.529-.914,2.856,2.856,0,0,1,.06-1.025l0-.008.007-.012a101.6,101.6,0,0,0,4.244-9.306,38.2,38.2,0,0,0,2.406-7.183,9.364,9.364,0,0,0,.109-2.713,4.393,4.393,0,0,0-.644-1.85,2.633,2.633,0,0,0-.857-.836,1.979,1.979,0,0,0-.368-.179,1.448,1.448,0,0,1,.38.158,2.6,2.6,0,0,1,.885.83,4.409,4.409,0,0,1,.675,1.868,9.348,9.348,0,0,1-.088,2.738,37.739,37.739,0,0,1-2.372,7.219,100.461,100.461,0,0,1-4.217,9.34l.008-.02a2.682,2.682,0,0,0-.052.954,1.1,1.1,0,0,0,.452.79,1.7,1.7,0,0,0,.944.195c.343,0,.691-.031,1.043-.059a17.331,17.331,0,0,1,2.166-.082,4.591,4.591,0,0,1,1.111.18,2.1,2.1,0,0,1,.995.594,2.812,2.812,0,0,1,.577,2.238,4.657,4.657,0,0,1-1.062,2.14,22.224,22.224,0,0,1-3.76,3.2l-4.11,3.132-2.127,1.62-1.081.824a2.5,2.5,0,0,0-.492.433,1.107,1.107,0,0,0-.255.553.451.451,0,0,0,.252.454,1.632,1.632,0,0,0,.623.159l1.393.13a25.428,25.428,0,0,1,2.826.408,9.194,9.194,0,0,1,2.756.981,3.34,3.34,0,0,1,1.113,1.023,2.323,2.323,0,0,1,.373,1.487,4.92,4.92,0,0,1-1.367,2.7,15.7,15.7,0,0,1-2.267,2.065,38.479,38.479,0,0,1-5.3,3.312,7.894,7.894,0,0,0-1.339.778.85.85,0,0,0-.332.584.74.74,0,0,0,.008.17c.007.044.023.149.039.139a.472.472,0,0,0,.257.119,8.166,8.166,0,0,0,1.568.1l1.616-.018a17.806,17.806,0,0,1,3.28.194,5.534,5.534,0,0,1,1.6.516,2.08,2.08,0,0,1,1.11,1.311,2.427,2.427,0,0,1-.265,1.7,6.8,6.8,0,0,1-.985,1.393,13.943,13.943,0,0,1-2.583,2.214,29.06,29.06,0,0,1-6.119,3.127,48.442,48.442,0,0,1-6.7,2.011,32.6,32.6,0,0,1-3.485.6l-3.524.513-.081.012-.051-.063-.026-.032-2.25-2.758a34.194,34.194,0,0,1-2.165-2.794,48.379,48.379,0,0,1-3.6-5.991,29.02,29.02,0,0,1-2.424-6.426,13.924,13.924,0,0,1-.422-3.374,6.775,6.775,0,0,1,.209-1.693,2.423,2.423,0,0,1,.952-1.439,2.08,2.08,0,0,1,1.7-.221,5.541,5.541,0,0,1,1.532.7,17.815,17.815,0,0,1,2.557,2.061l1.184,1.1a8.146,8.146,0,0,0,1.225.981.482.482,0,0,0,.271.086c.006.017.087-.049.122-.077a.751.751,0,0,0,.121-.121.851.851,0,0,0,.148-.655,7.88,7.88,0,0,0-.468-1.476,38.52,38.52,0,0,1-1.693-6.011,15.761,15.761,0,0,1-.291-3.052,4.93,4.93,0,0,1,.8-2.92,2.324,2.324,0,0,1,1.274-.852,3.337,3.337,0,0,1,1.512-.011,9.16,9.16,0,0,1,2.7,1.125,25.35,25.35,0,0,1,2.366,1.6l1.118.84a1.659,1.659,0,0,0,.568.3.451.451,0,0,0,.493-.163,1.1,1.1,0,0,0,.186-.58,2.478,2.478,0,0,0-.072-.651q-.124-.671-.246-1.336l-.485-2.63q-.479-2.6-.936-5.082a22.307,22.307,0,0,1-.635-4.895,4.67,4.67,0,0,1,.651-2.3,2.816,2.816,0,0,1,1.932-1.272,2.1,2.1,0,0,1,1.136.228,4.562,4.562,0,0,1,.944.613,17.123,17.123,0,0,1,1.549,1.518c.242.257.483.51.733.744a1.694,1.694,0,0,0,.83.492,1.094,1.094,0,0,0,.866-.28,2.7,2.7,0,0,0,.6-.742l-.008.02a100.373,100.373,0,0,1,3.164-9.766,36.714,36.714,0,0,1,3.116-6.945,9.267,9.267,0,0,1,1.8-2.068,4.359,4.359,0,0,1,1.78-.888,2.683,2.683,0,0,1,1.216.006,1.537,1.537,0,0,1,.387.144" transform="translate(-122.663 -56.542)" fill="#263238"/>
            <path id="Trazado_719210" data-name="Trazado 719210" d="M314.983,140.634a.948.948,0,0,1-.056.181l-.191.52-.759,1.99-2.816,7.31-9.194,24.154c-3.578,9.441-6.849,17.975-9.274,24.13-1.211,3.078-2.2,5.564-2.9,7.277l-.81,1.97-.217.51a.925.925,0,0,1-.084.17.946.946,0,0,1,.056-.181l.191-.52.759-1.989,2.816-7.31,9.195-24.158c3.577-9.438,6.848-17.971,9.273-24.125,1.211-3.078,2.2-5.565,2.9-7.277l.81-1.971.218-.51a.956.956,0,0,1,.083-.17" transform="translate(-128.888 -62.789)" fill="#263238"/>
            <path id="Trazado_719211" data-name="Trazado 719211" d="M328.932,175.139a9.771,9.771,0,0,1-1.385.823l-3.39,1.886c-1.325.737-2.532,1.393-3.422,1.839a7.4,7.4,0,0,1-1.478.644,11.3,11.3,0,0,1,1.383-.824l3.378-1.911c1.326-.737,2.542-1.378,3.436-1.814a8.2,8.2,0,0,1,1.479-.642" transform="translate(-142.539 -78.194)" fill="#263238"/>
            <path id="Trazado_719212" data-name="Trazado 719212" d="M313.909,174.764c-.071.035-1.388-2.476-2.94-5.61s-2.753-5.7-2.681-5.738,1.387,2.476,2.94,5.611,2.753,5.7,2.681,5.738" transform="translate(-137.641 -72.961)" fill="#263238"/>
            <path id="Trazado_719213" data-name="Trazado 719213" d="M303.864,203.655a8.513,8.513,0,0,1-1.217-1.109c-.717-.72-1.682-1.741-2.683-2.927s-1.854-2.3-2.443-3.132a8.353,8.353,0,0,1-.891-1.384,10.563,10.563,0,0,1,1.055,1.261c.629.795,1.5,1.889,2.5,3.068s1.933,2.22,2.611,2.973a10.379,10.379,0,0,1,1.069,1.249" transform="translate(-132.436 -87.108)" fill="#263238"/>
            <path id="Trazado_719214" data-name="Trazado 719214" d="M319.835,206.25a7.96,7.96,0,0,1-1.46.427c-.909.228-2.17.524-3.567.833s-2.665.573-3.586.751a7.972,7.972,0,0,1-1.5.229,7.98,7.98,0,0,1,1.46-.427c.909-.228,2.17-.524,3.567-.833s2.664-.573,3.585-.751a7.978,7.978,0,0,1,1.5-.229" transform="translate(-138.281 -92.081)" fill="#263238"/>
            <path id="Trazado_719215" data-name="Trazado 719215" d="M312.783,230.745a13.017,13.017,0,0,1-1.881.5c-1.17.274-2.791.633-4.584,1.012s-3.421.707-4.6.93a12.99,12.99,0,0,1-1.923.3,13.011,13.011,0,0,1,1.881-.5c1.17-.274,2.791-.633,4.585-1.012s3.421-.707,4.6-.929a13.046,13.046,0,0,1,1.924-.3" transform="translate(-133.849 -103.018)" fill="#263238"/>
            <path id="Trazado_719216" data-name="Trazado 719216" d="M293.153,226.485a2.105,2.105,0,0,1-.416-.378c-.255-.255-.612-.635-1.048-1.11-.868-.952-2.039-2.294-3.266-3.83s-2.285-2.97-3.023-4.027c-.369-.528-.659-.961-.854-1.265a2.11,2.11,0,0,1-.277-.488,2.122,2.122,0,0,1,.369.423l.927,1.209c.778,1.025,1.856,2.436,3.083,3.967s2.367,2.892,3.194,3.876a16.6,16.6,0,0,1,1.31,1.622" transform="translate(-126.918 -96.165)" fill="#263238"/>
            <path id="Trazado_719217" data-name="Trazado 719217" d="M282.117,248.222c-9.611-7.746-11-20.995-9.8-32.736.2-1.96.128-4.046,1.18-5.705s3.314-2.687,5.016-1.739c1.412.787,1.931,2.527,2.651,3.987a11.521,11.521,0,0,0,4.3,4.717,4.388,4.388,0,0,0,4.009.642c1.759-.819,2.119-3.146,2.241-5.1q.34-5.464.681-10.928a18.266,18.266,0,0,1,.987-5.763,6.074,6.074,0,0,1,4.09-3.836,3.684,3.684,0,0,1,4.381,2.775,18.19,18.19,0,0,1-.111,2.437,2.059,2.059,0,0,0,1.069,2.017,2.369,2.369,0,0,0,2.207-.749,26.038,26.038,0,0,0,5.147-6.721,36.159,36.159,0,0,1,4.848-6.968,10.591,10.591,0,0,1,7.434-3.524c2.81.034,5.672,1.965,6.191,4.76s-1.279,5.488-3.18,7.6a43.719,43.719,0,0,1-9.674,8.032,3.6,3.6,0,0,0-1.631,1.529c-.514,1.273.632,2.651,1.889,3.168a22.657,22.657,0,0,0,4.525.826c1.511.284,3.115,1.069,3.593,2.548.663,2.052-1.15,4.031-2.888,5.288a37.438,37.438,0,0,1-11.495,5.624,12.626,12.626,0,0,0-4.246,1.715,3.625,3.625,0,0,0-1.443,4.062c.606,1.426,2.373,1.99,3.9,1.813a26.078,26.078,0,0,0,4.4-1.343c2.754-.829,6.209-.406,7.77,2.032a6.2,6.2,0,0,1,.283,5.513,14.281,14.281,0,0,1-3.294,4.625,37.65,37.65,0,0,1-16.814,10.173c-6.376,1.733-12.188,1.921-18.222-.767" transform="translate(-121.419 -80.823)" fill="#81c539"/>
            <path id="Trazado_719219" data-name="Trazado 719219" d="M288.956,258.458a85.959,85.959,0,0,1,4.3-15.883A175.55,175.55,0,0,1,301.5,224.2l2.408-4.7c.794-1.542,1.581-3.072,2.443-4.52a87.623,87.623,0,0,1,5.432-8.039c1.852-2.474,3.7-4.753,5.442-6.872s3.414-4.058,5.008-5.763a69.518,69.518,0,0,1,8.115-7.478c1.023-.8,1.838-1.4,2.4-1.8l.637-.449a1.488,1.488,0,0,1,.224-.142,1.4,1.4,0,0,1-.2.173l-.616.478c-.542.417-1.343,1.033-2.352,1.853a73.551,73.551,0,0,0-8.015,7.542c-1.578,1.712-3.229,3.658-4.964,5.779s-3.567,4.409-5.407,6.882a88.57,88.57,0,0,0-5.393,8.019c-.856,1.442-1.634,2.959-2.429,4.505l-2.405,4.7a179.748,179.748,0,0,0-8.253,18.324,87.445,87.445,0,0,0-4.356,15.808" transform="translate(-129.011 -82.345)" fill="#263238"/>
            <path id="Trazado_719220" data-name="Trazado 719220" d="M319.44,222.107a3.948,3.948,0,0,1-.133-.846c-.066-.547-.135-1.341-.2-2.324-.143-1.964-.248-4.683-.351-7.682s-.247-5.71-.42-7.667c-.084-.978-.158-1.77-.218-2.316a3.963,3.963,0,0,1-.051-.856,3.884,3.884,0,0,1,.19.836c.1.541.216,1.331.332,2.309.238,1.957.422,4.677.526,7.679.1,2.96.181,5.637.246,7.682.035.924.066,1.7.09,2.328a3.936,3.936,0,0,1-.006.857" transform="translate(-142.002 -89.481)" fill="#263238"/>
            <path id="Trazado_719221" data-name="Trazado 719221" d="M346,234.128a5.438,5.438,0,0,1-1.01.051c-.648.013-1.587.027-2.745.081-2.318.09-5.515.328-9.031.743s-6.682.94-8.961,1.381c-1.142.212-2.061.409-2.7.541a5.4,5.4,0,0,1-1,.173,5.367,5.367,0,0,1,.964-.312c.628-.174,1.541-.41,2.679-.655,2.273-.506,5.443-1.066,8.97-1.49a88.762,88.762,0,0,1,9.065-.639c1.164-.022,2.105,0,2.755.034a5.342,5.342,0,0,1,1.007.09" transform="translate(-143.122 -104.473)" fill="#263238"/>
            <path id="Trazado_719222" data-name="Trazado 719222" d="M288.906,262.1a1.3,1.3,0,0,1-.151-.318l-.368-.938c-.315-.816-.741-2.009-1.247-3.489-1.015-2.961-2.287-7.095-3.63-11.675s-2.576-8.722-3.527-11.7c-.467-1.447-.851-2.638-1.137-3.524-.122-.384-.222-.7-.3-.961a1.3,1.3,0,0,1-.083-.343,1.333,1.333,0,0,1,.151.319l.368.937c.315.816.741,2.009,1.247,3.49,1.015,2.961,2.287,7.095,3.631,11.677s2.576,8.72,3.527,11.7c.468,1.447.851,2.639,1.137,3.523l.3.961a1.288,1.288,0,0,1,.083.344" transform="translate(-124.324 -102.309)" fill="#263238"/>
            <path id="Trazado_719223" data-name="Trazado 719223" d="M331.451,273.373a1.377,1.377,0,0,1-.34.114l-.992.258-3.654.913c-3.085.772-7.334,1.886-12.027,3.125s-8.958,2.316-12.06,3.024c-1.551.354-2.809.628-3.681.8l-1.006.192a1.293,1.293,0,0,1-.356.042,1.377,1.377,0,0,1,.34-.114l.992-.258,3.653-.913c3.085-.771,7.334-1.886,12.029-3.125s8.956-2.315,12.058-3.023c1.551-.355,2.809-.629,3.682-.8l1.007-.192a1.32,1.32,0,0,1,.356-.042" transform="translate(-132.752 -122.052)" fill="#263238"/>
          </g>
        </g>
        <rect id="Rectángulo_376051" data-name="Rectángulo 376051" width="134.234" height="183.938" transform="translate(28.699 14.598)" fill="#005d95"/>
        <path id="Trazado_719224" data-name="Trazado 719224" d="M189.791,205.368H72.04V39.8H189.791V205.368Z" transform="translate(-32.164 -17.771)" fill="#e0e0e0"/>
        <path id="Trazado_719225" data-name="Trazado 719225" d="M187.287,200.531H70.6V35.848h116.69V200.531Z" transform="translate(-31.52 -16.005)" fill="#ebebeb"/>
        <path id="Trazado_719226" data-name="Trazado 719226" d="M172.99,188.052,159.55,199H66.66V36.6H184.412v142.19Z" transform="translate(-29.762 -16.342)" fill="#fafafa"/>
        <g id="Grupo_1017863" data-name="Grupo 1017863">
          <g id="Grupo_1017862" data-name="Grupo 1017862" clip-path="url(#clip-path-3)">
            <path id="Trazado_719227" data-name="Trazado 719227" d="M172.875,187.935s.238-.2.718-.6l2.153-1.76,8.522-6.937-.017.035c-.014-23.357-.045-75.256-.085-142.19l.131.13L67.573,36.63H66.545l.144-.144c-.011,61.051-.021,117.372-.029,162.392l-.116-.115,92.889.066-.031.011,10.093-8.188,2.529-2.043c.564-.453.849-.675.849-.675s-.275.235-.833.695l-2.514,2.063-10.063,8.224-.013.011h-.018l-92.889.066H66.43v-.116c-.008-45.02-.018-101.341-.029-162.392v-.144h1.172l116.723.014h.13v.131c-.039,66.934-.07,118.833-.084,142.19v.022l-.017.014-8.55,6.9-2.168,1.743c-.485.387-.733.578-.733.578" transform="translate(-29.646 -16.226)" fill="#263238"/>
            <path id="Trazado_719228" data-name="Trazado 719228" d="M177.761,32.62H129.569V24.268a8.169,8.169,0,0,1,8.168-8.169h32.189a7.835,7.835,0,0,1,7.835,7.835Z" transform="translate(-57.849 -7.188)" fill="#81c539"/>
            <path id="Trazado_719229" data-name="Trazado 719229" d="M149.472,8.912,147.71,0h27.748l-1.542,8.911Z" transform="translate(-65.949 0)" fill="#81c539"/>
            <path id="Trazado_719230" data-name="Trazado 719230" d="M108.749,103.181H88.911V83.343h19.838Zm-19.284-.554H108.2V83.9H89.465Z" transform="translate(-39.696 -37.21)" fill="#81c539"/>
            <path id="Trazado_719231" data-name="Trazado 719231" d="M201.641,91.882c0,.08-13.808.144-30.838.144s-30.841-.064-30.841-.144,13.805-.144,30.841-.144,30.838.064,30.838.144" transform="translate(-62.489 -40.959)" fill="#263238"/>
            <path id="Trazado_719232" data-name="Trazado 719232" d="M201.641,99.329c0,.08-13.808.144-30.838.144s-30.841-.064-30.841-.144,13.805-.144,30.841-.144,30.838.064,30.838.144" transform="translate(-62.489 -44.284)" fill="#263238"/>
            <path id="Trazado_719233" data-name="Trazado 719233" d="M201.641,106.776c0,.08-13.808.144-30.838.144s-30.841-.064-30.841-.144,13.805-.144,30.841-.144,30.838.064,30.838.144" transform="translate(-62.489 -47.608)" fill="#263238"/>
            <path id="Trazado_719234" data-name="Trazado 719234" d="M201.641,114.224c0,.08-13.808.144-30.838.144s-30.841-.064-30.841-.144,13.805-.144,30.841-.144,30.838.064,30.838.144" transform="translate(-62.489 -50.934)" fill="#263238"/>
            <path id="Trazado_719235" data-name="Trazado 719235" d="M108.749,158.414H88.911V138.577h19.838Zm-19.284-.554H108.2v-18.73H89.465Z" transform="translate(-39.696 -61.871)" fill="#81c539"/>
            <path id="Trazado_719236" data-name="Trazado 719236" d="M96.038,149.917l2.634-2.829,4.389,3.511,10.046-9.754,2.407,2.837-12.648,12.476Z" transform="translate(-42.878 -62.884)" fill="#81c539"/>
            <path id="Trazado_719237" data-name="Trazado 719237" d="M201.641,147.115c0,.08-13.808.144-30.838.144s-30.841-.064-30.841-.144,13.805-.144,30.841-.144,30.838.064,30.838.144" transform="translate(-62.489 -65.619)" fill="#263238"/>
            <path id="Trazado_719238" data-name="Trazado 719238" d="M201.641,154.562c0,.08-13.808.144-30.838.144s-30.841-.064-30.841-.144,13.805-.144,30.841-.144,30.838.064,30.838.144" transform="translate(-62.489 -68.944)" fill="#263238"/>
            <path id="Trazado_719239" data-name="Trazado 719239" d="M201.641,162.01c0,.08-13.808.144-30.838.144s-30.841-.064-30.841-.144,13.805-.144,30.841-.144,30.838.064,30.838.144" transform="translate(-62.489 -72.269)" fill="#263238"/>
            <path id="Trazado_719240" data-name="Trazado 719240" d="M201.641,169.457c0,.08-13.808.144-30.838.144s-30.841-.064-30.841-.144,13.805-.144,30.841-.144,30.838.064,30.838.144" transform="translate(-62.489 -75.594)" fill="#263238"/>
            <path id="Trazado_719241" data-name="Trazado 719241" d="M108.749,211.862H88.911V192.024h19.838Zm-19.284-.554H108.2V192.578H89.465Z" transform="translate(-39.696 -85.734)" fill="#81c539"/>
            <path id="Trazado_719242" data-name="Trazado 719242" d="M96.038,203.365l2.634-2.829,4.389,3.512,10.046-9.754,2.407,2.837-12.648,12.477Z" transform="translate(-42.878 -86.747)" fill="#81c539"/>
            <path id="Trazado_719243" data-name="Trazado 719243" d="M201.641,200.563c0,.08-13.808.144-30.838.144s-30.841-.064-30.841-.144,13.805-.144,30.841-.144,30.838.064,30.838.144" transform="translate(-62.489 -89.482)" fill="#263238"/>
            <path id="Trazado_719244" data-name="Trazado 719244" d="M201.641,208.011c0,.08-13.808.144-30.838.144s-30.841-.064-30.841-.144,13.805-.144,30.841-.144,30.838.064,30.838.144" transform="translate(-62.489 -92.807)" fill="#263238"/>
            <path id="Trazado_719245" data-name="Trazado 719245" d="M201.641,215.458c0,.08-13.808.144-30.838.144s-30.841-.064-30.841-.144,13.805-.144,30.841-.144,30.838.064,30.838.144" transform="translate(-62.489 -96.132)" fill="#263238"/>
            <path id="Trazado_719246" data-name="Trazado 719246" d="M201.641,222.9c0,.08-13.808.144-30.838.144s-30.841-.064-30.841-.144,13.805-.144,30.841-.144,30.838.064,30.838.144" transform="translate(-62.489 -99.457)" fill="#263238"/>
            <path id="Trazado_719247" data-name="Trazado 719247" d="M108.749,263.468H88.911V243.63h19.838Zm-19.284-.554H108.2V244.184H89.465Z" transform="translate(-39.696 -108.774)" fill="#81c539"/>
            <path id="Trazado_719248" data-name="Trazado 719248" d="M96.038,254.97l2.634-2.829,4.389,3.512,10.046-9.754,2.407,2.837-12.648,12.477Z" transform="translate(-42.878 -109.788)" fill="#81c539"/>
            <path id="Trazado_719249" data-name="Trazado 719249" d="M201.641,252.169c0,.08-13.808.144-30.838.144s-30.841-.064-30.841-.144,13.805-.144,30.841-.144,30.838.064,30.838.144" transform="translate(-62.489 -112.523)" fill="#263238"/>
            <path id="Trazado_719250" data-name="Trazado 719250" d="M201.641,259.616c0,.08-13.808.144-30.838.144s-30.841-.064-30.841-.144,13.805-.144,30.841-.144,30.838.064,30.838.144" transform="translate(-62.489 -115.847)" fill="#263238"/>
            <path id="Trazado_719251" data-name="Trazado 719251" d="M201.641,267.063c0,.08-13.808.144-30.838.144s-30.841-.064-30.841-.144,13.805-.144,30.841-.144,30.838.064,30.838.144" transform="translate(-62.489 -119.172)" fill="#263238"/>
            <path id="Trazado_719252" data-name="Trazado 719252" d="M201.641,274.511c0,.08-13.808.144-30.838.144s-30.841-.064-30.841-.144,13.805-.144,30.841-.144,30.838.064,30.838.144" transform="translate(-62.489 -122.498)" fill="#263238"/>
            <path id="Trazado_719253" data-name="Trazado 719253" d="M230.733,281.408l-12.909,26.736h9.217Z" transform="translate(-97.252 -125.641)" fill="#e0e0e0"/>
            <path id="Trazado_719254" data-name="Trazado 719254" d="M234.474,308.416l3.693-26.736,21.169,6.533Z" transform="translate(-104.687 -125.763)" fill="#fafafa"/>
            <path id="Trazado_719255" data-name="Trazado 719255" d="M234.475,308.273l7.118-5.86,17.654-14.453.048.244-8.173-2.519-12.993-4.019.174-.111c-1.107,7.766-2.055,14.418-2.728,19.147-.666,4.6-1.011,6.971-1.1,7.57a1.034,1.034,0,0,1,.012-.118c.012-.1.028-.218.046-.37q.068-.52.19-1.456c.171-1.3.418-3.166.727-5.511.638-4.766,1.534-11.472,2.582-19.3l.021-.158.153.047,13,4,8.171,2.525.253.078-.206.165-17.867,14.413-5.218,4.193-1.392,1.116-.356.283c-.08.062-.12.092-.117.089" transform="translate(-104.686 -125.62)" fill="#263238"/>
            <g id="Grupo_1017861" data-name="Grupo 1017861" transform="translate(106.062)" opacity="0.3">
              <g id="Grupo_1017860" data-name="Grupo 1017860">
                <g id="Grupo_1017859" data-name="Grupo 1017859" clip-path="url(#clip-path-5)">
                  <path id="Trazado_719256" data-name="Trazado 719256" d="M193.143,0l-1.53,8.911h1.905L195.059,0h-2.427" transform="translate(-191.612 0)"/>
                </g>
              </g>
            </g>
          </g>
        </g>
        <g id="Grupo_1017883" data-name="Grupo 1017883">
          <g id="Grupo_1017882" data-name="Grupo 1017882" clip-path="url(#clip-path-3)">
            <path id="Trazado_719257" data-name="Trazado 719257" d="M44.157,145.9h0a4.98,4.98,0,0,0,5.356-4.774c.1-2.711.195-5.451.195-5.451s4.107-.385,4.406-4.45.162-13.449.162-13.449a14.165,14.165,0,0,0-14.315.921L40.215,133v7.7c.027,2.581,1.369,5,3.943,5.2" transform="translate(-17.842 -51.907)" fill="#ffbe9d"/>
            <path id="Trazado_719258" data-name="Trazado 719258" d="M48.36,123.512a2.083,2.083,0,0,0-2.778-.607,2.362,2.362,0,0,0-.787,2.954,3.113,3.113,0,0,0,1.994,1.508,1.562,1.562,0,0,1,1.222,1.681,5.208,5.208,0,0,1-1.428,2.831,7.5,7.5,0,0,1-4.7,2.229c-1.731.2-3.714-.156-4.722-1.579a6.453,6.453,0,0,1-.812-3.657l-.186-8.991a12.832,12.832,0,0,1,.2-3.226,4.331,4.331,0,0,1,1.7-2.668,13.3,13.3,0,0,1,3.367-1.07,27.82,27.82,0,0,0,3.921-2.063,4.82,4.82,0,0,1,4.254-.413c.949.477,1.586,1.424,2.509,1.948,1.314.748,3.1.578,3.741,2.51a3.276,3.276,0,0,1-.022,2.067,4.777,4.777,0,0,1-6.494,2.553,6.444,6.444,0,0,1-.076,2.844c-.15.449-.2,1.135-.906,1.148" transform="translate(-16.139 -49.158)" fill="#263238"/>
            <path id="Trazado_719259" data-name="Trazado 719259" d="M32.378,111.97a13.821,13.821,0,0,0,1.306-4.083A4.677,4.677,0,0,0,32.4,103.94a3.85,3.85,0,0,0-2.68-.948,4.529,4.529,0,0,0-4.084,3.236,4.88,4.88,0,0,0,1.642,5,5.292,5.292,0,0,0,5.267.687" transform="translate(-11.374 -45.983)" fill="#263238"/>
            <path id="Trazado_719260" data-name="Trazado 719260" d="M37.834,116.534a2,2,0,0,1-1.927,1.881c-.019-.082.6-.245,1.125-.774s.719-1.129.8-1.107" transform="translate(-16.032 -52.029)" fill="#e8505b"/>
            <path id="Trazado_719261" data-name="Trazado 719261" d="M33.24,115.347a3.837,3.837,0,0,1-1.1.807,3.19,3.19,0,0,1-1.455.412,2.025,2.025,0,0,1-1.7-.761,2.262,2.262,0,0,1-.3-1.838,3.574,3.574,0,0,1,.684-1.346,4.25,4.25,0,0,1,.962-.97,12.751,12.751,0,0,1-.8,1.09,3.654,3.654,0,0,0-.589,1.284,2.051,2.051,0,0,0,.274,1.61,1.8,1.8,0,0,0,1.464.666,3.2,3.2,0,0,0,1.364-.329c.74-.358,1.167-.668,1.195-.624" transform="translate(-12.775 -49.849)" fill="#263238"/>
            <path id="Trazado_719262" data-name="Trazado 719262" d="M24.486,123.3a1.776,1.776,0,0,1,.2.451,4.648,4.648,0,0,0,.6,1.158,1.679,1.679,0,0,0,1.591.732,2.184,2.184,0,0,0,1.532-1.543,15.835,15.835,0,0,0,.416-2.361,3.65,3.65,0,0,1,.776-1.863,2.007,2.007,0,0,1,1.184-.675.782.782,0,0,1,.5.043c0,.028-.179-.008-.476.068a2.012,2.012,0,0,0-1.05.7,3.592,3.592,0,0,0-.669,1.772,14.109,14.109,0,0,1-.405,2.412,2.421,2.421,0,0,1-1.758,1.71,1.62,1.62,0,0,1-1.1-.213,2.309,2.309,0,0,1-.7-.659,3.992,3.992,0,0,1-.541-1.244,1.521,1.521,0,0,1-.091-.485" transform="translate(-10.93 -53.215)" fill="#263238"/>
            <path id="Trazado_719263" data-name="Trazado 719263" d="M20.139,188.316s-2.072,15.178,0,17.1a4.332,4.332,0,0,0,4.066,1.285l3.945-3.3.777-15.088Z" transform="translate(-8.581 -84.078)" fill="#ffbe9d"/>
            <path id="Trazado_719264" data-name="Trazado 719264" d="M98.338,104.025l2.634-2.829,4.389,3.511,10.046-9.754,2.407,2.837-12.648,12.476Z" transform="translate(-43.905 -42.394)" fill="#81c539"/>
            <path id="Trazado_719265" data-name="Trazado 719265" d="M102.586,112.733l-3.819,2.451c-.173-1.509-1.325-3.006-1.265-2.247s.007,4.692.007,4.692L90.7,131.961a6.785,6.785,0,0,1-4.2,4.035l-6.358,1.891,2.485,8.405,8.836-2.93A7.623,7.623,0,0,0,96.3,138.5l6.092-18.556a28.823,28.823,0,0,0,.984-3.656,6.971,6.971,0,0,0-.791-3.559" transform="translate(-35.779 -50.332)" fill="#ffbe9d"/>
            <path id="Trazado_719266" data-name="Trazado 719266" d="M57.662,392.479l-.1-4.25-7.961.127.073,6.219.494.024c2.2.087,11.186.287,12.648-.182,1.63-.523-5.159-1.938-5.159-1.938" transform="translate(-22.147 -173.334)" fill="#e8505b"/>
            <g id="Grupo_1017866" data-name="Grupo 1017866" transform="translate(27.504 218.891)" opacity="0.5">
              <g id="Grupo_1017865" data-name="Grupo 1017865">
                <g id="Grupo_1017864" data-name="Grupo 1017864" clip-path="url(#clip-path-7)">
                  <path id="Trazado_719267" data-name="Trazado 719267" d="M52.6,397.69a2.762,2.762,0,0,0-1.043-1.681,2.684,2.684,0,0,0-1.87-.549l.034,2.225Z" transform="translate(-49.688 -395.448)" fill="#fff"/>
                </g>
              </g>
            </g>
            <g id="Grupo_1017869" data-name="Grupo 1017869" transform="translate(27.531 219.954)" opacity="0.4">
              <g id="Grupo_1017868" data-name="Grupo 1017868">
                <g id="Grupo_1017867" data-name="Grupo 1017867" clip-path="url(#clip-path-8)">
                  <path id="Trazado_719268" data-name="Trazado 719268" d="M61.04,397.369s2.382.646,2.092,1.041-9.38.535-13.395.246l.01-.178,10.6-.073s.225-1.01.688-1.036" transform="translate(-49.738 -397.369)" fill="#fff"/>
                </g>
              </g>
            </g>
            <path id="Trazado_719269" data-name="Trazado 719269" d="M49.53,399.2a.723.723,0,0,0,.137.013l.393.018,1.448.04c1.223.025,2.913.038,4.779.01s3.556-.089,4.777-.15l1.446-.082.393-.029a.753.753,0,0,0,.137-.017.78.78,0,0,0-.138,0l-.394.011-1.447.052c-1.222.043-2.91.094-4.776.122s-3.554.025-4.777.018l-1.448-.009h-.394a.731.731,0,0,0-.137.007" transform="translate(-22.114 -178.145)" fill="#263238"/>
            <path id="Trazado_719270" data-name="Trazado 719270" d="M68.9,398.45a2.1,2.1,0,0,1,.744-1.257,1.287,1.287,0,0,0-.744,1.257" transform="translate(-30.756 -177.335)" fill="#263238"/>
            <path id="Trazado_719271" data-name="Trazado 719271" d="M64.633,396.836c.023.014.133-.125.246-.309s.187-.346.164-.36-.133.125-.246.309-.187.346-.164.36" transform="translate(-28.855 -176.878)" fill="#263238"/>
            <path id="Trazado_719272" data-name="Trazado 719272" d="M63.46,396.411c.018.019.142-.066.278-.192s.23-.243.212-.262-.142.066-.278.192-.23.243-.212.262" transform="translate(-28.332 -176.783)" fill="#263238"/>
            <path id="Trazado_719273" data-name="Trazado 719273" d="M62.705,395.393a1.82,1.82,0,1,0,.416-.05.939.939,0,0,0-.416.05" transform="translate(-27.996 -176.51)" fill="#263238"/>
            <path id="Trazado_719274" data-name="Trazado 719274" d="M62.437,394.472a1.168,1.168,0,0,0,.943.056,33.767,33.767,0,0,1-.943-.056" transform="translate(-27.876 -176.118)" fill="#263238"/>
            <path id="Trazado_719275" data-name="Trazado 719275" d="M65.105,395.525a1.476,1.476,0,0,0,.511-.011,3.013,3.013,0,0,0,.543-.128,1.5,1.5,0,0,0,.31-.133.277.277,0,0,0,.124-.161.2.2,0,0,0-.081-.2.939.939,0,0,0-1.156.292.917.917,0,0,0-.162.344c-.019.087-.017.137-.011.138a1.42,1.42,0,0,1,.226-.44.927.927,0,0,1,.433-.291.8.8,0,0,1,.611.033c.082.059.052.154-.038.21a1.52,1.52,0,0,1-.286.127,3.491,3.491,0,0,1-.525.145c-.306.059-.5.063-.5.079" transform="translate(-29.068 -176.265)" fill="#263238"/>
            <path id="Trazado_719276" data-name="Trazado 719276" d="M64.8,395.364a.505.505,0,0,0,.054-.356.847.847,0,0,0-.146-.372.514.514,0,0,0-.43-.254.2.2,0,0,0-.154.239.558.558,0,0,0,.09.228,1.572,1.572,0,0,0,.246.306.735.735,0,0,0,.3.2c.009-.013-.1-.09-.247-.25a1.8,1.8,0,0,1-.219-.3c-.072-.107-.123-.3,0-.326s.26.111.34.212a.835.835,0,0,1,.15.33,1.849,1.849,0,0,1,.014.345" transform="translate(-28.626 -176.081)" fill="#263238"/>
            <path id="Trazado_719277" data-name="Trazado 719277" d="M49.763,395.378c0,.018.228-.025.588.012a2.494,2.494,0,0,1,2.111,1.63c.127.339.142.568.16.566a.458.458,0,0,0,0-.161,2.09,2.09,0,0,0-.094-.428,2.42,2.42,0,0,0-2.169-1.676,2.09,2.09,0,0,0-.438.018.465.465,0,0,0-.156.038" transform="translate(-22.218 -176.499)" fill="#263238"/>
            <path id="Trazado_719278" data-name="Trazado 719278" d="M51.126,389.419a27.822,27.822,0,0,0,.009,3.272,27.822,27.822,0,0,0-.009-3.272" transform="translate(-22.807 -173.865)" fill="#263238"/>
            <path id="Trazado_719279" data-name="Trazado 719279" d="M56.739,398.049a6.54,6.54,0,0,0,2.327-.014c0-.028-.523.012-1.164.015s-1.161-.029-1.164,0" transform="translate(-25.332 -177.708)" fill="#263238"/>
            <path id="Trazado_719280" data-name="Trazado 719280" d="M53.917,398.1c-.019.02.044.11.1.228s.086.224.113.221.039-.126-.025-.262-.17-.206-.187-.187" transform="translate(-24.071 -177.742)" fill="#263238"/>
            <path id="Trazado_719281" data-name="Trazado 719281" d="M52.835,396.8c-.019.019.034.1.117.183s.167.133.185.115-.034-.1-.117-.183-.167-.133-.185-.115" transform="translate(-23.588 -177.158)" fill="#263238"/>
            <path id="Trazado_719282" data-name="Trazado 719282" d="M51.308,396.181c.006.027.112.024.229.064s.2.1.224.082-.048-.127-.194-.174-.267,0-.259.028" transform="translate(-22.907 -176.863)" fill="#263238"/>
            <path id="Trazado_719283" data-name="Trazado 719283" d="M50.221,395.937c-.009.025.037.065.1.09s.128.024.137,0-.037-.065-.1-.09-.128-.024-.137,0" transform="translate(-22.422 -176.767)" fill="#263238"/>
            <path id="Trazado_719284" data-name="Trazado 719284" d="M7.419,386.692l2.7-3.284L4,378.313l-4,4.762.359.34c1.61,1.5,8.293,7.513,9.707,8.111,1.577.667-2.646-4.834-2.646-4.834" transform="translate(0 -168.907)" fill="#e8505b"/>
            <g id="Grupo_1017872" data-name="Grupo 1017872" transform="translate(0.079 212.377)" opacity="0.5">
              <g id="Grupo_1017871" data-name="Grupo 1017871">
                <g id="Grupo_1017870" data-name="Grupo 1017870" clip-path="url(#clip-path-9)">
                  <path id="Trazado_719285" data-name="Trazado 719285" d="M2.322,387.271a2.763,2.763,0,0,0,.306-1.955,2.685,2.685,0,0,0-1.06-1.636L.143,385.389Z" transform="translate(-0.143 -383.68)" fill="#fff"/>
                </g>
              </g>
            </g>
            <g id="Grupo_1017875" data-name="Grupo 1017875" transform="translate(0 214.039)" opacity="0.4">
              <g id="Grupo_1017874" data-name="Grupo 1017874">
                <g id="Grupo_1017873" data-name="Grupo 1017873" clip-path="url(#clip-path-10)">
                  <path id="Trazado_719286" data-name="Trazado 719286" d="M9.407,393.208s1.384,2.043.907,2.154S2.855,389.65,0,386.812l.123-.128,8.086,6.861s.829-.619,1.2-.337" transform="translate(0 -386.684)" fill="#fff"/>
                </g>
              </g>
            </g>
            <path id="Trazado_719287" data-name="Trazado 719287" d="M.056,386.532a.736.736,0,0,0,.1.1l.287.27,1.072.975c.911.816,2.184,1.928,3.616,3.125s2.754,2.251,3.72,3l1.15.881.317.234a.765.765,0,0,0,.114.076.7.7,0,0,0-.1-.092l-.306-.249-1.131-.9c-.954-.764-2.267-1.826-3.7-3.022s-2.711-2.3-3.633-3.1l-1.092-.952-.3-.256a.749.749,0,0,0-.108-.085" transform="translate(-0.025 -172.576)" fill="#263238"/>
            <path id="Trazado_719288" data-name="Trazado 719288" d="M14.685,398.826a3.259,3.259,0,0,1,.65-.358,3.285,3.285,0,0,1,.734-.11,1.286,1.286,0,0,0-1.384.467" transform="translate(-6.556 -177.831)" fill="#263238"/>
            <path id="Trazado_719289" data-name="Trazado 719289" d="M12.8,394.675a.841.841,0,0,0,.389-.074c.206-.066.367-.141.359-.166a.836.836,0,0,0-.388.074c-.206.066-.368.14-.359.165" transform="translate(-5.717 -176.101)" fill="#263238"/>
            <path id="Trazado_719290" data-name="Trazado 719290" d="M12.3,393.606c0,.027.151.043.335.036s.333-.034.332-.06-.151-.043-.335-.036-.333.034-.332.06" transform="translate(-5.494 -175.707)" fill="#263238"/>
            <path id="Trazado_719291" data-name="Trazado 719291" d="M12.608,392.14c-.017.021.11.158.285.307s.33.253.348.233-.111-.157-.286-.307-.33-.254-.348-.233" transform="translate(-5.628 -175.079)" fill="#263238"/>
            <path id="Trazado_719292" data-name="Trazado 719292" d="M13.025,391.244a1.172,1.172,0,0,0,.678.658c.014-.024-.157-.147-.341-.327s-.313-.346-.337-.331" transform="translate(-5.814 -174.68)" fill="#263238"/>
            <path id="Trazado_719293" data-name="Trazado 719293" d="M13.96,394.127a1.473,1.473,0,0,0,.4.325,2.959,2.959,0,0,0,.495.257,1.51,1.51,0,0,0,.322.1.277.277,0,0,0,.2-.041.2.2,0,0,0,.071-.207.939.939,0,0,0-1.067-.532.92.92,0,0,0-.347.156c-.071.054-.1.094-.1.1a1.464,1.464,0,0,1,.458-.186.927.927,0,0,1,.518.062.792.792,0,0,1,.442.422c.024.1-.061.152-.166.135a1.538,1.538,0,0,1-.3-.09,3.509,3.509,0,0,1-.493-.233c-.27-.154-.42-.279-.43-.267" transform="translate(-6.219 -175.913)" fill="#263238"/>
            <path id="Trazado_719294" data-name="Trazado 719294" d="M14.036,393.517c0,.009.144-.043.273-.235a.843.843,0,0,0,.132-.376.514.514,0,0,0-.161-.473.2.2,0,0,0-.272.081.556.556,0,0,0-.08.231,1.575,1.575,0,0,0-.013.392.744.744,0,0,0,.092.347c.015,0-.019-.136-.024-.351a1.827,1.827,0,0,1,.032-.373c.015-.128.1-.308.216-.244a.457.457,0,0,1,.12.383.837.837,0,0,1-.1.348,1.835,1.835,0,0,1-.214.27" transform="translate(-6.21 -175.199)" fill="#263238"/>
            <path id="Trazado_719295" data-name="Trazado 719295" d="M2.8,383.7c-.01.015.189.13.438.392a2.5,2.5,0,0,1,.537,2.613c-.125.34-.263.524-.248.533s.044-.038.1-.123a2.091,2.091,0,0,0,.209-.386,2.422,2.422,0,0,0-.552-2.685,2.141,2.141,0,0,0-.344-.272A.465.465,0,0,0,2.8,383.7" transform="translate(-1.251 -171.31)" fill="#263238"/>
            <path id="Trazado_719296" data-name="Trazado 719296" d="M6.064,380.055a13.886,13.886,0,0,0-1.1,1.212,14.007,14.007,0,0,0-1.027,1.275,13.928,13.928,0,0,0,1.1-1.212,14.043,14.043,0,0,0,1.027-1.275" transform="translate(-1.757 -169.684)" fill="#263238"/>
            <path id="Trazado_719297" data-name="Trazado 719297" d="M6.368,390.248a4.5,4.5,0,0,0,.818.833,4.538,4.538,0,0,0,.954.674c.017-.023-.4-.332-.891-.748s-.861-.779-.881-.759" transform="translate(-2.843 -174.235)" fill="#263238"/>
            <path id="Trazado_719298" data-name="Trazado 719298" d="M4.095,388.44c-.027,0-.038.112-.074.237s-.081.225-.059.242.112-.07.152-.216.006-.267-.019-.263" transform="translate(-1.767 -173.428)" fill="#263238"/>
            <path id="Trazado_719299" data-name="Trazado 719299" d="M4.21,386.744c-.027,0-.04.1-.03.216s.039.21.066.208.04-.1.03-.216-.039-.21-.066-.208" transform="translate(-1.865 -172.671)" fill="#263238"/>
            <path id="Trazado_719300" data-name="Trazado 719300" d="M3.455,385.3c-.013.024.069.091.132.2s.088.209.116.208.047-.127-.033-.258-.205-.172-.215-.148" transform="translate(-1.542 -172.024)" fill="#263238"/>
            <path id="Trazado_719301" data-name="Trazado 719301" d="M2.8,384.392c-.023.013-.014.074.02.136s.081.1.1.089.014-.074-.02-.136-.081-.1-.1-.089" transform="translate(-1.243 -171.62)" fill="#263238"/>
            <path id="Trazado_719302" data-name="Trazado 719302" d="M24.529,232.368s-2.651,11.216-1.9,13.435,5.606,3.5,5.606,3.5l-.164,30.713-26.859,33.2,9.919,8.115s29.077-33.263,31.64-39.285-1.633-50.177-1.633-50.177Z" transform="translate(-0.541 -103.524)" fill="#263238"/>
            <path id="Trazado_719303" data-name="Trazado 719303" d="M50.02,224.508l1.314,93.284-13.664.069-6.857-75.974c-1.45-1.383-3.489-3.753-3.208-9.037l.333-6.14Z" transform="translate(-12.314 -100.237)" fill="#263238"/>
            <path id="Trazado_719304" data-name="Trazado 719304" d="M42.092,297.151a.539.539,0,0,1,.079-.138l.259-.382,1.016-1.437,3.707-5.132-.023.07c-.3-3.238-.659-7.164-1.047-11.4-.5-5.548-.9-10.575-1.134-14.218-.121-1.821-.2-3.3-.244-4.316-.017-.488-.03-.878-.04-1.175a2.183,2.183,0,0,1,.006-.411,2.2,2.2,0,0,1,.053.407c.024.3.055.685.094,1.171.081,1.05.2,2.513.335,4.308.288,3.637.722,8.66,1.218,14.207.372,4.248.752,8.168,1,11.423l0,.036-.026.034-3.788,5.072-1.068,1.4-.287.362c-.067.081-.1.121-.108.117" transform="translate(-18.793 -115.465)" fill="#455a64"/>
            <path id="Trazado_719305" data-name="Trazado 719305" d="M43.9,257.4a18.634,18.634,0,0,1-3.618-.539,18.638,18.638,0,0,1-3.529-.963,30.959,30.959,0,0,1,3.589.681,30.841,30.841,0,0,1,3.559.82" transform="translate(-16.411 -114.245)" fill="#455a64"/>
            <path id="Trazado_719306" data-name="Trazado 719306" d="M60.54,315.125a13.9,13.9,0,0,0-3.69-.961,13.922,13.922,0,0,0-3.8.368,3.122,3.122,0,0,1,1.065-.417,8.393,8.393,0,0,1,5.435.431,3.1,3.1,0,0,1,.986.58" transform="translate(-23.687 -140.126)" fill="#455a64"/>
            <path id="Trazado_719307" data-name="Trazado 719307" d="M61.25,323.963c.063.048-3.78,5.207-8.584,11.521s-8.751,11.4-8.814,11.348,3.779-5.206,8.585-11.522,8.75-11.395,8.813-11.347" transform="translate(-19.579 -144.641)" fill="#455a64"/>
            <path id="Trazado_719308" data-name="Trazado 719308" d="M66.389,236.441a2.29,2.29,0,0,1-.769,1.015,3.806,3.806,0,0,1-5.569-.587,2.285,2.285,0,0,1-.54-1.153,11.961,11.961,0,0,0,.7,1.025,3.8,3.8,0,0,0,5.283.557,11.931,11.931,0,0,0,.9-.856" transform="translate(-26.568 -105.24)" fill="#455a64"/>
            <path id="Trazado_719309" data-name="Trazado 719309" d="M35.219,136.912a11.916,11.916,0,0,1-.647-16.619" transform="translate(-14.068 -53.708)" fill="#263238"/>
            <path id="Trazado_719310" data-name="Trazado 719310" d="M21.458,166.037s-2.969,3.353-3.584,16.18c0,0,8.454,1.6,8.608,1.143s-5.025-17.322-5.025-17.322" transform="translate(-7.98 -74.131)" fill="#e8505b"/>
            <g id="Grupo_1017878" data-name="Grupo 1017878" transform="translate(9.894 91.906)" opacity="0.3">
              <g id="Grupo_1017877" data-name="Grupo 1017877">
                <g id="Grupo_1017876" data-name="Grupo 1017876" clip-path="url(#clip-path-11)">
                  <path id="Trazado_719311" data-name="Trazado 719311" d="M21.458,166.037s-2.969,3.353-3.584,16.18c0,0,8.454,1.6,8.608,1.143s-5.025-17.322-5.025-17.322" transform="translate(-17.874 -166.037)"/>
                </g>
              </g>
            </g>
            <path id="Trazado_719312" data-name="Trazado 719312" d="M24.968,198.306H50.922l-.419-4.054s-2.966-15.425-2.944-15.628l.468-.983a9.785,9.785,0,0,0,.113-8.162l12.708-4.346-3.111-10.487c-5.767.974-14.484,2.06-14.484,2.06l-1.3.109s-9,.469-9.19.493c-3.764.455-8.143.744-9.745,4.773-.856,2.154-.043,5.387,1.354,8.721L27.7,181.042c1.328,5.628-.792,5.36-1.955,11.024-.176.857-.8,5.454-.779,6.24" transform="translate(-10.122 -69.046)" fill="#e8505b"/>
            <g id="Grupo_1017881" data-name="Grupo 1017881" transform="translate(12.548 85.602)" opacity="0.3">
              <g id="Grupo_1017880" data-name="Grupo 1017880">
                <g id="Grupo_1017879" data-name="Grupo 1017879" clip-path="url(#clip-path-12)">
                  <path id="Trazado_719313" data-name="Trazado 719313" d="M24.968,198.306H50.922l-.419-4.054s-2.966-15.425-2.944-15.628l.468-.983a9.785,9.785,0,0,0,.113-8.162l12.708-4.346-3.111-10.487c-5.767.974-14.484,2.06-14.484,2.06l-1.3.109s-9,.469-9.19.493c-3.764.455-8.143.744-9.745,4.773-.856,2.154-.043,5.387,1.354,8.721L27.7,181.042c1.328,5.628-.792,5.36-1.955,11.024-.176.857-.8,5.454-.779,6.24" transform="translate(-22.67 -154.648)"/>
                </g>
              </g>
            </g>
            <path id="Trazado_719314" data-name="Trazado 719314" d="M79.659,173.9a2.514,2.514,0,0,1-.564.237c-.369.135-.905.321-1.57.545-1.329.449-3.174,1.043-5.211,1.695s-3.859,1.3-5.152,1.833c-.649.262-1.165.5-1.526.649a2.5,2.5,0,0,1-.568.224,2.511,2.511,0,0,1,.519-.324c.347-.185.852-.448,1.494-.736a49.054,49.054,0,0,1,5.144-1.921c2.04-.652,3.893-1.216,5.238-1.615.673-.2,1.218-.355,1.6-.457a2.506,2.506,0,0,1,.6-.13" transform="translate(-29.051 -77.638)" fill="#263238"/>
            <path id="Trazado_719315" data-name="Trazado 719315" d="M61.056,163.7c0,.08-7.674.144-17.137.144s-17.138-.064-17.138-.144,7.671-.144,17.138-.144,17.137.064,17.137.144" transform="translate(-11.957 -73.022)" fill="#fafafa"/>
            <path id="Trazado_719316" data-name="Trazado 719316" d="M59.366,172.906c0,.08-8.539.144-19.071.144s-19.072-.064-19.072-.144,8.538-.144,19.072-.144,19.071.064,19.071.144" transform="translate(-9.476 -77.134)" fill="#fafafa"/>
            <path id="Trazado_719317" data-name="Trazado 719317" d="M22.5,183.385a4.507,4.507,0,0,1-1.589.144,4.5,4.5,0,0,1-1.589-.144,4.505,4.505,0,0,1,1.589-.144,4.508,4.508,0,0,1,1.589.144" transform="translate(-8.625 -81.812)" fill="#fafafa"/>
            <path id="Trazado_719318" data-name="Trazado 719318" d="M50.005,183.7c0,.08-5.585.144-12.472.144s-12.473-.064-12.473-.144,5.583-.144,12.473-.144,12.472.064,12.472.144" transform="translate(-11.189 -81.954)" fill="#fafafa"/>
            <path id="Trazado_719319" data-name="Trazado 719319" d="M51.074,194.5c0,.08-5.012.144-11.193.144s-11.195-.064-11.195-.144,5.011-.144,11.195-.144,11.193.064,11.193.144" transform="translate(-12.808 -86.775)" fill="#fafafa"/>
            <path id="Trazado_719320" data-name="Trazado 719320" d="M52.471,204.5c0,.08-4.543.144-10.146.144s-10.147-.064-10.147-.144,4.542-.144,10.147-.144,10.146.064,10.146.144" transform="translate(-14.367 -91.241)" fill="#fafafa"/>
            <path id="Trazado_719321" data-name="Trazado 719321" d="M52.934,212.6c0,.08-4.86.144-10.854.144s-10.854-.064-10.854-.144,4.858-.144,10.854-.144,10.854.064,10.854.144" transform="translate(-13.942 -94.856)" fill="#fafafa"/>
            <path id="Trazado_719322" data-name="Trazado 719322" d="M53.064,222.92c0,.08-5.529.144-12.348.144S28.368,223,28.368,222.92s5.528-.144,12.349-.144,12.348.064,12.348.144" transform="translate(-12.666 -99.464)" fill="#fafafa"/>
            <path id="Trazado_719323" data-name="Trazado 719323" d="M27.778,190.654a2.119,2.119,0,0,1-.23-.51L27,188.727c-.457-1.2-1.1-2.847-1.769-4.688s-1.223-3.527-1.572-4.764c-.174-.618-.3-1.121-.378-1.473a2.081,2.081,0,0,1-.091-.552,20.325,20.325,0,0,1,.664,1.967c.4,1.217.977,2.888,1.648,4.725s1.28,3.5,1.689,4.717c.205.608.361,1.1.46,1.449a2.112,2.112,0,0,1,.123.546" transform="translate(-10.353 -79.137)" fill="#263238"/>
          </g>
        </g>
      </g>
    </g>
  </g>
</svg>
