<svg xmlns="http://www.w3.org/2000/svg" xmlns:xlink="http://www.w3.org/1999/xlink" width="85" height="85" viewBox="0 0 85 85">
  <defs>
    <clipPath id="clip-path">
      <rect id="Rectángulo_376069" data-name="Rectángulo 376069" width="55.651" height="55.623" fill="#fff"/>
    </clipPath>
  </defs>
  <g id="Grupo_1017935" data-name="Grupo 1017935" transform="translate(-285 -2093.025)">
    <g id="Grupo_1017894" data-name="Grupo 1017894" transform="translate(0 -4605.975)">
      <path id="Trazado_605481" data-name="Trazado 605481" d="M42.5,0A42.5,42.5,0,1,1,0,42.5,42.5,42.5,0,0,1,42.5,0Z" transform="translate(285 6699)" fill="#005d95"/>
    </g>
    <g id="Grupo_1017905" data-name="Grupo 1017905" transform="translate(301.802 2110.252)">
      <g id="Grupo_1017904" data-name="Grupo 1017904" clip-path="url(#clip-path)">
        <path id="Trazado_719348" data-name="Trazado 719348" d="M0,25.907Q0,16.921,0,7.935C0,4.661,1.841,2.77,5.128,2.678c1.334-.037,2.671-.026,4.006,0a1.053,1.053,0,0,0,1.2-.807A2.631,2.631,0,0,1,12.965,0a2.636,2.636,0,0,1,2.7,1.771,1.27,1.27,0,0,0,1.383.905q8.012-.028,16.023,0a1.206,1.206,0,0,0,1.335-.931A2.573,2.573,0,0,1,37.012,0a2.562,2.562,0,0,1,2.635,1.7,1.348,1.348,0,0,0,1.554.974c1.262-.037,2.527-.046,3.789,0C48.233,2.813,50.118,4.76,50.13,8c.019,5.125.042,10.25-.021,15.373a4.149,4.149,0,0,0,1.13,3A17.641,17.641,0,0,1,25.1,50.064a2.411,2.411,0,0,0-1.968-.849c-5.666.023-11.332.014-17,.009a13.689,13.689,0,0,1-1.619-.075C1.563,48.793.006,47.049,0,44.1Q-.005,35,0,25.907m24.978-9.086c-7.179,0-14.357.024-21.535-.025-1.119-.008-1.392.345-1.387,1.419.04,8.549.019,17.1.024,25.648,0,2.25.906,3.163,3.136,3.165q8.117.01,16.233,0c1.3,0,1.294,0,.694-1.217A17.62,17.62,0,0,1,24.9,26.075c.468-.514.82-.882-.078-1.34a1.623,1.623,0,0,1-.793-1.564c.008-.9-.024-1.8.006-2.705a1.888,1.888,0,0,1,2.037-2.031c1.117-.037,2.237-.031,3.354,0a1.883,1.883,0,0,1,2.117,2.051c.024.754.209.934.951.7a17.162,17.162,0,0,1,14.467,1.6c.83.485.991.191.98-.6-.017-1.262,0-2.525,0-3.788,0-1.571,0-1.574-1.533-1.574H24.979m0-2.084H36.025q5.358,0,10.716,0c.6,0,1.2.05,1.194-.83-.017-2.273.024-4.547-.048-6.818A2.294,2.294,0,0,0,45.617,4.9c-.935-.06-1.875-.013-2.813-.033-.63-.013-.884.162-.568.823a4.221,4.221,0,0,1,.416,2.415,5.408,5.408,0,0,1-3.781,4.7A5.325,5.325,0,0,1,33,11.425a4.979,4.979,0,0,1-1.117-5.873c.256-.576.082-.687-.456-.686q-6.332.011-12.664,0c-.657,0-.853.2-.545.834a4.7,4.7,0,0,1,.323,3.161,5.67,5.67,0,0,1-6.524,4.2A5.549,5.549,0,0,1,7.39,6.972c.1-.7.991-1.491.354-2-.47-.373-1.458-.1-2.214-.105-.252,0-.505,0-.758,0A2.539,2.539,0,0,0,2.086,7.6c-.022,1.912.049,3.827-.029,5.736-.044,1.076.266,1.43,1.387,1.422,7.18-.048,14.36-.025,21.54-.024M22.423,37.82a15.545,15.545,0,1,0,15.644-15.4,15.495,15.495,0,0,0-15.644,15.4M10.1,5.98a3.122,3.122,0,0,0,.635,4.3,3.7,3.7,0,0,0,4.833-.278,2.754,2.754,0,0,0,.435-3.679c-.406,2.1-1.454,3.166-3.07,3.11C11.283,9.379,10.3,8.231,10.1,5.98m23.842.226a3.149,3.149,0,0,0,1.062,4.174,3.55,3.55,0,0,0,4.472-.316,2.872,2.872,0,0,0,.6-3.747c-.534,2.126-1.371,3.036-2.868,3.118-1.576.087-2.452-.759-3.261-3.23M27.5,22.993c.18,0,.362.012.541,0,1.116-.087,1.436-.493,1.457-1.567.023-1.149-.772-.892-1.417-.915-.432-.015-.865,0-1.3.006a.608.608,0,0,0-.613.349,1.385,1.385,0,0,0,1.33,2.129M12.264,4.7c0,.574-.01,1.148,0,1.722.011.494.252.85.764.866a.74.74,0,0,0,.773-.751c.043-1.217.042-2.437,0-3.653a.731.731,0,0,0-.76-.757c-.536.007-.753.371-.773.852-.023.573-.005,1.148-.008,1.722M36.3,4.738h-.015c0,.537-.006,1.074,0,1.61.007.467.153.9.674.949a.791.791,0,0,0,.848-.8A15.806,15.806,0,0,0,37.8,2.86c-.05-.409-.277-.764-.773-.733a.737.737,0,0,0-.721.787c-.027.607-.007,1.216-.007,1.824" transform="translate(0 0)" fill="#fff"/>
        <path id="Trazado_719349" data-name="Trazado 719349" d="M67.783,84.99a1,1,0,0,1,.108,0c1.15.079,2.535-.4,3.266.861a6.056,6.056,0,0,1,.219,4.629,1.744,1.744,0,0,1-1.749,1.229,31.266,31.266,0,0,1-3.671.006c-1.348-.1-1.947-.844-1.969-2.223q-.018-1.135,0-2.27a1.959,1.959,0,0,1,2.174-2.227c.54-.016,1.081,0,1.622,0m-.024,4.58c.487-.161,1.285.364,1.625-.467.514-1.255-.044-2.028-1.4-2.03a4.87,4.87,0,0,1-.644,0c-.97-.133-1.359.238-1.3,1.25.077,1.238.03,1.25,1.715,1.252" transform="translate(-50.125 -66.566)" fill="#fff"/>
        <path id="Trazado_719350" data-name="Trazado 719350" d="M20.747,176.989c-3.475,0-3.731-.255-3.729-3.745,0-2.482.556-3.037,3.047-3.042.793,0,1.588-.028,2.378.016a2.052,2.052,0,0,1,2.184,2.073,14.316,14.316,0,0,1,.016,2.483,2.107,2.107,0,0,1-2.383,2.212c-.5.015-1.009,0-1.514,0m-.01-2.076c.072,0,.144,0,.215,0,.88.057,1.65.075,1.549-1.222-.1-1.243-.068-1.288-1.616-1.29-.287,0-.574.013-.86,0-.61-.023-.9.215-.934.873-.083,1.571-.043,1.636,1.647,1.637" transform="translate(-13.333 -133.339)" fill="#fff"/>
        <path id="Trazado_719351" data-name="Trazado 719351" d="M20.8,84.99c3.263-.178,3.931.412,3.851,3.856-.052,2.205-.725,2.9-2.941,2.918-.9.007-1.806.039-2.7-.038a1.981,1.981,0,0,1-2.02-2.2q-.029-1.188,0-2.378a1.965,1.965,0,0,1,2.142-2.16c.576-.02,1.153,0,1.668,0M20.8,89.567c.473-.14,1.206.316,1.574-.4a1.35,1.35,0,0,0-1.312-2.1c-.358,0-.717.019-1.074,0-.618-.037-.9.192-.927.856-.068,1.572-.024,1.643,1.738,1.644" transform="translate(-13.303 -66.565)" fill="#fff"/>
        <path id="Trazado_719352" data-name="Trazado 719352" d="M20.849,127.98h.972c2.176,0,2.784.62,2.8,2.842.031,3.477-.3,3.807-3.8,3.806-.684,0-1.37.03-2.05-.021a1.817,1.817,0,0,1-1.788-1.811c-.05-.969-.046-1.944-.005-2.914a1.831,1.831,0,0,1,1.928-1.891c.646-.029,1.3-.005,1.943-.005v-.006m-.119,4.565c.477-.141,1.2.317,1.6-.348a1.372,1.372,0,0,0-1.256-2.139,6.426,6.426,0,0,1-.751,0c-.963-.121-1.36.24-1.3,1.255.077,1.233.018,1.236,1.705,1.237" transform="translate(-13.277 -100.264)" fill="#fff"/>
        <path id="Trazado_719353" data-name="Trazado 719353" d="M67.621,127.987h1.728c.7,0,1.251.25,1.243,1.025s-.578,1.021-1.258,1.038c-.791.02-1.585.04-2.375.007-.958-.041-.9.6-.886,1.23.014.595-.15,1.286.842,1.268.823-.015,1.876-.1,1.823,1.1s-1.132.967-1.931.973c-2.291.016-2.811-.5-2.814-2.76,0-.576-.009-1.152,0-1.728a1.9,1.9,0,0,1,2.113-2.15c.5-.013,1.008,0,1.512,0" transform="translate(-50.134 -100.269)" fill="#fff"/>
        <path id="Trazado_719354" data-name="Trazado 719354" d="M64,173.152v-.431c0-2.507,1.389-3.551,3.853-2.9.534.141.934.441.921,1.035a1.039,1.039,0,0,1-.937,1.023,4.131,4.131,0,0,1-.425.067,1.421,1.421,0,0,0-1.3,2.1c.142.4.443.42.773.424.575.007,1.15,0,1.725.016a.975.975,0,0,1,1.085.959.957.957,0,0,1-.9,1.037,9.97,9.97,0,0,1-3.324-.052,1.778,1.778,0,0,1-1.463-1.877c0-.467,0-.934,0-1.4Z" transform="translate(-50.146 -132.9)" fill="#fff"/>
        <path id="Trazado_719355" data-name="Trazado 719355" d="M110.977,124.914a13.938,13.938,0,1,1,13.942,13.929,13.774,13.774,0,0,1-13.942-13.929m4.062,4.532a1.034,1.034,0,0,1,1.145.552.852.852,0,0,1-.219,1.171c-.861.547-.53,1.01-.006,1.519.439.427.879.855,1.307,1.294.455.467.843.606,1.288-.052a.933.933,0,0,1,1.344-.261.831.831,0,0,1,.417,1.11c-.477.894.03,1.15.742,1.334.558.144,1.119.278,1.673.435.657.186,1.1.118,1.185-.712a.925.925,0,0,1,.973-.845.852.852,0,0,1,.963.7c.123,1.081.775,1.008,1.525.812.488-.128.97-.279,1.458-.408.689-.182,1.117-.445.669-1.271a.863.863,0,0,1,.384-1.13.83.83,0,0,1,1.184.062c.732,1.085,1.272.461,1.851-.111.308-.3.608-.616.91-.926.487-.5.888-.961.033-1.537a.889.889,0,0,1-.186-1.267.845.845,0,0,1,1.11-.432c1,.548,1.169-.134,1.362-.823.146-.52.261-1.049.407-1.569.184-.655.114-1.1-.708-1.2a.92.92,0,0,1-.847-.968.854.854,0,0,1,.7-.965c1.2-.127.963-.879.789-1.619-.107-.456-.26-.9-.383-1.353-.183-.676-.437-1.141-1.271-.694a.851.851,0,0,1-1.131-.368.828.828,0,0,1,.061-1.184c1.094-.729.459-1.271-.106-1.849-.328-.335-.672-.655-1-.985-.484-.481-.92-.823-1.441.011a.876.876,0,0,1-1.254.236.893.893,0,0,1-.456-1.2c.42-.841-.044-1.088-.709-1.271-.486-.134-.971-.27-1.458-.4-.712-.193-1.346-.3-1.46.751a.872.872,0,0,1-.93.749.852.852,0,0,1-.977-.68c-.134-1.181-.864-.992-1.618-.8-.523.136-1.036.308-1.554.461-.588.173-.853.463-.515,1.1a.908.908,0,0,1-.353,1.231.815.815,0,0,1-1.181-.057c-.736-1.063-1.279-.449-1.858.119-.309.3-.6.623-.912.925-.521.507-.85.974-.018,1.533a.87.87,0,0,1,.236,1.171c-.215.429-.642.754-1.054.551-1.272-.628-1.355.338-1.6,1.1-.13.411-.166.851-.3,1.262-.215.679-.11,1.088.7,1.192a.93.93,0,0,1,.842.977.912.912,0,0,1-.792,1.01c-.841.122-.981.55-.741,1.276.135.409.163.854.31,1.257.255.7.312,1.756,1.467,1.03" transform="translate(-86.946 -86.939)" fill="#fff"/>
        <path id="Trazado_719356" data-name="Trazado 719356" d="M175.423,142.071c-.1.274-.214.688-.38,1.082-.587,1.4-1.175,2.791-1.794,4.172a1.12,1.12,0,0,0,.277,1.445c.814.765,1.591,1.57,2.371,2.371.48.493.691,1.072.138,1.617s-1.13.319-1.617-.163c-1.1-1.09-2.193-2.192-3.291-3.287a1.306,1.306,0,0,1-.343-1.57c.859-1.985,1.7-3.976,2.561-5.961a1.116,1.116,0,0,1,1.346-.808c.486.11.7.466.731,1.1" transform="translate(-133.702 -110.417)" fill="#fff"/>
      </g>
    </g>
  </g>
</svg>
