<svg xmlns="http://www.w3.org/2000/svg" xmlns:xlink="http://www.w3.org/1999/xlink" width="85" height="85" viewBox="0 0 85 85">
  <defs>
    <clipPath id="clip-path">
      <rect id="Rectángulo_375759" data-name="Rectángulo 375759" width="64.888" height="64.891" fill="#fff"/>
    </clipPath>
  </defs>
  <g id="Grupo_1017924" data-name="Grupo 1017924" transform="translate(-285 -2562.025)">
    <g id="Grupo_1013925" data-name="Grupo 1013925" transform="translate(0 -4252.975)">
      <circle id="Elipse_4875" data-name="Elipse 4875" cx="42.5" cy="42.5" r="42.5" transform="translate(285 6815)" fill="#005d95"/>
    </g>
    <g id="Grupo_1017667" data-name="Grupo 1017667" transform="translate(295.018 2573.044)">
      <g id="Grupo_1017666" data-name="Grupo 1017666" clip-path="url(#clip-path)">
        <path id="Trazado_718940" data-name="Trazado 718940" d="M24.97,49.941c-.547,0-1.1.037-1.641-.007a3.3,3.3,0,0,1-3.064-2.578c-.3-1.224-.516-2.47-.777-3.7a2.761,2.761,0,0,0-3.872-1.614c-.994.634-1.951,1.326-2.952,1.948a3.311,3.311,0,0,1-4.477-.466q-.966-.908-1.874-1.877a3.307,3.307,0,0,1-.45-4.28c.662-1.075,1.408-2.1,2.083-3.165a2.839,2.839,0,0,0-1.539-3.728c-1.19-.266-2.392-.479-3.584-.739a3.286,3.286,0,0,1-2.81-3.373q-.03-1.389,0-2.779a3.159,3.159,0,0,1,2.542-3.318c1.218-.323,2.469-.522,3.7-.785a2.736,2.736,0,0,0,1.615-3.855c-.638-.991-1.324-1.952-1.951-2.95a3.32,3.32,0,0,1,.4-4.387Q7.271,7.271,8.287,6.32a3.319,3.319,0,0,1,4.386-.4c1.033.65,2.025,1.365,3.057,2.018A2.81,2.81,0,0,0,19.457,6.38c.264-1.191.452-2.4.745-3.582a3.224,3.224,0,0,1,3.5-2.789q1.263-.018,2.526,0a3.31,3.31,0,0,1,3.52,2.937c.244,1.152.46,2.311.718,3.459A2.84,2.84,0,0,0,34.2,7.944c1.032-.653,2.023-1.369,3.057-2.018a3.352,3.352,0,0,1,4.483.469c3.673,3.454,3.732,4.043.931,8.273-.582.878-1.365,1.626-.8,2.955a2.8,2.8,0,0,0,2.52,2.045,22.36,22.36,0,0,1,2.72.539,3.515,3.515,0,0,1,.841.258c2.726,1.376,1.959,3.919,1.96,6.145a3.194,3.194,0,0,1-2.7,3.086,33.253,33.253,0,0,1-3.339.67,1.991,1.991,0,0,0-1.788,1.492c-.3.829-.608,2.04-1.85,1.556-1.348-.526-.482-1.557-.311-2.469.381-2.024,1.686-2.735,3.55-2.88a13.647,13.647,0,0,0,1.979-.388c.719-.166,1.7-.068,1.945-.918a7.115,7.115,0,0,0-.01-3.737c-.109-.421-.61-.528-1.038-.611-1.445-.28-2.886-.585-4.333-.857a1.886,1.886,0,0,1-1.676-1.485,2.389,2.389,0,0,0-.3-.826c-1.533-2.16-.988-4.067.669-5.857A3.247,3.247,0,0,0,41,12.968c1.694-2.541,1.652-2.759-.686-4.744a1.537,1.537,0,0,0-2.063-.165c-1.224.82-2.467,1.614-3.675,2.457a1.807,1.807,0,0,1-2.114.143,4.914,4.914,0,0,0-1.493-.666c-1.939-.338-2.741-1.536-2.883-3.4-.07-.916-.38-1.812-.5-2.727a1.527,1.527,0,0,0-1.755-1.523c-3.63.016-3.409-.158-3.66,2.945-.259,3.207-2.031,4.575-4.748,5.427a2.075,2.075,0,0,1-2.008-.174c-1.178-.813-2.389-1.578-3.568-2.39a1.641,1.641,0,0,0-2.358.194c-2.221,2.134-2.241,2.114-.533,4.677,2.457,3.688,2.447,3.682.42,7.565a1.952,1.952,0,0,1-1.526.974c-1.4.292-2.8.588-4.208.836a1.33,1.33,0,0,0-1.271,1.441c-.034,4.028-.267,3.7,3.037,3.919,3.639.242,4.564,2.637,5.509,5.321a1.536,1.536,0,0,1-.356,1.41c-.764,1.16-1.5,2.342-2.316,3.465a1.8,1.8,0,0,0,.27,2.663c1.989,2.012,1.968,2.037,4.284.495,3.559-2.37,3.553-2.356,7.557-.674a1.868,1.868,0,0,1,1.178,1.5c.282,1.4.619,2.8.838,4.206a1.477,1.477,0,0,0,1.682,1.439c3.2.06,3.2.088,3.811-3.034a4.014,4.014,0,0,0,.182-.862c-.1-2.618,1.659-3.5,3.766-4.09a1.171,1.171,0,0,1,1.582.614.978.978,0,0,1-.616,1.437c-2.319.53-2.509,2.373-2.787,4.209-.268,1.769-.72,3.452-2.76,3.952a14.256,14.256,0,0,1-2.253.2l0-.067" transform="translate(0 0)" fill="#fff"/>
        <path id="Trazado_718941" data-name="Trazado 718941" d="M131.222,127.207a5.218,5.218,0,0,1,2.82,1.233c1.7,1.108,2.47.789,2.874-1.194a13.182,13.182,0,0,1,.3-1.354,3.453,3.453,0,0,1,.513-1.141c1.266-1.552,3.018-1.014,4.6-.9,1.185.089,1.722,1.1,1.977,2.192.134.573.2,1.161.34,1.733a1.42,1.42,0,0,0,2.291.991c.146-.083.283-.182.424-.274,2.871-1.87,3.585-1.777,5.873.761a2.547,2.547,0,0,1,.371,3.346c-.351.622-.8,1.191-1.149,1.813a1.36,1.36,0,0,0,.9,2.151c.729.2,1.488.29,2.216.492a2.431,2.431,0,0,1,1.943,2.476c.01.379.008.758.007,1.137,0,2.4-.522,3.034-2.863,3.51-.412.084-.83.149-1.236.256a1.409,1.409,0,0,0-.948,2.233,4.647,4.647,0,0,0,.343.53c2.374,3.2,1,4.17-1.171,6.105a2.354,2.354,0,0,1-2.843.15c-.663-.362-1.267-.833-1.925-1.206a1.4,1.4,0,0,0-2.219.965c-.153.611-.219,1.244-.368,1.856a2.579,2.579,0,0,1-2.78,2.224c-.547.012-1.1.015-1.642,0a2.5,2.5,0,0,1-2.635-2.076c-.186-.689-.261-1.409-.453-2.1a1.366,1.366,0,0,0-2.159-.88,4.59,4.59,0,0,0-.531.342c-3.2,2.351-4.07,1.123-6.108-1.127a2.387,2.387,0,0,1-.152-2.947c.328-.587.748-1.121,1.1-1.7.724-1.191.316-2.1-1.066-2.409-.575-.127-1.162-.2-1.731-.351a2.546,2.546,0,0,1-2.153-2.708,16.322,16.322,0,0,1,.032-2.145A2.393,2.393,0,0,1,126,137.037a1.159,1.159,0,0,1,1.4.574.959.959,0,0,1-.374,1.419c-.926.469-.934,1.237-.8,2.041.148.891.969.78,1.6.935.2.05.408.1.614.146a4.219,4.219,0,0,1,3.482,3.8,1.8,1.8,0,0,1-.4,1.17c-.437.67-.845,1.364-1.338,1.991-.516.657-.317,1.1.222,1.61.519.49.964.985,1.7.374a6.331,6.331,0,0,0,.625-.425c1.663-1.772,3.436-1.21,5.242-.282a1.575,1.575,0,0,1,.873,1.162c.142.7.345,1.392.435,2.1a1.292,1.292,0,0,0,1.48,1.321c.99,0,1.355-.485,1.436-1.364a5.557,5.557,0,0,0,.123-.617c-.075-2.538,1.961-2.918,3.685-3.6a1.3,1.3,0,0,1,1.189.27c.6.387,1.214.762,1.788,1.188.713.528,1.263.746,2.056-.044.816-.812.513-1.374-.005-2.056a2.289,2.289,0,0,0-.213-.312c-1.832-1.695-1.046-3.468-.161-5.244a1.452,1.452,0,0,1,1.1-.767c.741-.152,1.476-.347,2.224-.456a1.247,1.247,0,0,0,1.2-1.452c0-.887-.361-1.338-1.228-1.423a5.232,5.232,0,0,0-.62-.111c-2.551.074-3.074-1.89-3.732-3.71a1.331,1.331,0,0,1,.265-1.192c.386-.6.764-1.213,1.187-1.789.521-.708.77-1.262-.033-2.056s-1.346-.6-2.034-.025a5.927,5.927,0,0,1-.525.351c-2.006,1.335-3.1,1.332-5.139,0a1.511,1.511,0,0,1-.676-1.019c-.161-.782-.346-1.561-.483-2.347-.142-.812-.491-1.249-1.417-1.247a1.246,1.246,0,0,0-1.423,1.235,4.719,4.719,0,0,0-.128.745c.067,2.546-1.887,3.077-3.71,3.734a1.33,1.33,0,0,1-1.191-.264c-.6-.385-1.219-.756-1.788-1.187-.7-.531-1.246-.79-2.038.013a1.264,1.264,0,0,0-.061,2.03,6.073,6.073,0,0,0,.355.52c1.838,1.71.833,3.432.011,5.134a1.02,1.02,0,0,1-1.377.56c-.577-.228-.97-.793-.687-1.309.991-1.805.171-3.161-.833-4.595a2.462,2.462,0,0,1,.284-3.253c.865-.967,1.689-2.029,3.057-2.106" transform="translate(-92.631 -92.416)" fill="#fff"/>
        <path id="Trazado_718942" data-name="Trazado 718942" d="M86.153,79.873a6.232,6.232,0,0,1-6.365,6.27,6.387,6.387,0,0,1-6.349-6.367,6.59,6.59,0,0,1,6.315-6.345,6.38,6.38,0,0,1,6.4,6.443m-2.372-.053A3.987,3.987,0,0,0,79.8,75.793a4.164,4.164,0,0,0-3.993,4.1,3.983,3.983,0,0,0,4,3.882,3.765,3.765,0,0,0,3.974-3.95" transform="translate(-54.881 -54.873)" fill="#fff"/>
        <path id="Trazado_718943" data-name="Trazado 718943" d="M73.859,53.047A11.533,11.533,0,0,1,84.533,68.988c-.348.825-.7,1.823-1.863,1.339-1.1-.461-.626-1.376-.322-2.165a9.21,9.21,0,0,0-6.118-12.5,9.051,9.051,0,0,0-8.109,1.573c-.237.174-.454.374-.682.56-.592.482-1.223.648-1.783.009s-.273-1.272.276-1.763A11.254,11.254,0,0,1,72.6,53.052c.417-.036.841-.005,1.261-.005" transform="translate(-48.833 -39.632)" fill="#fff"/>
        <path id="Trazado_718944" data-name="Trazado 718944" d="M64.641,94.753A8.111,8.111,0,0,0,69.108,93.5a7.54,7.54,0,0,1,.665-.36,1.169,1.169,0,0,1,1.667.335c.444.69.077,1.216-.475,1.613A11.035,11.035,0,0,1,65.591,97.1a11.654,11.654,0,0,1-12.5-14.3c.04-.163.078-.328.129-.487.248-.777.618-1.475,1.594-1.192.926.27.822,1.037.66,1.771a10.718,10.718,0,0,0-.265,3.864,9.162,9.162,0,0,0,9.431,7.99" transform="translate(-39.427 -60.578)" fill="#fff"/>
        <path id="Trazado_718945" data-name="Trazado 718945" d="M173.493,178.878a6.075,6.075,0,0,1-6.319-5.566,5.865,5.865,0,0,1,11.677-1.031c.1.809.028,1.625-.949,1.767-1.077.157-1.27-.668-1.417-1.522a3.452,3.452,0,0,0-3.385-2.986,3.472,3.472,0,0,0-1.33,6.716,3.433,3.433,0,0,0,3.149-.274c.727-.433,1.469-.641,1.944.257s-.186,1.4-.872,1.8a5.812,5.812,0,0,1-2.5.837" transform="translate(-124.92 -124.903)" fill="#fff"/>
      </g>
    </g>
  </g>
</svg>
