<svg xmlns="http://www.w3.org/2000/svg" xmlns:xlink="http://www.w3.org/1999/xlink" width="400" height="290.95" viewBox="0 0 400 290.95">
  <defs>
    <clipPath id="clip-path">
      <rect id="Rectángulo_375660" data-name="Rectángulo 375660" width="303.307" height="242.873" fill="none"/>
    </clipPath>
  </defs>
  <g id="Grupo_1017916" data-name="Grupo 1017916" transform="translate(-180 -2703.334)">
    <g id="Grupo_1017008" data-name="Grupo 1017008" transform="translate(0 973.98)">
      <g id="Image_Place_Holder" data-name="Image Place Holder" transform="translate(180 1749.534)">
        <rect id="Image_Place_Holder-2" data-name="Image Place Holder" width="400" height="270.769" rx="10" fill="#005d95"/>
      </g>
    </g>
    <g id="Grupo_1017531" data-name="Grupo 1017531" transform="translate(228.346 2703.334)">
      <path id="Trazado_718690" data-name="Trazado 718690" d="M30.9,71.9,47.3,61.227,46.809,48.34,27.652,57.261Z" transform="translate(56.312 98.441)"/>
      <path id="Trazado_718691" data-name="Trazado 718691" d="M84.336,126.482H86.7L79.1,58.354l-4.133-9.741-55.339.674v14.18h.149L11.957,126.88h2.362L27.913,63.467H71.762Z" transform="translate(24.349 98.997)"/>
      <g id="Grupo_1017530" data-name="Grupo 1017530" transform="translate(0 0)">
        <g id="Grupo_1017529" data-name="Grupo 1017529" clip-path="url(#clip-path)">
          <path id="Trazado_718692" data-name="Trazado 718692" d="M32.461,29.612C28.261,16.7,25.249,16.528,13.14,16.653,2.968,16.756-.293,22.064.02,30.775l15.917,79.153c.319,8.718,7.339,14.554,15.6,12.972s19.819-6.993,19.281-15.7Z" transform="translate(-0.001 33.877)" fill="#1e1e1e"/>
          <path id="Trazado_718693" data-name="Trazado 718693" d="M84.338,136.552H86.91l-7.4-68.5.118-17.374L13.022,52.65V68.057h.158l-8.5,68.914h2.56L22.016,68.057H70.68Z" transform="translate(9.532 103.211)"/>
          <path id="Trazado_718694" data-name="Trazado 718694" d="M10.73,59.3c-2.906-.012-3.121-1.02-.489-2.235l16.145-7.46a28.318,28.318,0,0,1,10.087-2.183l45.58.273c2.9.015,5.42,1.7,3.134,3.5L76.3,56.359a17.779,17.779,0,0,1-9.446,3.231Z" transform="translate(17.107 96.579)"/>
          <path id="Trazado_718695" data-name="Trazado 718695" d="M34.213,67.206c1.348,3.78.373,7.831-.158,12.923s-1.71,8.933,3.407,10.1,30.3.619,30.3.619,4.521-6.033-6.944-7.482c-8.9-1.12-13.53-9.021-13.269-16.445.061-1.907-13.336.288-13.336.288" transform="translate(68.332 134.686)"/>
          <path id="Trazado_718696" data-name="Trazado 718696" d="M31.989,72.141c-.474,4.251-1.2,12,.094,17.839.392,1.761,4.275,1.658,4.275,1.658s-1.752-4.564,4.266.841c6.267,5.636,16.084,3.474,17.581,2.566,1.527-.908,3.3-2.289-.3-5.7-3.088-2.924-8.283-5.748-9.489-8.5s-1.567-11.408-1.567-11.408Z" transform="translate(63.849 141.407)"/>
          <path id="Trazado_718697" data-name="Trazado 718697" d="M44.243,44.286c56.89.944,50.842,12.37,50.766,15.076-.707,24.379-3.295,65.489-3.295,65.489l-24.146,1.764s-5.043-39.728.565-57.789C69.825,63.339,16.554,55.15,16.554,55.15Z" transform="translate(33.711 90.185)" fill="#001c49"/>
          <path id="Trazado_718698" data-name="Trazado 718698" d="M55.569,57.618c42.048,4.479,39.983,6.228,39.692,13.9-.58,15.3-4.713,70.672-4.713,70.672L65.93,140.654s0-30.92,1.066-60.188c.128-3.6-52.314,5.9-53.48-11.541-.953-14.344,5.894-29.45,5.894-29.45Z" transform="translate(27.337 80.388)" fill="#0d3b7f"/>
          <path id="Trazado_718699" data-name="Trazado 718699" d="M27.169,57.1c3.571-16.8,4.318-20.745,8.7-27.571,4.126-6.422,8.885-11.636,12.625-14.122a122.785,122.785,0,0,1,9.343,11.128c.941,1.342,6,7.442,6.92,9.24,2.432,4.661,4.278,20.7,3.969,32.972-.446,16.977-6.738,51.683-6.738,51.683-29.824-1.254-49.056-7.421-49.074-9.5-.039-4.709,7.819-23.535,14.256-53.826" transform="translate(26.296 31.378)" fill="#001c49"/>
          <path id="Trazado_718700" data-name="Trazado 718700" d="M30.3,12.086c-.969,3.65-1.816,7.943-5.371,12.483-2.718,3.468-.507,3.95-.507,3.95L37.425,38.755S39.4,30.429,43,27.979c3.577-2.441-12.7-15.893-12.7-15.893" transform="translate(47.996 24.613)" fill="#ddac9e"/>
          <path id="Trazado_718701" data-name="Trazado 718701" d="M58.6,14.057c-3.17-10.136-26.83-18.051-31.342-2.5C19.019,39.861,36.52,46.2,36.52,46.2c6.088.707,7.518,1.591,12.161.465,2.265-.54,4.075-3.4,5.948-7.36,1.974-.152,4.163.091,4.133-1.3-.735-1.983-.6-5.469-.89-6.868,1.773-6.37,2.256-12.307.732-17.074" transform="translate(51.022 5.698)" fill="#ddac9e"/>
          <path id="Trazado_718702" data-name="Trazado 718702" d="M37.989,40.365c4.773.659,2.793.823,6.993-.188,2.256-.54,4.057-3.413,5.936-7.36,1.98-.155,4.169.082,4.136-1.309-.732-1.989-.61-5.472-.893-6.868,1.776-6.364,4.324-11.1,2.8-15.859-.164-.5-2.441-2.214-2.705-2.7L52.621,7.523c-1.087,11.256-8.447,30.54-15.8,31.284l-9.972,9.735,3.908,2.444s5.065-7.02,7.236-10.621" transform="translate(54.667 12.384)" fill="#e8c8ba"/>
          <path id="Trazado_718703" data-name="Trazado 718703" d="M32.834,5.611C35.382,3.149,38.716.571,46.2,2.35c7.266,1.734,11.839,3.871,15.443,9.956a5.159,5.159,0,0,1-.373,5.775s-4.014-3.48-5.86-3.41-4.151,3.07-7.205,5.8c-2.575,2.283-1.494,5.769-1.494,5.769s-8.065,1.02-8.757,3.416-12.337,11.73-12.337,11.73-1.688-15.188-1.734-21c-.1-13.564,8.353-14.171,8.954-14.772" transform="translate(48.627 3.584)" fill="#210500"/>
          <path id="Trazado_718704" data-name="Trazado 718704" d="M39.361,20.875c3.046-2.718,2.909-3.091,4.755-3.167s8.441,4.342,8.441,4.342,3.574-3.7,1.713-6.82a27.53,27.53,0,0,0-16.9-12.847A20.477,20.477,0,0,0,29.462,2c3.216,2.086,9.027,7.476,4.567,24.352,2.211-.6,1.473-.14,1.473-.14a16.471,16.471,0,0,1,3.859-5.335" transform="translate(59.997 3.62)" fill="#441800"/>
          <path id="Trazado_718705" data-name="Trazado 718705" d="M34.561,12.768c-.307-1.7-1.527-4.955-4.682-3.225-1.855,1.02-2.493,7.105.3,9.543,2.757,2.426,4.378-6.319,4.378-6.319" transform="translate(57.597 18.432)" fill="#ddac9e"/>
          <path id="Trazado_718706" data-name="Trazado 718706" d="M38.377,25.941,38.019,43.2,25.157,17.934Z" transform="translate(51.229 36.521)" fill="#aac9e2"/>
          <path id="Trazado_718707" data-name="Trazado 718707" d="M31.431,18.8l1.834,1.94-.307,8.122-4.43-4.8Z" transform="translate(58.095 38.288)" fill="#aac9e2"/>
          <path id="Trazado_718708" data-name="Trazado 718708" d="M30.666,20.681l-2.882,3.9,4.19,6.856,1.312-.067-.17-7.3Z" transform="translate(56.58 42.116)" fill="#700000"/>
          <path id="Trazado_718709" data-name="Trazado 718709" d="M31.634,23.4l1.032,13.111-4.1-12.033Z" transform="translate(58.174 47.654)" fill="#a80000"/>
          <path id="Trazado_718710" data-name="Trazado 718710" d="M27.825,15.848l-5.9,6.024L33.154,31.51l4.433,6.364L36.676,41.3,49.347,67.142S48,45.259,45.16,38.782,27.825,15.848,27.825,15.848" transform="translate(44.648 32.274)" fill="#0d3b7f"/>
          <path id="Trazado_718711" data-name="Trazado 718711" d="M26.173,15.121,41.507,29.253l-4.245,6.158L23.374,18.443Z" transform="translate(47.599 30.794)" fill="#fff"/>
          <path id="Trazado_718712" data-name="Trazado 718712" d="M36.75,40.212c-4.594.707-15.2,1.767-15.2,1.767s-4.591,5.3-1.412,7.066S39.222,50.46,39.222,50.46Z" transform="translate(38.732 81.889)" fill="#0d3b7f"/>
          <path id="Trazado_718713" data-name="Trazado 718713" d="M64.92,30.739a26.638,26.638,0,0,1-7.129-.465c-2.645-.5-10.627.926-9.589,1.734s.583.826,4.442.811,3.647,2,4.354,2.359-1.685,9.191-1.685,9.191,10.4-4.321,12.337-6.024-2.73-7.606-2.73-7.606" transform="translate(97.969 61.438)" fill="#e8c8ba"/>
          <path id="Trazado_718714" data-name="Trazado 718714" d="M43.09,30.127c3.632.768,13.843,2.262,14.881,2.217s10.57.465,11.393.777,6.553,6.668,7.06,7.46c.492.783.1,2.311-2.244,1.834a2,2,0,0,1-2.839,1.169,2.682,2.682,0,0,1-2.359,1.843,3.462,3.462,0,0,1-2.754.817c-.586-.325-3.607-3.088-4.542-3.282s-6.58-.109-8.7-1.057-8.705-.5-9.188-.707c-.468-.216-.707-11.071-.707-11.071" transform="translate(87.749 61.352)" fill="#ddac9e"/>
          <path id="Trazado_718715" data-name="Trazado 718715" d="M57.977,37.8c-.99.431-3.055.9-3.3.607s-2.705-.191-2.985-1.108c-2.256-.44-2.645-.422-2.666-.96-1.181-.571-2.493-.434-2.141-1.3s1.725-1.16,2.666-.811c1.287-.522,2.45-.5,2.73.577,1.221-.44,2.918-.513,3.2.711,1.172.255,2.463-.261,2.435.9a5.123,5.123,0,0,0,.061,1.391" transform="translate(95.352 69.016)" fill="#e8c8ba"/>
          <path id="Trazado_718716" data-name="Trazado 718716" d="M57.262,29.528l-4.163,1,2.83,13.9L64.169,42.3Z" transform="translate(108.131 60.131)" fill="#aac9e2"/>
          <path id="Trazado_718717" data-name="Trazado 718717" d="M115.519,16.356c-1.041,2.812-7.339,1.063-9.659,6.127-2.824,6.185-15.516,20.839-19.548,23.32-2.563,1.576-32.748,10.363-32.748,10.363S58.811,69.748,61.34,72.66c3-1.181,27.528-7.057,30.385-8.013,8.481-2.824,30.394-18.61,30.394-18.61Z" transform="translate(109.078 33.308)"/>
          <path id="Trazado_718718" data-name="Trazado 718718" d="M77.279,13.547l-6.865,9.89,3.811,6.917L79.626,16Z" transform="translate(143.391 27.588)" fill="#aac9e2"/>
          <path id="Trazado_718719" data-name="Trazado 718719" d="M78.338,6.471c.9,3.689,8.851,16.047,12.844,20.222s4.451,2.824,4.451,2.824l-16.728,9.85s-5.4-6.917-8.939-9.419c-3.562-2.5,8.371-23.478,8.371-23.478" transform="translate(141.128 13.178)" fill="#ddac9e"/>
          <path id="Trazado_718720" data-name="Trazado 718720" d="M65.4,22.163c3.088,12.045,8.268,21.653,13.688,20.526S94.861,29.679,92.638,18.954C90.419,8.245,83.3-.528,73.463,3.149c-10.728,4-10.776,8.417-8.059,19.014" transform="translate(130.131 4.679)" fill="#e8c8ba"/>
          <path id="Trazado_718721" data-name="Trazado 718721" d="M63.8,9.105c-1.287,5.214-.082,8.262,2.508,8.1,2.569-.161,5.019-.9,7.02.27,1.876,1.093,4.7.908,6.091,1.628s-1.706-4.084-1.706-4.084l2.742,3.653-.987-3.844L80.6,16.687l4.521,2.265.941,3.152,3.3,1.883.832-2.4,3.3,6.3,5.4,6.237s3.112-7.017,3.188-10.664c.112-4.339-.492-5.192-.99-7.555-.635-2.982-.8-3.677-1.6-6.428-.881-2.982-4.29-6.941-6.395-7.224s-3.386-.531-4.321.131C87.829,3.051,87.413.749,84.37.457S81.346-.3,77.116.281s-6.835,2.35-9.932,4.561A12.832,12.832,0,0,0,63.8,9.105" transform="translate(128.874 0.002)" fill="#210500"/>
          <path id="Trazado_718722" data-name="Trazado 718722" d="M68.828,16c-.076.006-.128.024-.222.036a2.344,2.344,0,0,1-2.326-1.81l.553-.17-.553.167-.622-1.977c-.039-.124-.055-.216-.085-.325A2.27,2.27,0,0,1,66.8,9.177L70.88,7.963c.088-.021.2-.043.246-.049a2.331,2.331,0,0,1,2.329,2.037l.176.683.316,1.354a1.039,1.039,0,0,1,.064.313,2.281,2.281,0,0,1-1.348,2.6ZM72.3,10.292c-.149-.568-.568-.893-.923-.847h-.015l-.052.009-4.072,1.2a.912.912,0,0,0-.474,1.108c0,.036.027.1.049.191L67.4,13.9a.966.966,0,0,0,.941.774.574.574,0,0,0,.149-.024l3.832-1.117a.93.93,0,0,0,.516-1.072l-.006-.043-.37-1.445Z" transform="translate(133.397 16.089)" fill="#441800"/>
          <path id="Trazado_718723" data-name="Trazado 718723" d="M65.953,15.753a.678.678,0,0,0-.088.024c-.616-.018-1.084-.956-1.339-1.992L64.091,11.9c-.03-.146-.049-.27-.076-.413-.152-.935-.085-1.965.459-2.2l1.67-.574a.063.063,0,0,1,.064-.021l.024-.006c.626.018,1.093.978,1.336,2.022l.422,1.9a3.5,3.5,0,0,1,.076.4c.143.929.07,1.943-.465,2.183Zm.92-4.81a1.527,1.527,0,0,0-.425-.89v-.015l-1.667.6c-.006,0-.131.182-.03.783.009.067.024.161.049.273l.425,1.855a1.474,1.474,0,0,0,.422.874c0,.009.006,0,.049-.006l1.618-.562a1.275,1.275,0,0,0,.033-.786,1.416,1.416,0,0,0-.039-.176Z" transform="translate(130.218 17.673)" fill="#441800"/>
          <path id="Trazado_718724" data-name="Trazado 718724" d="M68.054,12.739s15.811-6.868,16.29-6.513a9.147,9.147,0,0,0,1.348,1.181l-1.928-.143L68.333,15.2Z" transform="translate(138.586 12.652)" fill="#441800"/>
          <path id="Trazado_718725" data-name="Trazado 718725" d="M70.006,12.12a9.021,9.021,0,0,1,4.287,1.139c.674.474,4.655,2.353,4.995,4.236s-.914,5.381-3.65,6.267c-.9.291-4.43.613-5.639-1.558-.528-.956-2.657-4.618-1.555-4.883a9.746,9.746,0,0,0,2.775-.814c.966-.917.319-1.552-.176-1.494s-.343.48-.714.522-2.906,1.928-3.307,1.555c-1.749-1.624-1.345-3.018-1.345-3.018Z" transform="translate(133.667 24.646)" fill="#210500"/>
          <path id="Trazado_718726" data-name="Trazado 718726" d="M71.489,8.423c.568-2.6,3.562-3.389,4.828-1.7,1.26,1.722,2.283,8.836-1.008,10.536s-3.82-8.836-3.82-8.836" transform="translate(145.581 11.873)" fill="#e8c8ba"/>
          <path id="Trazado_718727" data-name="Trazado 718727" d="M67.184,9.223,65.013,9.6l.261,1.755,2.274-.635Z" transform="translate(132.394 18.783)" fill="#441800"/>
          <path id="Trazado_718728" data-name="Trazado 718728" d="M86.538,13.2l-2.7-1.785L71.2,26.568l4.57,9.537Z" transform="translate(145 23.237)" fill="#fff"/>
          <path id="Trazado_718729" data-name="Trazado 718729" d="M81.847,71.344l-16.4-10.688.492-12.874L85.1,56.7Z" transform="translate(133.272 97.303)"/>
          <path id="Trazado_718730" data-name="Trazado 718730" d="M65.73,125.552H63.37l7.6-68.128,4.126-9.744,55.339.674v14.18h-.152l7.834,63.409h-2.368L122.161,62.535H78.3Z" transform="translate(129.048 97.098)"/>
          <path id="Trazado_718731" data-name="Trazado 718731" d="M102.182,28.954c4.363-12.856,7.372-13,19.482-12.72,10.169.231,13.363,5.572,12.938,14.28L117.7,109.473c-.422,8.705-7.518,14.453-15.762,12.771S82.206,115,82.853,106.306Z" transform="translate(168.668 32.938)" fill="#1e1e1e"/>
          <path id="Trazado_718732" data-name="Trazado 718732" d="M69.613,135.623H67.044l7.394-68.489L74.32,49.747l70.062,1.98V67.133h-.167l8.514,68.92h-2.572l-14.772-68.92H83.268Z" transform="translate(136.53 101.305)"/>
          <path id="Trazado_718733" data-name="Trazado 718733" d="M141.306,58.376c2.906-.012,3.121-1.023.48-2.241L125.644,48.68a28.2,28.2,0,0,0-10.084-2.186l-45.576.27c-2.9.018-5.423,1.706-3.134,3.495l8.875,5.168a17.756,17.756,0,0,0,9.452,3.231Z" transform="translate(134.322 94.681)"/>
          <path id="Trazado_718734" data-name="Trazado 718734" d="M87.532,68.436c-1.385,3.884-.386,8.05.161,13.293s1.761,9.179-3.507,10.375c-5.247,1.187-31.138.632-31.138.632s-4.658-6.2,7.133-7.685c9.155-1.148,13.913-9.282,13.643-16.907-.061-1.958,13.709.291,13.709.291" transform="translate(106.179 137.139)"/>
          <path id="Trazado_718735" data-name="Trazado 718735" d="M68.936,81.577,65.15,79.713s3.1-3.462,3.707-3.319c.6.125.079,5.183.079,5.183" transform="translate(132.672 155.561)"/>
          <path id="Trazado_718736" data-name="Trazado 718736" d="M88.459,73.045c.516,4.637,1.309,13.1-.109,19.482-.422,1.919-4.661,1.8-4.661,1.8s1.913-4.98-4.655.92c-6.841,6.158-17.557,3.792-19.2,2.812-1.664-1-3.592-2.511.337-6.228,3.367-3.194,9.042-6.273,10.369-9.276,1.294-3,1.7-12.461,1.7-12.461Z" transform="translate(117.832 142.735)"/>
          <path id="Trazado_718737" data-name="Trazado 718737" d="M122.586,40.872C83.723,48.654,63.37,47.643,61.1,63.839c-2.089,14.915-4.706,67.05-4.706,67.05l27.425-.75s11.192-38.66,2.912-58.949c-2.508-6.143,61.937-17.159,61.937-17.159Z" transform="translate(114.849 83.233)"/>
          <path id="Trazado_718738" data-name="Trazado 718738" d="M106.246,43.274c-4.5,2.787-41.429,1.579-43.433,15.817-2.763,19.652.547,41.444-2.639,70.36l24.215,3.54s1.582-16.4,3.088-58.275c.112-3.143,52.512.625,55.84-7.491,3.811-9.3-1.4-20.317-1.4-20.317Z" transform="translate(122.541 88.124)"/>
          <path id="Trazado_718739" data-name="Trazado 718739" d="M79.182,59.373c.128-3.146,20.766-4.564,19.427-8.435-6.713.176-23.73.528-27.962,5.475-3.55,4.148-5.718,44.219-5.593,59.808l10.67,1.451s1.731-16.415,3.458-58.3" transform="translate(132.465 103.731)" fill="#1e1e1e"/>
          <path id="Trazado_718740" data-name="Trazado 718740" d="M85.7,119.667,75,108.187S70.028,78.73,69.22,59.592c-.565-13.825,5.651-17.138,8.308-22.442,1.02-2.028,3.373-8.356,4.415-9.893C85.7,21.713,90.76,12.391,90.76,12.391c7.788,8.86,16.391,12.911,20.511,34.3,4.117,21.373,3.146,23.122,5.441,31.348,3.85,13.679,11.189,29.556,13.673,40.812,0,0-43.812,7.6-44.684.814" transform="translate(140.887 25.234)"/>
          <path id="Trazado_718741" data-name="Trazado 718741" d="M92.487,43.453,74.493,40.5,75.5,49.537l18.868,3.729Z" transform="translate(151.698 82.471)" fill="#1e1e1e"/>
          <path id="Trazado_718742" data-name="Trazado 718742" d="M94.18,18.082l-6.5-6.962C82.9,26.351,81,25.886,78.026,33.14a292.5,292.5,0,0,0-8.365,35.222c1.133-1.667,12.9-29.969,12.9-29.969L80.9,33.073,84.837,30.7Z" transform="translate(141.858 22.645)" fill="#1e1e1e"/>
          <path id="Trazado_718743" data-name="Trazado 718743" d="M222.67,51.569H20.752L54.908,36.132h119.6Z" transform="translate(42.259 73.581)" fill="#7aa7d6"/>
          <path id="Trazado_718744" data-name="Trazado 718744" d="M46.995,46.076l55.539.161-7.06-9.659-38.632-.37Z" transform="translate(95.701 73.734)" fill="#fff"/>
          <rect id="Rectángulo_375657" data-name="Rectángulo 375657" width="11.821" height="110.753" transform="translate(84.564 132.12)" fill="#7aa7d6"/>
          <rect id="Rectángulo_375658" data-name="Rectángulo 375658" width="11.818" height="110.753" transform="translate(231.332 132.12)" fill="#7aa7d6"/>
          <rect id="Rectángulo_375659" data-name="Rectángulo 375659" width="201.927" height="11.326" transform="translate(63.127 124.915)" fill="#aac9e2"/>
          <path id="Trazado_718745" data-name="Trazado 718745" d="M86.475,35.351a39.144,39.144,0,0,1-7.934,1.3c-1.133-.012-11.411,2.681-12.3,3.049a52.2,52.2,0,0,0-7.409,6.546c-.507.871-.853,2.575,1.667,1.968,0,0-.225,2.18,2.18,1.2.483,1.512,1.451,1.445,1.831,1.33.367.507,1.108,1.127,3.219.8,2.444-.383,5.872-1.491,6.877-1.731s6.094-2.957,8.365-4.066,6.783.039,7.29-.206-3.786-10.187-3.786-10.187" transform="translate(119.072 71.99)" fill="#e8c8ba"/>
          <path id="Trazado_718746" data-name="Trazado 718746" d="M103.486,17.853c-7.378,3.14-6.249,40.132-7.573,42.8C94.79,62.9,78.245,68.537,64.957,74.58,61.9,75.97,71.574,90.308,71.574,90.308S105.445,79.9,110.361,74.844c5.532-5.693,6.583-15.841,6.82-20.836,1.072-21.361,1.227-42.5-13.694-36.155" transform="translate(131.061 34.024)" fill="#1e1e1e"/>
          <path id="Trazado_718747" data-name="Trazado 718747" d="M26.776,20.844C33.535,17.872,60.565,40.32,66,42.752c2.1.944,23.192,7.133,34.272,7.187,3.106.012-.6,18.106-.6,18.106s-31.983-1.439-37.913-4.093C53.621,60.306,32.436,48.527,28.9,45.579c-12.72-10.6-10.952-20.851-2.119-24.735" transform="translate(40.225 41.897)" fill="#0d3b7f"/>
        </g>
      </g>
    </g>
  </g>
</svg>
