<svg xmlns="http://www.w3.org/2000/svg" xmlns:xlink="http://www.w3.org/1999/xlink" width="294.812" height="230.769" viewBox="0 0 294.812 230.769">
  <defs>
    <clipPath id="clip-path">
      <rect id="Rectángulo_376023" data-name="Rectángulo 376023" width="233.183" height="230.253" fill="none"/>
    </clipPath>
    <clipPath id="clip-path-2">
      <rect id="Rectángulo_375937" data-name="Rectángulo 375937" width="233.183" height="230.253" fill="#003a38"/>
    </clipPath>
    <clipPath id="clip-path-3">
      <rect id="Rectángulo_375936" data-name="Rectángulo 375936" width="224.993" height="214.223" fill="#003a38"/>
    </clipPath>
    <clipPath id="clip-path-5">
      <rect id="Rectángulo_375942" data-name="Rectángulo 375942" width="17.978" height="17.979" fill="none"/>
    </clipPath>
    <clipPath id="clip-path-8">
      <rect id="Rectángulo_375948" data-name="Rectángulo 375948" width="17.979" height="17.979" fill="none"/>
    </clipPath>
    <clipPath id="clip-path-12">
      <rect id="Rectángulo_375956" data-name="Rectángulo 375956" width="17.978" height="17.978" fill="none"/>
    </clipPath>
    <clipPath id="clip-path-15">
      <rect id="Rectángulo_375962" data-name="Rectángulo 375962" width="17.979" height="17.978" fill="none"/>
    </clipPath>
    <clipPath id="clip-path-33">
      <rect id="Rectángulo_375998" data-name="Rectángulo 375998" width="105.118" height="1.97" fill="none"/>
    </clipPath>
    <clipPath id="clip-path-36">
      <rect id="Rectángulo_376004" data-name="Rectángulo 376004" width="148.689" height="1.97" fill="none"/>
    </clipPath>
    <clipPath id="clip-path-39">
      <rect id="Rectángulo_376020" data-name="Rectángulo 376020" width="3.873" height="2.363" fill="none"/>
    </clipPath>
  </defs>
  <g id="Grupo_1017925" data-name="Grupo 1017925" transform="translate(-918.187 -2861.908)">
    <g id="Grupo_1017715" data-name="Grupo 1017715" transform="translate(108.187 -10513.092)">
      <rect id="equipo-negocios-feliz-cooperando-mientras-analiza-progreso-su-negocio-pizarra-oficina_1_" data-name="equipo-negocios-feliz-cooperando-mientras-analiza-progreso-su-negocio-pizarra-oficina (1)" width="294.813" height="230.769" rx="10" transform="translate(810 13375)" fill="#01d8d1"/>
      <path id="Sustracción_98" data-name="Sustracción 98" d="M3.812,0C2.534,0,1.253.033,0,.1V24.558c1.264-.1,2.546-.148,3.812-.148A48.8,48.8,0,0,1,52.573,73.146,49.233,49.233,0,0,1,52.093,80H76.679c.211-2.271.318-4.578.318-6.856A73.737,73.737,0,0,0,75.511,58.4a72.745,72.745,0,0,0-4.266-13.73A73.136,73.136,0,0,0,64.5,32.249,73.578,73.578,0,0,0,44.729,12.491,73.135,73.135,0,0,0,32.3,5.749,72.9,72.9,0,0,0,18.56,1.485,73.764,73.764,0,0,0,3.812,0Z" transform="translate(1104.81 13455.002) rotate(180)" fill="#01d8d1" opacity="0.4"/>
      <g id="Grupo_1014907" data-name="Grupo 1014907" transform="translate(1080.813 13384)">
        <circle id="Elipse_4752" data-name="Elipse 4752" cx="2" cy="2" r="2" fill="#01d8d1"/>
        <circle id="Elipse_4757" data-name="Elipse 4757" cx="2" cy="2" r="2" transform="translate(0 7)" fill="#01d8d1"/>
        <circle id="Elipse_4760" data-name="Elipse 4760" cx="2" cy="2" r="2" transform="translate(0 14)" fill="#01d8d1"/>
        <circle id="Elipse_4753" data-name="Elipse 4753" cx="2" cy="2" r="2" transform="translate(7)" fill="#01d8d1"/>
        <circle id="Elipse_4756" data-name="Elipse 4756" cx="2" cy="2" r="2" transform="translate(7 7)" fill="#01d8d1"/>
        <circle id="Elipse_4759" data-name="Elipse 4759" cx="2" cy="2" r="2" transform="translate(7 14)" fill="#01d8d1"/>
        <circle id="Elipse_4754" data-name="Elipse 4754" cx="2" cy="2" r="2" transform="translate(14)" fill="#01d8d1"/>
        <circle id="Elipse_4755" data-name="Elipse 4755" cx="2" cy="2" r="2" transform="translate(14 7)" fill="#01d8d1"/>
        <circle id="Elipse_4758" data-name="Elipse 4758" cx="2" cy="2" r="2" transform="translate(14 14)" fill="#01d8d1"/>
      </g>
    </g>
    <g id="Grupo_1017837" data-name="Grupo 1017837" transform="translate(949.002 2862.06)">
      <g id="Grupo_1017836" data-name="Grupo 1017836" clip-path="url(#clip-path)">
        <g id="Grupo_1017725" data-name="Grupo 1017725">
          <g id="Grupo_1017724" data-name="Grupo 1017724" clip-path="url(#clip-path-2)">
            <g id="Grupo_1017723" data-name="Grupo 1017723" opacity="0.2">
              <g id="Grupo_1017722" data-name="Grupo 1017722">
                <g id="Grupo_1017721" data-name="Grupo 1017721" clip-path="url(#clip-path-3)">
                  <path id="Trazado_719058" data-name="Trazado 719058" d="M24.872,177.194C-7.9,146.76-3.783,95.391,11.52,78.156s41.462-28.813,53.9-48.306S93.1-4.352,124.81,1.176,158.9,30.568,169.833,44.208s52.875,17,55.034,55.086-23.846,41.108-34.6,51.831-24.224,56.93-61.6,61.835c-45.8,6.011-76.071-10.01-103.8-35.767" transform="translate(0 0)" fill="#003a38"/>
                </g>
              </g>
            </g>
          </g>
        </g>
        <rect id="Rectángulo_375938" data-name="Rectángulo 375938" width="167.355" height="167.355" transform="translate(15.44 31.702)" fill="#91c4fb"/>
        <rect id="Rectángulo_375939" data-name="Rectángulo 375939" width="167.355" height="167.355" transform="translate(15.44 23.297)" fill="#e4e7ff"/>
        <path id="Trazado_719120" data-name="Trazado 719120" d="M0,0H167.355V29.14H0Z" transform="translate(15.44 23.297)" fill="#005d95"/>
        <g id="Grupo_1017835" data-name="Grupo 1017835">
          <g id="Grupo_1017834" data-name="Grupo 1017834" clip-path="url(#clip-path)">
            <path id="Trazado_719059" data-name="Trazado 719059" d="M61.916,64.115a5.374,5.374,0,1,1-5.375-5.374,5.375,5.375,0,0,1,5.375,5.374" transform="translate(-25.819 -29.641)" fill="#443dc3"/>
            <path id="Trazado_719060" data-name="Trazado 719060" d="M59.529,44.729h0a2.442,2.442,0,0,1-2.442-2.442V18.85a2.442,2.442,0,0,1,4.884,0V42.288a2.442,2.442,0,0,1-2.442,2.442" transform="translate(-28.807 -8.28)" fill="#ffee58"/>
            <path id="Trazado_719061" data-name="Trazado 719061" d="M96.432,64.115a5.374,5.374,0,1,1-5.374-5.374,5.374,5.374,0,0,1,5.374,5.374" transform="translate(-43.237 -29.641)" fill="#443dc3"/>
            <path id="Trazado_719062" data-name="Trazado 719062" d="M94.045,44.729h0A2.442,2.442,0,0,1,91.6,42.288V18.85a2.442,2.442,0,0,1,4.884,0V42.288a2.442,2.442,0,0,1-2.442,2.442" transform="translate(-46.224 -8.28)" fill="#ffee58"/>
            <path id="Trazado_719063" data-name="Trazado 719063" d="M130.948,64.115a5.374,5.374,0,1,1-5.374-5.374,5.374,5.374,0,0,1,5.374,5.374" transform="translate(-60.654 -29.641)" fill="#443dc3"/>
            <path id="Trazado_719064" data-name="Trazado 719064" d="M128.561,44.729h0a2.442,2.442,0,0,1-2.442-2.442V18.85a2.442,2.442,0,0,1,4.884,0V42.288a2.442,2.442,0,0,1-2.442,2.442" transform="translate(-63.641 -8.28)" fill="#ffee58"/>
            <path id="Trazado_719065" data-name="Trazado 719065" d="M165.464,64.115a5.374,5.374,0,1,1-5.374-5.374,5.374,5.374,0,0,1,5.374,5.374" transform="translate(-78.072 -29.641)" fill="#443dc3"/>
            <path id="Trazado_719066" data-name="Trazado 719066" d="M163.077,44.729h0a2.442,2.442,0,0,1-2.442-2.442V18.85a2.442,2.442,0,0,1,4.884,0V42.288a2.442,2.442,0,0,1-2.442,2.442" transform="translate(-81.058 -8.28)" fill="#ffee58"/>
            <path id="Trazado_719067" data-name="Trazado 719067" d="M199.98,64.115a5.374,5.374,0,1,1-5.374-5.374,5.374,5.374,0,0,1,5.374,5.374" transform="translate(-95.489 -29.641)" fill="#443dc3"/>
            <path id="Trazado_719068" data-name="Trazado 719068" d="M197.593,44.729h0a2.442,2.442,0,0,1-2.442-2.442V18.85a2.442,2.442,0,0,1,4.884,0V42.288a2.442,2.442,0,0,1-2.442,2.442" transform="translate(-98.476 -8.28)" fill="#ffee58"/>
            <path id="Trazado_719069" data-name="Trazado 719069" d="M234.5,64.115a5.374,5.374,0,1,1-5.374-5.374,5.374,5.374,0,0,1,5.374,5.374" transform="translate(-112.906 -29.641)" fill="#443dc3"/>
            <path id="Trazado_719070" data-name="Trazado 719070" d="M232.11,44.729h0a2.442,2.442,0,0,1-2.442-2.442V18.85a2.442,2.442,0,0,1,4.884,0V42.288a2.442,2.442,0,0,1-2.442,2.442" transform="translate(-115.893 -8.28)" fill="#ffee58"/>
            <path id="Trazado_719071" data-name="Trazado 719071" d="M269.012,64.115a5.374,5.374,0,1,1-5.374-5.374,5.374,5.374,0,0,1,5.374,5.374" transform="translate(-130.323 -29.641)" fill="#443dc3"/>
            <path id="Trazado_719072" data-name="Trazado 719072" d="M266.626,44.729h0a2.442,2.442,0,0,1-2.442-2.442V18.85a2.442,2.442,0,0,1,4.884,0V42.288a2.442,2.442,0,0,1-2.442,2.442" transform="translate(-133.31 -8.28)" fill="#ffee58"/>
            <path id="Trazado_719073" data-name="Trazado 719073" d="M303.529,64.115a5.374,5.374,0,1,1-5.374-5.374,5.374,5.374,0,0,1,5.374,5.374" transform="translate(-147.741 -29.641)" fill="#443dc3"/>
            <path id="Trazado_719074" data-name="Trazado 719074" d="M301.142,44.729h0a2.442,2.442,0,0,1-2.442-2.442V18.85a2.442,2.442,0,0,1,4.884,0V42.288a2.442,2.442,0,0,1-2.442,2.442" transform="translate(-150.728 -8.28)" fill="#ffee58"/>
            <path id="Trazado_719075" data-name="Trazado 719075" d="M338.045,64.115a5.374,5.374,0,1,1-5.374-5.374,5.374,5.374,0,0,1,5.374,5.374" transform="translate(-165.158 -29.641)" fill="#443dc3"/>
            <path id="Trazado_719076" data-name="Trazado 719076" d="M335.658,44.729h0a2.442,2.442,0,0,1-2.442-2.442V18.85a2.442,2.442,0,0,1,4.884,0V42.288a2.442,2.442,0,0,1-2.442,2.442" transform="translate(-168.145 -8.28)" fill="#ffee58"/>
            <g id="Grupo_1017728" data-name="Grupo 1017728" transform="translate(25.348 78.124)" style="mix-blend-mode: multiply;isolation: isolate">
              <g id="Grupo_1017727" data-name="Grupo 1017727">
                <g id="Grupo_1017726" data-name="Grupo 1017726" clip-path="url(#clip-path-5)">
                  <rect id="Rectángulo_375941" data-name="Rectángulo 375941" width="17.979" height="17.979" transform="translate(0)" fill="#e4e7ff"/>
                </g>
              </g>
            </g>
            <g id="Grupo_1017731" data-name="Grupo 1017731" transform="translate(47.133 78.124)" style="mix-blend-mode: multiply;isolation: isolate">
              <g id="Grupo_1017730" data-name="Grupo 1017730">
                <g id="Grupo_1017729" data-name="Grupo 1017729" clip-path="url(#clip-path-5)">
                  <rect id="Rectángulo_375943" data-name="Rectángulo 375943" width="17.979" height="17.979" transform="translate(0)" fill="#e4e7ff"/>
                </g>
              </g>
            </g>
            <g id="Grupo_1017734" data-name="Grupo 1017734" transform="translate(68.918 78.124)" style="mix-blend-mode: multiply;isolation: isolate">
              <g id="Grupo_1017733" data-name="Grupo 1017733">
                <g id="Grupo_1017732" data-name="Grupo 1017732" clip-path="url(#clip-path-5)">
                  <rect id="Rectángulo_375945" data-name="Rectángulo 375945" width="17.979" height="17.979" transform="translate(0)" fill="#e4e7ff"/>
                </g>
              </g>
            </g>
            <g id="Grupo_1017737" data-name="Grupo 1017737" transform="translate(90.703 78.124)" style="mix-blend-mode: multiply;isolation: isolate">
              <g id="Grupo_1017736" data-name="Grupo 1017736">
                <g id="Grupo_1017735" data-name="Grupo 1017735" clip-path="url(#clip-path-8)">
                  <rect id="Rectángulo_375947" data-name="Rectángulo 375947" width="17.979" height="17.979" fill="#e4e7ff"/>
                </g>
              </g>
            </g>
            <g id="Grupo_1017740" data-name="Grupo 1017740" transform="translate(112.488 78.124)" style="mix-blend-mode: multiply;isolation: isolate">
              <g id="Grupo_1017739" data-name="Grupo 1017739">
                <g id="Grupo_1017738" data-name="Grupo 1017738" clip-path="url(#clip-path-8)">
                  <rect id="Rectángulo_375949" data-name="Rectángulo 375949" width="17.979" height="17.979" fill="#e4e7ff"/>
                </g>
              </g>
            </g>
            <g id="Grupo_1017743" data-name="Grupo 1017743" transform="translate(134.273 78.124)" style="mix-blend-mode: multiply;isolation: isolate">
              <g id="Grupo_1017742" data-name="Grupo 1017742">
                <g id="Grupo_1017741" data-name="Grupo 1017741" clip-path="url(#clip-path-5)">
                  <rect id="Rectángulo_375951" data-name="Rectángulo 375951" width="17.979" height="17.979" transform="translate(0)" fill="#e4e7ff"/>
                </g>
              </g>
            </g>
            <g id="Grupo_1017746" data-name="Grupo 1017746" transform="translate(156.058 78.124)" style="mix-blend-mode: multiply;isolation: isolate">
              <g id="Grupo_1017745" data-name="Grupo 1017745">
                <g id="Grupo_1017744" data-name="Grupo 1017744" clip-path="url(#clip-path-5)">
                  <rect id="Rectángulo_375953" data-name="Rectángulo 375953" width="17.979" height="17.979" transform="translate(0)" fill="#e4e7ff"/>
                </g>
              </g>
            </g>
            <g id="Grupo_1017749" data-name="Grupo 1017749" transform="translate(25.348 100.106)" style="mix-blend-mode: multiply;isolation: isolate">
              <g id="Grupo_1017748" data-name="Grupo 1017748">
                <g id="Grupo_1017747" data-name="Grupo 1017747" clip-path="url(#clip-path-12)">
                  <rect id="Rectángulo_375955" data-name="Rectángulo 375955" width="17.979" height="17.979" transform="translate(0 0)" fill="#e4e7ff"/>
                </g>
              </g>
            </g>
            <g id="Grupo_1017752" data-name="Grupo 1017752" transform="translate(47.133 100.106)" style="mix-blend-mode: multiply;isolation: isolate">
              <g id="Grupo_1017751" data-name="Grupo 1017751">
                <g id="Grupo_1017750" data-name="Grupo 1017750" clip-path="url(#clip-path-12)">
                  <rect id="Rectángulo_375957" data-name="Rectángulo 375957" width="17.979" height="17.979" transform="translate(0 0)" fill="#e4e7ff"/>
                </g>
              </g>
            </g>
            <g id="Grupo_1017755" data-name="Grupo 1017755" transform="translate(68.918 100.106)" style="mix-blend-mode: multiply;isolation: isolate">
              <g id="Grupo_1017754" data-name="Grupo 1017754">
                <g id="Grupo_1017753" data-name="Grupo 1017753" clip-path="url(#clip-path-12)">
                  <rect id="Rectángulo_375959" data-name="Rectángulo 375959" width="17.979" height="17.979" transform="translate(0 0)" fill="#e4e7ff"/>
                </g>
              </g>
            </g>
            <g id="Grupo_1017758" data-name="Grupo 1017758" transform="translate(90.703 100.106)" style="mix-blend-mode: multiply;isolation: isolate">
              <g id="Grupo_1017757" data-name="Grupo 1017757">
                <g id="Grupo_1017756" data-name="Grupo 1017756" clip-path="url(#clip-path-15)">
                  <rect id="Rectángulo_375961" data-name="Rectángulo 375961" width="17.979" height="17.979" transform="translate(0 0)" fill="#e4e7ff"/>
                </g>
              </g>
            </g>
            <g id="Grupo_1017761" data-name="Grupo 1017761" transform="translate(112.488 100.106)" style="mix-blend-mode: multiply;isolation: isolate">
              <g id="Grupo_1017760" data-name="Grupo 1017760">
                <g id="Grupo_1017759" data-name="Grupo 1017759" clip-path="url(#clip-path-15)">
                  <rect id="Rectángulo_375963" data-name="Rectángulo 375963" width="17.979" height="17.979" transform="translate(0 0)" fill="#e4e7ff"/>
                </g>
              </g>
            </g>
            <g id="Grupo_1017764" data-name="Grupo 1017764" transform="translate(134.273 100.106)" style="mix-blend-mode: multiply;isolation: isolate">
              <g id="Grupo_1017763" data-name="Grupo 1017763">
                <g id="Grupo_1017762" data-name="Grupo 1017762" clip-path="url(#clip-path-12)">
                  <rect id="Rectángulo_375965" data-name="Rectángulo 375965" width="17.979" height="17.979" transform="translate(0 0)" fill="#e4e7ff"/>
                </g>
              </g>
            </g>
            <g id="Grupo_1017767" data-name="Grupo 1017767" transform="translate(156.058 100.106)" style="mix-blend-mode: multiply;isolation: isolate">
              <g id="Grupo_1017766" data-name="Grupo 1017766">
                <g id="Grupo_1017765" data-name="Grupo 1017765" clip-path="url(#clip-path-12)">
                  <rect id="Rectángulo_375967" data-name="Rectángulo 375967" width="17.979" height="17.979" transform="translate(0 0)" fill="#e4e7ff"/>
                </g>
              </g>
            </g>
            <g id="Grupo_1017770" data-name="Grupo 1017770" transform="translate(25.348 122.088)" style="mix-blend-mode: multiply;isolation: isolate">
              <g id="Grupo_1017769" data-name="Grupo 1017769">
                <g id="Grupo_1017768" data-name="Grupo 1017768" clip-path="url(#clip-path-5)">
                  <rect id="Rectángulo_375969" data-name="Rectángulo 375969" width="17.979" height="17.979" transform="translate(0)" fill="#e4e7ff"/>
                </g>
              </g>
            </g>
            <g id="Grupo_1017773" data-name="Grupo 1017773" transform="translate(47.133 122.088)" style="mix-blend-mode: multiply;isolation: isolate">
              <g id="Grupo_1017772" data-name="Grupo 1017772">
                <g id="Grupo_1017771" data-name="Grupo 1017771" clip-path="url(#clip-path-5)">
                  <rect id="Rectángulo_375971" data-name="Rectángulo 375971" width="17.979" height="17.979" transform="translate(0)" fill="#e4e7ff"/>
                </g>
              </g>
            </g>
            <g id="Grupo_1017776" data-name="Grupo 1017776" transform="translate(68.918 122.088)" style="mix-blend-mode: multiply;isolation: isolate">
              <g id="Grupo_1017775" data-name="Grupo 1017775">
                <g id="Grupo_1017774" data-name="Grupo 1017774" clip-path="url(#clip-path-5)">
                  <rect id="Rectángulo_375973" data-name="Rectángulo 375973" width="17.979" height="17.979" transform="translate(0)" fill="#e4e7ff"/>
                </g>
              </g>
            </g>
            <g id="Grupo_1017779" data-name="Grupo 1017779" transform="translate(90.703 122.088)" style="mix-blend-mode: multiply;isolation: isolate">
              <g id="Grupo_1017778" data-name="Grupo 1017778">
                <g id="Grupo_1017777" data-name="Grupo 1017777" clip-path="url(#clip-path-8)">
                  <rect id="Rectángulo_375975" data-name="Rectángulo 375975" width="17.979" height="17.979" fill="#e4e7ff"/>
                </g>
              </g>
            </g>
            <g id="Grupo_1017782" data-name="Grupo 1017782" transform="translate(112.488 122.088)" style="mix-blend-mode: multiply;isolation: isolate">
              <g id="Grupo_1017781" data-name="Grupo 1017781">
                <g id="Grupo_1017780" data-name="Grupo 1017780" clip-path="url(#clip-path-8)">
                  <rect id="Rectángulo_375977" data-name="Rectángulo 375977" width="17.979" height="17.979" fill="#e4e7ff"/>
                </g>
              </g>
            </g>
            <g id="Grupo_1017785" data-name="Grupo 1017785" transform="translate(134.273 122.088)" style="mix-blend-mode: multiply;isolation: isolate">
              <g id="Grupo_1017784" data-name="Grupo 1017784">
                <g id="Grupo_1017783" data-name="Grupo 1017783" clip-path="url(#clip-path-5)">
                  <rect id="Rectángulo_375979" data-name="Rectángulo 375979" width="17.979" height="17.979" transform="translate(0)" fill="#e4e7ff"/>
                </g>
              </g>
            </g>
            <g id="Grupo_1017788" data-name="Grupo 1017788" transform="translate(156.058 122.088)" style="mix-blend-mode: multiply;isolation: isolate">
              <g id="Grupo_1017787" data-name="Grupo 1017787">
                <g id="Grupo_1017786" data-name="Grupo 1017786" clip-path="url(#clip-path-5)">
                  <rect id="Rectángulo_375981" data-name="Rectángulo 375981" width="17.979" height="17.979" transform="translate(0)" fill="#e4e7ff"/>
                </g>
              </g>
            </g>
            <g id="Grupo_1017791" data-name="Grupo 1017791" transform="translate(25.348 144.07)" style="mix-blend-mode: multiply;isolation: isolate">
              <g id="Grupo_1017790" data-name="Grupo 1017790">
                <g id="Grupo_1017789" data-name="Grupo 1017789" clip-path="url(#clip-path-5)">
                  <rect id="Rectángulo_375983" data-name="Rectángulo 375983" width="17.979" height="17.979" transform="translate(0 0)" fill="#e4e7ff"/>
                </g>
              </g>
            </g>
            <g id="Grupo_1017794" data-name="Grupo 1017794" transform="translate(47.133 144.07)" style="mix-blend-mode: multiply;isolation: isolate">
              <g id="Grupo_1017793" data-name="Grupo 1017793">
                <g id="Grupo_1017792" data-name="Grupo 1017792" clip-path="url(#clip-path-5)">
                  <rect id="Rectángulo_375985" data-name="Rectángulo 375985" width="17.979" height="17.979" transform="translate(0 0)" fill="#e4e7ff"/>
                </g>
              </g>
            </g>
            <g id="Grupo_1017797" data-name="Grupo 1017797" transform="translate(68.918 144.07)" style="mix-blend-mode: multiply;isolation: isolate">
              <g id="Grupo_1017796" data-name="Grupo 1017796">
                <g id="Grupo_1017795" data-name="Grupo 1017795" clip-path="url(#clip-path-5)">
                  <rect id="Rectángulo_375987" data-name="Rectángulo 375987" width="17.979" height="17.979" transform="translate(0 0)" fill="#e4e7ff"/>
                </g>
              </g>
            </g>
            <g id="Grupo_1017800" data-name="Grupo 1017800" transform="translate(90.703 144.07)" style="mix-blend-mode: multiply;isolation: isolate">
              <g id="Grupo_1017799" data-name="Grupo 1017799">
                <g id="Grupo_1017798" data-name="Grupo 1017798" clip-path="url(#clip-path-8)">
                  <rect id="Rectángulo_375989" data-name="Rectángulo 375989" width="17.979" height="17.979" transform="translate(0 0)" fill="#e4e7ff"/>
                </g>
              </g>
            </g>
            <g id="Grupo_1017803" data-name="Grupo 1017803" transform="translate(112.488 144.07)" style="mix-blend-mode: multiply;isolation: isolate">
              <g id="Grupo_1017802" data-name="Grupo 1017802">
                <g id="Grupo_1017801" data-name="Grupo 1017801" clip-path="url(#clip-path-8)">
                  <rect id="Rectángulo_375991" data-name="Rectángulo 375991" width="17.979" height="17.979" transform="translate(0 0)" fill="#e4e7ff"/>
                </g>
              </g>
            </g>
            <g id="Grupo_1017806" data-name="Grupo 1017806" transform="translate(134.273 144.07)" style="mix-blend-mode: multiply;isolation: isolate">
              <g id="Grupo_1017805" data-name="Grupo 1017805">
                <g id="Grupo_1017804" data-name="Grupo 1017804" clip-path="url(#clip-path-5)">
                  <rect id="Rectángulo_375993" data-name="Rectángulo 375993" width="17.979" height="17.979" transform="translate(0 0)" fill="#e4e7ff"/>
                </g>
              </g>
            </g>
            <g id="Grupo_1017809" data-name="Grupo 1017809" transform="translate(156.058 144.07)" style="mix-blend-mode: multiply;isolation: isolate">
              <g id="Grupo_1017808" data-name="Grupo 1017808">
                <g id="Grupo_1017807" data-name="Grupo 1017807" clip-path="url(#clip-path-5)">
                  <rect id="Rectángulo_375995" data-name="Rectángulo 375995" width="17.979" height="17.979" transform="translate(0 0)" fill="#e4e7ff"/>
                </g>
              </g>
            </g>
            <g id="Grupo_1017812" data-name="Grupo 1017812" transform="translate(68.918 61.166)" style="mix-blend-mode: multiply;isolation: isolate">
              <g id="Grupo_1017811" data-name="Grupo 1017811">
                <g id="Grupo_1017810" data-name="Grupo 1017810" clip-path="url(#clip-path-33)">
                  <rect id="Rectángulo_375997" data-name="Rectángulo 375997" width="105.119" height="1.97" fill="#e4e7ff"/>
                </g>
              </g>
            </g>
            <g id="Grupo_1017815" data-name="Grupo 1017815" transform="translate(68.918 65.13)" style="mix-blend-mode: multiply;isolation: isolate">
              <g id="Grupo_1017814" data-name="Grupo 1017814">
                <g id="Grupo_1017813" data-name="Grupo 1017813" clip-path="url(#clip-path-33)">
                  <rect id="Rectángulo_375999" data-name="Rectángulo 375999" width="105.119" height="1.97" transform="translate(0 0)" fill="#e4e7ff"/>
                </g>
              </g>
            </g>
            <g id="Grupo_1017818" data-name="Grupo 1017818" transform="translate(68.918 69.095)" style="mix-blend-mode: multiply;isolation: isolate">
              <g id="Grupo_1017817" data-name="Grupo 1017817">
                <g id="Grupo_1017816" data-name="Grupo 1017816" clip-path="url(#clip-path-33)">
                  <rect id="Rectángulo_376001" data-name="Rectángulo 376001" width="105.119" height="1.97" fill="#e4e7ff"/>
                </g>
              </g>
            </g>
            <g id="Grupo_1017821" data-name="Grupo 1017821" transform="translate(25.348 169.097)" style="mix-blend-mode: multiply;isolation: isolate">
              <g id="Grupo_1017820" data-name="Grupo 1017820">
                <g id="Grupo_1017819" data-name="Grupo 1017819" clip-path="url(#clip-path-36)">
                  <rect id="Rectángulo_376003" data-name="Rectángulo 376003" width="148.689" height="1.97" transform="translate(0 0)" fill="#e4e7ff"/>
                </g>
              </g>
            </g>
            <g id="Grupo_1017824" data-name="Grupo 1017824" transform="translate(25.348 173.061)" style="mix-blend-mode: multiply;isolation: isolate">
              <g id="Grupo_1017823" data-name="Grupo 1017823">
                <g id="Grupo_1017822" data-name="Grupo 1017822" clip-path="url(#clip-path-36)">
                  <rect id="Rectángulo_376005" data-name="Rectángulo 376005" width="148.689" height="1.97" transform="translate(0)" fill="#e4e7ff"/>
                </g>
              </g>
            </g>
            <g id="Grupo_1017827" data-name="Grupo 1017827" transform="translate(25.348 177.026)" style="mix-blend-mode: multiply;isolation: isolate">
              <g id="Grupo_1017826" data-name="Grupo 1017826">
                <g id="Grupo_1017825" data-name="Grupo 1017825" clip-path="url(#clip-path-36)">
                  <rect id="Rectángulo_376007" data-name="Rectángulo 376007" width="148.689" height="1.97" transform="translate(0)" fill="#e4e7ff"/>
                </g>
              </g>
            </g>
            <rect id="Rectángulo_376009" data-name="Rectángulo 376009" width="38.529" height="9.899" transform="translate(26.582 61.166)" fill="#81c539"/>
            <line id="Línea_3296" data-name="Línea 3296" x2="167.236" transform="translate(15.44 191.964)" fill="none" stroke="#e4e7ff" stroke-miterlimit="10" stroke-width="0.5"/>
            <line id="Línea_3297" data-name="Línea 3297" x2="167.236" transform="translate(15.44 193.863)" fill="none" stroke="#e4e7ff" stroke-miterlimit="10" stroke-width="0.5"/>
            <line id="Línea_3298" data-name="Línea 3298" x2="167.236" transform="translate(15.44 195.762)" fill="none" stroke="#e4e7ff" stroke-miterlimit="10" stroke-width="0.5"/>
            <line id="Línea_3299" data-name="Línea 3299" x2="167.236" transform="translate(15.44 197.661)" fill="none" stroke="#e4e7ff" stroke-miterlimit="10" stroke-width="0.5"/>
            <path id="Trazado_719077" data-name="Trazado 719077" d="M148.527,150.509c1.721,3.16,4.617,7.734,6.465,10.876l-1.82.012q2.7-5.81,5.961-11.315a73.444,73.444,0,0,1,7.347-10.529A166.038,166.038,0,0,1,155,162.361l-1.007,1.681c-2.1-4.376-4.32-8.8-5.465-13.533" transform="translate(-74.949 -70.42)" fill="#81c539"/>
            <path id="Trazado_719078" data-name="Trazado 719078" d="M146.855,240.869c1.721,3.16,4.617,7.734,6.465,10.876l-1.82.012q2.7-5.81,5.96-11.315a73.444,73.444,0,0,1,7.347-10.529,166.037,166.037,0,0,1-11.481,22.808L152.32,254.4c-2.1-4.376-4.32-8.8-5.465-13.533" transform="translate(-74.105 -116.017)" fill="#81c539"/>
            <path id="Trazado_719079" data-name="Trazado 719079" d="M57,283.839c6.111,7.741,10.957,16.257,16.28,24.508-4.655-5.628-9.168-11.38-13.992-16.85-1.6-1.808-3.233-3.592-4.926-5.214Z" transform="translate(-27.43 -143.229)" fill="#81c539"/>
            <path id="Trazado_719080" data-name="Trazado 719080" d="M60.738,296.846A148.92,148.92,0,0,1,76.47,273.61c-2.42,3.964-4.771,7.97-6.846,12.119-2.09,4.127-3.959,8.348-5.625,12.631Z" transform="translate(-30.649 -138.067)" fill="#81c539"/>
            <path id="Trazado_719081" data-name="Trazado 719081" d="M103.03,196.807a9.342,9.342,0,0,0-8.514,1.929,12.549,12.549,0,0,0-4.154,7.867,10.266,10.266,0,0,0,.667,5.754c1.415,3.046,4.679,4.847,7.949,5.614,4.035.946,8.646.482,11.744-2.271a11.234,11.234,0,0,0,2.926-11.4,10.233,10.233,0,0,0-6.483-7.01,11.38,11.38,0,0,0-4.5-.307,14.651,14.651,0,0,0-8.881,4.048,10.59,10.59,0,0,0-3.033,9.086,10.429,10.429,0,0,0,2.446,4.935,12.02,12.02,0,0,0,19.7-13.494c-1.326-2.519-3.761-4.616-6.6-4.832-2.147-.163-4.417.719-6.4-.126" transform="translate(-45.53 -99.137)" fill="none" stroke="#32338c" stroke-miterlimit="10" stroke-width="1"/>
            <path id="Trazado_719082" data-name="Trazado 719082" d="M105.56,219.136l.66-10.58,7.7,9.279-12.644-3.988,12.644-3.886Z" transform="translate(-51.103 -105.24)" fill="#81c539"/>
            <path id="Trazado_719083" data-name="Trazado 719083" d="M113.018,240.561a30.819,30.819,0,0,0,8.348,24.592,36.7,36.7,0,0,0,23.818,10.983,44.551,44.551,0,0,0,25.466-6.025" transform="translate(-56.92 -121.39)" fill="none" stroke="#32338c" stroke-miterlimit="10" stroke-width="2"/>
            <path id="Trazado_719084" data-name="Trazado 719084" d="M213.445,297.622c2.645.511,7.992,1.2,7.992,1.2l-4,6.226" transform="translate(-107.707 -150.184)" fill="none" stroke="#32338c" stroke-miterlimit="10" stroke-width="2.363"/>
            <path id="Trazado_719085" data-name="Trazado 719085" d="M296.131,392.383h22.126l-.823-32.539,9.469,32.539h25.9c-1.3-15.347-3-32.532-4.779-43.037-3.809-22.521-12.384-27.014-12.384-27.014L304.4,321.3s-11.558,15.438-11.067,36.22c.208,8.8,1.442,22.266,2.8,34.866" transform="translate(-148.013 -162.13)" fill="#32338c"/>
            <path id="Trazado_719086" data-name="Trazado 719086" d="M290.115,270.7a29.683,29.683,0,0,0-5.6-.248,2.791,2.791,0,0,0-1.3.293,2.469,2.469,0,0,0-.973,1.876,13.128,13.128,0,0,0,.81,5.583c.122.388.253.775.385,1.163a10.118,10.118,0,0,0,3.149-1.978,12.111,12.111,0,0,0,3.531-6.688" transform="translate(-142.388 -136.453)" fill="#fe5228"/>
            <path id="Trazado_719087" data-name="Trazado 719087" d="M308.963,222.176c-.168-.682-.567-2.368-1.35-2.6-.674-.2-2.007.8-2.552,1.128a22.739,22.739,0,0,0-8.311,9.589c-2.283,4.659-3.388,9.791-4.474,14.865-.291-.049-.584-.083-.876-.123a12.116,12.116,0,0,1-3.532,6.687,10.107,10.107,0,0,1-3.148,1.978c2.389,6.963,6.483,13.67,12.99,17.024,1.071.551,2.4,1,3.435.387,1.066-.625,1.3-2.034,1.445-3.262,1.5-13.177,4.451-26.146,6.327-39.275a16.951,16.951,0,0,0,.047-6.4" transform="translate(-143.673 -110.786)" fill="#fe814b"/>
            <path id="Trazado_719088" data-name="Trazado 719088" d="M356.021,222.564l-20.232-9.149s-16.618-.147-21.072,5.011-7.991,16.508-7.991,16.508l4.442,31.924s1.743,5.48,11.14,7.831,20.1-6.8,20.1-6.8Z" transform="translate(-154.778 -107.692)" fill="#005d95"/>
            <rect id="Rectángulo_376010" data-name="Rectángulo 376010" width="20.062" height="4.82" transform="translate(191.931 162.458) rotate(-62.342)" fill="#e4e7ff"/>
            <rect id="Rectángulo_376011" data-name="Rectángulo 376011" width="20.062" height="4.82" transform="translate(196.201 164.695) rotate(-62.342)" fill="#d0cdff"/>
            <rect id="Rectángulo_376012" data-name="Rectángulo 376012" width="20.062" height="4.821" transform="matrix(0.464, -0.886, 0.886, 0.464, 200.471, 166.933)" fill="#e4e7ff"/>
            <rect id="Rectángulo_376013" data-name="Rectángulo 376013" width="20.062" height="4.82" transform="translate(204.742 169.171) rotate(-62.347)" fill="#d0cdff"/>
            <path id="Trazado_719089" data-name="Trazado 719089" d="M433.37,333.911l-11.457-6,9.312-17.77,11.457,6a6.348,6.348,0,0,1,2.676,8.569l-3.419,6.525a6.348,6.348,0,0,1-8.569,2.676" transform="translate(-212.902 -156.499)" fill="#fe814b"/>
            <path id="Trazado_719090" data-name="Trazado 719090" d="M175.448,188l-14.315-1.5,9.809,11.412c.29-.364.609-.7.88-1.082A20.022,20.022,0,0,0,175.448,188" transform="translate(-81.31 -94.107)" fill="#32338c"/>
            <path id="Trazado_719091" data-name="Trazado 719091" d="M198.145,190.858l-12.706-1.333a20.012,20.012,0,0,1-3.625,8.828c-.271.38-.59.718-.88,1.082l7.9,9.192Z" transform="translate(-91.301 -95.637)" fill="#fec5b7"/>
            <rect id="Rectángulo_376014" data-name="Rectángulo 376014" width="3.715" height="106.575" transform="translate(100.439 107.445) rotate(-62.345)" fill="#7355fc"/>
            <rect id="Rectángulo_376015" data-name="Rectángulo 376015" width="2.547" height="106.575" transform="matrix(0.464, -0.886, 0.886, 0.464, 97.532, 112.991)" fill="#7355fc"/>
            <rect id="Rectángulo_376016" data-name="Rectángulo 376016" width="3.715" height="106.574" transform="translate(98.715 110.735) rotate(-62.345)" fill="#7371fc"/>
            <rect id="Rectángulo_376017" data-name="Rectángulo 376017" width="3.715" height="106.575" transform="matrix(0.464, -0.886, 0.886, 0.464, 102.161, 104.158)" fill="#7371fc"/>
            <rect id="Rectángulo_376018" data-name="Rectángulo 376018" width="3.715" height="106.575" transform="translate(103.887 100.864) rotate(-62.345)" fill="#7355fc"/>
            <rect id="Rectángulo_376019" data-name="Rectángulo 376019" width="2.657" height="106.575" transform="translate(105.611 97.574) rotate(-62.345)" fill="#7371fc"/>
            <path id="Trazado_719092" data-name="Trazado 719092" d="M345.3,260.138l-33.288-17.443,34.219,14.94Z" transform="translate(-157.443 -122.467)" fill="#32338c"/>
            <path id="Trazado_719093" data-name="Trazado 719093" d="M318.652,139.284A9.923,9.923,0,0,1,314.9,140a4.017,4.017,0,0,1-3.253-1.756c-.9-1.51-.308-3.538.862-4.852a6.793,6.793,0,0,1-5.511-4.736,6.45,6.45,0,0,1,2.525-6.6,1.329,1.329,0,0,0,.563-.575,1.277,1.277,0,0,0-.059-.743,9.425,9.425,0,0,1,11.445-11.592,9.268,9.268,0,0,1,3.973-6.195,12.663,12.663,0,0,1,6.91-2.063,10.739,10.739,0,0,1,5.335,1.107,6.348,6.348,0,0,1,3.3,4.188c1.842-1.737,5.019-1.8,7.321-.742a9.351,9.351,0,0,1,4.557,4.31,7.244,7.244,0,0,1,.119,6.186,8.054,8.054,0,0,1,6.575,4.7,6.091,6.091,0,0,1-2,7.333,7.764,7.764,0,0,1,2.3,2.64,6.672,6.672,0,0,1,.687,3.216,8.335,8.335,0,0,1-.389,2.884,5.593,5.593,0,0,1-4.645,3.616,3.659,3.659,0,0,1-.45,2.772,6.736,6.736,0,0,1-1.982,2.129,7.112,7.112,0,0,1-2.1,1.106,5.367,5.367,0,0,1-5.917-2.183Z" transform="translate(-154.834 -50.906)" fill="#32338c"/>
            <path id="Trazado_719094" data-name="Trazado 719094" d="M357.717,211.448a8.861,8.861,0,0,1-1.093.975,13.152,13.152,0,0,1-4.528,2.071,9.19,9.19,0,0,1-3.673.353c-.136-.02-.272-.047-.408-.078a1.889,1.889,0,0,0,.21.7,2.683,2.683,0,0,0,1.96,1.077,13.563,13.563,0,0,0,6.158-.289,1.1,1.1,0,0,0,.586-.315,1.159,1.159,0,0,0,.179-.655,25.076,25.076,0,0,1,.61-3.835" transform="translate(-175.613 -106.699)" fill="#fe814b"/>
            <path id="Trazado_719095" data-name="Trazado 719095" d="M352.067,208.023a13.153,13.153,0,0,0,4.528-2.072,8.9,8.9,0,0,0,1.093-.975c.47-2.058,1.083-4.063,1.458-6.167-2.073-.77-5.8,1.013-7.463,2.225a8.751,8.751,0,0,0-3.725,6.713,3.939,3.939,0,0,0,.028.551c.135.03.271.057.408.077a9.2,9.2,0,0,0,3.673-.352" transform="translate(-175.584 -100.227)" fill="#fe5228"/>
            <path id="Trazado_719096" data-name="Trazado 719096" d="M335.142,146.838a7.621,7.621,0,0,0,4.406-6.063c.632,1.926,1.109,4.319,2.979,5.1a5.463,5.463,0,0,0,3.347.114,10,10,0,0,0,4.225-2.163c-.084,1.565-.53,4.022.381,5.3a4.865,4.865,0,0,0,1.333,1.213,8.006,8.006,0,0,0,4.743,1.27c-1.84,2.037-2.964,5.184-2.055,7.774a7.666,7.666,0,0,0,2.129,3.141c.184-.328.375-.653.548-.987a24.394,24.394,0,0,0,2.717-7.932,13.616,13.616,0,0,0-1.281-8.191c-1.864-3.491-5.49-5.743-9.258-6.953a15.267,15.267,0,0,0-5.7-.838c-2.568.181-6.155,1.161-8.044,3.066a15.67,15.67,0,0,0-2.9,4.3c-.338.71-.633,1.439-.895,2.167a6.01,6.01,0,0,0,3.33-.319" transform="translate(-167.436 -69.431)" fill="#32338c"/>
            <path id="Trazado_719097" data-name="Trazado 719097" d="M352.826,162.622c-.91-2.59.215-5.737,2.055-7.774a8.009,8.009,0,0,1-4.743-1.27,4.871,4.871,0,0,1-1.333-1.213c-.911-1.275-.465-3.731-.381-5.3a10,10,0,0,1-4.225,2.163,5.463,5.463,0,0,1-3.347-.114c-1.87-.783-2.347-3.175-2.979-5.1a7.622,7.622,0,0,1-4.406,6.063,6.01,6.01,0,0,1-3.33.319c-.3.838-.556,1.674-.758,2.482a35.14,35.14,0,0,0-.844,9.991c.148,3.656.688,7.419,2.6,10.54s5.469,5.456,9.1,5a11.2,11.2,0,0,0,3.84-1.35,27.673,27.673,0,0,0,10.477-10.57c.141-.24.269-.486.4-.729a7.666,7.666,0,0,1-2.129-3.141" transform="translate(-165.761 -72.673)" fill="#fe814b"/>
            <path id="Trazado_719098" data-name="Trazado 719098" d="M377.653,175.8a8.644,8.644,0,0,0-.834,4.5,3.822,3.822,0,0,0,1.389,3.142,2.813,2.813,0,0,0,2.538.107,5.9,5.9,0,0,0,2.068-1.6,8.206,8.206,0,0,0,1.948-3.431,4.655,4.655,0,0,0-.62-3.811,3.443,3.443,0,0,0-3.511-1.518,5.3,5.3,0,0,0-2.979,2.617" transform="translate(-190.138 -87.337)" fill="#fe814b"/>
            <path id="Trazado_719099" data-name="Trazado 719099" d="M384.763,177.972a2.012,2.012,0,0,0-3.115-.163,6.131,6.131,0,0,0-1.5,3.238l-.347-.2a1.933,1.933,0,0,1,1.651-.571c1.317.269,1.4,2.177.411,2.864a2.874,2.874,0,0,1-1.523.587,3.017,3.017,0,0,0,1.394-.731c.761-.623.674-2.138-.354-2.339-.7-.135-1.34.513-1.8.985.344-1.439.646-3.074,1.842-4.088.936-.886,2.794-.875,3.339.42" transform="translate(-191.541 -89.284)" fill="#32338c"/>
            <path id="Trazado_719100" data-name="Trazado 719100" d="M340.057,171.581c-.061.8-.529,1.424-1.045,1.386s-.886-.723-.825-1.527.529-1.425,1.045-1.386.886.723.825,1.527" transform="translate(-170.65 -85.811)" fill="#32328c"/>
            <path id="Trazado_719101" data-name="Trazado 719101" d="M361.087,174.623c-.061.8-.529,1.425-1.045,1.386s-.886-.723-.825-1.527.529-1.424,1.045-1.386.886.723.825,1.527" transform="translate(-181.262 -87.346)" fill="#32328c"/>
            <path id="Trazado_719102" data-name="Trazado 719102" d="M334.728,163.04c.685-1.82,3.858-4.162,5.208-1.729l-.065.156a10.818,10.818,0,0,1-1.378.5c-.387.123-.79-.03-1.186.044a5.844,5.844,0,0,0-2.446,1.137Z" transform="translate(-168.908 -80.873)" fill="#32338c"/>
            <path id="Trazado_719103" data-name="Trazado 719103" d="M362.769,166.37a5.849,5.849,0,0,0-2.089-1.706c-.366-.169-.794-.12-1.139-.335a10.952,10.952,0,0,1-1.212-.821l-.024-.167a1.892,1.892,0,0,1,2.476-.352,5,5,0,0,1,2.143,3.315l-.155.067" transform="translate(-180.805 -82.089)" fill="#32338c"/>
            <g id="Grupo_1017830" data-name="Grupo 1017830" transform="translate(164.172 91.024)" opacity="0.4" style="mix-blend-mode: multiply;isolation: isolate">
              <g id="Grupo_1017829" data-name="Grupo 1017829">
                <g id="Grupo_1017828" data-name="Grupo 1017828" clip-path="url(#clip-path-39)">
                  <path id="Trazado_719104" data-name="Trazado 719104" d="M335.267,185.166c-.08.639-1.01,1.048-2.076.913s-1.866-.76-1.786-1.4,1.01-1.048,2.076-.914,1.866.76,1.786,1.4" transform="translate(-331.4 -183.742)" fill="#f8ab74"/>
                </g>
              </g>
            </g>
            <g id="Grupo_1017833" data-name="Grupo 1017833" transform="translate(177.563 92.704)" opacity="0.4" style="mix-blend-mode: multiply;isolation: isolate">
              <g id="Grupo_1017832" data-name="Grupo 1017832">
                <g id="Grupo_1017831" data-name="Grupo 1017831" clip-path="url(#clip-path-39)">
                  <path id="Trazado_719105" data-name="Trazado 719105" d="M362.3,188.559c-.08.639-1.01,1.048-2.076.913s-1.866-.76-1.786-1.4,1.01-1.047,2.076-.913,1.866.76,1.786,1.4" transform="translate(-358.432 -187.135)" fill="#f8ab74"/>
                </g>
              </g>
            </g>
            <path id="Trazado_719106" data-name="Trazado 719106" d="M346.921,170.818c.1,1.67-.05,3.7-1.494,4.835a6.546,6.546,0,0,0-1.167,1.174,2.146,2.146,0,0,0,1.98,3.287,2.35,2.35,0,0,0,1.581-.45,2.672,2.672,0,0,1-2.463.588,2.392,2.392,0,0,1-1.449-3.661,6.808,6.808,0,0,1,1.264-1.227c1.4-1.076,1.588-2.906,1.747-4.546" transform="translate(-173.334 -86.197)" fill="#32338c"/>
            <path id="Trazado_719107" data-name="Trazado 719107" d="M340.363,189.882c2.2,3.531,4.576,3.729,7.772,1.2-2.634,3.239-6.327,2.842-7.772-1.2" transform="translate(-171.751 -95.817)" fill="#32338c"/>
            <path id="Trazado_719108" data-name="Trazado 719108" d="M274.912,264.437a8.1,8.1,0,0,1-.737-4.634,8.209,8.209,0,0,1,1.918-4.862c.294-.316.8-.605,1.12-.32a.9.9,0,0,1,.17.8c-.171,1.44-.543,2.85-.7,4.292a7.348,7.348,0,0,0,.608,4.24,13.674,13.674,0,0,1,1.367-6.371,4.03,4.03,0,0,1,1.263-1.4.627.627,0,0,1,.673-.088.663.663,0,0,1,.208.483,7.062,7.062,0,0,1,.024,1.392,3.223,3.223,0,0,1,.822-1.125,1.1,1.1,0,0,1,1.3-.085c.436.344.4,1,.326,1.553a1.581,1.581,0,0,1,1.609-.718,3.854,3.854,0,0,1-.016,2.677,21.633,21.633,0,0,0-.5,3.424,4.047,4.047,0,0,1-.445,2c-.225.344-.462,1.753-3.166,1.732a10.9,10.9,0,0,1-3.2-.722,4.737,4.737,0,0,1-2.655-2.258" transform="translate(-138.324 -128.426)" fill="#fe814b"/>
            <path id="Trazado_719109" data-name="Trazado 719109" d="M286.078,261.167a25.847,25.847,0,0,0-1.278,9.473,14.015,14.015,0,0,1,1.278-9.473" transform="translate(-143.551 -131.788)" fill="#32338c"/>
            <path id="Trazado_719110" data-name="Trazado 719110" d="M291.581,261.977a27.833,27.833,0,0,0-.612,8.665,13.191,13.191,0,0,1,.612-8.665" transform="translate(-146.594 -132.197)" fill="#32338c"/>
            <path id="Trazado_719111" data-name="Trazado 719111" d="M346.461,265.373c2.121-7.795,9.827-28.807,14.371-33.329,1.234-1.227,3.318-.446,4.346.957a7.792,7.792,0,0,1,1.018,5.012c-.3,6.62-2.116,13.068-3.986,19.426-2.441,8.3-14.732,23.016-16.446,22.43-6.188-2.116-24.327-30.15-24.327-30.15l7.536-1.014Z" transform="translate(-162.2 -116.784)" fill="#fe814b"/>
            <path id="Trazado_719112" data-name="Trazado 719112" d="M297.514,280.88c2.092,2.8,4.365,5.879,6.418,8.706a38.876,38.876,0,0,1-6.418-8.706" transform="translate(-150.129 -141.735)" fill="#32338c"/>
            <path id="Trazado_719113" data-name="Trazado 719113" d="M326.694,253.91l.3-8.687a1.058,1.058,0,0,0-1.329-1.06l-.336.089-1.316-1.236a1.058,1.058,0,0,0-1.018-.245l-1.065.307-1.557-1.095a1.061,1.061,0,0,0-.8-.176l-.884.159-.29-.126a1.058,1.058,0,0,0-1.483.97v5.356l2.236,6.758" transform="translate(-159.922 -121.99)" fill="#fe814b"/>
            <path id="Trazado_719114" data-name="Trazado 719114" d="M391.829,82.149h0a12.787,12.787,0,0,1,6.858-6.691l.1-.04-.416-.186a12.779,12.779,0,0,1-6.481-6.417l-.057-.129-.322.635a12.784,12.784,0,0,1-5.746,5.657l-.886.44.053.022a12.813,12.813,0,0,1,6.713,6.314Z" transform="translate(-194.212 -34.66)" fill="#ffee58"/>
            <path id="Trazado_719115" data-name="Trazado 719115" d="M413.032,97.335h0a6.394,6.394,0,0,1,3.43-3.345l.048-.02-.209-.093a6.393,6.393,0,0,1-3.24-3.209l-.029-.064-.161.318A6.393,6.393,0,0,1,410,93.75l-.443.219.027.011a6.407,6.407,0,0,1,3.357,3.157Z" transform="translate(-206.666 -45.72)" fill="#f8ab74"/>
            <path id="Trazado_719116" data-name="Trazado 719116" d="M23.807,205.24h0a12.79,12.79,0,0,1,6.859-6.691l.1-.04-.417-.186a12.785,12.785,0,0,1-6.481-6.417l-.057-.129-.322.635a12.782,12.782,0,0,1-5.747,5.657l-.887.439.054.022a12.813,12.813,0,0,1,6.714,6.314Z" transform="translate(-8.504 -96.773)" fill="#ffee58"/>
            <path id="Trazado_719117" data-name="Trazado 719117" d="M45.011,220.427h0a6.392,6.392,0,0,1,3.429-3.345l.048-.02-.208-.093a6.391,6.391,0,0,1-3.24-3.209l-.029-.064-.161.317a6.4,6.4,0,0,1-2.874,2.829l-.443.219.026.011a6.408,6.408,0,0,1,3.357,3.158Z" transform="translate(-20.958 -107.834)" fill="#f8ab74"/>
            <path id="Trazado_719118" data-name="Trazado 719118" d="M244.369,429h0a9.673,9.673,0,0,0-5.185-5.059l-.073-.03.315-.14a9.666,9.666,0,0,0,4.9-4.851l.044-.1.243.48a9.669,9.669,0,0,0,4.345,4.278l.671.332-.041.017a9.688,9.688,0,0,0-5.076,4.774Z" transform="translate(-120.658 -211.34)" fill="#ffee58"/>
            <path id="Trazado_719119" data-name="Trazado 719119" d="M233.7,440.477h0a4.835,4.835,0,0,0-2.593-2.529l-.036-.015.158-.07a4.83,4.83,0,0,0,2.45-2.425l.022-.049.121.24a4.836,4.836,0,0,0,2.172,2.139l.335.166-.02.008a4.844,4.844,0,0,0-2.538,2.387Z" transform="translate(-116.599 -219.702)" fill="#f8ab74"/>
          </g>
        </g>
      </g>
    </g>
  </g>
</svg>
