<svg id="Grupo_1017686" data-name="Grupo 1017686" xmlns="http://www.w3.org/2000/svg" xmlns:xlink="http://www.w3.org/1999/xlink" width="359.281" height="390.588" viewBox="0 0 359.281 390.588">
  <defs>
    <clipPath id="clip-path">
      <rect id="Rectángulo_375858" data-name="Rectángulo 375858" width="359.281" height="390.587" fill="none"/>
    </clipPath>
    <clipPath id="clip-path-3">
      <rect id="Rectángulo_375847" data-name="Rectángulo 375847" width="349.842" height="376.203" fill="#dfffcc"/>
    </clipPath>
    <clipPath id="clip-path-4">
      <rect id="Rectángulo_375854" data-name="Rectángulo 375854" width="0.226" height="0.112" fill="none"/>
    </clipPath>
    <clipPath id="clip-path-5">
      <rect id="Rectángulo_375855" data-name="Rectángulo 375855" width="75.399" height="26.18" fill="none"/>
    </clipPath>
  </defs>
  <g id="Grupo_1017685" data-name="Grupo 1017685" clip-path="url(#clip-path)">
    <g id="Grupo_1017684" data-name="Grupo 1017684">
      <g id="Grupo_1017683" data-name="Grupo 1017683" clip-path="url(#clip-path)">
        <g id="Grupo_1017676" data-name="Grupo 1017676" opacity="0.38">
          <g id="Grupo_1017675" data-name="Grupo 1017675">
            <g id="Grupo_1017674" data-name="Grupo 1017674" clip-path="url(#clip-path-3)">
              <path id="Trazado_718951" data-name="Trazado 718951" d="M174.573,1.792c100.05,5.379,104.353,112.96,93.6,154.916s71,51.639,80.685,120.49-53.79,97.9-98.974,98.975-80.685-25.82-88.217-59.17-29.047-49.487-66.7-55.942-105.429-57.018-93.6-122.642c0,0,2.771-69.826,68.315-116.186C113.792-8.966,174.573,1.792,174.573,1.792" transform="translate(0 0)" fill="#dfffcc"/>
            </g>
          </g>
        </g>
        <path id="Trazado_718952" data-name="Trazado 718952" d="M109.862,166.66s-2.726-34.757,7.5-57.93c4.09-5.452,6.816-3.408,6.816-3.408s1.363,14.313-2.045,27.943-5.452,40.21-5.452,40.21Z" transform="translate(-0.008 -0.008)" fill="#61a27d"/>
        <path id="Trazado_718953" data-name="Trazado 718953" d="M107.815,163.936s-.682-16.357-17.72-30.669S69.65,118.955,69.65,118.955s13.63-.681,23.171,5.453,12.949,23.171,13.631,25.9,4.771,13.631,4.771,13.631Z" transform="translate(-0.005 -0.009)" fill="#578b71"/>
        <path id="Trazado_718954" data-name="Trazado 718954" d="M118.871,166.442s3.193-16.056,22.232-27.572,22.407-10.992,22.407-10.992-13.363-2.773-23.735,1.818-16.365,20.9-17.458,23.488-6.814,12.733-6.814,12.733Z" transform="translate(-0.008 -0.009)" fill="#578b71"/>
        <path id="Trazado_718955" data-name="Trazado 718955" d="M111.224,163.934s-17.72-58.611-33.4-72.242c.681-2.044,19.083,4.09,24.535,19.083s6.815,37.484,8.86,43.618a100.4,100.4,0,0,0,4.77,11.586" transform="translate(-0.006 -0.007)" fill="#7cc97d"/>
        <path id="Trazado_718956" data-name="Trazado 718956" d="M109.862,166.662s6.815-32.032,24.535-42.936c1.363,4.089-18.4,37.483-16.357,52.477s-8.178-9.541-8.178-9.541" transform="translate(-0.008 -0.009)" fill="#7cc97d"/>
        <path id="Trazado_718957" data-name="Trazado 718957" d="M100.131,202.767H126.34c1.614-10.931,2.969-20.76,3.219-24.516a35.622,35.622,0,0,0-3.391-17.038H100.3a35.634,35.634,0,0,0-3.391,17.038c.251,3.756,1.606,13.585,3.219,24.516" transform="translate(-0.007 -0.012)" fill="#a9a7e7"/>
        <rect id="Rectángulo_375848" data-name="Rectángulo 375848" width="48.067" height="65.032" transform="translate(290.715 137.486)" fill="#ecd507"/>
        <rect id="Rectángulo_375849" data-name="Rectángulo 375849" width="48.067" height="65.032" transform="translate(285.766 137.486)" fill="#ffee58"/>
        <rect id="Rectángulo_375850" data-name="Rectángulo 375850" width="48.067" height="71.63" transform="translate(273.75 130.888)" fill="#01d8d1"/>
        <rect id="Rectángulo_375851" data-name="Rectángulo 375851" width="55.136" height="71.63" transform="translate(261.733 130.888)" fill="#81c539"/>
        <rect id="Rectángulo_375852" data-name="Rectángulo 375852" width="9.425" height="71.63" transform="translate(307.444 130.888)" fill="#5e9b1d"/>
        <path id="Trazado_718958" data-name="Trazado 718958" d="M41.663,148.807s-7.539,3.77-10.838,14.609,14.608,40.055,14.608,38.642,17.908-9.425,17.908-9.425l-8.953-32.988Z" transform="translate(-0.002 -0.011)" fill="#202f7c"/>
        <path id="Trazado_718959" data-name="Trazado 718959" d="M230.008,206.011,220.052,179.7h-24.89l9.956,26.312" transform="translate(-0.014 -0.013)" fill="#4f57a0"/>
        <path id="Trazado_718960" data-name="Trazado 718960" d="M139.689,184.913H281.206l2.475-13.275H142.164" transform="translate(-0.01 -0.013)" fill="#e2e7ff"/>
        <path id="Trazado_718961" data-name="Trazado 718961" d="M154.688,104.457l-12.524,67.176H283.681l12.235-65.621a4.242,4.242,0,0,0-4.17-5.019H158.858a4.241,4.241,0,0,0-4.17,3.464" transform="translate(-0.01 -0.007)" fill="#005d95"/>
        <path id="Trazado_718962" data-name="Trazado 718962" d="M224.4,196.521,261.865,168.6l-36.757-2.121-34.636,26.861Z" transform="translate(-0.014 -0.012)" fill="#fff"/>
        <path id="Trazado_718963" data-name="Trazado 718963" d="M213.916,187.45l9.425-5.183s9.1-3.771,9.365-3.771,1.061.883.089,2.739-3.535,2.3-3.535,2.3l-1.679,4.682,8.718-1.237,2-.472a39.191,39.191,0,0,1-2,4.36,25.753,25.753,0,0,1-3.888,2.946s-6.245,5.183-8.482,5.773-10.014.942-10.014.942l-4.948-.118-4.595.943a21.332,21.332,0,0,1-2-10.485Z" transform="translate(-0.015 -0.013)" fill="#ff8d68"/>
        <path id="Trazado_718964" data-name="Trazado 718964" d="M269.764,209.13,297.1,387.261h6.6L285.787,208.187Z" transform="translate(-0.02 -0.015)" fill="#e2e7ff"/>
        <path id="Trazado_718965" data-name="Trazado 718965" d="M325.375,209.13l27.332,178.131h6.6L341.4,208.187Z" transform="translate(-0.024 -0.015)" fill="#e2e7ff"/>
        <path id="Trazado_718966" data-name="Trazado 718966" d="M165.137,209.13,137.805,387.261h-6.6l17.907-179.074Z" transform="translate(-0.01 -0.015)" fill="#c2d3eb"/>
        <path id="Trazado_718967" data-name="Trazado 718967" d="M109.526,209.13,82.194,387.261H75.6L93.5,208.187Z" transform="translate(-0.006 -0.015)" fill="#c2d3eb"/>
        <rect id="Rectángulo_375853" data-name="Rectángulo 375853" width="245.99" height="8.482" transform="translate(99.154 207.23)" fill="#a9a7e7"/>
        <path id="Trazado_718968" data-name="Trazado 718968" d="M349.864,211.015H106.7a4.713,4.713,0,0,1,0-9.425H349.864a4.713,4.713,0,0,1,0,9.425" transform="translate(-0.007 -0.015)" fill="#ffc757"/>
        <path id="Trazado_718969" data-name="Trazado 718969" d="M114.847,369.367s1.546-3.785,8.008-3.112,7.262,1.871,8.159,5.042,3.286,6.517,4.8,7.184,7.124,4.1,11.6,4.626,5.1,3.213,4.177,4.495-17.654,3.088-21.378,2.775c0,0-12.593.369-15.6-.474s.047-19.29.233-20.535" transform="translate(-0.008 -0.027)" fill="#201360"/>
        <path id="Trazado_718970" data-name="Trazado 718970" d="M116.56,342.229l-1.94,29.539a32.937,32.937,0,0,1,8.109,4.051c5.179,3.795,9.419-.8,9.419-.8l1.168-18.586Z" transform="translate(-0.008 -0.025)" fill="#ff8d68"/>
        <path id="Trazado_718971" data-name="Trazado 718971" d="M154.062,290.191l-19.086,82s-9.9,1.414-21.912-4.242c0,0,10.6-77.048,11.309-82s28.275,0,29.689,4.242" transform="translate(-0.008 -0.021)" fill="#202f7c"/>
        <path id="Trazado_718972" data-name="Trazado 718972" d="M76.691,78.036s7.835,1.46,12.985,13,3.911,36.87,1.2,40.021-11.626,2.608-24.151-.624c-13.232-3.414-18.5-16.585-21.406-25.311C39.754,88.41,53.379,69.93,76.691,78.036" transform="translate(-0.003 -0.006)" fill="#ff8d68"/>
        <path id="Trazado_718973" data-name="Trazado 718973" d="M54.94,145.575l4.507-21.587s11.6-4.236,19.518,3.159l2.694,3.287.917,13.8a79.129,79.129,0,0,1-27.635,1.341" transform="translate(-0.004 -0.009)" fill="#ff8d68"/>
        <path id="Trazado_718974" data-name="Trazado 718974" d="M54.688,278.342a195.629,195.629,0,0,0,55.206,6.37c29.953-1.02,33.917-9.512,34.85-17.61s-22.365-13.023-32.5-15.684S67.456,238.791,58.084,248.9s-11.55,22.535-3.4,29.443" transform="translate(-0.004 -0.018)" fill="#201360"/>
        <path id="Trazado_718975" data-name="Trazado 718975" d="M184.832,369.367s1.546-3.785,8.008-3.112S200.1,368.126,201,371.3s3.286,6.517,4.8,7.184,7.124,4.1,11.6,4.626,5.1,3.213,4.177,4.495-17.654,3.088-21.378,2.775c0,0-12.593.369-15.6-.474s.047-19.29.233-20.535" transform="translate(-0.013 -0.027)" fill="#201360"/>
        <path id="Trazado_718976" data-name="Trazado 718976" d="M177.393,344.388l7.068,28.746s5.656-1.414,8.953,1.414,9.425.943,9.425.943l-5.184-22.62Z" transform="translate(-0.013 -0.025)" fill="#ff8d68"/>
        <path id="Trazado_718977" data-name="Trazado 718977" d="M118.95,248.247c1.414,0,49.48,16.022,58.906,23.091,9.425,7.539,24.505,91.539,25.447,93.424s-13.666,7.068-23.091,5.655c-.471-1.885-22.619-72.69-22.619-77.4,0,0-37.7-1.886-53.722-4.713S77.009,285,70.412,267.568s32.045-18.85,32.045-18.85Z" transform="translate(-0.005 -0.018)" fill="#202f7c"/>
        <path id="Trazado_718978" data-name="Trazado 718978" d="M201.193,186.273s9.189-.236,9.9.707,4.006,9.424.942,12.959l-2.592,1.885h-8.01Z" transform="translate(-0.015 -0.014)" fill="#e2e7ff"/>
        <path id="Trazado_718979" data-name="Trazado 718979" d="M53.329,142.443l2.474-6.362s14.845-4.595,27.568,1.06a25.284,25.284,0,0,1,4.949,8.129Z" transform="translate(-0.004 -0.01)" fill="#e2e7ff"/>
        <path id="Trazado_718980" data-name="Trazado 718980" d="M50.146,143.151s1.885-3.3,5.184-3.77,18.379-2.357,28.275.471a16.9,16.9,0,0,1,5.655,3.3s14.138,4.713,18.85,7.54,6.128,24.5,7.07,31.573-1.886,14.609-1.886,14.609S124.6,243.054,124.6,249.652s-3.769,14.138-16.965,18.851-49.009,2.827-61.262-4.713c-3.771-7.54-9.425-97.077-10.368-105.559s14.138-15.08,14.138-15.08" transform="translate(-0.003 -0.01)" fill="#202f7c"/>
        <path id="Trazado_718981" data-name="Trazado 718981" d="M100.338,148.807s3.535-2.121,12.017,3.535,31.809,26.861,34.636,28.274,57.256,4.242,57.256,4.242,7.775,9.9-.707,17.672c0,0-52.543,2.121-62.439,1.414S98.218,184.15,98.218,184.15s-13.43-19.793,2.121-35.343" transform="translate(-0.007 -0.011)" fill="#202f7c"/>
        <path id="Trazado_718982" data-name="Trazado 718982" d="M89.009,180s44.067,23.135,49.208,23.869,24.6,0,24.6,0" transform="translate(-0.007 -0.013)" fill="none" stroke="#1b2048" stroke-miterlimit="10" stroke-width="0.826"/>
        <path id="Trazado_718983" data-name="Trazado 718983" d="M148.5,185.875s1.469,8.079-3.673,12.853" transform="translate(-0.011 -0.014)" fill="none" stroke="#1b2048" stroke-miterlimit="10" stroke-width="0.826"/>
        <path id="Trazado_718984" data-name="Trazado 718984" d="M151.809,183.672s4.407,6.977,2.2,12.118" transform="translate(-0.011 -0.013)" fill="none" stroke="#1b2048" stroke-miterlimit="10" stroke-width="0.826"/>
        <path id="Trazado_718985" data-name="Trazado 718985" d="M88.642,170.816s-3.673-12.853,9.18-21.3" transform="translate(-0.006 -0.011)" fill="none" stroke="#1b2048" stroke-miterlimit="10" stroke-width="0.826"/>
        <path id="Trazado_718986" data-name="Trazado 718986" d="M41.266,158.7s-2.571,22.768-2.571,33.418" transform="translate(-0.003 -0.012)" fill="none" stroke="#1b2048" stroke-miterlimit="10" stroke-width="0.826"/>
        <path id="Trazado_718987" data-name="Trazado 718987" d="M54.487,143.641s16.893-1.469,30.847,0" transform="translate(-0.004 -0.01)" fill="none" stroke="#1b2048" stroke-miterlimit="10" stroke-width="0.826"/>
        <path id="Trazado_718988" data-name="Trazado 718988" d="M165.031,291.643s8.078-2.571,11.016-15.056" transform="translate(-0.012 -0.02)" fill="none" stroke="#1b2048" stroke-miterlimit="10" stroke-width="0.826"/>
        <path id="Trazado_718989" data-name="Trazado 718989" d="M170.539,292.745s4.774-1.469,6.977-8.079" transform="translate(-0.012 -0.021)" fill="none" stroke="#1b2048" stroke-miterlimit="10" stroke-width="0.826"/>
        <line id="Línea_3248" data-name="Línea 3248" x1="12.118" y2="60.593" transform="translate(129.031 307.046)" fill="none" stroke="#1b2048" stroke-miterlimit="10" stroke-width="0.826"/>
        <path id="Trazado_718990" data-name="Trazado 718990" d="M87.964,93.311a10.9,10.9,0,0,1-4.242,10.6l.354,7.068s2.121,6.362.707,7.068-1.767-.353-1.767-.353-4.595-7.422-6.009-7.775,3.181,9.9,3.181,9.9-4.595,7.068-13.077,8.128l1.767-2.474a17.785,17.785,0,0,1-9.9,2.121c-6.009-.354-10.6-9.543-10.6-9.543s1.06,2.474,0,3.535-7.069-8.129-7.422-19.793l-1.767,3.535A68.116,68.116,0,0,1,42.725,88.01c3.181-9.189,17.319-15.9,25.094-15.9s15.551.707,17.672,0,1.06,5.3,1.06,5.3a24.07,24.07,0,0,0,1.414-4.595c1.414-1.06,3.535,7.422,2.828,10.6L90.085,86.6s2.474-3.181,2.828-4.948c1.413-.354,1.06,7.421-4.949,11.663" transform="translate(-0.003 -0.005)" fill="#201360"/>
        <path id="Trazado_718991" data-name="Trazado 718991" d="M82.839,110.923s-1.428-4.732-5.348-2.244,1.648,13.629,4.927,12.668,1.283-8.625.421-10.424" transform="translate(-0.006 -0.008)" fill="#ff634d"/>
        <path id="Trazado_718992" data-name="Trazado 718992" d="M226.288,192.871l10.014-2,2-4.359" transform="translate(-0.017 -0.014)" fill="none" stroke="#e66657" stroke-miterlimit="10" stroke-width="1.281"/>
        <path id="Trazado_718993" data-name="Trazado 718993" d="M235.949,191.1s-5.066,4.242-5.773,4.595a40.3,40.3,0,0,1-3.888,1.178" transform="translate(-0.017 -0.014)" fill="none" stroke="#e66657" stroke-miterlimit="10" stroke-width="1.281"/>
        <path id="Trazado_718994" data-name="Trazado 718994" d="M81.252,122.886s-1.414,4.948,7.068,7.775" transform="translate(-0.006 -0.009)" fill="none" stroke="#e66657" stroke-miterlimit="10" stroke-width="1.281"/>
        <path id="Trazado_718995" data-name="Trazado 718995" d="M274.471,160.114h-75.4L208.5,111.1h75.4Z" transform="translate(-0.015 -0.008)" fill="#2e60be"/>
        <path id="Trazado_718996" data-name="Trazado 718996" d="M174.843,128.071a2.278,2.278,0,0,0,2.237,2.708h82.084a2.278,2.278,0,0,0,2.237-1.848l1.208-6.282H175.886Z" transform="translate(-0.013 -0.009)" fill="#26c6f8"/>
        <path id="Trazado_718997" data-name="Trazado 718997" d="M269.128,74.4H187.044a2.278,2.278,0,0,0-2.237,1.848l-8.921,46.394h86.723l8.756-45.534a2.278,2.278,0,0,0-2.237-2.708" transform="translate(-0.013 -0.005)" fill="#cae5ff"/>
        <path id="Trazado_718998" data-name="Trazado 718998" d="M213.01,130.814c1.081-2.981,1.748-5.112,1.748-5.112s2.476-12.941-8.552-9.621a18.149,18.149,0,0,0-5.627,8.946c-.559,1.886-1.226,3.9-1.881,5.787Z" transform="translate(-0.015 -0.008)" fill="#387ab6"/>
        <path id="Trazado_718999" data-name="Trazado 718999" d="M235.852,130.814c-.2-6.381-.6-11.5-1.288-12.876-2.026-3.714-10.3-7.089-10.3-7.089l-11.309,1.688s-4.727,1.35-6.246,4.726c-.511,1.135-1.746,6.655-3.064,13.552Z" transform="translate(-0.015 -0.008)" fill="#dce4ff"/>
        <path id="Trazado_719000" data-name="Trazado 719000" d="M214.89,103.189a43.074,43.074,0,0,1-2.188,8.75s-.41,2.871,5.606,1.641,5.2-4.239,5.2-4.239v-11.9Z" transform="translate(-0.016 -0.007)" fill="#ff8d68"/>
        <path id="Trazado_719001" data-name="Trazado 719001" d="M206.444,90.68s.068,11.31,3.314,16.759c2.216,2.292,9.77-1.308,12.949-6.171s3.116-12.178.6-16.251-10.8-2.848-13.228-1.441-3.773,5.295-3.636,7.1" transform="translate(-0.015 -0.006)" fill="#ff8d68"/>
        <path id="Trazado_719002" data-name="Trazado 719002" d="M221.708,97.071s2.133-3.287,3.56-1.33-3.515,5.96-3.893,4.437a5.429,5.429,0,0,1,.333-3.107" transform="translate(-0.016 -0.007)" fill="#fba894"/>
        <path id="Trazado_719003" data-name="Trazado 719003" d="M206.444,90.68s-3.968-3.489.818-8c2.734-2.051,4.1-.547,6.973-1.094s8.066,0,9.98,3.008,1.231,9.98.684,10.664-2.188,1.094-2.188,2.324-.274,2.188-.684,2.188-.41-2.051-.41-3.555a23.59,23.59,0,0,0-.957-6.426c-.684-2.051-3.828-1.915-5.059-1.641s-2.045,3.424-9.157,2.532" transform="translate(-0.015 -0.006)" fill="#713336"/>
        <g id="Grupo_1017679" data-name="Grupo 1017679" transform="translate(221.327 93.96)" opacity="0.53">
          <g id="Grupo_1017678" data-name="Grupo 1017678">
            <g id="Grupo_1017677" data-name="Grupo 1017677" clip-path="url(#clip-path-4)">
              <path id="Trazado_719004" data-name="Trazado 719004" d="M221.343,94.079s.089-.045.226-.1v-.011Z" transform="translate(-221.343 -93.967)" fill="#505e83"/>
            </g>
          </g>
        </g>
        <path id="Trazado_719005" data-name="Trazado 719005" d="M221.568,93.978c.026.224.742,6.771-1.858,8.6-2.7,1.8-2.813-.507-4.952-.844s-3.882-.225-4.839,1.182c-.844,1.406-.675,2.025-1.463,1.632-.168.45,1.013,3.207,2.814,3.938s6.077-1.519,7.989-3.208,3.095-2.756,3.433-4.22.168-4.276.562-6.246c.225-1.487-1.135-1.061-1.687-.832m-9.847,12.085c-2.588-.563-2.251-2.587.394-3.431,0,0,2.813-1.3,3.77.674.394,1.295-1.576,3.321-4.164,2.757" transform="translate(-0.015 -0.007)" fill="#713336"/>
        <path id="Trazado_719006" data-name="Trazado 719006" d="M223.508,108.484a13.717,13.717,0,0,1-8.693,4.642c-1.1-.422-1.688-2.448-1.688-2.448l-.844,1.267s-.422,2.532,0,3.544c.507.085,2.364-1.181,2.364-1.181s1.266,1.772,2.194,2.11,6.837-3.629,7.427-5.571a4.785,4.785,0,0,0-.76-2.363" transform="translate(-0.016 -0.008)" fill="#fff"/>
        <path id="Trazado_719007" data-name="Trazado 719007" d="M236.715,130.814c-.294-6.29-.67-11.1-1.024-12.089-1.351-3.151-6.415-7.2-11.422-7.876,0,0-1.881,8.682-3.732,19.966Z" transform="translate(-0.016 -0.008)" fill="#387ab6"/>
        <path id="Trazado_719008" data-name="Trazado 719008" d="M207.582,130.814c2.653-11.257,4.7-17.94,4.7-17.94a11.871,11.871,0,0,0-6.077,3.207c-1.008,2.016-2.574,7.805-4.191,14.733Z" transform="translate(-0.015 -0.008)" fill="#387ab6"/>
        <path id="Trazado_719009" data-name="Trazado 719009" d="M235.7,130.814c.184-6.022-.153-11.589-1.137-12.876-3.208-2.7-6.584-2.532-8.271.506-.923,1.661-2.147,7.455-3.069,12.37Z" transform="translate(-0.016 -0.008)" fill="#387ab6"/>
        <path id="Trazado_719010" data-name="Trazado 719010" d="M214.647,114.308c-.957,3.9-1.75,7.841-2.467,11.791" transform="translate(-0.016 -0.008)" fill="none" stroke="#87b8eb" stroke-miterlimit="10" stroke-width="0.359"/>
        <path id="Trazado_719011" data-name="Trazado 719011" d="M283.653,72.114c-2.337,9.372-11.829,16.971-21.2,16.971s-15.076-7.6-12.739-16.971,11.829-16.97,21.2-16.97,15.076,7.6,12.739,16.97" transform="translate(-0.018 -0.004)" fill="#81c539"/>
        <path id="Trazado_719012" data-name="Trazado 719012" d="M287.1,90.347a6.346,6.346,0,0,1-5.8,4.645,3.51,3.51,0,0,1-3.487-4.645,6.346,6.346,0,0,1,5.8-4.645,3.509,3.509,0,0,1,3.487,4.645" transform="translate(-0.02 -0.006)" fill="#81c539"/>
        <path id="Trazado_719013" data-name="Trazado 719013" d="M262.308,80.739a1.609,1.609,0,0,1-1.323-.611L256.6,74.285a2.232,2.232,0,0,1,.736-2.951,2.072,2.072,0,0,1,2.95,0l3.279,4.367,11.712-9.374a2.072,2.072,0,0,1,2.95,0,2.232,2.232,0,0,1-.735,2.951l-13.555,10.85a2.652,2.652,0,0,1-1.628.611" transform="translate(-0.019 -0.005)" fill="#fff"/>
        <path id="Trazado_719014" data-name="Trazado 719014" d="M141.976,43.824h-5.551a1.906,1.906,0,0,1-1.894-2.523l1.384-5.551a3.446,3.446,0,0,1,3.152-2.523h5.551a1.905,1.905,0,0,1,1.894,2.523L145.128,41.3a3.446,3.446,0,0,1-3.152,2.523" transform="translate(-0.01 -0.002)" fill="#01d8d1"/>
        <path id="Trazado_719015" data-name="Trazado 719015" d="M137.918,60.1h-5.551a1.906,1.906,0,0,1-1.894-2.523l1.384-5.551A3.445,3.445,0,0,1,135.01,49.5h5.551a1.905,1.905,0,0,1,1.894,2.523l-1.384,5.551A3.447,3.447,0,0,1,137.918,60.1Z" transform="translate(-0.01 -0.004)" fill="none" stroke="#a9a7e7" stroke-miterlimit="10" stroke-width="0.75"/>
        <path id="Trazado_719016" data-name="Trazado 719016" d="M155.581,60.1h-5.551a1.906,1.906,0,0,1-1.894-2.523l1.384-5.551a3.445,3.445,0,0,1,3.152-2.523h5.551a1.905,1.905,0,0,1,1.894,2.523l-1.384,5.551a3.447,3.447,0,0,1-3.152,2.523" transform="translate(-0.011 -0.004)" fill="#01d8d1"/>
        <path id="Trazado_719017" data-name="Trazado 719017" d="M173.243,60.1h-5.551a1.907,1.907,0,0,1-1.894-2.523l1.384-5.551a3.445,3.445,0,0,1,3.152-2.523h5.551a1.905,1.905,0,0,1,1.894,2.523L176.4,57.575a3.446,3.446,0,0,1-3.152,2.523" transform="translate(-0.012 -0.004)" fill="#fff"/>
        <path id="Trazado_719018" data-name="Trazado 719018" d="M133.766,76.752h-5.551a1.907,1.907,0,0,1-1.894-2.523l1.384-5.551a3.446,3.446,0,0,1,3.152-2.524h5.551a1.906,1.906,0,0,1,1.894,2.524l-1.384,5.551a3.447,3.447,0,0,1-3.152,2.523" transform="translate(-0.009 -0.005)" fill="#01d8d1"/>
        <path id="Trazado_719019" data-name="Trazado 719019" d="M129.331,94.54h-5.551a1.906,1.906,0,0,1-1.894-2.523l1.384-5.551a3.445,3.445,0,0,1,3.152-2.523h5.551a1.905,1.905,0,0,1,1.894,2.523l-1.384,5.551a3.447,3.447,0,0,1-3.152,2.523" transform="translate(-0.009 -0.006)" fill="#fff"/>
        <path id="Trazado_719020" data-name="Trazado 719020" d="M151.429,76.752h-5.552a1.906,1.906,0,0,1-1.894-2.523l1.384-5.551a3.447,3.447,0,0,1,3.152-2.524h5.552a1.906,1.906,0,0,1,1.893,2.524l-1.384,5.551a3.444,3.444,0,0,1-3.151,2.523" transform="translate(-0.011 -0.005)" fill="#edf4ff"/>
        <path id="Trazado_719021" data-name="Trazado 719021" d="M143.691,107.787h-5.551a1.906,1.906,0,0,1-1.894-2.523l1.384-5.551a3.445,3.445,0,0,1,3.152-2.523h5.551a1.905,1.905,0,0,1,1.894,2.523l-1.384,5.551A3.447,3.447,0,0,1,143.691,107.787Z" transform="translate(-0.01 -0.007)" fill="none" stroke="#a9a7e7" stroke-miterlimit="10" stroke-width="0.75"/>
        <path id="Trazado_719022" data-name="Trazado 719022" d="M310.685,86.224h-2.038a.7.7,0,0,1-.695-.926l.508-2.038a1.265,1.265,0,0,1,1.157-.926h2.038a.7.7,0,0,1,.695.926l-.508,2.038a1.264,1.264,0,0,1-1.157.926" transform="translate(-0.022 -0.006)" fill="#cae5ff"/>
        <path id="Trazado_719023" data-name="Trazado 719023" d="M309.2,92.2h-2.038a.7.7,0,0,1-.695-.926l.508-2.038a1.264,1.264,0,0,1,1.157-.926h2.038a.7.7,0,0,1,.695.926l-.508,2.038a1.264,1.264,0,0,1-1.157.926" transform="translate(-0.022 -0.006)" fill="#cae5ff"/>
        <path id="Trazado_719024" data-name="Trazado 719024" d="M315.68,92.2h-2.038a.7.7,0,0,1-.695-.926l.508-2.038a1.264,1.264,0,0,1,1.157-.926h2.038a.7.7,0,0,1,.695.926l-.508,2.038a1.264,1.264,0,0,1-1.157.926" transform="translate(-0.023 -0.006)" fill="#cae5ff"/>
        <path id="Trazado_719025" data-name="Trazado 719025" d="M322.164,92.2h-2.039a.7.7,0,0,1-.694-.926l.508-2.038a1.263,1.263,0,0,1,1.156-.926h2.038a.7.7,0,0,1,.695.926l-.508,2.038a1.262,1.262,0,0,1-1.156.926" transform="translate(-0.023 -0.006)" fill="#cae5ff"/>
        <path id="Trazado_719026" data-name="Trazado 719026" d="M307.672,98.312h-2.038a.7.7,0,0,1-.695-.926l.508-2.038a1.264,1.264,0,0,1,1.157-.926h2.038a.7.7,0,0,1,.695.926l-.508,2.038a1.264,1.264,0,0,1-1.157.926" transform="translate(-0.022 -0.007)" fill="#cae5ff"/>
        <path id="Trazado_719027" data-name="Trazado 719027" d="M306.043,104.842H304a.7.7,0,0,1-.695-.926l.508-2.038a1.264,1.264,0,0,1,1.157-.926h2.038a.7.7,0,0,1,.695.926l-.508,2.038a1.264,1.264,0,0,1-1.157.926" transform="translate(-0.022 -0.007)" fill="#cae5ff"/>
        <path id="Trazado_719028" data-name="Trazado 719028" d="M314.155,98.312h-2.038a.7.7,0,0,1-.695-.926l.508-2.038a1.264,1.264,0,0,1,1.157-.926h2.038a.7.7,0,0,1,.695.926l-.508,2.038a1.264,1.264,0,0,1-1.157.926" transform="translate(-0.023 -0.007)" fill="#cae5ff"/>
        <path id="Trazado_719029" data-name="Trazado 719029" d="M311.315,109.7h-2.038a.7.7,0,0,1-.695-.926l.508-2.038a1.264,1.264,0,0,1,1.157-.926h2.038a.7.7,0,0,1,.695.926l-.508,2.038a1.264,1.264,0,0,1-1.157.926" transform="translate(-0.023 -0.008)" fill="#cae5ff"/>
        <g id="Grupo_1017682" data-name="Grupo 1017682" transform="translate(241.94 137.243)" opacity="0.9">
          <g id="Grupo_1017681" data-name="Grupo 1017681">
            <g id="Grupo_1017680" data-name="Grupo 1017680" clip-path="url(#clip-path-5)">
              <path id="Trazado_719030" data-name="Trazado 719030" d="M310.028,163.433H243.035a1.076,1.076,0,0,1-1.042-1.347l6.254-24.028a1.076,1.076,0,0,1,1.041-.8h66.993a1.076,1.076,0,0,1,1.042,1.347l-6.255,24.028a1.074,1.074,0,0,1-1.04.8" transform="translate(-241.958 -137.253)" fill="#bfd9ff"/>
            </g>
          </g>
        </g>
        <line id="Línea_3249" data-name="Línea 3249" x2="23.311" transform="translate(252.205 142.383)" fill="none" stroke="#a9c2ff" stroke-linecap="round" stroke-linejoin="round" stroke-width="1.076"/>
        <line id="Línea_3250" data-name="Línea 3250" x2="23.311" transform="translate(250.411 153.143)" fill="none" stroke="#a9c2ff" stroke-linecap="round" stroke-linejoin="round" stroke-width="1.076"/>
        <line id="Línea_3251" data-name="Línea 3251" x2="23.311" transform="translate(260.214 149.078)" fill="none" stroke="#a9c2ff" stroke-linecap="round" stroke-linejoin="round" stroke-width="1.076"/>
        <line id="Línea_3252" data-name="Línea 3252" x2="6.993" transform="translate(251.607 145.97)" fill="none" stroke="#a9c2ff" stroke-linecap="round" stroke-linejoin="round" stroke-width="1.076"/>
        <line id="Línea_3253" data-name="Línea 3253" x2="6.993" transform="translate(250.651 149.078)" fill="none" stroke="#a9c2ff" stroke-linecap="round" stroke-linejoin="round" stroke-width="1.076"/>
        <line id="Línea_3254" data-name="Línea 3254" x2="8.308" transform="translate(279.222 142.383)" fill="none" stroke="#a9c2ff" stroke-linecap="round" stroke-linejoin="round" stroke-width="1.076"/>
        <path id="Trazado_719031" data-name="Trazado 719031" d="M283.313,158.2H270.906a.1.1,0,0,1-.092-.12l.555-2.132a.1.1,0,0,1,.093-.073h12.406a.1.1,0,0,1,.093.121l-.556,2.133A.093.093,0,0,1,283.313,158.2Z" transform="translate(-0.02 -0.011)" fill="none" stroke="#84aee5" stroke-miterlimit="10" stroke-width="0.359"/>
        <path id="Trazado_719032" data-name="Trazado 719032" d="M267.89,158.2H255.483a.1.1,0,0,1-.092-.12l.555-2.132a.1.1,0,0,1,.093-.073h12.406a.1.1,0,0,1,.093.121l-.556,2.133A.094.094,0,0,1,267.89,158.2Z" transform="translate(-0.019 -0.011)" fill="none" stroke="#84aee5" stroke-miterlimit="10" stroke-width="0.359"/>
        <path id="Trazado_719033" data-name="Trazado 719033" d="M305.12,155.107c-.636-.847-3.216-1.463-3.929-2.31a2.682,2.682,0,0,1-.277-1.921,2.628,2.628,0,0,0,.59-.475,11.422,11.422,0,0,0,.7-1.23.4.4,0,0,0,.3.124c.338-.011,1.628-1.766,1.295-2.173-.19-.232-.5-.031-.725.185.341-.782.581-1.381.581-1.381h-.013c.033-.1.063-.2.088-.3a2.808,2.808,0,0,0-2.79-3.716,5.076,5.076,0,0,0-4.642,3.716c-.025.1-.044.2-.061.3h-.013s-.059.6-.107,1.381c-.121-.216-.327-.417-.634-.185-.535.407-.121,2.162.213,2.173a.656.656,0,0,0,.359-.124,7.472,7.472,0,0,0,.084,1.23,1.493,1.493,0,0,0,.475.583,4.168,4.168,0,0,1-1.194,1.813c-1.135.847-4.023,1.463-5.081,2.31a9.814,9.814,0,0,0-1.962,3.427h17c.058-.44.318-2.665-.254-3.427" transform="translate(-0.021 -0.01)" fill="#387ab6"/>
        <path id="Trazado_719034" data-name="Trazado 719034" d="M219.184,154.864H164.212c-4.826,0-7.762-3.913-6.56-8.738s6.092-8.738,10.917-8.738h54.972c4.826,0,7.762,3.913,6.56,8.738s-6.092,8.738-10.917,8.738" transform="translate(-0.012 -0.01)" fill="#fff"/>
        <path id="Trazado_719035" data-name="Trazado 719035" d="M170.045,148.408l-2.357,1.1c-.222.1-.41-.064-.318-.282l.976-2.321a.235.235,0,0,0-.017-.237l-1.277-1.643c-.12-.155.035-.424.262-.456l2.415-.339a.372.372,0,0,0,.238-.146l1.568-2.112c.148-.2.431-.2.48,0l.516,2.112a.191.191,0,0,0,.164.146l2.246.339c.211.032.232.3.034.456l-2.095,1.643a.342.342,0,0,0-.136.237l-.181,2.321a.339.339,0,0,1-.458.282l-1.811-1.1a.267.267,0,0,0-.249,0" transform="translate(-0.012 -0.01)" fill="#ffee58"/>
        <path id="Trazado_719036" data-name="Trazado 719036" d="M181.652,148.408l-2.357,1.1c-.222.1-.41-.064-.318-.282l.977-2.321a.235.235,0,0,0-.018-.237l-1.276-1.643c-.121-.155.034-.424.261-.456l2.415-.339a.372.372,0,0,0,.238-.146l1.568-2.112c.148-.2.431-.2.48,0l.515,2.112a.2.2,0,0,0,.165.146l2.246.339c.211.032.232.3.035.456l-2.1,1.643a.342.342,0,0,0-.136.237l-.181,2.321a.339.339,0,0,1-.458.282l-1.811-1.1a.267.267,0,0,0-.249,0" transform="translate(-0.013 -0.01)" fill="#ffee58"/>
        <path id="Trazado_719037" data-name="Trazado 719037" d="M193.259,148.408l-2.357,1.1c-.222.1-.41-.064-.318-.282l.977-2.321a.235.235,0,0,0-.018-.237l-1.277-1.643c-.12-.155.035-.424.262-.456l2.415-.339a.372.372,0,0,0,.238-.146l1.568-2.112c.148-.2.431-.2.48,0l.516,2.112a.191.191,0,0,0,.164.146l2.246.339c.211.032.232.3.035.456l-2.1,1.643a.346.346,0,0,0-.136.237l-.181,2.321a.339.339,0,0,1-.458.282l-1.811-1.1a.267.267,0,0,0-.249,0" transform="translate(-0.014 -0.01)" fill="#ffee58"/>
        <path id="Trazado_719038" data-name="Trazado 719038" d="M204.866,148.408l-2.357,1.1c-.222.1-.41-.064-.318-.282l.977-2.321a.235.235,0,0,0-.018-.237l-1.277-1.643c-.12-.155.035-.424.263-.456l2.414-.339a.372.372,0,0,0,.238-.146l1.568-2.112c.148-.2.431-.2.48,0l.516,2.112a.191.191,0,0,0,.164.146l2.246.339c.211.032.232.3.035.456l-2.1,1.643a.346.346,0,0,0-.136.237l-.181,2.321a.339.339,0,0,1-.458.282l-1.811-1.1a.267.267,0,0,0-.249,0" transform="translate(-0.015 -0.01)" fill="#ffee58"/>
        <path id="Trazado_719039" data-name="Trazado 719039" d="M216.473,148.408l-2.357,1.1c-.222.1-.41-.064-.318-.282l.977-2.321a.235.235,0,0,0-.018-.237l-1.276-1.643c-.121-.155.034-.424.261-.456l2.415-.339a.372.372,0,0,0,.238-.146l1.568-2.112c.148-.2.431-.2.48,0l.516,2.112a.191.191,0,0,0,.164.146l2.246.339c.211.032.232.3.035.456l-2.1,1.643a.346.346,0,0,0-.136.237l-.181,2.321a.339.339,0,0,1-.458.282l-1.811-1.1a.267.267,0,0,0-.249,0" transform="translate(-0.016 -0.01)" fill="#c2d4d9"/>
        <path id="Trazado_719040" data-name="Trazado 719040" d="M88.549,114.812c0,3.5-2.035,6.335-4.545,6.335s-4.545-2.836-4.545-6.335,2.035-6.335,4.545-6.335,4.545,2.836,4.545,6.335" transform="translate(-0.006 -0.008)" fill="#202f7c"/>
        <path id="Trazado_719041" data-name="Trazado 719041" d="M84.694,115.362s12.669,14.047,12.669,16.25-4.131,1.929-4.131,1.929" transform="translate(-0.006 -0.008)" fill="none" stroke="#202f7c" stroke-miterlimit="10" stroke-width="1.102"/>
        <path id="Trazado_719042" data-name="Trazado 719042" d="M94.2,133.542a1.652,1.652,0,1,1-1.653-1.653,1.653,1.653,0,0,1,1.653,1.653" transform="translate(-0.007 -0.01)" fill="#202f7c"/>
        <path id="Trazado_719043" data-name="Trazado 719043" d="M62.165,297.967c4.5,7.762,18.616,13.431,35.343,13.431s30.844-5.669,35.343-13.431Z" transform="translate(-0.005 -0.022)" fill="#4f57a0"/>
        <path id="Trazado_719044" data-name="Trazado 719044" d="M157.6,258.144l-8.482,39.113h-5.184l4.713-38.171Z" transform="translate(-0.011 -0.019)" fill="#a9a7e7"/>
        <path id="Trazado_719045" data-name="Trazado 719045" d="M173.146,261.442H97.214v-9.425h68.393a7.54,7.54,0,0,1,7.539,7.54Z" transform="translate(-0.007 -0.018)" fill="#7a82cc"/>
        <path id="Trazado_719046" data-name="Trazado 719046" d="M35.066,293.011,16.688,204.625a5.656,5.656,0,0,1,5.537-6.806H83.036a7.07,7.07,0,0,1,6.922,5.631l18.621,89.561" transform="translate(-0.001 -0.014)" fill="#a9a7e7"/>
        <path id="Trazado_719047" data-name="Trazado 719047" d="M159.954,302.713H44.47a8.768,8.768,0,0,1-8.417-6.314l-.987-3.382H159.954Z" transform="translate(-0.003 -0.021)" fill="#a9a7e7"/>
        <rect id="Rectángulo_375856" data-name="Rectángulo 375856" width="9.189" height="81.997" transform="translate(93.97 307.134)" fill="#e2e7ff"/>
        <path id="Trazado_719048" data-name="Trazado 719048" d="M103.166,322.354l-9.189,7.422v-22.62h9.189Z" transform="translate(-0.007 -0.022)" fill="#4f57a0"/>
        <path id="Trazado_719049" data-name="Trazado 719049" d="M102.881,376.939H95.32L60.872,390.615h76.456Z" transform="translate(-0.004 -0.028)" fill="#e2e7ff"/>
        <line id="Línea_3255" data-name="Línea 3255" x2="54.663" transform="translate(24.786 203.852)" fill="none" stroke="#4f57a0" stroke-miterlimit="10" stroke-width="1"/>
        <line id="Línea_3256" data-name="Línea 3256" x2="9.332" y2="46.997" transform="translate(85.115 210.184)" fill="none" stroke="#4f57a0" stroke-miterlimit="10" stroke-width="1"/>
        <line id="Línea_3257" data-name="Línea 3257" x2="2" y2="13.666" transform="translate(96.114 265.514)" fill="none" stroke="#4f57a0" stroke-miterlimit="10" stroke-width="1"/>
        <path id="Trazado_719050" data-name="Trazado 719050" d="M350.96,124.865H306.945a3.7,3.7,0,0,1-3.649-4.271l.333-2.109a3.7,3.7,0,0,1,3.65-3.12h44.015a3.7,3.7,0,0,1,3.65,4.272l-.333,2.109a3.7,3.7,0,0,1-3.65,3.119" transform="translate(-0.022 -0.008)" fill="#cae5ff"/>
        <line id="Línea_3258" data-name="Línea 3258" x2="37.997" transform="translate(308.766 120.191)" fill="none" stroke="#fff" stroke-miterlimit="10" stroke-width="2"/>
        <path id="Trazado_719051" data-name="Trazado 719051" d="M190.624,70.2h-12c-5.707,0-11.316,4.626-12.529,10.332s2.43,10.333,8.136,10.333h2.6a9.585,9.585,0,0,0,9.785,6,13.241,13.241,0,0,1-1.568-6h1.177c5.707,0,11.316-4.627,12.529-10.333S196.331,70.2,190.624,70.2" transform="translate(-0.012 -0.005)" fill="#81c539"/>
        <line id="Línea_3259" data-name="Línea 3259" x2="11.332" transform="translate(173.509 78.527)" fill="none" stroke="#fff" stroke-miterlimit="10" stroke-width="2"/>
        <line id="Línea_3260" data-name="Línea 3260" x2="18.416" transform="translate(172.552 83.027)" fill="none" stroke="#fff" stroke-miterlimit="10" stroke-width="2"/>
      </g>
    </g>
  </g>
</svg>
