<svg xmlns="http://www.w3.org/2000/svg" xmlns:xlink="http://www.w3.org/1999/xlink" width="85" height="85" viewBox="0 0 85 85">
  <defs>
    <clipPath id="clip-path">
      <rect id="Rectángulo_375705" data-name="Rectángulo 375705" width="55.707" height="57.947" fill="#fff"/>
    </clipPath>
  </defs>
  <g id="Grupo_1017923" data-name="Grupo 1017923" transform="translate(-285 -2446.025)">
    <g id="Grupo_1013926" data-name="Grupo 1013926" transform="translate(0 -4252.975)">
      <path id="Trazado_605481" data-name="Trazado 605481" d="M42.5,0A42.5,42.5,0,1,1,0,42.5,42.5,42.5,0,0,1,42.5,0Z" transform="translate(285 6699)" fill="#005d95"/>
    </g>
    <g id="Grupo_1017553" data-name="Grupo 1017553" transform="translate(299.646 2459.553)">
      <g id="Grupo_1017552" data-name="Grupo 1017552" clip-path="url(#clip-path)">
        <path id="Trazado_718802" data-name="Trazado 718802" d="M34.334,45.889a22.189,22.189,0,0,1-8.622,1.645,21.378,21.378,0,0,1-10.042-2.673c-.719-.4-1.5-.812-.97-1.8.523-.973,1.287-.6,2.031-.2a18.964,18.964,0,0,0,16.768.9,3.967,3.967,0,0,0,2.251-3.344c0-3.469-.008-6.938,0-10.407a3.411,3.411,0,0,1,3.374-3.729c2.049-.026,3.453,1.487,3.47,3.748.009,1.131-.014,2.263.013,3.393.006.253-.219.659.225.75a.731.731,0,0,0,.876-.519,19.227,19.227,0,1,0-34.7,1.3c.139.266.3.521.432.792.318.653.313,1.263-.387,1.656s-1.215.073-1.59-.559A20.044,20.044,0,0,1,5.01,30.439a21.5,21.5,0,0,1,17.421-25.6c11.756-2.175,23.546,6.544,24.926,18.373A21.3,21.3,0,0,1,45.95,34.06a1.162,1.162,0,0,0,.674,1.617,1.114,1.114,0,0,0,1.473-.789,23.6,23.6,0,0,0-1.734-21.163c-.433-.747-1.123-1.481-.117-2.255.662-.51,1.334-.144,2.062,1.1a25.758,25.758,0,0,1,2.065,22.7c-.148.411-.515.78-.008,1.309a1.3,1.3,0,0,0,1.433.46,3.191,3.191,0,0,1,3.865,2.968c.077,2.939.038,5.881-.008,8.822A5.3,5.3,0,0,1,54.1,52.261a3.06,3.06,0,0,0-.777,2.255c.047,2.508-.893,3.427-3.366,3.428q-5.2,0-10.408,0c-2.091,0-3.132-1.018-3.081-3.129a13.179,13.179,0,0,0-.546-3.657c-.2-.779-.477-.872-1.209-.612a25.336,25.336,0,0,1-17.7-.1A26.016,26.016,0,0,1,20.842.546,25.572,25.572,0,0,1,39.634,3.853a5.377,5.377,0,0,1,.755.495,1.075,1.075,0,0,1,.221,1.517,1.021,1.021,0,0,1-1.388.377,6.75,6.75,0,0,1-.681-.4A23.751,23.751,0,1,0,23.2,49.613a25.315,25.315,0,0,0,10.48-1.057c1.137-.352,1.44-.844.941-1.886-.112-.234-.179-.49-.282-.782m10.489,9.79h4.751c1.5,0,1.571,0,1.477-1.443a4.01,4.01,0,0,1,1.113-3.177,3.435,3.435,0,0,0,1.191-2.132c.063-2.9.057-5.8.057-8.705A1.032,1.032,0,0,0,51.386,40c-.042.143-.034.3-.076.444a1.088,1.088,0,0,1-1.238.911,1.074,1.074,0,0,1-.983-1.179,12.767,12.767,0,0,0-.023-1.356,1.011,1.011,0,0,0-.931-.98.965.965,0,0,0-1.1.757c-.044.144-.071.293-.1.44a1.114,1.114,0,0,1-2.207-.17c-.038-.449-.008-.9-.026-1.356-.027-.645-.3-1.1-1.008-1.112-.759-.008-1.069.461-1.085,1.16-.017.716,0,1.433-.012,2.149a1.028,1.028,0,0,1-1.027,1.118,1.079,1.079,0,0,1-1.217-1.058,6.324,6.324,0,0,1-.014-.9q0-4.524,0-9.047c0-.764-.372-1.248-1.136-1.259a1.086,1.086,0,0,0-1.174,1.22c0,.264,0,.528,0,.792q0,5.654,0,11.309c0,.5.066,1.112-.41,1.333-1.557.725-1.076,1.828-.783,3.038.7,2.9,2.147,5.651,1.895,8.761-.056.688.42.673.9.671,1.734-.006,3.468,0,5.2,0" transform="translate(0 0)" fill="#fff"/>
        <path id="Trazado_718803" data-name="Trazado 718803" d="M41.777,55.731a3.868,3.868,0,0,1-2.715-1.207c-1.736-1.725-3.488-3.436-5.188-5.2a3.9,3.9,0,0,1-.051-5.577,3.964,3.964,0,0,1,5.67,0c.138.128.261.272.4.4.7.61,1.239,1.815,2.049,1.771.683-.038,1.318-1.108,1.956-1.74,1.444-1.431,2.866-2.885,4.319-4.308a3.969,3.969,0,1,1,5.617,5.585c-2.969,3-5.963,5.965-8.941,8.952a4.16,4.16,0,0,1-3.119,1.326m11.148-13.3a1.755,1.755,0,0,0-1.006-1.48,1.7,1.7,0,0,0-2.041.467q-3.434,3.432-6.87,6.862c-.879.873-1.292.867-2.179,0-.942-.921-1.853-1.873-2.8-2.788a1.742,1.742,0,0,0-2.593-.149,1.675,1.675,0,0,0,.163,2.506q2.45,2.5,4.949,4.95a1.688,1.688,0,0,0,2.75-.011c2.993-2.968,5.964-5.959,8.949-8.935a2.2,2.2,0,0,0,.68-1.424" transform="translate(-17.886 -21.081)" fill="#fff"/>
        <path id="Trazado_718804" data-name="Trazado 718804" d="M95.11,18.416a1.053,1.053,0,0,1-1.115-1.133,1.031,1.031,0,0,1,1.036-1.109,1.051,1.051,0,0,1,1.19,1.076,1.073,1.073,0,0,1-1.111,1.166" transform="translate(-51.45 -8.851)" fill="#fff"/>
        <path id="Trazado_718805" data-name="Trazado 718805" d="M24.428,89.16c-.686-.065-1.156-.425-1.161-1.118a1.026,1.026,0,0,1,1.123-1.119,1,1,0,0,1,1.09,1.026c.045.724-.386,1.081-1.052,1.211" transform="translate(-12.736 -47.579)" fill="#fff"/>
      </g>
    </g>
  </g>
</svg>
